<svg xmlns="http://www.w3.org/2000/svg" version="1.1" xmlns:xlink="http://www.w3.org/1999/xlink" xmlns:svgjs="http://svgjs.com/svgjs" width="105" height="97"><svg width="105" height="97" viewBox="0 0 105 97" fill="none" xmlns="http://www.w3.org/2000/svg">
<circle cx="22" cy="75" r="12" stroke="black" stroke-width="2"></circle>
<path d="M31.75 75.375C31.7517 77.8138 30.8361 80.1641 29.185 81.9591C28.8794 82.2919 28.3488 81.9037 28.5822 81.5175C29.4297 80.1174 29.8769 78.5116 29.875 76.875C29.8725 74.8866 29.0815 72.9804 27.6756 71.5744C26.2696 70.1685 24.3634 69.3775 22.375 69.375C20.7842 69.3767 19.2591 70.0094 18.1343 71.1343C17.0094 72.2591 16.3767 73.7842 16.375 75.375C16.3762 76.5681 16.8507 77.712 17.6944 78.5556C18.538 79.3993 19.6819 79.8738 20.875 79.875C21.6706 79.875 22.4337 79.5589 22.9963 78.9963C23.5589 78.4337 23.875 77.6706 23.875 76.875C23.8764 76.8494 23.8764 76.8237 23.875 76.7981C23.8561 76.4244 23.6982 76.0712 23.4323 75.8079C23.1664 75.5446 22.8117 75.3902 22.4378 75.375C22.239 75.3634 22.0434 75.4291 21.8919 75.5584C21.7404 75.6877 21.6447 75.8706 21.625 76.0687C21.6172 76.1719 21.6309 76.2755 21.6651 76.3731C21.6993 76.4707 21.7533 76.5601 21.8237 76.6358C21.8942 76.7115 21.9795 76.7719 22.0744 76.813C22.1692 76.8542 22.2716 76.8753 22.375 76.875C22.375 77.2728 22.217 77.6544 21.9357 77.9357C21.6544 78.217 21.2728 78.375 20.875 78.375C20.0794 78.375 19.3163 78.0589 18.7537 77.4963C18.1911 76.9337 17.875 76.1706 17.875 75.375C17.8762 74.1819 18.3507 73.038 19.1944 72.1944C20.038 71.3507 21.1819 70.8762 22.375 70.875C23.9658 70.8767 25.4909 71.5094 26.6157 72.6343C27.7406 73.7591 28.3733 75.2842 28.375 76.875C28.3725 78.8634 27.5815 80.7696 26.1756 82.1756C24.7696 83.5815 22.8634 84.3725 20.875 84.375C13.9225 84.375 12.1778 77.9484 12.25 75.1116C12.3906 69.9122 16.6506 65.7037 21.8509 65.625C23.1434 65.6067 24.4266 65.8454 25.6261 66.327C26.8256 66.8087 27.9175 67.5238 28.8384 68.4309C29.7594 69.3379 30.4909 70.4188 30.9908 71.6109C31.4906 72.8029 31.7486 74.0824 31.75 75.375Z" fill="black"></path>
<line x1="27.171" y1="93.6349" x2="88.6822" y2="2.44077" stroke="black" stroke-width="2"></line>
<line x1="3.53053" y1="68.1171" x2="100.655" y2="16.4752" stroke="black" stroke-width="2"></line>
</svg><style>@media (prefers-color-scheme: light) { :root { filter: contrast(1) brightness(0.9); } }
@media (prefers-color-scheme: dark) { :root { filter: contrast(0.3846153846153846) brightness(4.5); } }
</style></svg>