<?xml version="1.0" standalone="no"?>
<!DOCTYPE svg PUBLIC "-//W3C//DTD SVG 1.1//EN" "http://www.w3.org/Graphics/SVG/1.1/DTD/svg11.dtd" >
<svg xmlns="http://www.w3.org/2000/svg" xmlns:xlink="http://www.w3.org/1999/xlink" version="1.1">
<metadata>
Created by FontForge 20170731 at Mon Mar  2 03:53:15 2020
 By Aleksey,,,
Copyright (c) 2020 by Khurasan. All rights reserved.
</metadata>
<defs>
<font id="AsiaTiger" horiz-adv-x="234" >
  <font-face 
    font-family="Asia Tiger"
    font-weight="400"
    font-stretch="normal"
    units-per-em="1000"
    panose-1="0 0 0 0 0 0 0 0 0 0"
    ascent="800"
    descent="-200"
    x-height="376"
    cap-height="660"
    bbox="-452 -372.133 1332 971.5"
    underline-thickness="50"
    underline-position="-150"
    unicode-range="U+000D-E002"
  />
<missing-glyph horiz-adv-x="297" 
 />
    <glyph glyph-name="swash_1" unicode="swash&#x31;" horiz-adv-x="1145" 
d="M604 227q-1 7 2.5 9.5t8 3.5l9 2t6.5 5q6 -3 4.5 -7t-6.5 -7t-11.5 -5t-12.5 -1zM692 212q-1 -7 2.5 -8.5t8.5 -2.5q-6 -6 -18 -11.5t-18 1.5q5 7 9.5 13.5t15.5 7.5zM734 258q5 6 10.5 7.5t11.5 1t13.5 -1t16.5 2.5q-5 -5 -12 -9t-14.5 -6.5t-14.5 -1.5t-11 7zM609 222
q-20 -14 -41.5 -22.5t-44 -16.5t-45.5 -16.5t-44 -22.5q31 1 55 6.5t45.5 13t43 16t47.5 16.5q18 24 52.5 33t74 13t80.5 8t73 18q-5 4 -14 3t-20 -3t-21.5 -3t-17.5 3q36 4 75.5 12t78 9t72.5 -9.5t60 -42.5q-3 -5 -11.5 -8.5t-17 -6.5t-13.5 -8t0 -13q-10 1 -20 6
t-20.5 9.5t-21 5.5t-21.5 -5q-4 0 -5 2.5t-2 5.5t-2.5 5.5t-6.5 1.5q3 7 7 4t9 -4q2 6 -1 8t-4 7q-8 1 -10.5 -2.5t-10.5 -2.5q-1 -6 3 -9.5t-3 -5.5q-1 -5 2 -4t7 2.5t6 1t0 -9.5q-8 -2 -19 0.5t-21.5 4.5t-19 0.5t-12.5 -10.5q-5 2 -5.5 7t1.5 9t6.5 4.5t8.5 -5.5
q-2 3 -4 6.5t-2 8.5q-6 -3 -15.5 -3.5t-19 -0.5t-18 -1t-14.5 -5q-6 2 -2 5.5t2 9.5q-8 0 -12 -4.5l-8 -9t-8.5 -8t-12.5 -3.5q-3 7 -1 8.5t6 1.5h7.5t2.5 5q-24 0 -43 -1.5t-37 -4t-37 -6.5t-43 -8q6 -8 6.5 -11t-3.5 -4.5t-11 -2t-14 -3.5q2 -5 9 -4.5t13 -0.5
q-6 -6 -12.5 -7t-12 -2t-10 -4.5t-7.5 -13.5q-2 2 -2.5 4t-1.5 4.5t-3.5 4.5t-8.5 3q-5 -2 -4.5 -4.5t2 -5.5t2 -5.5t-4.5 -5.5q-5 1 -4.5 6t-0.5 10q-18 -5 -29.5 -12t-22 -13.5t-23.5 -12.5t-34 -9q1 5 5 6.5t9.5 2.5t10 2t6.5 5q-5 5 -11.5 5t-13.5 -2.5t-11.5 -7.5
t-4.5 -11q-7 2 -18.5 -0.5t-12.5 5.5q0 -2 -5 -6.5t-11.5 -8.5t-13.5 -6t-12 1q1 3 5 5t7 4t3 4t-5 7q-5 -1 -3.5 -3t3.5 -2q-7 -2 -19.5 -5.5t-21.5 0.5q-2 -11 1 -13.5t8 -1.5t11 3.5t11 1.5q-51 -23 -103.5 -47.5t-104 -36t-102.5 -3t-99 50.5q4 3 9.5 5t9.5 4.5t6.5 7.5
t0.5 14q34 -2 63 6.5t57 22t55.5 27.5t57.5 22q7 -15 20.5 -14t28.5 5.5t28.5 5.5t20.5 -14q30 14 63 18.5t57 13.5q8 -6 26.5 -5.5t37.5 5t34 11.5t16 15q1 5 4.5 5t7 -2.5l7 -5t6.5 -2.5zM361 113q-12 1 -19.5 -3t-13 -9.5l-10 -10t-9.5 -3.5q6 -3 12 0t12.5 8t13 10.5
t14.5 7.5z" />
    <glyph glyph-name="swash_2" unicode="swash&#x32;" horiz-adv-x="1364" 
d="M621 196q-5 1 -3.5 3t3.5 2q0 6 -5 6t-11 -0.5t-10.5 -0.5t-4.5 6q-6 -2 -20 -8t-31 -13t-35 -13t-33 -9q-17 -2 -34.5 1.5t-33.5 -1.5q-10 -2 -16 -9.5t-15 -10.5q-19 -6 -43 -11t-47 -8t-43 -3.5t-32 1.5q-5 2 -4.5 -3.5t-2.5 -6.5q-26 -11 -54.5 -12t-53.5 5.5
t-44.5 19t-27.5 28.5q45 29 102.5 46.5t120.5 36.5q-1 -3 -3.5 -4.5t-2.5 -5.5q7 1 11.5 4.5t8.5 7t9 6.5t13 3q-1 -4 -4.5 -4t-6.5 -2q34 -3 73 1.5t80.5 11t84 13.5t84.5 10q10 1 25.5 1t31.5 1.5t31 6t26 13.5q24 -6 45 -6.5t42 1.5t42.5 4t45.5 1q11 -2 9 -3t-9.5 -1.5
t-16.5 -0.5h-13q-9 0 -14.5 -4.5t-16.5 -1.5q13 -5 30 -5.5t33.5 0.5t31 3t24.5 2q0 4 -4 5t-8.5 1t-8.5 0.5t-5 4.5q33 4 57 3.5t45 -2t41.5 -2.5t47.5 1q-5 -9 -12 -10.5t-14.5 -1.5t-14 -1t-10.5 -9q31 -9 59 -11t45 6q2 -1 2 -5t0.5 -8t3 -7.5t9.5 -4.5q9 -3 12.5 -1
t5.5 6t4.5 7.5t8.5 2.5q-1 -10 5.5 -12t9.5 -9q6 1 3.5 5t-6.5 8t-6 8t4 5q7 3 8.5 0.5t1.5 -6t0.5 -7t5.5 -2.5q6 0 4 4t-5 8t-3.5 6.5t9.5 1.5q9 -6 18 -14t18.5 -17t20 -17t21.5 -13q1 -9 -1 -10t-5.5 0.5t-6.5 2.5t-3 -4q3 -6 6.5 -5.5t8 2.5t10 4t11.5 -1
q3 -4 1.5 -7.5t-3.5 -6t-2.5 -4.5t4.5 -2q-12 -5 -22.5 0.5t-21 13.5t-21 15.5t-22.5 6.5q17 -14 34 -28.5t38 -24.5q-3 -7 -3 -9.5t1.5 -4l3.5 -3.5t3 -8q-11 -1 -13 7t3 13q-22 1 -36.5 6t-28.5 11t-31 11.5t-44 8.5q-6 2 -4.5 3.5t6 2t10.5 0t9 -0.5q-3 6 -10 8.5
t-15 3.5t-15.5 2.5t-11.5 6.5q-5 0 -6.5 -3.5t-3.5 -7t-5 -5.5t-11 1q2 7 7.5 10t11.5 6.5t10 8.5t2 16q-2 -12 -13 -15.5t-18 -10.5q-5 0 -5 2t2 4.5t6 3.5t8 0q-9 0 -23 2t-28 2.5t-25.5 -2.5t-17.5 -12q-17 6 -27.5 4t-20.5 -6t-22.5 -7.5t-32.5 -0.5q-6 3 -3 3.5t9 1
t12.5 1.5t6.5 4q-11 11 -17.5 7t-18.5 -7q2 6 0 8.5t-5 4l-6 3t-4 4.5q-21 -9 -40.5 -19.5t-42.5 -15.5l15 15q1 8 -4.5 9t-11.5 -1.5t-8.5 -5.5t4.5 -2q-32 -4 -78 5q-3 -6 -0.5 -8t5.5 -2.5t5 -2t0 -7.5q-21 3 -35 4t-27 -0.5t-27 -6t-35 -13.5zM1175 222q8 -1 9 0.5
t-0.5 4t-3.5 6.5t0 9q3 1 7 1t4 4h-21q-2 -5 -1 -8t2.5 -5.5l3 -5t0.5 -6.5z" />
    <glyph glyph-name="swash_3" unicode="swash&#x33;" horiz-adv-x="1084" 
d="M280 251q0 -12 -6 -18t-14 -10.5t-15.5 -9t-10.5 -14.5q32 16 66 29.5t63 32.5q6 -4 12 -5.5t-2 -9.5q22 4 45 12t45.5 15.5t45.5 12t46 1.5q8 7 31 14.5t54.5 13.5t68.5 11t73 8t67.5 3t52.5 -3q3 0 7 5t4 6l2 -4.5t6 -8.5t9.5 -6t12.5 3q-11 -9 -19.5 -9.5t-13 0.5
t-3 -2t10.5 -16q2 4 9 9.5t15.5 9.5t16 3t10.5 -11q5 1 5 4.5t-2.5 7t-6.5 6.5t-6 3q13 -7 30.5 -19t34 -27t29 -32.5t15.5 -35.5q-4 -4 -10.5 -5.5t-12.5 -2t-11 -1t-7 -1.5q-3 4 -5 9.5t-12 11.5q-5 -1 -4.5 -6t-0.5 -10q-6 4 -14.5 9.5t-18.5 10t-20 5.5t-19 -4
q-5 1 -4 5t2.5 8.5t1 8t-9.5 3.5q-1 5 2 6.5t6.5 2.5t6 3.5t0.5 8.5q-5 0 -8 -2t-4.5 -5.5t-3 -7.5t-4.5 -6q-14 6 -25 6.5t-21 0.5t-19 2.5t-18 11.5q10 -13 -11 -10q0 -4 4 -4t7 -2q-2 -3 -8.5 -3.5t-14 1t-13 5t-5.5 8.5q-9 -5 -11 -21q-39 4 -71 1.5t-61 -9.5t-57.5 -16
t-59.5 -17q-23 -6 -52 -16t-59 -21.5t-59 -21.5t-53 -14q-8 -7 -33 -18.5t-56.5 -24t-65 -23.5t-57.5 -17q-6 -2 -13.5 -5t-15 -4.5t-16.5 0t-18 9.5q-2 12 -2 13t2 13q-4 -3 -5.5 -7.5t-9.5 -3.5q-3 8 -6 15.5t-4 16.5q38 26 71.5 44.5t65.5 34l64 31t68 35.5zM1047 231
q-2 -13 4 -9.5t7 9.5q-7 -2 -9 1.5t-2.5 8t-2 8t-7.5 2.5q0 -8 -5 -15q3 -1 6.5 -1t3.5 -4q-9 -8 -3.5 -8t8.5 8z" />
    <glyph glyph-name=".notdef" horiz-adv-x="297" 
 />
    <glyph glyph-name=".null" horiz-adv-x="0" 
 />
    <glyph glyph-name="nonmarkingreturn" unicode="&#xd;" horiz-adv-x="297" 
 />
    <glyph glyph-name="NULL" horiz-adv-x="0" 
 />
    <glyph glyph-name="NULL" horiz-adv-x="0" 
 />
    <glyph glyph-name="space" unicode=" " horiz-adv-x="297" 
 />
    <glyph glyph-name="exclam" unicode="!" horiz-adv-x="362" 
d="M387 526q9 -3 9 -5.5t-4 -5t-10 -5.5t-9 -7q-4 -6 -6 -16.5t-4.5 -19.5t-7.5 -13.5t-14 1.5q1 -14 -4.5 -26.5t-13.5 -24.5t-16.5 -24t-12.5 -25h-20t-14 5q3 -4 3 -6t-1 -3.5t-0.5 -3.5t3.5 -6q6 -2 7 1.5t2 8.5q6 -7 3.5 -10t-7.5 -5t-9 -5t-1 -10q-5 2 -4.5 8.5
t-0.5 11.5q-3 -17 -11.5 -29t-16.5 -24q-4 1 -4 5.5t-1 8.5q-6 -8 -16 -12.5t-20.5 -9t-19 -11t-10.5 -18.5q-10 0 -12.5 5t-1.5 12t3 15t1 15q-8 2 -8.5 -3.5t-0.5 -10.5q-5 2 -5.5 6t0.5 9t3 10t2 8q5 -1 4.5 -5.5t0.5 -9.5q6 0 8.5 5t4 10t3.5 7.5t7 -3.5q9 30 18.5 58.5
t29.5 46.5q-2 18 4 29t13 21t11.5 20t-0.5 25q9 29 26 54t35 48t33 47t20 52q13 5 18.5 16.5t13.5 20.5q49 -12 81 -37q1 -15 2.5 -30.5t1 -28.5t-4.5 -21.5t-13 -10.5q-4 -11 -10 -26t-14 -30t-18.5 -28.5t-24.5 -20.5zM298 374q-5 1 -10 10q6 -1 11.5 0.5t-1.5 3.5
q-7 1 -10 -2t-9 -2q0 2 -2 3t-3 -3q3 0 6.5 -3.5t6.5 -7t5.5 -4.5t5.5 5zM86 -11q-15 16 -29.5 18.5t-42.5 4.5q-14 19 -15.5 41.5t4.5 44.5t16 43t19 37q34 -2 64.5 -15.5t44.5 -45.5q-3 -20 -7.5 -33.5t-9.5 -25.5t-11 -24.5t-10 -30.5q-7 -3 -13 -2.5t-9.5 0.5t-4 -2
t3.5 -10z" />
    <glyph glyph-name="quotedbl" unicode="&#x22;" horiz-adv-x="465" 
d="M173 599q0 47 19 92.5t40 81.5q7 -2 11.5 -0.5t7.5 3.5t6 4.5t8 2.5q14 -2 23 -10t17 -16q-11 -24 -28 -43.5t-35.5 -37.5t-37 -36.5t-31.5 -40.5zM292 599q0 47 19 92.5t40 81.5q7 -2 11.5 -0.5t7.5 3.5t6 4.5t8 2.5q14 -2 23 -10t17 -16q-11 -24 -28 -43.5t-35.5 -37.5
t-37 -36.5t-31.5 -40.5z" />
    <glyph glyph-name="numbersign" unicode="#" horiz-adv-x="563" 
d="M71 176q-8 3 -15.5 3h-15.5t-15.5 2.5t-15.5 10.5q31 7 52 17.5t35.5 26t26 36.5t25.5 50q-28 8 -59 14t-55 21q13 7 30.5 10t37 4t39.5 0.5t39 0.5q21 26 39 56t38 58q21 -1 48 -3.5t45 -16.5q-9 -29 -25.5 -48t-30.5 -41q9 -7 19 -9t20.5 -2t21 -0.5t20.5 -4.5
q11 18 27 33.5t34.5 23t38.5 4.5t40 -23q-32 -42 -64.5 -81.5t-58.5 -84.5q8 -8 23.5 -8.5t32 -2t30.5 -7t17 -23.5q-21 4 -33 3.5t-24 -3t-27 -6t-41 -4.5q-14 -17 -23.5 -37.5t-19 -42t-19 -41t-23 -33.5t-31.5 -20.5t-43 -1.5q-5 17 -6 40t2.5 46t12 44.5t23.5 35.5
q-3 4 -8.5 5t-12.5 0.5t-14.5 -1.5t-13.5 0q-13 -15 -23 -34t-18 -39.5t-14 -41t-11 -39.5q0 2 -5 3t-9 2t-5.5 2.5t4.5 3.5q-28 -8 -45 6t-23 38t0 51.5t26 47.5zM274 223q16 29 37.5 53.5t38.5 55.5q-56 11 -88.5 -19t-50.5 -85h33t30 -5z" />
    <glyph glyph-name="dollar" unicode="$" horiz-adv-x="509" 
d="M-18 145q6 6 11.5 18.5t12 26.5t15 26t20.5 17q4 -7 0.5 -12.5t-8.5 -12t-8.5 -15t1.5 -20.5q9 -18 26 -24t35 -6t34.5 1.5t24.5 -2.5q-3 1 -2.5 -7.5t2.5 -7.5q-1 0 1.5 3t6.5 7t7.5 8t3.5 6q11 22 23 50.5t25.5 57.5t27.5 57t30 48q-23 8 -50.5 17t-51 21t-38.5 28.5
t-13 39.5q0 6 7 16t17 21.5t20 22.5t18 18q12 11 30 23t37.5 22.5t38.5 18.5t33 11q25 5 50.5 3.5t45.5 -3.5q20 20 34 46t30 50q7 0 21 3t29 3t27.5 -4.5t16.5 -19.5q-20 -5 -34.5 -17t-26.5 -25.5t-24.5 -27.5t-28.5 -24q17 -8 36.5 -13t39.5 -10.5t38.5 -12.5t33.5 -18
q-5 -5 -5 -10t1.5 -9.5t3 -10t0.5 -12.5q-24 -17 -63 -23q-17 21 -37.5 39t-43.5 35q-30 -8 -49.5 -26t-34.5 -40.5t-27.5 -47.5t-28.5 -47q43 -19 76.5 -43.5t49.5 -68.5q-3 -48 -24 -86t-52.5 -67t-70.5 -49t-80 -33q-7 -1 -7.5 -8t-0.5 -14.5t-2.5 -12.5t-13.5 -2
q5 -5 9.5 -9t1.5 -15q-13 1 -15 -10q-2 3 -6.5 5t-7.5 4t-4 4.5t4 6.5q-7 -2 -8 -4.5t1 -5t5.5 -5t5.5 -5.5q1 -9 -2 -14t-6.5 -10.5t-5.5 -12t0 -17.5q-5 1 -7 4t-8 5q-5 -6 -0.5 -13t0.5 -20q-11 17 -14.5 35.5t-4 38t0.5 39.5t0 40q-10 5 -25 9t-30 9t-26.5 12.5
t-14.5 19.5q7 -10 11 -10.5t7 1t5.5 1.5t4.5 -10q7 0 8.5 6t10.5 3q-2 -5 -4.5 -9t-4.5 -9q3 2 5.5 3.5t3.5 -3.5q7 8 3 15t-12 12q0 -3 -2 -5.5t-4 -2t-3.5 4.5t-0.5 13q-6 -5 -8.5 -7.5t-1.5 13.5q-4 2 -7.5 0t-5.5 -3.5t-3.5 -1.5t-1.5 5q-5 0 -5.5 -3.5t-0.5 -8t-1 -7.5
t-8 0q-1 10 -1 13.5v5.5t0.5 5.5t0.5 12.5q-7 -5 -9 -15q1 2 -1.5 7.5t-6.5 9t-7.5 2t-4.5 -13.5q4 2 5.5 6t8.5 4q-5 -5 -4.5 -8t3 -6t5 -6.5t2.5 -8.5q-10 2 -15.5 6t-8.5 9t-5 9.5t-6 7.5zM294 405q6 15 15 30l18 30t16 29.5t10 26.5q-14 -14 -32 -24t-35 -21
t-31.5 -24.5t-22.5 -32.5q17 -2 33 -5.5t29 -8.5zM310 358q-6 -21 -17 -41.5t-21.5 -40.5t-19 -40t-10.5 -40q5 9 17 21.5t25 27t25.5 29.5t18.5 30t2.5 29t-20.5 25z" />
    <glyph glyph-name="percent" unicode="%" horiz-adv-x="455" 
d="M104 291q32 46 76 88t91.5 83l95 82t86.5 86q-24 -9 -53.5 -14t-59.5 -6.5t-58.5 1t-49.5 10.5q-11 -15 -22.5 -32.5t-26 -30.5t-34 -17.5t-45.5 8.5q-3 -4 -7.5 -6t-8 -4.5t-6 -6t-1.5 -10.5q-20 15 -26 41t0 53t21.5 50t38.5 32q36 -21 83.5 -34.5t100 -17.5t107.5 3
t106 27q21 -1 43 -5.5t40 -15.5v-25q-44 -25 -79 -57t-67.5 -66.5t-65.5 -68.5t-73 -62q-2 -25 -15 -45.5t-29 -40.5t-31.5 -41.5t-21.5 -47.5q-22 -8 -31 -24t-9 -36q-6 0 -12 0.5t-7 -4.5q-7 5 -5.5 7.5t6 3.5t9.5 1t5 1q-6 6 -11 4t-10 -6t-9.5 -6.5t-8.5 3.5q0 -5 4 -7
t8.5 -3t8.5 -3t3 -8q-5 -5 -12 -4t-4 12q-3 -1 -4.5 -5.5t-0.5 -9t3.5 -8t5.5 -2.5q-9 -14 -18 -29t-9 -36q-3 -4 -8.5 -3t-10 1.5t-7 -2t0.5 -13.5q-11 -5 -21.5 -6.5t-19.5 -3t-16.5 -5.5t-11.5 -15q-13 6 -18.5 18t-7 25.5t0.5 27.5t5 26q6 -2 6 -5t-1.5 -7t-4 -8.5
t-0.5 -8.5q4 1 5 4t2.5 5.5t4 4t8.5 0.5q-5 30 8 60t34 59t46 56.5t45 51.5q-1 5 -9.5 4t-10.5 3q-7 0 -10.5 -2.5t-6.5 -6t-5.5 -7t-7.5 -4.5zM45 120q0 -2 -0.5 -4.5t-3.5 -0.5q-2 4 -1 8t-4 4q-1 -12 -4 -18t4 -10q0 3 3 6l6 6t3.5 5t-3.5 4zM74 42q-8 -1 -14.5 -3.5
t-3.5 -13.5q7 -2 9.5 -0.5t4 5t2 7t2.5 5.5zM368 157q-1 -17 -6.5 -29t-12.5 -24t-12.5 -24.5t-6.5 -28.5q-20 14 -46 14.5t-52 -10.5q-12 30 -3.5 58t29.5 45t50.5 19t59.5 -20z" />
    <glyph glyph-name="ampersand" unicode="&#x26;" horiz-adv-x="524" 
d="M380 110q12 -14 21.5 -29l19 -30t20.5 -29t25 -26q-4 -16 -11 -30.5t-17 -25t-22 -16.5t-26 -4q-20 3 -31 18.5t-19.5 35t-17 37.5t-23.5 25q-18 -8 -39.5 -16t-44.5 -13.5t-47.5 -6t-48.5 7.5q-4 2 -14.5 7t-33.5 2q-40 16 -56.5 40.5t-17 53t12.5 59t33 58.5t44 50.5
t46 36.5q-4 70 15 138.5t58.5 123t99 90.5t136.5 42q10 -3 25.5 -4t31.5 -2.5t31.5 -5t26.5 -10.5q14 -43 2.5 -80.5t-39.5 -70.5t-67.5 -62t-80.5 -56t-79 -52.5t-63 -50.5q3 -11 12 -23.5t18 -24.5t14 -23t0 -18q34 -21 48 -62q25 24 46.5 51.5t42.5 55t44 54t51 48.5
q-2 -8 -3 -12.5t-2.5 -8.5l-3 -8t-2.5 -12q4 0 4.5 1.5t2.5 3.5q-6 -31 -21 -59.5t-33 -55.5t-36.5 -54.5t-31.5 -57.5zM149 44q17 -2 29 1.5t22 8.5t19 10.5t20 9.5q-8 20 -19.5 37t-23.5 33t-23 32.5t-20 34.5q-20 -9 -31.5 -31.5t-13 -48t8 -50t32.5 -37.5zM317 449
q24 19 53.5 45.5t55.5 56t45.5 61.5t23.5 62q-42 10 -79 1.5t-68 -29.5t-55 -52t-40.5 -67t-25 -73.5t-6.5 -71.5q7 11 18.5 18.5t24 15t26.5 15t27 18.5z" />
    <glyph glyph-name="quotesingle" unicode="'" horiz-adv-x="351" 
d="M173 599q0 47 19 92.5t40 81.5q7 -2 11.5 -0.5t7.5 3.5t6 4.5t8 2.5q14 -2 23 -10t17 -16q-11 -24 -28 -43.5t-35.5 -37.5t-37 -36.5t-31.5 -40.5z" />
    <glyph glyph-name="parenleft" unicode="(" horiz-adv-x="282" 
d="M3 221q0 4 2 4.5t4.5 -2t3.5 -6t-1 -6.5q6 1 5 7.5t6 6.5q-3 5 -11.5 3.5t-13.5 7.5q2 94 30.5 172.5t71.5 147.5t95 132t102 126q7 -4 10 -3t5 3.5t5 5.5t9 4q16 -6 33.5 -11t32.5 -11.5t26.5 -17t16.5 -27.5q-20 -20 -44.5 -39t-48.5 -38q-8 -36 -40 -51
q-19 -35 -39 -68t-39.5 -66.5t-36.5 -69t-30 -75.5q-3 -2 -4.5 -4.5t-2 -4t-2.5 -1.5t-7 4q4 -12 3 -25.5t-5 -23.5t-9 -15.5t-9 -2.5q3 -14 2 -27.5t-4 -27t-7.5 -27t-7.5 -26.5q3 4 4 7t1.5 5t1.5 5t5 8q2 -8 4.5 -19.5t4 -23.5t2 -22.5t-1.5 -16.5q9 -12 21 -27.5
t24 -33.5t23.5 -37t19.5 -37q-11 -3 -14 3.5t-11 8.5q0 -12 7 -16.5t13 -9.5q-45 9 -78.5 32.5t-58 57.5t-41 77t-27.5 91zM90 211q-2 -22 14 -21q3 10 -0.5 16t-13.5 5zM33 241q-1 5 -1 10t-5 6q1 -9 -2 -8.5t-6.5 3.5t-4.5 3.5t4 -9.5q-5 -1 -8 -4.5t2 -5.5q2 3 4 3h4h5
t8 2zM33 365q3 -6 7.5 -4t8 6t4 6.5t-3.5 -2.5q-9 -8 -9.5 -2t4.5 12q-11 -5 -16.5 -14.5t-8.5 -22.5t-4.5 -27.5t-2.5 -28.5q6 -2 10.5 0.5t7.5 6.5t2.5 8t-5.5 5q1 -3 0 -6.5t-3 -5.5t-4 -2t-2 5q2 14 8 27.5t7 38.5z" />
    <glyph glyph-name="parenright" unicode=")" horiz-adv-x="419" 
d="M430 566q0 -5 -2 -5t-4.5 2.5t-3.5 6t1 6.5q-6 -1 -5 -7.5t-6 -6.5q3 -5 11.5 -3.5t13.5 -7.5q-2 -95 -30.5 -173.5t-71.5 -147.5t-95.5 -131.5t-101.5 -125.5q-7 4 -10 3t-5.5 -3.5t-5 -5.5t-8.5 -4q-16 6 -33.5 11t-32.5 11.5t-26.5 17t-16.5 27.5q20 20 44.5 39
t48.5 38q8 36 40 51q19 34 39 67t39.5 67t36.5 69.5t30 75.5q3 1 4.5 4t2 4.5t2.5 1.5t7 -4q-4 12 -3 25.5t5 23.5t9 15.5t9 2.5q-7 28 2 54.5t15 53.5q-6 -9 -5.5 -12t-6.5 -13q-2 8 -4.5 19.5t-4 23.5t-2 22.5t1.5 16.5q-9 12 -21 27.5t-24 33.5t-23.5 37t-19.5 37
q11 3 14 -3.5t11 -8.5q0 12 -7 16.5t-13 9.5q45 -9 78.5 -32.5t58 -57.5t41 -77t27.5 -91zM343 576q2 22 -14 21q-3 -10 0.5 -16t13.5 -5zM400 546q1 -5 1 -10t5 -6q-2 9 1.5 8.5t7 -3.5t4.5 -3.5t-4 9.5q5 1 8 4.5t-2 5.5q-5 -5 -8 -3t-13 -2zM400 422q-3 6 -7.5 4t-8 -6
t-4 -6.5t3.5 2.5q9 8 9.5 2t-4.5 -12q10 4 16 14t9 22.5t4 27.5t3 29q-6 2 -10.5 -0.5t-7.5 -6.5t-2.5 -8t5.5 -5q-2 3 -0.5 6.5t3.5 5.5t4 2t2 -5q-2 -14 -8 -27.5t-7 -38.5z" />
    <glyph glyph-name="asterisk" unicode="*" horiz-adv-x="349" 
d="M20 645q10 8 18.5 13.5t17 9.5t18.5 7t23 6q-2 9 -7.5 14.5t-11 10.5t-9.5 12t-4 19q9 4 14.5 7t11 4.5t11.5 2t17 -1.5q4 -14 12.5 -21.5t12.5 -21.5q13 14 23 28.5t12 38.5q7 0 11 -0.5t6.5 -1t5.5 -0.5t9 2q-2 -15 0 -33.5t-5 -27.5q5 -2 13.5 -0.5t19 3.5t22 3
t23.5 -1q-2 -17 -13 -24t-26 -10.5t-30 -6t-24 -11.5q3 -14 9.5 -24l13 -20t12 -21.5t6.5 -27.5q-14 4 -19 -1.5t-7 -14.5q-14 14 -29 27.5t-22 35.5q-17 -6 -27 -22t-19.5 -32t-20 -28.5t-27.5 -10.5q-3 16 1.5 30.5t11.5 28.5t15 27.5t14 27.5q-12 0 -24.5 -3t-24 -4
t-20.5 1t-14 11z" />
    <glyph glyph-name="plus" unicode="+" horiz-adv-x="375" 
d="M7 304q15 20 42 23.5t57 2.5q12 19 26 39.5t32.5 34.5t41 19t51.5 -6q-10 -25 -25 -43.5t-26 -39.5q15 0 29.5 2.5t28 4.5t25 1t20.5 -8q-8 -13 -22 -18.5t-30.5 -8t-33.5 -3.5t-31 -5q-13 -20 -24 -42.5t-23.5 -42.5t-29 -35.5t-40.5 -20.5q-12 8 -13.5 24t2.5 35.5
t11.5 40t15.5 35.5q-9 3 -21 2.5l-24 -1t-22.5 1t-16.5 8.5z" />
    <glyph glyph-name="comma" unicode="," horiz-adv-x="225" 
d="M81 171q11 -5 17 -3.5t12 5.5t13 7t20 1q10 -27 5 -57t-21 -57.5t-40.5 -48.5t-52.5 -28q-2 23 5.5 43.5t16.5 42t17 44.5t8 51z" />
    <glyph glyph-name="hyphen" unicode="-" horiz-adv-x="275" 
d="M18 262v10q10 13 35 20.5t55.5 10.5t61 1.5t53.5 -5.5q-9 -18 -34.5 -24.5t-56.5 -8t-62 -1t-52 -3.5z" />
    <glyph glyph-name="period" unicode="." horiz-adv-x="195" 
d="M31 93q14 1 24 4.5t19 5.5t19.5 1.5t25.5 -6.5q2 -30 1 -48.5t-8 -29t-21 -16t-38 -9.5q-12 13 -16.5 21.5t-5 18.5t0 23t-0.5 35z" />
    <glyph glyph-name="slash" unicode="/" horiz-adv-x="332" 
d="M53 -13q3 -11 -4.5 -12t-11.5 -5q2 -6 5.5 -4.5t7 4t6 3t2.5 -7.5q6 3 5 6.5t-3.5 7.5t-5.5 8.5t-1 9.5q-3 -2 -6.5 -3.5t-4.5 3.5q-9 -2 -12 -10.5t-4.5 -16.5t-2.5 -13.5t-7 -1.5q0 -5 3.5 -7t7 -3.5t5.5 -5t0 -10.5q-4 0 -4 3.5t-1 6.5q-14 -16 -29.5 -16.5t-26.5 10
t-15.5 29t4.5 40.5q4 -9 7 -18.5t7 -17.5t10 -14t17 -8q-7 4 -9.5 8.5t-3 9t-2 9t-6.5 9.5q0 6 2.5 5t4.5 -2.5t3.5 -0.5t0.5 10q10 -9 7.5 -19.5t2.5 -17.5q5 2 7.5 5.5t7.5 4.5q-8 -2 -10 2t-0.5 10t3.5 13t2 12q0 2 -7 4.5t-8 0.5q2 7 11.5 6t14.5 4q5 6 3 17t2 19
q11 28 29 50.5t28 38.5q0 4 -3.5 4t-6.5 1q13 17 25 34.5t21 35.5t13.5 37.5t2.5 42.5q-5 -7 -8 -12t-3.5 -10t-0.5 -12t1 -18q-9 -1 -13 -8t-7.5 -15t-8.5 -14t-17 -5q17 20 25.5 38t15.5 40q-3 6 -4.5 4.5t-3 -5.5t-4.5 -8t-8 -1q9 18 22 36t25 36.5t22 37t14 35.5
q-10 -5 -16.5 -13t-13 -16.5t-14 -17t-19.5 -15.5q37 52 70.5 108t65.5 113.5t63.5 115.5t64.5 114q13 2 30.5 2t31 -6.5t19.5 -22.5t-3 -46q-6 -20 -11.5 -39.5t-8.5 -33.5q-8 -27 -25 -57.5t-36.5 -62.5t-38 -63.5t-30.5 -59.5q-5 -13 -4 -28t-6 -29q-6 -12 -15 -25
t-18 -24t-17.5 -19t-12.5 -10q1 -7 2 -12t0.5 -8t-4.5 -4t-13 -1q7 -7 5.5 -12t-5.5 -11t-8 -14t-2 -21q-5 1 -11.5 -2t-10.5 -6.5t-3.5 -7t9.5 -4.5q-4 -10 -7 -9.5t-6 5t-6 11t-6 8.5q5 14 13 15t7 -10q6 6 6 10.5t-1 9.5t-1 11.5t6 15.5q-3 -2 -5.5 -7t-4.5 2
q-1 -2 -3.5 -8.5t-7 -12.5t-11 -8.5t-15.5 4.5q0 3 3 4.5t6 2t5.5 2t2.5 6.5q-8 0 -11.5 -1t-6 -1.5t-5.5 0t-9 2.5v-22q4 1 4 5t1 7q3 -14 -3.5 -25t-17 -21t-23 -18.5t-23.5 -18.5q8 -7 7.5 -13.5t-5 -12.5t-11.5 -11.5t-12 -10.5q1 -2 5 -1.5t8.5 2t8 3t4.5 1.5
q-2 -5 -11.5 -16.5t-20 -25t-17.5 -27t-3 -23.5q-5 2 -7.5 5.5t-8.5 4.5q1 -11 9 -12.5t16.5 0t14 1.5t2.5 -9q6 9 10.5 23.5t11 29t16 27t24.5 17.5q-3 6 -4.5 9.5t-2 6.5t1 6.5t5.5 9.5q6 -21 11 -38t-6 -35q-16 -3 -15 10q-3 -5 -6.5 -11.5t-5 -12.5t-0.5 -11t7 -6
q-11 -11 -23 -20.5t-13 -31.5q7 -1 10 4t4.5 10.5t4.5 9.5t12 3q-6 -6 -9 -15t-7 -17h-26q7 -10 7 -12t-3.5 -1.5t-9 0t-10.5 -7.5q-7 3 -10.5 11.5t-3 17t6.5 14.5t18 5zM120 84q0 -5 -4.5 -5.5t-5.5 -4.5q5 1 5.5 -2.5t-0.5 -8t-0.5 -8t5.5 -2.5q1 1 3 6t3 10t-0.5 9.5
t-5.5 5.5zM130 142q17 -1 16 15q6 1 8 0t3.5 -3.5t3.5 -4.5t6 -2q-8 -8 -15.5 -16t-10.5 -20q10 -1 13.5 4.5t7.5 10.5q6 1 3 -3t-8.5 -10t-11 -14t-4.5 -15q-8 6 -8 12.5t1.5 14t2 15t-6.5 16.5zM94 111q-4 1 -3 3t3 2q-5 6 -4 9.5t3 6.5t3.5 5t-2.5 5q3 7 5.5 5.5t4.5 -5
t4.5 -5t6.5 4.5q6 -2 2.5 -4t-7.5 -1q5 -5 3.5 -8t-3.5 2q-5 -1 -8 -5t3 -5q-2 -4 -6 -4.5t-5 -5.5zM167 193q-4 -1 -4.5 -6.5t0 -9t2.5 -3.5t2 9q5 -3 4 -7.5t-5.5 -8t-11.5 -5.5t-13 0q-3 7 0 12t7 8.5t6.5 5.5t-3.5 5q2 6 5.5 2t10.5 -2z" />
    <glyph glyph-name="zero" unicode="0" horiz-adv-x="364" 
d="M52 398q6 -2 5.5 -4.5t-3 -5.5t-4 -7.5t1.5 -8.5q14 65 40.5 120.5t56.5 115.5q31 8 62 -1t52 -23q12 15 18.5 34.5t17.5 36.5q21 -1 38.5 -1.5t33 -2.5t28.5 -8t24 -18q-2 -22 -2.5 -47.5t-3 -51t-9 -49.5t-20.5 -42q-2 -14 0 -23.5t4 -18.5q-3 -4 -5 -4t-4 1.5t-5 4
t-7 3.5q11 -17 6 -31t-13.5 -27.5t-15.5 -28.5t-1 -33q-17 -14 -27.5 -32t-19 -36.5t-18 -35.5t-24.5 -29v-41q-15 -13 -24.5 -27t-21 -26.5t-27 -22t-41.5 -12.5q-24 13 -49 21.5t-47 18.5t-37.5 25.5t-20.5 42.5q-5 28 2.5 57.5t19.5 59.5l24 60t16 60q0 4 -2.5 2.5
t-5.5 -5.5t-5.5 -9t-2.5 -9q-5 0 -2.5 6t6.5 15t8 19t4 18zM325 382q0 -5 1.5 -8t3.5 2q3 21 12 47.5t18 55t16 56.5t7 53q-6 14 -18 18.5t-27 2.5t-31 -10.5t-28 -19.5q-1 -6 1 -9.5t5 -6t4.5 -5.5t-1.5 -10q-6 -2 -9 -5.5t-6.5 -7t-8 -6.5t-11.5 -3q-26 -42 -54 -91.5
t-49 -103t-30.5 -110t-0.5 -113.5q64 64 118 133t88 141z" />
    <glyph glyph-name="one" unicode="1" horiz-adv-x="220" 
d="M11 346q30 53 70 96.5t81.5 85.5t81.5 85t72 95q15 -4 32.5 -6t32.5 -6.5t26 -13.5t14 -26q-25 -8 -43 -23t-32.5 -34t-26 -40.5t-23.5 -42.5q-18 -16 -31.5 -35t-20.5 -45q-17 -18 -29 -40.5t-23 -45.5t-23 -45.5t-29 -38.5q-11 -41 -24 -69t-33 -54q2 -7 12 -2.5
t8 12.5q2 -13 -2.5 -28.5t-10.5 -31.5t-10.5 -31t-1.5 -27l-12 -1.5t-6.5 -2t-4.5 -5t-5 -10.5q-10 1 -17 4.5t-13 8.5t-11 10.5t-12 8.5q-3 55 9.5 97.5t29.5 87.5q5 15 9.5 25.5t8 20.5t5 21.5t0.5 26.5q-6 -8 -9.5 -6t-8.5 7t-11.5 11t-18.5 7z" />
    <glyph glyph-name="two" unicode="2" horiz-adv-x="503" 
d="M17 57q9 6 9 11t-2.5 10t-4 10.5t3.5 11.5q-5 0 -8 -3.5t-3 -7.5t3 -7.5t8 -3.5q-6 -7 -10 -3.5t-5 11t0 16t4 11.5q7 -5 12.5 1.5t10.5 17.5t9.5 24t9.5 20q8 10 18.5 16.5t20 13t16 14.5t6.5 22q7 1 9 -1.5t7 -3.5v27q13 7 28 22.5t31.5 35t35 41t39.5 40.5q8 7 18 15
t19.5 17t18 19t12.5 21q1 4 -1.5 4.5t-5.5 -1t-6 -4.5l-4 -4q8 13 21 28.5t27.5 31.5t29 32.5t26.5 32.5q-73 -38 -129.5 -90t-112.5 -107q-24 3 -46.5 8.5t-45.5 16.5q0 6 -1 10.5t-6 5.5q35 51 88.5 91t107.5 69q22 12 49 25.5t56 22t59 7t58 -19.5q33 -21 38 -47.5
t-8 -55.5t-38.5 -59.5t-53 -59t-52.5 -54t-36 -43.5q-5 -5 -7 -3.5t-7 3.5q-8 -22 -21.5 -38t-29 -30l-31 -28t-26.5 -32h10q-1 -5 -4.5 -5.5t-6.5 1.5t-5 6t0 8q-6 -3 -5.5 -5.5t3.5 -5.5t6 -6.5t2 -8.5q-14 -9 -23.5 -20t-18.5 -23q33 7 63.5 13.5t62 11t64 5.5t68.5 -3
q-2 -12 1.5 -17t3.5 -14q-13 3 -27 -3t-27.5 -12t-25 -7t-19.5 11q-8 -1 -8 -6.5t8 -6.5q-48 -9 -91 -29.5t-85 -40t-84.5 -31.5t-89.5 -4q-4 8 -8 15.5t-12 9.5q10 6 11 13.5t-1.5 17t-5.5 21.5t0 28q9 0 12.5 -6t3.5 -13t-3 -14t-8 -10q6 0 8.5 -1.5t4 -2t3 0t5.5 3.5
q1 8 -2.5 10.5t-2.5 10.5q5 1 6.5 -2t2.5 -7t1.5 -8t4.5 -4zM70 145q-7 2 -5 10q11 -1 18.5 1t11.5 10q-3 0 -5 2t-3.5 4t-4 3.5t-7.5 0.5q-7 -8 -12.5 -18.5t-14.5 -18.5q9 5 13.5 2.5t8.5 3.5z" />
    <glyph glyph-name="three" unicode="3" horiz-adv-x="529" 
d="M-14 94q9 1 8.5 4.5t-5.5 8.5t-12 10t-10 9q34 -2 79 -5t89 -3q16 13 37.5 20.5t42 15.5t36 20.5t18.5 36.5l46 36t33 47q-37 -3 -67 -13t-47 -32q-11 2 -13.5 13.5t-4.5 23.5q-18 -2 -31.5 16t-24.5 35q25 17 58 39t67.5 47t67 52t56.5 54q-7 9 -1 17t17 16.5t22.5 17
t15.5 19.5q-2 5 -5 5.5t-6.5 -1t-7 -3.5t-7.5 -1q-21 -22 -60 -43t-82 -46q-10 -6 -20.5 -15.5t-20.5 -19t-19.5 -17.5t-18.5 -9q-30 -6 -60 10.5t-45 42.5q31 32 69.5 57t81.5 46.5t89 40t93 37.5q40 5 72.5 -8t51.5 -37t20 -55.5t-22 -63.5h-23q-2 -6 1.5 -7.5t8.5 -1.5
q-17 -23 -40 -40.5t-47 -33.5t-46.5 -33t-40.5 -38q-8 6 -9.5 7t-1.5 -1.5v-8t-4 -11.5q24 -1 39 -11t25.5 -23.5t19 -29.5t19.5 -29q-3 -26 -16.5 -53t-32.5 -50q-11 -13 -28 -28t-37 -29.5t-41.5 -27.5t-41.5 -22t-36 -13t-25 -1q-2 -9 -19.5 -14t-35.5 -4.5t-29 6t1 16.5
q-4 -1 -6.5 -3t-4 -3.5t-3.5 -1.5t-6 4q2 -16 6.5 -16t13.5 -3q-12 -4 -26 -0.5t-25.5 11t-18.5 17.5t-5 19q-8 -3 -16 0.5t-16 9.5t-16.5 12.5t-16.5 9.5zM102 100q-2 10 -6 10t-8.5 -2t-9.5 -3t-11 7q-1 -4 -1 -7.5t-5 -4.5l-3.5 7t-6.5 5v-18q10 0 15.5 2t9.5 3.5t9.5 2
t16.5 -1.5zM71 53q0 4 5 4v10q-11 0 -15 9q5 -1 8.5 -3.5t6.5 3.5q-5 0 -7 3t-8 1q-1 -2 -2 -6t-1.5 -8t0 -5.5t3.5 1.5q4 5 5 4t1.5 -4t1 -6.5t2.5 -2.5zM102 29q-2 12 -7 11.5t-14 -2.5q1 -14 5.5 -12.5t15.5 3.5z" />
    <glyph glyph-name="four" unicode="4" horiz-adv-x="482" 
d="M42 204q-8 7 -13.5 5.5t-8.5 -7t-3 -13t2 -11.5q-5 6 -12 10t-13.5 8.5t-12 9.5t-8.5 13q8 0 14 5t11.5 9.5t11 6.5t13.5 -3q0 9 -1 14t-1 9t2.5 6.5t8.5 5.5q-1 4 -3.5 4t-5.5 -2.5t-6 -5.5t-5 -4q-6 1 -5.5 3t3 3.5t6 3t3.5 3.5q-3 5 -5.5 5t-5.5 -2.5t-5.5 -5
t-4.5 -2.5q1 -5 4 -8t5.5 -6t3 -7t-3.5 -10q-18 23 -9 43.5t29 40t42.5 38t32.5 37.5q-3 3 -7.5 1t-9 -6t-9.5 -8t-8 -5q17 28 42.5 55t54 54t57.5 54t53 55q0 5 -3 7.5t-3 10.5q4 0 7.5 -1.5t5.5 -2t4 1t4 6.5q-7 3 -1 11t16 18t20.5 21.5t12.5 22.5q12 -7 27.5 -13
t29 -13.5t23 -18.5t10.5 -28q0 -20 -14 -41t-35 -43t-44.5 -43.5t-40.5 -40.5q-35 -38 -60.5 -74t-47.5 -56q-1 -5 -8 -5.5t-7 5.5q2 -8 -5 -16.5t-15 -16.5q43 9 86.5 21.5t81.5 15.5q16 18 26.5 42.5t26.5 43.5q-11 2 -15.5 -3.5t-8.5 -10.5q6 22 20 43.5t30 42.5t32 41
t27 40q0 4 -3.5 4t-6.5 1q20 25 42.5 49t42.5 50q12 -7 28 -11.5t30 -9.5q-10 -44 -29 -84t-40.5 -76t-41.5 -69.5t-32 -65.5q-12 -2 -15.5 -5t-5.5 -6t-5.5 -7t-13.5 -9q0 -3 3 -3.5t6.5 1l7 3t4.5 3.5q3 -2 1.5 -5t-4.5 -7t-6 -9t-2 -10q-5 -5 -7 -3.5t-7 3.5
q-1 -21 -9 -43t-26 -39q-4 -1 -5.5 0.5t-2.5 3t-2.5 3t-4.5 1.5q-6 -2 -4 -5.5t4.5 -6.5t3 -4t-8.5 4q-2 0 -1 -5.5t3 -11t4.5 -8t4.5 4.5q8 0 4.5 -7.5t-4.5 -9.5q-5 -1 -6.5 0.5t-2.5 3.5t-2.5 4t-4.5 2q-4 -4 -3.5 -8t-11.5 -6q0 -5 3 -6.5t6 -2.5t5.5 -2.5t0.5 -7.5
q-5 5 -7 0.5t-4 -10.5t-7 -10t-16 2q10 -8 11.5 -10.5t-1.5 -16.5q-14 2 -17.5 -4.5t-11.5 -8.5q2 -4 3 -6.5t1 -7.5q7 3 7 5t-2 4t-2.5 5.5t6.5 8.5q4 -9 8.5 -7.5t8.5 6t8.5 7.5t9.5 -2q0 -8 -9.5 -8t-14.5 -5q3 -5 4 -7t-4 -3q1 -4 5.5 -3.5t8.5 -0.5q-7 -10 -12.5 -7.5
t-17.5 -1.5q1 -5 5 -7.5t6 -4t-0.5 -1.5t-14.5 -1q-2 -7 3.5 -7.5t11.5 -0.5q1 -6 -1 -8.5t-5 -5t-5 -5.5t0 -9q-4 1 -6 3.5t-4.5 5.5t-7 4.5t-11.5 0.5q11 -8 12.5 -13t-2.5 -19q-16 11 -36.5 5.5t-36.5 -10.5q0 8 -3 13t-6.5 10.5t-6 11.5t-0.5 16q12 3 14 1t10 -7
q-11 12 -8 37q10 -6 8 -23q18 19 30.5 44.5t22 53t18 56t18.5 54.5q-11 -5 -17 -15t-11 -20q2 10 -2.5 14t-12.5 5t-18.5 1t-20.5 3q4 -5 -2 -10.5t-17 -11t-23 -10.5t-19 -9q-1 6 2 8t6.5 3t7.5 2t4 5q-1 4 -3.5 2t-6 -4t-7.5 -3t-7 5q5 -5 2.5 -7.5t-6.5 -5.5t-7 -7t0 -13
q-11 -2 -13.5 3.5t-10.5 6.5v-15q-3 2 -3 4.5t-1 4.5q-7 3 -9.5 1t-4 -5.5t-3.5 -6t-8 -1.5q1 -4 4.5 -5t6.5 0.5t5 5t-1 7.5q12 -9 8 -14t-13 -9.5t-18 -10t-8 -15.5q-14 1 -28.5 2.5t-15.5 15.5q11 -8 18.5 -7t21.5 3q-3 8 -8 14.5t-22 3.5v17q-2 0 -4 -2.5t-6 -2.5
q0 -17 21 -17q0 -4 -2.5 -4.5t-7 -0.5t-9 1t-7.5 0q5 6 3.5 13t-3 12.5t0.5 7t14 -2.5zM368 328q-9 2 -10.5 6t0 10t3 13.5t-1.5 15.5q-8 -11 -14.5 -24t-16.5 -21q9 0 13.5 0.5t8 1t7 0t11.5 -1.5zM328 124q1 3 4.5 3.5t7 1.5t5 3.5t-1.5 9.5q9 0 10 4q2 -3 1 -8t-4.5 -9.5
t-9 -6.5t-12.5 2zM363 155h-15q-1 7 3 9.5t-3 4.5q3 6 7.5 3.5t3.5 -7.5q10 5 7 2.5t-3 -12.5z" />
    <glyph glyph-name="five" unicode="5" horiz-adv-x="567" 
d="M388 418q0 3 -4.5 4.5t-8 2t-3 1t10.5 1.5q-38 -9 -74.5 -27t-72 -40.5t-70 -46.5t-67.5 -45q-9 21 -25.5 34t-33 26.5t-30 30.5t-16.5 44q20 34 38.5 68.5t46.5 60.5q-2 6 -5.5 2t-10.5 -2q4 7 10.5 14.5t11.5 15.5t6.5 17t-2.5 20q10 -4 18.5 -0.5t16.5 10.5t14.5 16
t12.5 15q3 -11 17.5 -10.5t28.5 0.5q37 19 81 31t89 23t89 23.5t81 30.5q10 -2 17.5 -2.5t15 -0.5t15.5 -1.5t19 -4.5q-2 -10 -0.5 -16t3.5 -11.5t4.5 -12t3.5 -18.5q-7 0 -11.5 -2.5t-9 -5.5t-9.5 -5.5t-12 -2.5q11 14 14.5 20t12.5 0q6 1 6 3.5t-2 5.5t-4 6.5t0 6.5
q-10 -8 -21 0q5 -3 4 -8t-4.5 -8.5t-7 -4t-2.5 5.5q-6 -3 -6 -6.5t2 -7t4 -8t0 -9.5q-11 -3 -20 -8t-18.5 -9t-20 -7t-24.5 -2q-24 -13 -52 -21.5t-57 -16t-57 -16t-51.5 -21t-41 -32t-24.5 -48.5q7 0 14 4t14 7t14 4t14 -4q28 20 63 21t69 -12t63 -37.5t45.5 -54.5
t16.5 -62.5t-25 -62.5q-8 -9 -17 -21.5t-20.5 -26t-25 -26.5t-30.5 -23q-2 -14 -8.5 -22t-17.5 -15q-8 0 -8.5 1.5t0.5 4t1.5 5t-3.5 5.5q-2 -4 -1 -12t-0.5 -16t-7 -15t-21.5 -8q-5 -6 -10 -13.5t-12 -14t-17 -9.5t-23 1q1 -9 -6 -11q2 -5 5.5 -2t10.5 2q-6 -14 -21.5 -19
t-29.5 -12q-1 8 1.5 9t2.5 -3q5 2 2.5 5t-6.5 4q4 4 7.5 4.5t7 -0.5t7.5 -1.5t8 2.5q-4 8 -10 14.5t-11 12.5q1 7 10 6t11 4q-7 5 -12 3.5t-9.5 -5.5t-9 -7t-10.5 -1q4 -13 2 -15.5t-7 -11.5q-7 4 -4.5 8t9.5 3q0 4 -4 4.5t-8.5 -1.5t-7.5 -6t-1 -8q-7 11 -8.5 12t-13.5 4
q-1 -9 5.5 -13.5t11.5 -7.5q0 -2 -4 -1.5t-8.5 3.5t-7.5 8t-1 11q-15 4 -19.5 -3t-11.5 -13q1 8 -0.5 11t-6 4t-12 3t-18.5 9q0 -6 3 -9t5.5 -5t2.5 -4.5t-5 -8.5q10 1 13.5 2.5t4.5 0.5t0.5 -3.5t2.5 -8.5q6 -2 8.5 0t4 4.5t4 4.5t8.5 0q3 6 4 5t0 -4t-4.5 -5.5t-8.5 -0.5
q0 -6 3 -9t2 -12q4 5 10 4.5t12 -1.5t11 0t8 9q3 -9 13.5 -11t12.5 11q5 -11 -3.5 -14t-22 -2.5t-27.5 2t-19 -1.5q-20 20 -42 36t-30 36q-5 -1 -4.5 -4t-1.5 -6q-8 4 -9.5 11.5t4.5 14.5q-10 -7 -15.5 -3.5t-10 9.5t-9.5 11.5t-12 2.5v26q9 -10 14 -9t9.5 3t8 0.5
t9.5 -16.5q7 6 6.5 11.5t-4.5 10t-10.5 7t-11.5 2.5q6 2 15 0.5t18 -6.5t16 -12.5t9 -16.5q-2 12 3.5 16.5t16 6.5t24 2.5t27.5 5.5q0 4 -5 4h-10q14 9 34.5 16t37.5 1q-2 4 -7 5.5t-3 9.5q-11 3 -14 -1.5t-12 -2.5q47 29 88 63t72 81q-3 5 -6.5 3t-7 -6.5t-8 -8.5t-9.5 -4
q20 25 40 48t32 55zM543 651q5 5 10 7.5t11 -3.5q0 7 -4 10.5t-9 4t-9.5 0.5t-4.5 1q5 -2 5 -7t-1.5 -9.5t-2 -6.5t4.5 3zM57 435q-9 11 6 14q-1 -5 1 -7.5t4 2.5q-7 4 -9 9t-3 9.5t-2.5 9t-5.5 9.5q3 -11 -2 -18t-4 -9q2 -2 4.5 -2t4 -1t1.5 -3.5t-4 -8.5q1 -1 5 -3.5
t6.5 -4l2.5 -1.5zM42 423q-9 0 -10 -2t0.5 -5.5t4 -8t0.5 -9.5q6 3 10.5 2.5t8.5 -1t7 0.5t5 7q-6 5 -13 15.5t-12 17t-6 5t5 -21.5z" />
    <glyph glyph-name="six" unicode="6" horiz-adv-x="455" 
d="M2 150q11 0 13 -8t2 -18q-11 -1 -13 7.5t-2 18.5zM394 193q-26 -9 -53.5 -36.5t-40.5 -62.5q-7 7 -10 2.5t-6 -11.5t-7 -10.5t-13 4.5v-24q-19 -8 -35.5 -15t-30.5 -4q-1 7 1 7.5t6 0t7.5 0.5t5.5 7q-2 5 -5 1.5t-4 -8.5q-7 2 -2.5 6t2.5 10q-3 -8 -8 -11t-10 -4t-9.5 -2
t-8.5 -7q-3 3 -11 4t-17 0.5t-18 -3t-13 -5.5q23 -10 40.5 -7.5t43.5 7.5q-15 -9 -32.5 -13t-33.5 -2.5t-27.5 8.5t-14.5 19q0 -2 4 -2t6 -2q-17 13 -36.5 24t-40.5 25q-2 8 2 11t-2 5q3 6 5 5t3.5 -5.5t3 -9.5t2.5 -6q5 -1 8 0.5t5.5 3.5t5.5 2.5t8 -1.5q-19 8 -17.5 12
t17.5 18q-2 4 -5 7.5t-11 3.5q3 -5 7.5 -7t3.5 -8q-5 5 -11 2.5t-5 -13.5q-6 24 -14 47.5t-14 47.5t-7.5 49t4.5 54q11 -1 12.5 6t3.5 14q6 1 8 -1.5t7 -2.5q-7 6 -5 9t6.5 5.5t7 5.5t-3.5 8q-12 -1 -18 -9t-11.5 -17t-13 -17.5t-23.5 -10.5q25 45 59 79.5t69 69.5
q-1 4 -5.5 4h-9.5q25 38 56 69t64.5 60.5t67.5 60t65 67.5q17 -5 36.5 -11.5t35.5 -17.5t26.5 -29t10.5 -46q-40 -4 -67 -20t-49 -37t-43 -43t-49 -37q-1 -10 5.5 -13t13 -5t10.5 -5t-2 -12q9 7 18.5 4.5t19 -9t19.5 -14t19 -11.5q2 -6 -1 -8t-3 -8q18 -4 31 -22t20.5 -41.5
t9.5 -48t-1 -40.5q-5 3 -6.5 -1t-2.5 -11t-2 -15t-3 -13zM218 60q6 0 5.5 -7.5t5.5 -8.5q-3 8 -0.5 11.5t5 4t3.5 -2t-4 -6.5h16q1 6 -1.5 9t-6 5t-7.5 4t-5 6q-2 -5 -1.5 -9.5t-4.5 -5.5q0 2 -2 3.5t-3 -3.5zM48 227q-6 3 -9 8.5t-5 11t-3 10t-3 5.5q-1 -6 -5 -2t-6 -2
q4 0 4.5 -1.5t-0.5 -3t-1 -3t3 -2.5q4 7 6 1.5t4 -13.5t5.5 -13t9.5 4zM126 303q3 -7 0.5 -16.5t-7.5 -18.5t-12.5 -16.5t-16.5 -9.5q10 -14 6 -26t-21 -18q5 -12 2.5 -25.5t-13.5 -18.5q11 -6 14.5 -18.5t5.5 -26.5q46 5 82 20.5t63.5 39t47 54t34.5 65.5q-5 10 -5 20.5
t2 18.5t4.5 12.5t3.5 1.5q-1 7 -6.5 5.5t-9.5 -5.5q1 18 -8 28.5t-23 18t-30.5 13.5t-29.5 15q-1 -13 -10.5 -29t-22.5 -31.5t-27 -29.5z" />
    <glyph glyph-name="seven" unicode="7" horiz-adv-x="472" 
d="M19 105q3 4 8.5 7t6.5 11q8 -6 6.5 -14t-7 -13t-12 -4t-7.5 13q4 -4 7.5 -3t-2.5 3zM143 304q1 13 9.5 21t17 14.5t12.5 14.5t-4 21q9 0 11.5 2.5t2.5 6.5t-0.5 8t3.5 7q4 0 3 -2.5t-3 -2.5q7 3 20.5 8.5t19.5 15.5q2 2 0 9.5t0 9.5q-3 -3 0.5 -5t8.5 -2t8 2.5t-2 9.5
q-11 0 -20.5 -10t-14.5 -24q-4 16 2 26t16.5 19t22.5 18t20 22q-21 0 -41.5 -6.5t-42.5 -14t-47 -13t-55 -3.5q-17 19 -40 32t-41 30q4 3 4 7t-1 7.5t-1.5 7t3.5 6.5q30 0 68.5 10t79 22.5t79.5 24.5t71 15q34 2 61.5 18t52.5 29q7 -2 10.5 -5.5t4.5 -5t0.5 1.5t-0.5 14
q15 -1 26 4t19 12t14 13.5t13 8.5q2 0 5 -3t6 -4.5t4.5 0.5t0.5 12q23 -6 38 -14t26.5 -17.5t21 -19.5t21.5 -21q-1 -9 -2 -12t-0.5 -3.5t3.5 -0.5t10 -3q-3 -8 -9 -8.5t-12.5 0t-12 -0.5t-8.5 -10q-4 2 -7 4.5t-3 10.5q-6 -2 -7.5 -4t-0.5 -4.5t2.5 -6t0.5 -8.5
q-9 0 -10 -7q-8 -1 -9.5 2.5t-1.5 8.5q-4 -1 -4.5 -6t-5.5 -5q0 -3 3.5 -3t6.5 -1q-38 -8 -65 -26t-49.5 -39.5t-44 -44.5t-47.5 -42q-1 -6 -8.5 -14.5t-16 -18t-14.5 -20t-3 -19.5q-1 -5 -3 -5t-4 2t-5 3.5t-6 -0.5q9 -12 5.5 -13.5t-16.5 -9.5q12 -2 28 -1t33 3t36 3.5
t37 -1.5q2 -15 -6 -22t-18 -11.5t-17.5 -8.5t-4.5 -14q-8 -1 -9.5 2t-1.5 7q-4 -16 -19.5 -25t-37 -14t-45 -9t-42.5 -9q-14 -3 -19.5 -10t3.5 -18q-14 -3 -22 1t-14 9q-5 -2 -4.5 -5t2 -6.5t2 -7t-4.5 -6.5q6 -1 8.5 0.5t4.5 4t5 4t9 0.5q-11 -11 -15 -18t-12 -25
q-12 4 -21 8.5t-10 17.5q-4 -11 -10 -33t-11 -44q9 6 12.5 13.5t4.5 16t1 15.5t3 12q9 -1 16.5 -3.5t3.5 -14.5q-12 9 -15 9t-2.5 -6t1 -17.5t-3.5 -24.5q-7 -6 -21 -4q7 -4 7.5 -7t-2 -6.5t-5 -8t-0.5 -12.5q-6 0 -8 4.5t-4 9.5t-5.5 8.5t-12.5 0.5q0 -7 1 -7.5t3.5 0.5
t5 1.5t5.5 -3.5q0 -5 -2.5 -8.5t-4.5 -6.5t-2.5 -6t4.5 -8q5 1 4.5 6t-4.5 5q2 5 4.5 4.5t5 -2.5t5.5 -5t5 -3q2 -3 -1.5 -5t-7.5 -3.5t-5.5 -3t4.5 -3.5q0 -3 -2.5 -4t-7 -0.5l-9 1t-7.5 -0.5q-1 -9 2 -10.5t6.5 -1t6 -0.5t1.5 -8q-15 0 -27 3.5t-22.5 8.5t-19.5 10t-18 8
q2 12 -1.5 18.5t-5.5 14.5q28 0 40.5 15.5t19 37t11.5 45t17 40.5q-21 -2 -42 1.5t-56 8.5q9 8 2.5 13t-11.5 11q13 11 31.5 20.5t40 16t44.5 9.5t44 1zM148 171q3 0 7.5 2.5t8 5.5t4 6t-4.5 5q-1 -5 -7 -6t-8 -3q-1 2 -1.5 5.5t-3.5 3.5q0 -14 5 -19zM14 143q2 5 3.5 2
t1.5 -7q6 -1 9 1t5.5 4.5t6 4t10.5 0.5q-6 -8 -6 -21q-3 3 -8 4t-10 1.5t-8.5 2.5t-3.5 8z" />
    <glyph glyph-name="eight" unicode="8" horiz-adv-x="468" 
d="M223 570q10 20 40 40.5t69 35.5t81 22.5t77.5 2.5t58 -25.5t21.5 -60.5q0 -19 -5 -30t-12.5 -20.5t-16.5 -20t-16 -28.5q-17 -2 -28 -13.5t-20.5 -24.5t-19 -22.5t-23.5 -8.5q-2 -15 -11 -28.5t-20.5 -26.5t-24 -26.5t-19.5 -28.5q-4 1 -8 3t-6 3.5t-1.5 0.5t5.5 -7
q-11 -3 -18.5 2.5t-7.5 17.5q-5 2 -7 -1t-6 -3q2 -10 5 -13.5t7 -5t9.5 -2t12.5 -3.5q-1 -5 -5.5 -6t-9 -0.5t-8.5 3.5t-3 7q-7 -14 -21 -16t-24 12q8 -24 24.5 -49.5t34 -53t30.5 -56.5t13 -61q-8 11 -12.5 7t1.5 -16q-12 3 -16.5 -1t-13.5 -4q0 8 -1 10t-3.5 2t-6.5 -0.5
t-9 2.5q0 -8 2 -10t5 -2t6.5 0.5t6.5 -2.5q-3 -8 -5.5 -8.5t-6 2t-8.5 5.5t-12 1q0 -8 1 -9t3.5 0t5.5 3t6 1q-16 -20 -37.5 -28t-41.5 -7q5 7 14 8.5t10 10.5q-2 3 -7.5 -0.5t-11.5 -7.5t-10 -4.5t-1 8.5q-3 -2 -6.5 -3.5t-8.5 -1.5q1 -2 2.5 -4t1.5 -6q3 -5 10 -2t16 -3
q-9 -5 -23.5 -9t-30.5 -5.5t-32 -0.5t-29 5q4 4 9.5 4t10.5 -1t9 1t5 11q-22 -13 -46 -5.5t-45.5 24.5t-40 38.5t-30.5 37.5q0 8 1.5 16t10.5 8q-7 8 -9 16t-3 16.5t-2 16.5t-6 16q7 35 23.5 60t37.5 46t43 40t40 43q-5 38 0 64t22 49q-7 -9 -2 1t16 24.5t25 26.5t26 7z
M182 327q-39 -32 -66 -82.5t-34 -116.5q1 -21 19.5 -30t43 -10t51 5t43.5 16q1 36 -3 61t-12 48t-19 48t-23 61zM202 20q-7 12 -19 5t-21 -15q24 1 33.5 1t17.5 14q-3 -1 -5 1.5l-4 5t-3.5 3t-2.5 -4.5q7 -2 4 -10zM283 546q-6 -9 -17.5 -21.5t-24 -26.5t-22 -29
t-10.5 -29.5t10 -28.5t39 -25q-5 -3 -6.5 -8.5t-4 -11t-6.5 -8.5t-13 -1q-4 -10 4 -17t11 1q5 9 13 20.5t17.5 24.5t18.5 26t17 25q0 -16 9 -5q0 10 -4.5 10t-10 -3t-10 -5t-4.5 3q16 19 36 37.5t40 39t39.5 43.5t35.5 52q-23 -3 -44.5 -11.5t-41 -18.5t-37.5 -19t-34 -14z
M293 50q1 9 -5.5 11.5t-8.5 8.5q0 -3 -3 -9.5t-5 -12t-2.5 -8.5t4.5 0v10h20z" />
    <glyph glyph-name="nine" unicode="9" horiz-adv-x="461" 
d="M-32 126q0 5 4 3.5t8.5 -4t8.5 -3.5t4 4q2 -7 7 -10.5t10.5 -7.5t9.5 -8.5t4 -12.5q-15 10 -27 21.5t-29 17.5zM49 116q5 2 1.5 5t-1.5 10q14 -4 23.5 -11t20.5 -13q4 1 6 4t4.5 6t6.5 4.5t12 -0.5q1 -6 -1 -7.5t-5 -3t-4.5 -4t2.5 -9.5q11 6 17 18.5t17 20.5
q5 -3 6.5 -7t2 -8.5t2.5 -9t8 -8.5q6 2 3 5.5t1 12.5q-5 4 -7.5 7t-3.5 7t-2.5 8.5t-5.5 11.5q14 3 23.5 14.5t17.5 23t16.5 19.5t22.5 6q-6 12 -6 24t4 23.5t10 22.5t11 21q-19 -21 -43 -28t-48.5 -3.5t-47 16.5t-39 32.5t-23.5 43.5t-1 50q-10 -2 -11 3t1.5 14t5 21.5
t-0.5 25.5q5 0 7 -1.5t3.5 -2t3 0t4.5 3.5q-1 5 -7 4.5t-11 -0.5q-1 12 4.5 17.5t13.5 8.5t15.5 6.5t10.5 11.5q0 4 -2.5 3t-5.5 -3.5t-6.5 -5.5t-5.5 -4q48 51 112.5 85.5t141.5 59.5q-2 -3 -6.5 -3.5t-4.5 -6.5q13 9 24.5 17.5t31.5 16.5q-5 6 -8.5 5.5t-7.5 -3.5t-9 -6
t-11 0q4 7 15.5 10.5t23 3t19 -5t2.5 -13.5q16 4 30 -1.5t27 -14.5t24.5 -19.5t23.5 -17.5q5 1 7.5 5t4.5 8.5t6 8t12 2.5q3 -8 8 -10.5t12 -3.5t14.5 -2.5t14.5 -7.5q-3 -32 -19 -57t-30 -50q-17 -27 -39.5 -53t-35.5 -49q-8 -12 -15 -28.5t-13.5 -32.5t-13 -30t-13.5 -20
q-8 -7 -15 -17.5t-12 -21.5t-8.5 -21t-4.5 -16q-14 -7 -23 -13t-16 -17q0 -3 2.5 -4.5t2.5 -5.5q3 4 4 10t16 6q-2 -3 -5.5 -7t-7 -7.5t-5 -6.5t1.5 -4q-6 -9 -16.5 -9.5t-16.5 -9.5q-3 -3 -4 -9.5t-1 -13t1 -10.5t4 -1q-4 -7 -10.5 -11.5t-11.5 -8.5t-7 -9.5t2 -14.5
q-6 1 -8.5 3.5t-5 4t-6 1t-10.5 -4.5q2 -5 4.5 -4.5t5.5 2.5t6 2.5t6 -4.5q-3 -10 -8.5 -16.5t-11 -13.5t-9.5 -14.5t-5 -18.5q-6 3 -8 5.5t-2 5t0.5 5.5t-2.5 8q-4 -6 -3.5 -15.5t-0.5 -26.5q-10 4 -11.5 9.5t-0.5 11.5t0 13t-9 14q-5 -5 -4.5 -12t0.5 -12t-2.5 -6t-13.5 6
q2 -7 5 -9.5t6.5 -3t7 -0.5t7.5 -2q-1 -15 -15 -22t-30.5 -7t-30.5 7.5t-15 21.5q-4 1 -13 6.5t-17 14t-13 18.5t-1 19q-7 1 -9.5 -2.5t-10.5 -2.5q-3 8 -8.5 22t-20.5 26q-4 4 -3.5 3.5t3.5 -2.5t7 -4.5t8 -1.5q-3 2 -7.5 6t-9 7t-8.5 4.5t-6 -2.5q-5 2 -6.5 10t-3.5 15
q13 0 17.5 -5.5t12.5 -9.5q4 0 4.5 2t-1 5t-4 5.5t-3.5 2.5q3 3 6.5 1t7.5 -6t9.5 -7.5t11.5 -2.5q1 -7 -2.5 -8.5t-3.5 -6.5q9 1 11 -5zM163 -5q14 6 17.5 9.5t1 6.5t-9.5 7t-14 12q4 -14 1.5 -21.5t3.5 -13.5zM108 10q7 -3 12 -7.5t13 -7.5q0 7 2.5 8t6.5 0.5t8 -1.5t8 4
q-3 12 -5 15.5t-2.5 2t-1 -6.5t-1.5 -11q-1 2 -1 5.5t-5 3.5q0 -6 -5 -5q2 5 4.5 8.5t0.5 11.5q-5 -1 -11.5 -0.5t-8.5 -5.5q4 -2 3 -2.5t-4 -1.5t-7 -3.5t-6 -6.5zM114 19q5 5 4 14.5t-10 9.5q-3 -6 -5.5 -4t-5.5 5t-6.5 4.5t-7.5 -5.5q-2 7 2 10t-2 5q0 -2 -3.5 -2.5
t-6.5 -1t-4 -1.5t5 -5q0 6 4 6q2 -10 5.5 -15t8 -8t10.5 -5.5t12 -6.5zM317 436q9 6 20.5 14.5t22.5 18.5t21 21.5t15 22.5q0 -5 1.5 -8t9.5 -1q-3 12 1 23.5t12.5 20.5t19 15t21.5 8q2 16 -5 24t-18 11t-23 2.5t-19 -0.5q-20 0 -40.5 -4.5t-41 -12t-39 -16t-33.5 -15.5
q-14 -18 -35 -38t-41 -43.5t-34.5 -50.5t-13.5 -60q33 1 59 9.5t49 19.5t44.5 22t46.5 17zM167 58q-7 -2 -9.5 1t-4 7t-4.5 6.5t-12 0.5q-2 -8 2 -14t9.5 -8.5t11 -1t7.5 8.5zM251 126q-2 4 -2 1.5v-8t0.5 -10.5t1.5 -6q2 6 8 8t7 10q-5 2 -9 -2t-6 2q24 18 23.5 23.5
t-23.5 -18.5z" />
    <glyph glyph-name="colon" unicode=":" 
d="M98 338q14 1 24 4.5t19 5.5t19.5 1.5t25.5 -6.5q2 -30 1 -48.5t-8 -29t-21 -16t-38 -9.5q-12 13 -16.5 21.5t-5 18.5t0 23t-0.5 35zM44 149q14 1 24 4.5t19 5.5t19.5 1.5t25.5 -6.5q2 -30 1 -48.5t-8 -29t-21 -16t-38 -9.5q-12 13 -16.5 21.5t-5 18.5t0 23t-0.5 35z" />
    <glyph glyph-name="semicolon" unicode=";" 
d="M81 171q11 -5 17 -3.5t12 5.5t13 7t20 1q10 -27 5 -57t-21 -57.5t-40.5 -48.5t-52.5 -28q-2 23 5.5 43.5t16.5 42t17 44.5t8 51zM98 338q14 1 24 4.5t19 5.5t19.5 1.5t25.5 -6.5q2 -30 1 -48.5t-8 -29t-21 -16t-38 -9.5q-12 13 -16.5 21.5t-5 18.5t0 23t-0.5 35z" />
    <glyph glyph-name="less" unicode="&#x3c;" horiz-adv-x="392" 
d="M285 328q-6 -2 -5.5 -4t2.5 -5t3.5 -6t-0.5 -7q-6 -2 -8.5 0t-4.5 5t-4.5 4.5t-8.5 0.5q3 -3 7 -5.5t9 -4.5q-16 -13 -30.5 -27t-30.5 -27.5t-34 -25.5t-40 -19q20 -12 41 -23.5t40.5 -24t37.5 -27t32 -32.5q-7 -6 -13.5 -6.5t-12.5 -1.5t-10 -4.5t-6 -14.5
q-21 7 -38.5 16.5t-34 21.5t-34 24.5t-38.5 25.5q-17 10 -33.5 17.5t-30 16.5t-23 21.5t-11.5 33.5q78 38 149.5 82.5t124.5 109.5q33 1 50 -7.5t33 -29.5q-6 -13 -14.5 -23.5t-18 -21t-18.5 -21t-16 -23.5q-6 -2 -8 2t-3 10z" />
    <glyph glyph-name="equal" unicode="=" horiz-adv-x="346" 
d="M19 194q18 17 54 23.5t76.5 6t79 -6.5t63.5 -13q-17 -15 -51 -21t-74.5 -7t-80.5 2t-67 6v10zM49 272q18 15 51.5 22.5t70.5 9.5t70.5 -1t50.5 -10q-21 -18 -51.5 -26.5t-64 -10.5t-67 2.5t-60.5 13.5z" />
    <glyph glyph-name="greater" unicode="&#x3e;" horiz-adv-x="420" 
d="M84 188q6 2 5.5 4t-2.5 5t-3.5 6t0.5 7q6 1 8.5 -0.5t4.5 -4.5t4.5 -5t8.5 0q-3 3 -7 5.5t-9 4.5q16 13 30.5 27t30.5 27.5t33.5 25t40.5 19.5q-20 12 -41 23.5t-40.5 24t-37.5 27t-32 32.5q7 6 13.5 6.5t12.5 1.5t10 4.5t6 14.5q21 -7 38.5 -16.5t34 -21.5t34 -24.5
t38.5 -25.5q16 -10 33 -17.5t30.5 -16.5t23 -21.5t11.5 -33.5q-78 -38 -149.5 -82.5t-124.5 -109.5q-33 -1 -50 7.5t-33 29.5q6 13 14.5 23.5t18 21t18.5 21t16 23.5q6 2 8 -2t3 -10z" />
    <glyph glyph-name="question" unicode="?" horiz-adv-x="512" 
d="M151 98q2 -17 8 -25t23 -16q-12 -13 -17.5 -22.5t-10 -18.5t-10.5 -19t-18 -22q-5 7 -19 9t-30 1.5t-29.5 -2t-18.5 -1.5q-12 36 -8.5 66t19.5 47.5t44 19.5t67 -17zM151 395q-5 4 -2 8t8.5 8t10 9t4.5 11q-17 -5 -28 -14t-23 -17q-6 1 -5.5 3t2.5 5t3.5 6.5t-0.5 7.5
q19 4 35.5 14.5t32.5 20.5t32.5 17t36.5 6q8 15 31.5 35.5t49.5 30.5q32 33 67 62.5t60 67.5q-52 -1 -97 -14.5t-84 -34.5t-72.5 -48t-61.5 -55q-23 -2 -40 1.5t-31 9t-27.5 12.5t-28.5 13q21 27 56 55.5t79 53t94.5 42t102.5 24t102.5 -1.5t94.5 -35q5 4 8 4t6 -2t6.5 -4
t9.5 -2q1 -6 -2.5 -9t-2.5 -9q4 2 5.5 6t9.5 3q5 -8 6 -12t2.5 -6t4.5 -3t12 -2q7 -36 -3 -60t-28 -42.5t-38 -35t-32 -35.5q-11 1 -16 -3t-9.5 -8.5t-10 -8t-15.5 -2.5q-2 -12 -9 -19t-17 -11.5t-22 -7.5t-23 -7q1 -5 2.5 -4.5t4 2t6 3t8.5 -0.5q-29 -24 -61.5 -43
t-61 -39.5t-50 -47t-30.5 -65.5q-9 -8 -17 -8.5t-14 -0.5t-10.5 -2t-5.5 -12q-3 3 -8.5 4t-10.5 0.5t-9 -4t-2 -9.5q-8 1 -10 6.5t-10 6.5q-5 -2 -4 -5t2.5 -7t2 -7.5t-5.5 -6.5q-9 20 -13 43t-12 50q5 -1 4.5 -5t0.5 -8q2 12 9.5 21t14 17.5t8.5 18t-7 23.5q2 7 6.5 12
t8.5 10t7 11.5t3 15.5q3 -9 10.5 -6t16.5 11t18 17t16 13q-5 2 -11.5 -1.5t-13.5 -8.5t-13.5 -11t-12.5 -10zM146 356q-16 -2 -20 -9q6 -1 6 -3t-2 -4t-4 -5t0 -6q12 1 14.5 10t5.5 17zM197 445q0 -5 -4 -5t-6 5q5 0 7 2.5t8 1.5q7 0 8 -2.5t0 -4.5t-1 -4.5t4 -2.5
q0 3 1.5 3t3 -0.5l3 -1t2.5 2.5q-9 4 -14.5 11t-21.5 4q3 -9 -3.5 -10.5t-6.5 -8.5q2 -3 7 -2.5t9.5 2.5t6.5 5t-3 5z" />
    <glyph glyph-name="at" unicode="@" horiz-adv-x="728" 
d="M480 674q46 7 89 -8t77.5 -48.5t57.5 -82.5t29 -109q0 -6 -1 -7.5t-3 -1.5t-5 3q0 -12 1 -30t-2 -34t-13 -27.5t-32 -11.5v-21q-24 -9 -44 -25.5t-39 -36t-38 -38t-40 -30.5t-45 -14.5t-53 10.5q-15 -22 -36.5 -33t-45.5 -11.5t-48.5 8t-44.5 25.5q-31 27 -43 58t-11 63
t13.5 63.5t31 60.5t41 54t44.5 43q7 -3 4 -7t-4 -9q6 -1 7.5 2t2.5 7t2 7.5t5 4.5q40 10 76.5 5t68.5 -19.5t60 -36t53 -43.5q-28 -15 -47 -38.5t-34 -51t-28.5 -56.5t-29.5 -55q43 21 83 53t68 74.5t39 95t-5 112.5q-29 70 -89.5 102t-163.5 12q-14 -2 -24.5 -8.5
t-26.5 -6.5q-21 -19 -42 -38.5t-42 -39.5q5 -2 0.5 -14t-13.5 -25.5t-19.5 -25t-18.5 -12.5q-13 -48 -32 -98t-35 -114q-8 -31 -14.5 -70t-6 -77.5t11 -71t36.5 -50.5q10 -7 27.5 -12t36.5 -8t37.5 -4t31.5 0q44 1 85.5 17t79 39t69 49t55.5 49q8 -35 -3 -54.5t-31.5 -33.5
t-45.5 -27t-44 -34q-6 -2 -7.5 1.5t-2.5 7.5q-10 -19 -36.5 -34t-58.5 -23t-64 -6t-53 18q-5 -2 -1.5 -6t1.5 -10q-41 13 -79 28t-80 39q-27 24 -47 59.5t-30 76t-7 83t22 80.5q19 60 48 119.5t68 113t87 96.5t106 69q12 1 36 2t49 -0.5t45 -6.5t24 -15zM58 43
q-9 5 -12.5 14.5t-4 18t0.5 13.5t1 1q-8 -5 -9.5 -12.5t1.5 -14.5t9 -13t14 -7zM48 250q0 10 -0.5 20.5t-10.5 10.5q-3 -3 -3.5 -8.5t0.5 -10.5t4.5 -8.5t9.5 -3.5zM218 312h-10q-6 0 -6 -5q9 -8 4.5 -12.5t-8.5 6.5v-15q8 0 11.5 2.5t4.5 6.5t1.5 8.5t2.5 8.5zM351 209
q-4 39 8 69.5t31 56t41 48t39 47.5q-7 1 -12 -1.5t-9.5 -5t-9 -3t-9.5 5.5q-6 -13 -16.5 -22.5t-22.5 -18t-23.5 -17t-20.5 -19.5q-51 -62 -56 -146v-9q9 -5 17 -5t15.5 3t14.5 8t13 9zM564 95q-3 -4 -5.5 -10t-3.5 -11.5t0 -8.5t5 -1q1 4 5 8t6.5 8.5t1.5 8t-9 6.5z
M713 374q2 4 1.5 7t3.5 3q1 -2 1.5 -6t4.5 -4q1 4 0.5 10.5t-1.5 11t-3.5 5.5t-6.5 -6q5 -4 4 -4.5t-4.5 0.5t-8 2.5t-7.5 1.5q0 -4 -2 -6t-4.5 -3.5t-3.5 -4t1 -7.5q9 1 13 4t12 -4z" />
    <glyph glyph-name="A" unicode="A" horiz-adv-x="479" 
d="M457 641q3 15 11.5 27.5t19.5 20.5t23.5 11t23.5 -1q16 8 25 24t23 28q14 0 24.5 -4.5t18.5 -11t14.5 -15t13.5 -16.5q-14 -35 -31 -59.5t-32.5 -46t-29 -44t-21.5 -53.5q-3 2 -4.5 4t-4.5 2q-17 -51 -38.5 -94t-44 -85t-44.5 -86.5t-40 -98.5q-9 3 -14.5 1t-8.5 -6.5
t-4.5 -10.5t-3.5 -11q3 0 7 2.5t7 5.5t4 5.5t-2 2.5q4 -7 0 -22t-11 -34t-16 -38.5t-16 -35.5q-43 9 -60 36t-16.5 60.5t14 68.5t31.5 59q-57 1 -99 -8.5t-75 -28.5t-58 -47.5t-47 -65.5q-17 13 -26.5 29t-17.5 33t-17.5 33t-26.5 29q25 27 58 45t80 23q52 49 101 95.5
t97.5 93t97 93.5t99.5 97q7 2 9 -2t7 -4zM177 288q34 -6 66 -2t63 2q9 15 14 27.5t11 24t15 21.5t27 21q0 21 8 37t17.5 30.5t16.5 28.5t6 29q-11 -10 -18 -22t-19 -20q-1 4 3 8.5t7.5 8.5t3.5 6.5t-9 2.5q-9 -9 -18.5 -19.5t-19.5 -20.5t-19.5 -18t-19.5 -10
q-10 -16 -25.5 -34t-33.5 -36t-37.5 -35t-38.5 -30zM281 174q-9 2 -13 0t-6.5 -6l-5 -8t-7.5 -7q13 1 16 -10q-2 0 -3.5 -2.5t3.5 -2.5q8 10 8.5 14t-1 6t-1 5t9.5 11z" />
    <glyph glyph-name="B" unicode="B" horiz-adv-x="525" 
d="M-7 138q1 2 -1.5 5t-5.5 4.5t-6 0.5t-3 -5q-1 17 1 40t7.5 43t14.5 33t21 9q1 6 0 8.5t-2.5 5l-3 5t-1.5 7.5q21 15 34.5 42t24.5 58t22 61t28 52q-9 7 -11.5 21.5t1 29.5t11.5 25.5t20 10.5q1 17 11.5 30.5t23 28.5t21.5 32.5t7 43.5q3 5 9 5t7 5q23 0 38 -9.5t29 -20.5
q21 4 44.5 6.5t46 1t43.5 -8t38 -19.5q3 0 3 3.5t1 6.5q30 -11 52.5 -38.5t30 -59t-3.5 -61t-47 -43.5q-5 -1 -5 -2.5t1.5 -4t1.5 -5t-4 -5.5q-15 -9 -29.5 -16t-28 -13t-26.5 -13.5t-26 -18.5q-8 -1 -12 0.5t-7 2t-5 -0.5t-5 -7q15 -7 38 -18t44 -28t35.5 -43t11.5 -63
q-10 -9 -14.5 -20t-8 -21.5l-7 -21t-10.5 -19.5q-21 -25 -50.5 -39t-54.5 -29q-33 -21 -67 -45t-72 -41t-80.5 -22.5t-92.5 9.5q1 6 2 8.5t1 4t-1 4t-2 8.5q-11 -7 -20 -5t-16.5 8.5t-14 16.5t-11.5 18q-8 -6 -22 -6q5 5 4 7.5t-3.5 5.5t-5 7t0.5 12q9 2 15 7.5t5 17.5
q5 -1 4.5 -8t6.5 -7q0 2 0.5 9t3.5 13t8 8.5t13 -4.5zM14 164q1 2 -0.5 7.5t-4.5 9t-7 3.5t-9 -10q4 1 7.5 -2.5t6 -7t4.5 -4.5t3 4zM93 18q-6 1 -6.5 7t-5.5 9q-24 0 -30 -16q6 3 12 1t11.5 -4.5t10 -2.5t8.5 6zM72 164q0 5 7 5t9 -5q-13 -13 -15.5 -29t-7.5 -29
q9 -1 15.5 1t11.5 3t9 0t7 -8q-6 8 -3.5 11t6 4.5t4.5 3t-7 6.5q16 -1 26.5 -3t14.5 -2q-1 6 -4.5 8.5t-5.5 7.5q16 2 30.5 9.5t28 15.5t25.5 14.5t24 6.5q5 12 21.5 24.5t36.5 25.5t39 26.5t29 27.5q5 6 6 11t2 6.5t3.5 0t9.5 -7.5q-9 9 -7.5 15t5 11t5 10t-7.5 12
q-26 11 -56.5 10.5t-62 -4.5t-63 -8.5t-58.5 -2.5q2 -12 -2 -19.5t-9.5 -11t-11.5 -4t-7 1.5q7 -5 7.5 -10.5t-2.5 -11.5t-8 -12t-8 -12q2 -5 5.5 -4.5t6.5 1.5t5.5 1.5t3.5 -3.5q-10 -1 -12.5 -5.5t-3.5 -9t-3.5 -8t-11.5 -2.5q6 -11 4.5 -22.5t-7 -20t-13.5 -13t-17 -2.5
q4 0 4 -1.5t-0.5 -3t0 -3t3.5 -2.5zM113 18q-3 1 -6.5 1t-3.5 3q6 2 8 1t3.5 -3.5t3 -4.5t5.5 -2q1 9 -3.5 12t-10.5 3t-11 -2t-5 -4q2 1 5 -1.5l6 -5t5 -3t4 5.5zM456 631q-45 21 -88 10t-77.5 -41.5t-57.5 -74t-26 -86.5q29 25 64 48t69.5 45.5t65 46.5t50.5 52z" />
    <glyph glyph-name="C" unicode="C" horiz-adv-x="505" 
d="M54 18q-4 -5 -4.5 -4t0.5 4.5t2.5 8t1.5 7.5q5 -2 7.5 -6t8.5 -6q0 4 -2.5 6.5t-5 4t-4 4t-0.5 8.5q-2 0 -4 -3.5t-3.5 -5.5t-2 -1t-0.5 10q-5 -3 -4.5 -5.5t2 -5.5t2 -6t-4.5 -6q-3 8 -11.5 15.5t-17.5 16t-16 19t-6 23.5q2 7 6 4t9 -4q-2 6 -4.5 12.5t-16.5 3.5
q0 15 -1 28.5t-1.5 26.5t-0.5 27t3 32q7 1 9 -1.5t3 -5t2.5 -3.5t6.5 4q-2 6 -8 8.5t-13 3.5q8 36 14.5 55t13 33t14.5 28.5t20 42.5q5 -5 12 -3t12 7t6.5 12t-4.5 12q-5 1 -5.5 -2.5t0 -8t0.5 -8.5t-5 -2q-4 12 5.5 25t23.5 27t27 30t17 33q3 -2 4.5 -4t5.5 -2q-7 10 -13 7
t-12.5 -10.5t-14 -15.5t-16.5 -8q5 14 16.5 24.5t23.5 19.5t20.5 17t6.5 17q21 14 40.5 30.5t38.5 33t38.5 32.5t42.5 29q48 -18 90 -42.5t83 -50.5q1 -10 5 -18.5t6.5 -17t2.5 -17.5t-5 -20q-24 -1 -35.5 5t-19 14.5t-14 16.5t-20.5 11q-18 3 -35 -6.5t-33.5 -26t-33.5 -37
t-36 -39.5q-11 -11 -26 -17.5t-22 -14.5q-5 -6 -10.5 -18t-11 -22t-11.5 -14t-13 7q-10 -31 -31.5 -65t-41.5 -71t-31.5 -78t-0.5 -86q74 22 132.5 58.5t107 80t91.5 91t86 92.5q-5 -45 -24.5 -81.5t-55.5 -68.5q0 -6 3 -7.5t6.5 -3t6 -3.5t1.5 -8q-9 -2 -14.5 -9t-11 -13.5
t-11.5 -10t-15 1.5q7 -18 -4 -36.5t-28 -36.5t-33 -35t-18 -33q-2 2 -7 -1t-8.5 -6.5t-4.5 -5t4 3.5q-3 6 -6 4.5t-6.5 -5t-8 -6.5t-11.5 0q6 -9 3.5 -17.5t-9.5 -15t-18 -10t-22 -2.5q-2 -12 -12 -17t-23.5 -5.5t-28 2t-24.5 5.5q2 2 4 6t0 9q-19 -1 -36 2t-21 18
q19 -3 27.5 0t7.5 6.5t-11 4.5t-28 -6zM33 102q-8 -6 -10.5 -8.5t-9.5 8.5q-5 -9 -4.5 -15t3.5 -11.5t7 -11.5t4 -15q6 1 12.5 0.5t7.5 4.5q-5 1 -2 5.5t7 6.5q-1 -8 2.5 -11.5t7.5 -5.5q-1 7 2.5 11t-2.5 6q-3 0 -15 0.5t-20 9.5q2 4 5.5 4t6.5 -1t5.5 -1.5t2.5 4.5
q-4 0 -4 1.5t0.5 3l1 3t-2.5 2.5q0 -6 -7 -5.5t-8 5.5q1 1 4.5 2t6.5 2.5t3.5 2.5t-4.5 3zM58 184q6 -2 6 -6t-2 -8.5t-5 -9t-3 -7.5q7 -3 11 4.5t4.5 16t-2.5 13t-9 -2.5zM131 -22q5 3 8.5 2.5t6.5 -2t6 -1.5t6 5q-2 3 -9.5 6t-14.5 4t-10 -1t3 -9q1 5 3.5 6t4 -0.5t1 -4.5
t-4.5 -5z" />
    <glyph glyph-name="D" unicode="D" horiz-adv-x="527" 
d="M-90 126q-2 -5 -7 -7t-4 -10q-6 1 -6 4.5t2.5 7.5l5 8t2.5 8q5 0 11.5 -1t8.5 5q7 -6 3.5 -8.5t-9.5 -3.5t-9.5 -1.5t2.5 -1.5zM118 83q-4 1 -2.5 3.5t3.5 2.5q0 8 -2.5 10.5t-6.5 2.5t-9.5 -1.5t-12.5 -1.5q1 -5 9 -5t8 5q8 -7 6 -14t-5 -16q-8 3 -20.5 6.5t-24 4
t-17.5 -4t0 -16.5q-3 0 -8 -1.5t-8.5 -3.5t-5 -4t3.5 -3q-6 -5 -15 -3t-16 3q3 7 6 8t7 1t9 -0.5t11 3.5q-5 6 -11 7t-9.5 1.5t-3 3.5t9.5 12q-11 -1 -13.5 -10.5t-9.5 -13.5q-5 0 -7.5 2.5t-6 4.5t-8 3.5t-13.5 -0.5q-3 10 -1.5 13t4.5 17q-6 -15 -20.5 -14.5t-25.5 8.5
q4 14 5.5 17.5t-15.5 -1.5q16 11 32.5 21t35.5 16v26t-1 21q7 2 10 0.5t4.5 -3.5t2 -5t3.5 -4q35 100 68 185t65 164q-8 7 -11 17.5t-4 23.5q16 21 37.5 36t43 29.5t41.5 30.5t34 39q21 -14 50.5 -16.5t60.5 -4t59 -7.5t46 -28q41 -10 63 -35t29 -58.5t1 -71.5t-22.5 -74
t-41.5 -66t-54 -47q-7 -2 -9 1t-7 3q-2 -12 -11.5 -22.5t-23 -20t-29 -17t-28.5 -13.5q-5 -6 -15.5 -18t-24 -23t-29.5 -18t-31 -4q9 -5 6.5 -9.5t-9.5 -8t-16 -6.5l-15 -5q13 -3 9 -7.5t-13.5 -7t-19.5 -1.5t-9 9q-4 0 -5.5 -2t-3.5 -4.5t-4.5 -4t-7.5 0.5q2 -4 5 -5t5 -2
t1.5 -4t-4.5 -10q5 6 8 8.5t6 4t7 1.5t12 2q-6 -9 -17.5 -13.5t-21.5 -4t-13.5 5t6.5 12.5q0 7 -2.5 5t-5.5 -5l-5 -5t-2 5q-2 -5 -6.5 -14.5t-13.5 -17.5zM81 177q0 -20 18 -20q7 13 21.5 21t29.5 14.5t27 13.5t14 19q0 -2 -2 -3.5t-2 3.5q-23 -16 -51.5 -25.5t-54.5 -22.5
zM155 318q-14 -15 -23 -30t-16.5 -31t-14.5 -33.5t-18 -35.5q19 6 41 16t42.5 19.5t38.5 16t30 5.5q-5 7 -0.5 10.5t13 6.5t16 7t8.5 12q-5 1 -10 -1.5t-9.5 -5.5t-8 -3.5t-5.5 4.5q13 5 26.5 13t25.5 16t23 14.5t20 9.5q-5 1 -4 11q23 10 45 26.5t42 34.5t38 35t35 28
q32 45 25.5 79.5t-36.5 54.5t-76 23.5t-93 -12.5q-14 -24 -32 -48t-35 -48.5t-30.5 -49.5t-19.5 -51q-11 1 -15.5 -7.5t-7.5 -18t-6.5 -16.5t-11.5 -1q-3 -9 1.5 -10t10 1t10 3t2.5 -3q-3 -6 -9.5 -11.5t-11.5 -10.5t-6.5 -10t6.5 -9z" />
    <glyph glyph-name="E" unicode="E" horiz-adv-x="484" 
d="M-71 167q6 -5 7.5 -1.5t1 11t-1.5 16.5t1 16q6 -8 9.5 -10t5.5 -3.5t3 -5t2 -13.5q13 17 27 40t28 48t27 50.5t25 47.5q-11 11 -20 23t-15 27q17 13 28.5 27.5t20.5 31t17 35.5t17 42q1 5 -3.5 4.5t-9.5 1.5q14 20 24 44.5t27 41.5q-15 11 -26 30.5t-4 38.5
q49 10 100.5 20.5t106 16.5t111.5 7t116 -7q4 -4 3 -9t-4 -10t-7 -11t-5 -12q-12 0 -22 -7t-19.5 -13.5t-19.5 -8.5t-21 8q-2 -6 -8.5 -8t-13 -3t-11.5 -3.5t-5 -10.5q-11 6 -15 7t-5.5 -1.5t-3 -6.5t-8.5 -8q-9 -5 -24 -6t-31.5 -1.5t-31.5 -3t-24 -10.5q-8 -8 -11.5 -21
t-7.5 -26t-12 -23.5t-24 -14.5q4 -8 3.5 -14t-3.5 -10.5t-7 -9.5t-6 -12q25 1 52 5.5t55 7t55 1t51 -13.5q-7 -21 -21 -35t-31.5 -22.5t-36 -12t-34.5 -2.5q-18 -13 -43.5 -19t-51 -13.5t-46.5 -21.5t-29 -42q-6 1 -10.5 -1.5t-8 -4.5t-6.5 -2t-7 5q0 -11 7.5 -12.5
t16.5 -1.5q-2 -13 -10 -14t-15.5 0t-11.5 -1t1 -18q2 8 5 13t16 -3q-6 -9 -14.5 -16t-17 -13t-16.5 -13.5t-13 -18.5q13 -2 18.5 3t9.5 12q1 -1 1 -6.5t-2 -11t-6 -7.5t-10 5q20 -3 42.5 1.5t47.5 11t51 14t53 10.5q57 7 113.5 3.5t103.5 -23.5q4 -12 -2.5 -22.5t-15.5 -16
t-16 -5t-4 9.5q-23 -8 -50 -10.5t-52 -3t-46.5 -2.5t-34.5 -8q-36 -10 -71.5 -28t-71 -35t-70 -29.5t-67.5 -12.5q-6 0 -9.5 -2.5l-7 -5t-8 -4t-12.5 1.5q-7 28 -24 49q3 8 5 17.5l4 19t5 17t10 12.5q-1 -6 2.5 -10t-3.5 -6z" />
    <glyph glyph-name="F" unicode="F" horiz-adv-x="487" 
d="M151 630q-13 16 -22.5 34t-14.5 39q63 17 136.5 24t153 5t162 -12.5t162.5 -26.5q0 -10 -3 -15.5t-6.5 -9l-7.5 -7.5t-6 -11q-8 0 -10.5 4t-3.5 8t-3 7t-11 2q4 -6 4.5 -9t1 -4.5t2.5 -2t10 -3.5q-15 -16 -35 -15q0 7 2.5 8.5t5 2t3 2t-3.5 7.5q-2 0 -5 -3t-5 -6.5
t-2.5 -6.5t4.5 -4q-25 -3 -47.5 -6.5t-45.5 -8.5q-2 5 -6 7.5t-1 9.5q-5 0 -8 -3.5t-8 -3.5q-2 -5 1 -4.5t7 1.5t6 0t-1 -10q-14 0 -33 4t-38.5 8t-38 5.5t-31.5 -3.5q-9 1 -13 3.5t-9 5.5q-44 0 -71 -17q-11 -25 -22 -56.5t-19 -51.5q-6 -1 -8 2t-8 3q9 -11 7.5 -19
t-6.5 -16.5t-9.5 -19.5t-0.5 -28q-9 3 -11.5 0.5t-2.5 -5.5t-0.5 -4.5t-6.5 4.5q-3 0 -3 -4t1.5 -9.5t4 -10.5l3.5 -7q20 3 49 4.5t60.5 0.5t62 -4.5t53.5 -10.5q-2 -5 -7 -14.5l-10 -19t-7.5 -17.5t1.5 -11q-3 -2 -10.5 -6t-15.5 -5.5t-13.5 1.5t-3.5 14q-4 -2 -6.5 -4.5
t-2.5 -10.5q-24 1 -49 3t-50 2.5t-50 -3t-49 -12.5q-10 -25 -41 -33q2 -5 4.5 -4.5t5 2.5t5.5 2.5t5 -4.5q-8 -6 -15 -13.5t-16 -12.5q5 -3 3.5 -15t-6.5 -28.5t-12.5 -36t-15 -36.5t-14.5 -29.5t-10 -16.5q1 12 7.5 33.5t14.5 45.5t16 46.5t13 36.5q-13 -13 -23.5 -38
t-20 -53.5l-19 -57t-20.5 -47.5q4 6 8 7q7 -9 0.5 -20t-14.5 -21.5t-13 -19.5t6 -16q-12 -11 -30.5 -15.5t-31.5 -20.5q-15 2 -25.5 15t-15 30.5t-2.5 36t12 31.5q4 -3 4 -8t-1 -10t-0.5 -9.5t6.5 -8.5q2 4 1 8.5t-1 7.5t3 5.5t12 2.5q-1 1 2 12.5t9 30t13.5 41.5t15.5 46
t16 44.5t13 36.5q2 6 7 11t10 8.5t9 5.5t4 3q4 1 -1 -16t-14.5 -43t-21 -56.5t-20.5 -56.5t-14 -43.5t-1 -16.5q2 8 9.5 27.5t18 45t22.5 54t22.5 55t19 47.5t11.5 32q-10 -6 -23 -4.5t-25 9.5t-20.5 21.5t-9.5 31.5q12 2 21.5 7t18.5 10.5l18 11t20 8.5v31q18 13 29 36
t19 49.5t15.5 53.5t18.5 48zM177 310q-1 -6 -5.5 -7.5t-10 -2.5t-9.5 -2.5t-5 -7.5q11 -2 23 4t7 16zM46 38q3 2 4.5 6t3.5 7q-2 -5 -8 -13z" />
    <glyph glyph-name="G" unicode="G" horiz-adv-x="643" 
d="M58 408q1 13 6.5 22t12 16.5l13 15t9.5 18.5q14 -2 26 -2.5t17 -2.5q26 41 65 78t82.5 74t88 75t80.5 81q36 -13 62 -35.5t57 -48.5q13 -11 26 -18.5t21 -16.5t9 -21t-9 -33q-29 19 -55 17.5t-50 -11.5t-45.5 -22t-41.5 -13q4 -13 4 -17t-9 -11q-5 2 -1.5 5.5t1.5 9.5
q-12 -6 -22 -14.5t-20 -16.5t-21 -14.5t-26 -9.5q6 -6 1 -15t-15.5 -17.5t-24 -15.5t-23.5 -10q-2 -13 -8 -25t-15.5 -20.5t-21 -12t-23.5 0.5q2 -5 3.5 -7.5t-3.5 -4.5q1 -6 5.5 -5t9 3.5t7 2t0.5 -10.5q-16 -2 -19.5 -1.5t-12.5 -3.5q-2 -6 0 -8t5 -2.5t5.5 -2t-0.5 -7.5
q-3 3 -7 4.5t-7.5 4t-5.5 6t0 10.5q-21 -3 -31 -14q1 -6 4 -5.5t7 2.5t9 4t11 -1q5 -12 2.5 -19.5t-7.5 -17.5q-7 2 -8.5 4.5t0 4.5t4 5t4.5 7q-13 -6 -21 -21q-1 -5 2.5 -5t7.5 -0.5t6.5 -2.5t-0.5 -9q-6 -2 -9 -3.5l-5 -2.5t-4 0t-8 6q-2 -9 -4 -18.5t-5.5 -18.5
t-10 -16.5t-18.5 -13.5q7 -12 1 -30.5t-12 -36t-4 -30t26 -12.5q5 -4 5 -7t-3 -4.5t-8 -1.5t-9 3q1 -11 5 -13t9.5 0.5t11 7t10.5 5.5q1 -10 -5 -14t-11 -6q1 -10 9 -11t18 1q5 1 4 3.5t-3.5 5.5t-5 6.5t-0.5 8.5q51 13 94 41.5t83 62t79 66t82 55.5q-9 4 -8.5 7t5.5 6t12 6
t11 6q-15 1 -34 -3.5t-39 -12t-40 -15.5t-37 -14q-13 6 -24 14.5t-18 19.5q31 31 78.5 55.5t101.5 38.5t110 15t104 -14q-6 -47 -55 -47q-40 -39 -69.5 -87.5t-54.5 -102t-46.5 -109.5t-44.5 -111q-23 13 -31 37t-7.5 53t6.5 58.5t12 53.5q-11 -6 -19.5 -14.5t-16 -18
t-15.5 -19t-17 -16.5q-5 2 -7.5 5.5t-8.5 5.5q-5 -2 -3.5 -4t5 -4.5t5.5 -7t-1 -10.5q-18 -11 -34 -24.5t-33 -25.5t-36 -20t-43 -8q3 -4 7.5 -6t2.5 -10q-6 3 -9.5 3.5t-7 -0.5t-9 -2t-15.5 -1q5 6 13 8.5t8 11.5q-12 0 -18 -5.5t-8 -14.5q-4 0 -10.5 2.5t-11.5 5t-8.5 4
t-1.5 -0.5q-17 15 -38 31t-41 34t-36.5 39t-23.5 47q-8 26 -6 54.5t11.5 58t25.5 58.5t36 57zM89 189q-6 9 -5.5 19.5t5 21.5t11.5 22t14 21q-9 -1 -14 -2t-8 -2.5t-6 -3.5t-8 -3q4 -4 1 -14t-6.5 -22t-3.5 -22.5t9 -14.5q0 5 3.5 3.5t7 -4.5t4.5 -4t-4 5zM157 346
q-10 -11 -19 -23t-24 -19q3 -13 2.5 -17.5t4.5 -8.5q4 7 10 16.5l12 19t10.5 18t3.5 14.5zM223 408q-1 5 2.5 9t6.5 8t3.5 7.5t-5.5 6.5q-2 -3 -6 -7.5t-7 -9t-2.5 -8t8.5 -6.5z" />
    <glyph glyph-name="H" unicode="H" horiz-adv-x="612" 
d="M257 419q10 -4 27 -0.5t33.5 7.5t30 5t18.5 -8q5 2 1.5 6t-1.5 10q22 0 37.5 2.5t29 5t28.5 5t35 3.5q1 8 -2 8.5t-3 -4.5q8 15 18.5 35t22.5 41.5t23.5 43.5t22.5 42q-2 7 -6.5 4t-2.5 -9q-6 18 4 36.5t23.5 38t25 40t8.5 41.5q11 -11 11 4q17 -8 32.5 -15.5t34.5 -14.5
q-8 -50 -19 -93t-25 -82t-31.5 -76t-38.5 -76q12 0 16 10q1 -7 -3 -13t-8.5 -12.5t-7 -14.5t2.5 -18q-7 8 -14.5 3t-10.5 -12q0 -7 3 -6t6.5 2.5t5.5 1.5t1 -9q-10 1 -13 -0.5t-2.5 -4.5t2.5 -7t2 -8q-5 -5 -13.5 -5t-13.5 5q-2 -14 4.5 -17t11.5 -10q-2 -5 -6 -5t-4 5
q-10 -23 -23.5 -61t-30 -79t-35.5 -80.5t-41 -66.5q-11 -14 -22.5 -17.5t-24 -3.5t-25 1t-24.5 -4v115q12 9 21 0q8 13 21.5 44.5t28.5 67t28.5 67.5t22.5 44q-4 7 -7 12t-5 9.5t-3 10t-1 13.5q-2 -3 -8 -8.5t-13 -9t-13 -2.5t-7 10q-14 -19 -43.5 -27t-60 -14t-55 -15.5
t-29.5 -31.5q-9 4 -10.5 3t-1.5 -4.5t-1.5 -8t-10.5 -6.5q1 -5 4 -1.5t9 1.5q-29 -42 -50.5 -92t-36.5 -104q-5 0 -8 2.5t-5.5 6t-5.5 7t-7 4.5q-7 -3 -6 -5t4 -3.5t6.5 -4.5t0.5 -7q-26 -1 -49 17t-38 39q7 5 8 11.5t0 14t-1.5 15.5t2.5 17q5 -6 6.5 -11t1.5 -10t1 -10
t6 -11q3 0 5 3t3 5t2 1t1 -9q-3 11 -2.5 19.5t3 17.5t5 21t3.5 30q6 -13 12 -9t12 15t12 23.5t12 17.5q-21 13 -32.5 5.5t-18.5 -24t-11 -37t-10 -33.5q-4 12 -2 25.5t6.5 26.5t10 25.5t9.5 22.5q-5 8 -13.5 15t-17 14.5t-13 16.5t-0.5 21q13 0 24 3t21.5 7t21.5 7t25 3
q13 23 28 45.5t28 45t22 45t12 46.5q3 -1 2.5 -3t-2.5 -2q4 -5 7 -3t3.5 6.5t0 11t-1.5 11.5q11 15 20.5 32.5t18.5 35.5t18.5 35t20.5 32q-8 28 8 37t38 3t42 -24t20 -42q0 -5 -3 -15t-6.5 -21t-8 -22.5t-7.5 -19.5q-10 -27 -24 -55t-27.5 -53t-25 -45.5t-16.5 -32.5z
M374 138q1 7 13 29t26 47t25 48t11 32q-6 -2 -20 -24.5t-27.5 -50t-23 -51.5t-4.5 -30z" />
    <glyph glyph-name="I" unicode="I" horiz-adv-x="229" 
d="M99 409q10 27 25.5 56.5t32 60t33 61.5t30.5 62q11 -8 14 -4t6 15q14 -7 29 -12t27 -14t18 -23.5t1 -39.5q-6 1 -9 -2.5t-5 -7.5t-4.5 -7t-8.5 -1q-21 -58 -49 -112t-57 -108t-56.5 -111t-46.5 -120q-12 -3 -21.5 -9.5t-19 -14t-19.5 -14t-23 -10.5q-12 29 -6.5 67
t9.5 80q10 0 14.5 6.5t7 16t4 20t5.5 16.5q0 6 -3 3t-5 -7q-3 6 0 13t8.5 14.5t12.5 13t13 8.5q3 6 1.5 8.5t-3.5 4.5t-3 4.5t2 8.5q8 3 16 15.5t15 26.5t11 25z" />
    <glyph glyph-name="J" unicode="J" horiz-adv-x="489" 
d="M12 119q-6 -5 -6 -7.5t2 -4.5t5.5 -4t4.5 -5q4 4 1.5 9.5t-6 12t-6.5 14t-1 16.5q-6 -2 -7.5 -6t-0.5 -8.5t2.5 -9t0.5 -7.5q-6 0 -7 5.5l-2 11t-3.5 7.5t-9.5 -4q-1 -5 1.5 -4t4.5 2.5t3.5 1t-1.5 -9.5q-6 -5 -10.5 -2t-5.5 8t1.5 11t8.5 9q-4 -1 -7.5 -3l-7 -4t-6.5 -2
t-6 4q8 6 10.5 15.5t4.5 19t7 17t18 10.5q0 5 -4.5 5.5t-3.5 5.5q-6 -2 -9 -7t-5.5 -11t-6 -11.5t-10.5 -6.5q6 19 12.5 28t13.5 14.5t13 12t12 21.5q7 -5 7.5 -11t-1.5 -13t-5 -15t-3 -17q6 -7 11 -15t11.5 -15t15 -12t22.5 -6q-6 -8 -3 -13.5t11.5 -8t19.5 -2t21 3.5
q-2 5 -9 5.5t-14.5 0.5t-13.5 2.5t-7 11.5q11 -6 23 -6t22.5 1t18.5 1.5t12 -5.5q3 7 8 10.5t11 6.5l12 6t11 8q0 6 -2.5 5.5t-5.5 -2.5t-7 -3.5t-7 0.5q45 41 81.5 92t68 107t60 115.5t58.5 116.5q-31 -13 -68.5 -29t-75.5 -32.5t-73 -31.5t-60 -27q-22 13 -39.5 30
t-16.5 49q7 -2 11 0t7.5 4.5t7.5 4.5t11 0q57 37 128.5 67.5t143.5 53.5q31 9 63.5 17.5t65.5 13t64.5 4.5t59.5 -9q0 -10 -5 -12.5t-3 -13.5q-6 1 -12.5 -3l-13 -8t-12.5 -5t-10 5q2 -11 -11.5 -14.5t-28.5 -5.5q-10 -51 -24 -98.5t-34 -89.5q-12 -23 -29.5 -48.5
t-37.5 -39.5q7 -3 6 -7t-4.5 -7.5t-6 -8t0.5 -8.5q-3 -6 -4.5 -2.5t-6.5 2.5q-4 -3 -4.5 -9t-1.5 -13t-5.5 -12.5t-15.5 -7.5q5 -3 4 -10.5t-5.5 -14.5t-11.5 -12t-13 -4q7 -9 -0.5 -15t-13.5 -12q3 -2 -3 -17.5t-17.5 -37.5t-28.5 -47.5t-36 -48t-39 -39.5t-38 -22
q-9 -2 -22 -4t-27 -4.5t-28.5 -6.5t-25.5 -11q-21 7 -35.5 20t-27 27.5t-23.5 28.5t-24 24q4 4 7 3.5t6 -1.5t6.5 -1t8.5 3z" />
    <glyph glyph-name="K" unicode="K" horiz-adv-x="555" 
d="M-53 116q6 1 5.5 3t-2.5 4.5t-4 6t1 8.5q12 -2 17 -10t16 -12q8 14 12 31.5t7 36.5t5.5 36.5t7.5 31.5q1 6 3.5 6.5t5 -2t3.5 -7t-2 -8.5q7 4 5.5 11.5t-4.5 15t-4 13.5t8 7q0 4 -3 4t-6.5 -2.5t-7 -5.5t-3.5 -6q-3 4 -2 10.5t4.5 13t7.5 13t7 10.5q-7 6 -2 20.5t15.5 32
t22 35.5t19 33.5t7 24.5t-14.5 9q13 27 28 51.5t29 50t26 53t20 59.5q7 2 11.5 5t11.5 5v17.5t1 17.5q6 -8 12 -2.5t8 14.5q36 -5 51 -19t17.5 -34t-5.5 -44t-18 -48.5t-19.5 -47.5t-10.5 -41h-17q-5 -41 -24 -83t-48 -79q60 23 128 59.5t136 71.5q2 8 -1.5 9.5t-8.5 1.5
q143 94 261 218q22 -11 43.5 -21t32.5 -32q-4 -7 -6 -11t-3 -7.5t-1.5 -7.5t-1.5 -11q-58 -48 -118 -99.5t-120.5 -98.5t-121.5 -87t-121 -67q1 -6 9.5 -9t16.5 -5.5t13 -6.5t0 -11q26 0 51 -8.5t49 -20t48.5 -23.5t48.5 -20q-11 -10 -21 -20t-1 -27q-9 0 -19 -0.5
t-20.5 -0.5t-19 1t-14.5 5q-1 0 3 4.5t2 6.5q-29 10 -59.5 22t-63.5 22t-67 15.5t-68 2.5q-3 7 -6.5 9.5t-8 4.5t-9.5 4t-11 8q2 -14 -6.5 -20t-10.5 -11q2 -5 6 -5t4 5q7 -8 0 -15.5t-16 -5.5q7 -2 7.5 -12.5t-3.5 -22t-9.5 -19t-10.5 -4.5q0 -11 0.5 -18t0 -13t-1 -13
t-1.5 -18q-11 2 -15 4.5t-5 5t-1.5 5.5t-4.5 7q-7 -5 -12.5 -9.5t-3.5 -17.5q-8 7 -21 16t-24.5 18t-18 18t-1.5 15z" />
    <glyph glyph-name="L" unicode="L" horiz-adv-x="516" 
d="M262 772q8 -9 16.5 -4.5t9.5 15.5q50 -11 65 -35.5t9.5 -56t-24 -67.5t-34.5 -71q-13 -27 -28 -53.5t-28.5 -52t-24 -51t-13.5 -50.5q-8 6 -9 3t-12 -3q1 -5 6 -5h9q-14 -20 -22.5 -40t-15.5 -40t-14 -39.5t-19 -37.5q25 2 56.5 8.5t65 13t67.5 10.5t65 0q-1 4 -6.5 3.5
t-9.5 0.5q13 10 32.5 9.5t38 -7t32.5 -16t17 -17.5q-13 -4 -19 -12.5t3 -23.5q-9 3 -23 -0.5t-29 -8.5t-30 -8t-27 2q-7 -2 -2.5 -5.5t2.5 -10.5q-49 -10 -92 -24t-84.5 -30t-83.5 -33t-88 -33q-11 6 -24 14.5t-25.5 19.5t-22.5 25t-16 31q10 0 7.5 2.5t-7.5 1.5
q19 7 38.5 13t38.5 13q1 8 1 16.5t1.5 16t5.5 11.5t13 3q2 8 1 15.5t-2.5 14t-2 12t3.5 9.5q6 1 6 -2t-1 -7.5t-0.5 -8t6.5 -2.5q10 13 9 29t-2 31t2.5 29t21.5 25q1 30 11 58.5t23.5 56.5l27 56t21.5 58q-10 -11 -11 -7t3 13t11 19.5t12 12.5q17 45 42.5 81.5t51.5 72.5v37
z" />
    <glyph glyph-name="M" unicode="M" horiz-adv-x="726" 
d="M579 414q1 9 7.5 20t15.5 23t17 24.5t12 25.5q-63 -42 -109 -87t-83 -94.5t-69 -106.5t-65 -123q-11 8 -23 7.5t-20 -11.5q-8 7 -12 14.5t-7 14.5t-7 14t-11 14q6 25 5.5 52t-3 54.5t-6.5 54.5t-5 52q-5 -19 -13 -37l-16 -36t-14.5 -35t-7.5 -34q-8 -1 -10 2.5t-7 3.5
q7 -5 7 -14t-3.5 -16.5t-9 -12.5t-9.5 -3q4 -12 -2.5 -26.5t-16.5 -29t-21 -29.5t-17 -29q-10 4 -15.5 2.5t-8.5 -7t-4.5 -13t-4.5 -14.5q-14 5 -24.5 7t-21 2.5t-22.5 1.5t-29 4q6 30 17.5 55t26 47.5t30 43t30.5 42.5q15 64 38.5 125.5t48 123t46 124.5t33.5 129
q26 -2 43.5 -10.5t33.5 -19.5v-31q19 -32 26 -75t8.5 -91.5t0.5 -99.5t2 -98q22 22 44 49.5t44 53.5t45.5 48.5t48.5 35.5q13 28 32 46.5t41 34t45 31t44 39.5q4 -1 4.5 -6t4.5 -5q-3 12 0.5 22t9.5 21t11.5 24t5.5 31q23 11 54 3t54 -27q-2 -29 -13 -52.5t-24.5 -44.5
t-25.5 -42t-15 -43q-3 -15 -6.5 -33t-10 -36t-17 -34t-27.5 -27q0 -5 2.5 -4.5t6 2.5t7.5 3.5t9 -1.5q-11 -8 -13 -11t8 -6q0 -13 -11 -16.5t-26 -3.5q1 -6 3.5 -9t4 -5.5t0.5 -4.5t-8 -6q4 -5 8 -3t7.5 7t6.5 11l5 10q7 -2 6.5 -9t-4.5 -14.5t-11 -14t-14 -7.5q3 4 5.5 5
t4.5 1.5t1.5 1.5t-3.5 6q-6 -1 -8.5 -5t-4.5 -9t-3.5 -9.5t-5.5 -7.5q2 -6 5.5 -2.5t8.5 2.5q-3 -9 -7 -14.5t-7 -10.5t-6 -12t-4 -19q-8 0 -9 0.5t0 2l3 4.5t1 7q-7 -3 -10 -5.5t-5 -6t-4 -8t-7 -10.5q1 -8 5 -7t8 3t6.5 2t0.5 -10q-3 -3 -5 -3t-3.5 0.5t-4 1.5t-7.5 1
q-4 -11 -1 -21.5t1 -18.5q-2 -11 -8 -22t-12.5 -22t-13 -21t-8.5 -19q-2 -10 0 -20.5t3.5 -20t-0.5 -16.5t-14 -10q8 -8 8.5 -8t-2.5 -12h-20q-15 -16 -32.5 -14.5t-31 13.5t-20 30.5t-0.5 37.5q5 0 4.5 -5.5t-0.5 -10.5q7 2 9 5t1 7t-2.5 9t-0.5 11q8 -11 16 5.5t16.5 45.5
t18.5 64t22 61q8 20 18.5 34t16.5 39q-2 5 -8 4.5t-13 0.5q14 14 21.5 35.5t15.5 41.5q-13 0 -16 -9z" />
    <glyph glyph-name="N" unicode="N" horiz-adv-x="546" 
d="M-43 88q3 12 8.5 26.5t11 30t8 31t-1.5 28.5q22 53 44 102t30 100q-2 6 1 7.5t7 2t8 1.5t4 5q-2 5 -5.5 1.5t-10.5 -1.5q31 76 64 145.5t56 133.5q40 -3 62.5 -26t33.5 -59t14 -81t4.5 -91t5 -89t15.5 -75q1 -8 8 -9.5t12 -4.5q-7 -10 -4 -25.5t11 -20.5q7 4 11.5 11.5
t8 16l7 17t8.5 15.5q-13 5 -13.5 10t1.5 8.5t2 5t-12 -0.5q3 3 5.5 7.5t5.5 7.5t6.5 4t9.5 -4q-1 3 -3.5 4.5t-1.5 4.5q-1 6 -2.5 6t-4.5 -2t-7 -4t-8 0q0 6 5.5 12.5t10 12.5t5 11t-9.5 7q39 56 71.5 117.5t69.5 121.5q-10 -2 -19 -14t-16.5 -24.5t-12 -19.5t-4.5 2
q35 50 65 105t65 106q13 -3 23.5 -7.5t21 -9.5l21 -10t22.5 -9q10 -26 3.5 -51t-21 -48t-32 -44t-28.5 -39q-3 -5 -1.5 -15.5t-3.5 -15.5q-12 -13 -26.5 -31t-26.5 -37q-2 -3 4 -4.5t7 -0.5q-4 -6 -10.5 -10t-11.5 -8.5t-7.5 -9.5t2.5 -13q-6 4 -7 3t-1 -3.5t-2 -6t-10 -3.5
q-1 -7 2.5 -8.5t8.5 -2.5q-2 -8 -9.5 -11.5t-16.5 -5.5q-1 -9 6 -11t15 -4q-18 0 -23.5 -4t-7.5 -9t-5 -10t-16 -7q2 -5 0 -9l-3.5 -7t-0.5 -4t9 -1q-1 -5 -5.5 -9t-9 -8.5t-6 -9t4.5 -10.5q-6 -1 -9 -6.5t-5.5 -10.5t-6 -7t-10.5 4q2 -8 3.5 -15t6.5 -12q-9 -8 -16 -20
t-10.5 -24.5t-2.5 -22.5t9 -14q-4 -8 -9.5 -13.5t-11 -11.5t-10.5 -12.5t-6 -16.5q-11 2 -20.5 -1.5t-20 -8.5t-22 -9.5t-25.5 -4.5q-3 15 -3.5 31t-2 32t-5.5 30t-15 25q3 5 6 1.5t10 -1.5q-3 21 -8.5 49t-12 59t-13.5 63.5t-13 62.5q0 -9 -4 -14.5t-9 -9.5l-10 -8t-8 -11
q-6 4 -11 8t-4 15q-9 -15 -13.5 -29.5t-8.5 -26.5t-9.5 -21.5t-16.5 -15.5q2 -6 6 -3.5t6 7.5q5 -2 3.5 -4t-5 -5t-5.5 -7.5t1 -10.5q-8 5 -10.5 4t-4 -3t-3.5 -3.5t-8 2.5q0 -2 2 -4.5t5 -4t6 -1t3 5.5q4 -3 3 -7t-5 -6t-9.5 -2t-9.5 5q0 -4 3.5 -5.5t6.5 -3t4.5 -4.5
t-0.5 -9q-6 -1 -8.5 -5t-4.5 -8.5t-6 -8t-11 -3.5q0 -16 10 -21q-2 -6 -3.5 -6t-3.5 2t-4.5 5t-4.5 3q-2 -3 -0.5 -5.5t2 -5t-1 -5t-10.5 -4.5q11 0 13 -4t-1.5 -9.5t-10.5 -10.5t-15 -7q11 -3 11 -4t-3 -3.5t-6 -6.5t2 -12h-21q-3 -8 0 -9t7.5 -1.5t8 -2t1.5 -8.5
q-6 0 -8.5 -1t-4 -2t-3.5 -0.5t-6 3.5q-2 -7 2 -8t9 -2q-6 -5 -12 -9.5t-11.5 -9t-9 -11t-4.5 -16.5q-13 -2 -25.5 -7t-24 -9t-23 -5t-21.5 4q5 26 12.5 46t18.5 37q4 0 4 -2.5t-0.5 -5t0.5 -5t7 -3.5zM233 234q8 -10 14.5 -23t11.5 -28q-7 3 -10.5 8.5t-6 13t-4.5 15.5
t-5 14z" />
    <glyph glyph-name="O" unicode="O" horiz-adv-x="450" 
d="M352 717q31 -4 61 -11.5t52.5 -22t35.5 -37.5t12 -58q-2 -24 -15.5 -56.5t-25.5 -64.5q-49 -118 -111.5 -220.5t-127.5 -205.5q-20 -14 -34.5 -20t-28.5 -6.5t-30 3.5t-37 12q-24 9 -45 19t-37 24.5t-26 35.5t-11 52q-2 31 6 65t20.5 69t28 69.5t27.5 66.5q13 29 27 66.5
t29.5 72t31.5 60.5t33 34q6 4 14 2t17 -4.5t20.5 -4.5t25.5 2q15 4 25.5 13t20.5 18t20 17t22 10zM373 462q14 29 28 62t18.5 61.5t-5 46.5t-41.5 17q-6 -11 -17.5 -17.5t-25 -12t-27.5 -11.5t-23 -15q-12 -12 -22.5 -30.5t-20 -40t-18 -45.5t-17.5 -46q-16 -38 -31 -77
t-25.5 -79t-15.5 -81.5t0 -84.5q26 36 59 78t66 87.5t64 93t54 94.5z" />
    <glyph glyph-name="P" unicode="P" horiz-adv-x="627" 
d="M-50 46q-3 9 -2.5 27t6.5 36q14 -10 16.5 -12.5t4.5 17.5q-3 -1 -4.5 -3.5t-2 -4t-2.5 -1.5t-6 4q5 19 14 39t16 44q12 -3 12 -16q6 3 5 6t-4 6t-5.5 6.5t0.5 8.5q9 13 20.5 31t21 37.5t14 38.5t-0.5 33q30 60 59.5 128t60.5 142q-13 -6 -28 -19.5t-32 -24t-35.5 -12.5
t-39.5 15q23 45 64 85t92.5 69t110 45t117 14t113.5 -24.5t99 -69.5q12 -13 25.5 -31t22 -39.5t10 -46t-9.5 -49.5q-3 -36 -18.5 -65t-38 -53.5t-47.5 -45t-47 -39.5q-1 -10 6 -10q-2 -2 -6.5 -5t-9 -4.5t-8 0t-2.5 9.5q-4 -3 -4 -6v-6.5t-1 -7t-7 -6.5q-35 -11 -62 -28.5
t-56 -34.5q-6 -1 -6 2.5t0.5 8.5t0.5 8.5t-5 2.5q-3 -5 -3 -10t-0.5 -8t-2.5 -2.5t-10 7.5q-3 -20 16 -14q-3 -7 -11 -8t-17 -1t-17.5 -1.5t-12.5 -10.5q-6 3 -5.5 5.5t3.5 5t7.5 5t5.5 5.5q-3 7 -7 7.5t-8 -0.5t-7 -0.5t-5 7.5q-5 -1 -2.5 -3.5t5 -5.5t2 -6t-9.5 -5
q1 -4 3 -3.5t5 3.5t5 6t3 5q2 -3 -2 -10t-10 -12.5t-13 -6t-11 8.5q1 -7 -1.5 -9.5t-6.5 -4.5t-9.5 -4.5t-9.5 -8.5q-8 2 -9.5 9t-6.5 12q-2 -4 -5 -10.5t-20 -5.5q7 10 3 9t-13 -4t-19.5 -4t-17.5 10q-11 -25 -25.5 -58.5t-25.5 -59.5q-6 -15 -8 -34t-7 -35t-16.5 -26
t-36.5 -6q3 7 -1.5 10t-9.5 5t-8 3t3 3q-5 4 -12.5 4.5t-15.5 1.5t-16 4t-13 12q-5 0 -3.5 -3t3.5 -3q-14 0 -22.5 18.5t-8.5 38.5q8 -1 9.5 -8t6.5 -13zM7 114q-6 0 -5 7t-4 9q2 -11 -5.5 -12.5t-7.5 -8.5q5 -5 12.5 -4t9.5 9zM42 -10q8 1 10 -4t6 -8q1 5 6 6t10 1
q0 9 2 16t3.5 13.5t1 14t-6.5 17.5q12 -2 13 1t0 7.5t0 7.5t13 0q-1 19 6 26q-6 1 -9.5 -1.5t-6 -6t-5.5 -7.5t-7 -6q5 -1 5 -7.5t-5 -8.5q-1 5 -4.5 8t-4.5 -2q6 -2 6 -4.5t-3 -5t-7.5 -4t-6.5 -2.5q2 -21 -1.5 -32.5t-14.5 -18.5zM189 223q-2 7 2 9t9 3t9.5 2.5t4.5 7.5
q-7 3 -16.5 3t-13.5 7q15 -3 34.5 3t40 15t41 18.5t39.5 14.5q3 -5 0 -8t-6 -5t-4 -4t5 -3q3 5 11 4q0 -2 1.5 -2.5t2.5 2.5q-7 1 -6 10t-4 12q7 7 18 13t20 10t14.5 5t3.5 -2q-3 1 -5 4l-4 6q16 12 35.5 29t37.5 33t33 28t24 13q-6 2 -10.5 -1.5t-6.5 1.5q11 8 16.5 20.5
t15.5 20.5q-1 -4 1 -8.5t4.5 -7.5t4.5 -3t0 5t-3.5 9.5t-6.5 17.5q9 13 19 27.5t18.5 30.5t14 32.5t5.5 33.5q-1 28 -16.5 48t-40 31.5t-55 15.5t-61.5 0.5t-59 -13t-48 -25.5q2 -13 9.5 -21.5t10.5 -20.5q-3 -9 -6 -11.5t-6 -3t-6.5 0t-7.5 -0.5q6 -7 4.5 -16.5t-6 -17.5
t-10.5 -13.5t-9 -5.5q-3 -14 -9 -35t-14.5 -42t-18 -38.5t-19.5 -23.5q1 -24 -3.5 -48t-12 -48t-16.5 -47t-15 -45q17 0 20 -10q-7 -2 -12 -7t8 -9z" />
    <glyph glyph-name="Q" unicode="Q" horiz-adv-x="557" 
d="M-3 181q-10 -9 -10 -32q-8 13 -4.5 30.5t9 35t8 34.5t-7.5 30q14 2 20 13.5t11 23.5q-2 5 -5 1.5t-10 -1.5q8 24 19.5 46.5t22 45t18.5 43.5t8 42q11 7 18.5 21t14.5 28.5t15 26t19 11.5q-2 10 3.5 24.5t14.5 27.5t19.5 22.5t19.5 9.5q0 14 9 26.5t21 24.5t25.5 23.5
t23.5 23.5q19 -5 42.5 -11.5t48 -14t49 -17t46.5 -19.5q-2 -4 -5 -3t-7.5 3.5t-10.5 4.5t-13 -1q24 -13 51.5 -37.5t48 -56.5t28 -69t-8.5 -75q4 -9 3 -15t-3 -12t-3 -13t3 -17q-6 -4 -12.5 -11.5t-12 -17.5t-7.5 -21t1 -22q-8 1 -10.5 -3t-9.5 -3q2 -14 2.5 -20t-9.5 -15
q-5 1 -5.5 5t1 8.5l3 9t1.5 8.5q-3 -2 -6.5 -5.5t-6.5 -8t-4.5 -8.5t1.5 -5q-1 -5 -4.5 -4.5t-6 3.5t-3 6.5t4.5 5.5q-11 -8 -6 -21t6 -27q-13 -19 -31 -40t-31.5 -44t-17.5 -49.5t12 -57.5q-7 -13 -11.5 -27.5t-13.5 -24.5q-27 14 -48.5 30t-35.5 31q-4 -1 -4 -5t-5 -4
q0 -4 2 -4t4.5 1t5 0t4.5 -8q-2 -8 -7.5 -12t-11 -7.5t-10 -8t-4.5 -13.5q-10 -2 -29.5 -13.5t-42 -19.5t-45.5 -6t-39 28q-81 13 -104 116q-6 -7 -6 -2t1.5 15.5t2.5 23t-3 19.5zM12 155q5 11 3.5 21.5t3.5 25.5q-8 -2 -11.5 2t-5.5 -2q7 0 7.5 -9t-0.5 -19t-1.5 -16.5
t4.5 -2.5zM76 145q-5 1 -8 1t-3 3q8 -1 11 3t9 3q1 -6 -1.5 -13t-4.5 -13.5t-3 -12t4 -8.5q0 5 1.5 8.5t8.5 1.5q-2 -17 -3.5 -28.5t9.5 -22.5q30 3 53.5 13t42.5 24t35.5 30t34.5 31q-16 41 -18.5 82t5.5 81t26 77.5t44 72.5q11 -5 26 -9t28.5 -11.5t23 -20t10.5 -32.5
q-17 -23 -22 -58.5t-13 -67.5q28 20 44.5 50.5t37.5 59.5q0 -6 4.5 -8t8.5 -2t6 1.5t-3 3.5q-13 1 -13 9t5.5 20t13 26t10.5 27q5 24 3.5 50.5t-8 50.5t-18 43t-25.5 29q8 2 1.5 10t-20 16.5t-29.5 14.5t-28 4q-20 -3 -40 -21.5t-40 -46.5t-39 -61.5t-38 -66.5
q-23 -41 -43 -85t-36 -87t-26.5 -83t-14.5 -73q-3 -1 -6 3t-5 8t-3 4t-2 -10q3 0 1 -5t-4 -9.5t-1 -7t11 1.5zM433 660q8 2 14 -2t12 -9t12.5 -9t14.5 -1q-2 6 -7 7.5t-11 3.5t-11.5 5.5t-6.5 13.5q11 -9 15 5q-5 0 -11.5 -1.5t-12 -4t-8.5 -5t0 -3.5zM517 461q-3 3 -2 6.5
t2 7.5t-2 7.5t-14 5.5q6 -3 5.5 -11t-1.5 -14.5t0.5 -8.5t11.5 7zM521 580q-2 0 -3 -1.5t3 -2.5q0 5 5.5 5t7.5 5q-14 -1 -17 3.5t-3 10v8.5t-8 -1q0 2 -2 3.5t-3 -3.5q7 -3 8 -5.5t-1 -5t-5.5 -5t-5.5 -5.5q8 2 13.5 3t10.5 -9zM510 529q2 -3 -0.5 -5.5t-5 -4.5t-3.5 -3.5
t5 -2.5q4 5 4.5 4t-1 -4t-4 -6.5t-4.5 -4.5q7 4 11 1t6.5 -7t4 -6t3.5 3q-6 9 -9 20t-7 16zM526 394q-1 5 2 12.5t6 13.5t4 9.5t-4 0.5q-2 -3 -2.5 -6t-5.5 -3q0 2 -1.5 3t-3.5 -3q5 0 5.5 -2.5t-1.5 -5.5t-4.5 -5.5t-3.5 -2.5q0 2 -2.5 3.5t-4.5 -3.5q7 -1 9 -5t7 -6z" />
    <glyph glyph-name="R" unicode="R" horiz-adv-x="584" 
d="M-37 101q5 -9 7 -21t3 -25t1.5 -26.5t3.5 -24.5q-8 9 -11.5 22t-4.5 26.5t0 26.5t1 22zM138 404q-6 0 -6 6q-5 -6 -15 -13q-3 4 0.5 7.5t9.5 7l12 7t8 8.5q0 4 -2 4.5t-5 -1t-5.5 -4t-2.5 -3.5q-5 3 -4 6.5t4 7t6 7.5t4 7q-8 -2 -13.5 -6t-9.5 -9.5t-7.5 -11.5t-7.5 -10
q3 9 12.5 24.5t20 33t20.5 35.5t13 32q0 3 -2.5 4.5t-2.5 4.5q-5 -5 -10.5 -9.5t-7.5 -12.5q-14 3 -24 3t-24 -3q-1 8 -6 12.5t-11.5 8t-13.5 6.5t-12 8q6 29 40 61t82 59t102 44t98 16q-10 3 -8.5 5.5t6.5 3.5t10.5 -1t4.5 -8q40 7 84.5 -2t84 -28.5t70 -47t42.5 -57.5
q-1 -4 -5.5 -3.5t-9.5 -0.5q1 -4 6 -3.5t9 0.5q1 -8 -2.5 -9t-7.5 -2q8 -1 11.5 -11t2.5 -22t-4.5 -22t-9.5 -11q0 -3 3 -3t7 -1q-6 -19 -18 -33.5t-26 -27t-28.5 -25t-24.5 -28.5q-9 1 -13.5 -2t-15.5 -1q4 -9 1 -10.5t-8.5 -2t-10 -2.5t-2.5 -12q-44 -15 -67 -32t-46 -29
q-13 -2 -15.5 4.5t-6.5 12.5q-11 1 -17 -2t-11.5 -6.5t-10.5 -8t-13 -6.5q0 -3 3 -5t5 -3.5t1 -2.5t-9 -1q0 -5 4 -5t6 -1q5 1 5 3t-1.5 4.5t-3.5 5t0 5.5q5 -4 7.5 -2.5t-3.5 2.5q16 12 32.5 7.5t36.5 -7.5q6 -2 1 -3.5t-13 -1.5t-15.5 1t-7.5 4q-5 -1 -3.5 -3t4.5 -5
t4 -6.5t-5 -6.5q-3 2 -5 10.5t-19 6.5q10 -11 4 -14t-17 -4t-22 -3t-9 -11q-21 6 -36.5 5t-18.5 -14q-2 -3 1 -5t7 -2.5t7 0t3 3.5q1 -4 -4 -3t-6 -1q-2 -17 7 -28t20 -21t20.5 -20.5t9.5 -25.5q7 6 16 6q1 -3 -3.5 -4.5t-2.5 -3.5q15 -14 35.5 -31t42.5 -23t43 6t36 56
q6 -4 7 -5.5t1.5 -2t2.5 0.5t10 1q5 -3 5 -13.5v-21.5q-14 -6 -22.5 -16.5t-15.5 -23t-13.5 -25.5t-15.5 -24q-31 -9 -55 -4t-45 16.5t-40.5 26.5t-40.5 27q-15 13 -32 30.5t-33 34.5t-30 32t-24 23q-11 -7 -19.5 -23.5t-17 -35t-17.5 -34.5t-21 -21q4 -3 6.5 -3.5t4 0
t2 -0.5t1.5 -6q-1 -8 -8.5 -4.5t-9.5 4.5q7 -8 5.5 -10.5t-6 -4.5t-8.5 -5.5t-2 -14.5q-11 3 -13 -2.5t-7 -10.5q-20 3 -31 -9t-16 -27q-19 26 -18 55.5t12 55.5q5 -1 5.5 -5t0.5 -8q12 8 17 22.5t7 31.5q11 0 16.5 10t9.5 24.5t8 28.5t13 22q0 4 -1.5 3.5t-3.5 -2t-5.5 -3
t-7.5 1.5q7 3 9.5 6.5t4.5 6.5t5 5.5t10 2.5q-9 6 -7.5 8.5t3.5 15.5q14 2 20 16t10 32t10.5 35t21.5 26zM503 518q-2 1 -6 1t-4 3q29 20 51.5 46.5t30.5 67.5q-14 17 -40 28.5t-56.5 15.5t-63 0.5t-57.5 -15.5v7.5t-5 5.5q-13 -13 -10 -26t2 -27q-2 -19 -12.5 -35
t-23.5 -31t-26 -29.5t-19 -31.5q-4 -5 -1 -12.5t1 -13.5q-6 -19 -16.5 -36.5t-22 -35.5t-21 -37.5t-13.5 -41.5q5 -1 15 -1.5t19 -0.5t15 1t4 4q-2 -2 -2.5 -3t-3.5 0q36 17 68.5 37t71.5 35q0 9 4.5 15t11 9.5t13.5 6t11 3.5q-5 8 3 15t18 13.5t17.5 14t2.5 16.5
q1 -6 -2.5 -10t-7.5 -5.5t-8 -0.5t-5 7q11 3 19.5 7.5t15.5 10.5t14.5 12t17.5 11zM335 299q-2 3 -8 3t-12 -1.5t-10 -4.5t-4 -7q4 1 10.5 0.5t12 -1t9 1.5t2.5 9zM426 339q1 -5 -2 -6.5t2 -2.5q2 5 10 9q0 -2 2 -3.5t3 3.5q-5 0 -3.5 2.5t3.5 5.5q-6 3 -12.5 1.5t-10.5 -4
t-4.5 -4t4.5 2.5q2 -2 5 -2t3 -2z" />
    <glyph glyph-name="S" unicode="S" horiz-adv-x="527" 
d="M-44 152q-5 -10 -10.5 -18.5t-19.5 -8.5q6 21 30 27zM-35 134q-3 -9 -5 -12.5t-2 -4.5t2.5 -0.5t9.5 0.5q-5 -8 -10 -7.5t-15 2.5q-1 -5 2 -7t3 -6q4 2 9 2.5t6 5.5q7 -3 5.5 -4.5t-6 -2.5t-8 -3t-0.5 -7q-5 0 -7 2.5t-4.5 5t-5.5 4.5t-9 2q6 11 15.5 17t19.5 13zM-10 90
q-6 -5 -6 -15q8 4 10 7t10 -7q2 7 -0.5 10t-5 4.5t-3.5 3.5t4 6q-9 -1 -13 -3.5t-12 3.5q0 3 3 4t6.5 1t6.5 0.5t4 2.5q0 4 -1.5 3.5t-4 -2t-6.5 -2.5t-8 1q2 4 6.5 6t9.5 4q-12 5 -20 14.5t-14 20.5q6 16 15.5 28.5t27.5 17.5q-3 -13 -7.5 -21t-1.5 -25q13 -20 31.5 -30
t39 -12.5t43 1t45.5 10.5q-11 6 -19.5 3t-27.5 1q-10 2 -7 3.5t11 2.5t17 1.5t12 1.5q28 16 63.5 25.5t64.5 24.5q6 5 10.5 11.5t10.5 12t13.5 9.5t18.5 4q8 5 7 10t-3 13q15 4 15 -9q6 1 6 3t-2 4t-4 5t0 6q17 3 27.5 12.5t21.5 18.5q-1 46 -23 66t-54.5 27.5t-69.5 9
t-67 11.5q-16 6 -22 13.5t-8.5 16t-6 18.5t-13.5 21q3 68 25 119t56.5 89.5t76.5 68t86 53.5q12 1 24 3t14 -13q4 2 6 6t10 4q26 -11 63 -24.5t70.5 -31.5t57 -42.5t22.5 -57.5q0 -17 -9 -33t-21 -31t-25 -27.5t-22 -22.5q-9 -9 -17 -18t-18.5 -14t-23 -3.5t-30.5 12.5
q10 21 24 37.5t25.5 32.5t18 34.5t1.5 42.5q-7 30 -27.5 42.5t-46.5 12.5t-52 -11t-44 -27q-34 -28 -62 -57.5t-47.5 -57t-30.5 -51.5t-11 -40q133 -10 200.5 -62t62.5 -159q-4 -27 -37 -62.5t-80.5 -69t-102.5 -60.5t-101 -37q4 4 3.5 8t-3.5 7l-6.5 6.5t-3.5 8.5
q1 -4 -1.5 -5.5t-5.5 -1t-4.5 3t1.5 8.5q-8 -3 -8.5 -5t2 -5t5 -6.5t1.5 -9.5q7 -2 11.5 0.5t-1.5 3.5q13 0 10 -4t-11 -6.5t-15 -1.5t-2 12q-2 -3 -6 -3.5t-8 -0.5t-7.5 -1t-3.5 -4q-17 10 -21 26q-6 -2 -5 -4t4 -4.5t5.5 -5.5t-0.5 -7q-14 4 -21 10.5t-11.5 15t-8.5 17
t-11 15.5q-5 -2 -4 -5.5t3 -8t4.5 -9.5t2.5 -9q2 2 5.5 4t7.5 2q2 -5 -0.5 -7.5t-5.5 -3.5t-2.5 -1.5t8.5 -1.5q-2 -3 -10.5 1t-16 10.5t-12 11.5t0.5 4q-11 2 -23.5 6.5t-19.5 8.5t-4 7t23 2zM92 34q-3 4 -2 1.5t4.5 -5t7 -2.5t4.5 11q2 -4 10.5 -8.5t10.5 3.5q-1 1 -4.5 2
t-6.5 2.5t-4 2.5t4 1q2 0 3 2.5t-3 2.5q-3 -5 -9 -3.5t-11.5 4.5t-9 4t-1.5 -5q8 1 11.5 -1.5t5.5 -6.5q-3 0 -5 -2.5t-5 -2.5z" />
    <glyph glyph-name="T" unicode="T" horiz-adv-x="289" 
d="M-39 21q0 5 2 3.5t2 -3.5q-1 9 -4.5 28.5t4.5 38.5q1 -3 4 -11t4.5 -15.5t1.5 -12.5t-5 -3q2 -5 6 -7.5t5 -8.5q7 4 7.5 9.5t-0.5 13t-2.5 16.5t1.5 19q6 2 8 -1.5t2 -8.5t0.5 -10t4.5 -6q6 5 8 14t2.5 19.5l1 21t4.5 18.5q2 -1 3.5 -3t6.5 -2q-1 -4 1 -4.5t4 -1.5
q-1 -5 -6 -4t-9 -1q4 -6 10 -5t10.5 5.5t5 10.5t-5.5 10q-6 -2 -2.5 -5t2.5 -11q-8 13 -4.5 27t12 28.5t18 29.5t12.5 30q-4 6 -6.5 3.5t-5.5 -7t-6.5 -9.5t-9.5 -3q10 24 21.5 45t23.5 41.5t23 41t20 43.5q-29 -7 -31 -46q-6 2 -9.5 1t-6 -3t-5.5 -3.5t-8 0.5q1 7 5.5 10.5
t9.5 7t9 7.5t5 11q0 4 -5 4h-10q16 10 27.5 24.5t21 31t18.5 34.5t22 36q-12 0 -18.5 -6.5t-10.5 -15t-9 -16t-14 -9.5q2 11 -0.5 10t-7.5 -7t-11.5 -12t-11.5 -6q22 26 39 53t32.5 55t31.5 55.5t37 53.5q-19 3 -38.5 -1t-39.5 -10t-40.5 -12t-41.5 -8q-29 15 -55.5 31.5
t-45.5 42.5q39 22 89 35.5t105 21.5t112 12.5t111 8.5t101.5 9.5t83.5 16.5q-5 -5 -7.5 -6.5t-2.5 -2t1.5 -3t4.5 -8.5q4 3 6 7.5t5 9t7.5 7t13.5 0.5q-11 -8 -9.5 -8.5t7 1t9.5 1t-2 -8.5q11 11 35.5 15.5t52.5 3t54 -8.5t40 -19q-5 -2 -6.5 -8t-0.5 -13.5t3 -15t4 -11.5
q-22 -3 -46 -6t-48 -5.5t-45.5 -4.5t-37.5 -5q-4 0 -5 2.5t-1 6.5t-0.5 7t-3.5 5q-19 -23 -43.5 -29t-51 -6.5t-52 -2t-46.5 -14.5q-4 -3 -13.5 -13t-20 -23.5t-20 -27.5t-13.5 -25q-2 -4 0 -12.5t0 -13.5q-6 -11 -17 -17t-14 -14q-5 -8 -2 -18t-5 -18q-3 -5 -8.5 -6
t-10.5 -2.5t-8.5 -5t-1.5 -13.5q1 -4 2.5 -3t1.5 3q-8 -24 -24.5 -51.5t-35.5 -56t-37.5 -57.5t-28.5 -57q-8 -1 -12.5 -4.5t-11.5 4.5q0 -5 2.5 -6.5t6 -2.5t5.5 -3.5t1 -8.5q-9 1 -12 -0.5t-3 -4.5t2 -7.5t2 -8.5q-7 -6 -21 -10t-25 4q-3 -5 -0.5 -7t6.5 -3t5 -2t-5 -3
q2 -3 4 -2t5 3t6.5 2.5t9.5 -3.5q-17 -23 -27 -48t-16.5 -50.5t-11.5 -52t-12 -52.5q-9 5 -20.5 5.5t-24 1.5t-25.5 4.5t-23 15.5zM749 759q6 -1 4.5 -4.5t-4.5 -7.5q14 1 20 -1.5t11 8.5q-7 -3 -10.5 -1.5t-5.5 4.5t-5 5.5t-10 1.5q-4 -4 -10.5 -4.5t-3.5 -12.5
q7 -1 8.5 4.5t5.5 7.5zM8 151q4 -8 2.5 -14t-4.5 -12t-6 -13.5t-2 -17.5q-6 7 -5.5 15t3.5 17t7 18t5 17q5 -6 10 -3t4 14q5 -2 5 -6t-3 -8t-7.5 -6t-8.5 -1z" />
    <glyph glyph-name="U" unicode="U" horiz-adv-x="582" 
d="M-10 285q6 3 11 20.5t11.5 38.5t16 40t24.5 25q2 28 16 54t30.5 52t30.5 52.5t16 55.5q6 -3 9.5 -3t6.5 2t6 5t9 5q18 -6 38.5 -14.5t37.5 -21t27 -30.5t7 -44q-27 -26 -45.5 -57.5t-33.5 -63.5t-30 -62t-37 -54q-2 -7 1.5 -8.5t8.5 -1.5q-14 -15 -23.5 -35.5t-15.5 -43
t-9 -46.5t-3 -46q9 0 10 -7q15 5 32.5 22t34.5 36t33 35.5t29 20.5q4 2 9 -4.5t7 -4.5q2 1 -4 6t-6 3q2 8 7.5 6.5t6.5 0.5q7 4 14.5 13t15.5 20t16.5 22.5t17.5 21.5q2 2 8 0t8 0q2 3 1 12.5t3 12.5q2 3 10.5 3.5t10.5 2.5q7 8 11 18.5t9 18.5q17 17 33 47.5t37 56.5
q5 8 15 10.5t15 9.5q9 12 15 30t11 32q3 0 3 -3t1 -7q10 26 27 51.5t36 51t38.5 52t34.5 53.5q18 -8 36 -15.5t38 -15.5q4 -21 -1 -41.5t-14.5 -40.5t-22.5 -41t-26 -44q-11 -21 -25.5 -43.5t-29.5 -45t-30.5 -43.5t-28.5 -39q-2 -7 2 -8.5t9 -1.5q-3 -13 -22 -11
q6 -8 3 -13.5t-9 -10.5t-12 -10.5t-7 -12.5q2 -5 4.5 -3t5 6.5t5.5 9.5t5 7q-1 -8 -5 -16.5t-10 -16.5t-12.5 -13t-13.5 -5q0 -9 2 -11t5 -2h7t7 -4q-14 -5 -25 -12.5t-17 -22.5q7 -7 12 -2t9 13q6 -4 4 -8t-5.5 -8t-7.5 -9t-2 -11q-9 0 -13.5 -4t-16.5 -2q0 -10 -1 -18
t-6 -13q7 0 9 4.5t3 10t4 9t11 2.5q-10 -20 -13.5 -36t-17.5 -27q0 -3 3.5 -3t7.5 -1q-4 -4 -6 -5.5t-2.5 -3t0 -3.5t1.5 -8q-14 -3 -19.5 -14t-10.5 -23q9 11 20 20q3 -4 3 -11.5t-2 -15t-6.5 -13.5t-9.5 -7q-1 10 4 14.5t6 12.5q-5 -5 -8 -7.5t-5.5 -4.5t-5.5 -3.5
t-7 -5.5q1 -5 2.5 -4.5t4 1.5t4.5 1t5 -4q0 -10 -3.5 -20t-9.5 -17t-13 -10.5t-15 0.5q-2 -7 1.5 -8t7.5 -2q-13 -3 -21.5 -11t-16 -16.5l-15 -17t-19.5 -13.5q-11 17 -16 31t-9 16q3 -1 4 9t2.5 24t4 29t9.5 26q6 -2 5 -7t-3.5 -11t-3 -12.5t6.5 -9.5q5 21 10.5 39.5t11 36
t9.5 35.5t5 39q-16 -13 -28.5 -28.5t-25.5 -30t-28.5 -26t-36.5 -14.5q-8 -30 -25.5 -45.5t-40 -19t-47 3t-45.5 21t-36 34.5t-19 43q-7 42 -14 89t4 98q-5 -2 -7.5 -5.5t-8.5 -4.5zM359 279q-2 7 0.5 10t6.5 4t8.5 2t5.5 5q-6 2 -2.5 5.5t7 7.5t4.5 7.5t-9 5.5q0 -8 -7 -14
t-13.5 -12t-8.5 -11t8 -10zM411 248q-16 0 -21 5q-1 -1 -2.5 -5t-2.5 -8.5t-0.5 -8.5t5.5 -4q1 11 8.5 13t12.5 8z" />
    <glyph glyph-name="V" unicode="V" horiz-adv-x="384" 
d="M-18 70q10 -11 10.5 -7t-3.5 15.5t-8.5 25.5t-2.5 23q4 -8 7.5 -16t17.5 -8q-3 -4 -3.5 -10.5t1 -12.5t4.5 -10t9 -4q-1 4 5 4q-11 5 -17.5 26.5t-7 49t4 55.5t15.5 46q-6 -4 -10 -3t-4.5 3t3 4t11.5 1q-7 0 -10 6t-3 11.5t3.5 9t9.5 -0.5q1 7 -2.5 8.5t-8.5 2.5
q13 50 28.5 101.5t31 102.5t29.5 100.5t25 94.5q13 -5 27.5 -7.5t28 -6.5t24.5 -11.5t19 -20.5q-10 -64 -26.5 -122.5t-33.5 -116t-33 -116.5t-26 -123q40 74 85.5 143t94 134.5t99 129.5t100.5 128q3 -10 5 -10t4.5 4.5t5.5 11.5t6 10q2 3 3 2.5t1.5 -1.5t2 -2t4.5 1
q6 4 12.5 16t15 27t19 30t25.5 25q8 6 17.5 10t17.5 8t14 9.5t8 14.5q1 6 2.5 5.5t4 -2.5t6 -4t8.5 1q-2 -24 -3.5 -40.5t3.5 -38.5q-6 0 -10.5 -5.5t-8.5 -13t-7.5 -15.5t-9.5 -12q-5 -3 -26 -18.5t-38 -33.5q-2 -2 1 -7t-1 -9q-14 -17 -33 -35.5t-36 -37.5t-28.5 -36.5
t-9.5 -31.5h-16q-46 -83 -99 -158t-99 -158q-18 -70 -48.5 -129t-81.5 -98q-3 12 -22.5 18t-42 14t-41 21t-19.5 39zM585 715q-6 0 -5 5q6 6 13.5 10t12.5 7.5t7 7.5t-2 11q4 -4 7.5 -3.5t6.5 2.5t6 5.5t6 5.5q-6 1 -4 3.5t5 6t4.5 7t-5.5 5.5q-3 -7 -5.5 -14t-14.5 -2
q3 -11 2.5 -12.5t-2.5 0t-5.5 3t-5.5 -2.5q2 0 2 -5t-3 -10t-8 -8.5t-12 -0.5q-3 -3 -5.5 -8.5t-2.5 -9.5t1.5 -6t6.5 3z" />
    <glyph glyph-name="W" unicode="W" horiz-adv-x="716" 
d="M-12 241q-2 12 4.5 25t14 26.5t13 27.5t2.5 28q4 0 6.5 3t4 6t3.5 4t7 -4q-5 8 -2.5 16.5t7 16.5t10.5 15.5t9 14.5q-8 2 -8.5 -3.5t-7.5 -6.5q-3 6 5.5 17t19 25t18.5 29.5t3 29.5q15 16 29 39.5t28.5 49t30 50.5t34.5 44q30 -2 50 -11t47 -14q9 -23 3 -45t-19 -42
t-28.5 -37.5t-24.5 -30.5q-3 -2 3 -3t6 0q-14 -22 -27 -32.5t-17 -24.5q0 -2 2.5 -6t4 -6t1 -1.5t-7.5 8.5q-9 -7 -14 -18t0 -26q-4 1 -6 4.5t-7 3.5q-3 -5 0.5 -6.5t8.5 -1.5q-6 -7 -9 -12.5t-6 -10t-7 -8.5t-12 -7q5 -6 4.5 -12t-3.5 -12.5t-7 -12.5t-5 -12q-3 0 -3.5 3.5
t-0.5 5.5q-2 -7 -4.5 -17.5t-7 -21t-11.5 -20t-17 -13.5q6 -3 6.5 -5.5t-1.5 -5t-6 -5t-6 -6.5q22 5 41 21t35.5 35.5t31 38t27.5 29.5l2 -0.5t4 0.5t3.5 4t1.5 11q10 -2 15 1.5t8 8.5t6.5 9t11.5 4q15 30 39 54.5l48 49t43.5 50.5t25.5 59q18 -3 38 5.5t34 22.5
q-2 -6 -2.5 -9.5t-1 -6t-2 -5.5t-5.5 -7q20 -18 23 -47.5t-2.5 -62.5t-15.5 -64.5t-17 -52.5q-3 -32 -9 -60.5t-13.5 -57t-14.5 -59t-11 -67.5q25 23 45.5 50.5t39 56.5t35.5 59t34 59q35 54 77 103t83 94q10 21 24.5 39t30 34.5t31.5 32t30 33.5q2 0 3.5 -2t5.5 -2
q0 6 7 10.5t15 10t16 11.5t11 15q-4 -15 -11 -34t-15 -37t-17.5 -32.5t-18.5 -21.5q-5 1 -4.5 4t3.5 6t7.5 4.5t8.5 0.5q1 6 0 9t-2 5t-1 4t4 6q-5 -2 -8 -5.5t3 -4.5q-2 -4 -6 -3.5t-3 3.5q-1 -7 -7.5 -16.5t-1.5 -20.5q-7 6 -9.5 1.5t-11.5 -6.5q2 -5 6 -2.5t6 7.5
q5 -2 4.5 -4.5t-2.5 -5.5t-2.5 -5.5t4.5 -4.5q2 3 6.5 13.5t9.5 21.5q7 -5 5.5 -12t-5.5 -13t-5 -10.5t8 -5.5q-11 -9 -11.5 -13t-9.5 -15q-5 2 -2 5t6 4q1 5 -4.5 4.5t-10.5 1.5q5 4 8 5.5t8 3.5q-1 3 -2.5 4t-0.5 6q-14 -1 -15 -11t1 -18q-16 -14 -31.5 -27.5t-27.5 -30.5
q-3 1 -5 4t-2 6t3 4.5t11 -1.5q-4 6 -9 5t-10 -4.5t-9.5 -8t-8.5 -5.5q0 -3 3 -4.5t3 -5.5q6 6 9 14q6 -1 5 -7t0 -11q-14 3 -20.5 4t-9.5 10q-8 0 -7.5 -2.5t2.5 -5.5t3.5 -5t-3.5 -1q9 0 15 -0.5t5 -18.5q-10 -3 -16 -7.5t-11.5 -8.5t-11.5 -6.5t-16 -2.5q4 -10 2.5 -14.5
t-5 -8t-5.5 -7.5t2 -12q-14 -4 -22 -13t-14 -20.5t-11 -23t-13 -20.5q14 2 19 13t13 20q3 -6 -0.5 -12t-8.5 -12.5t-10 -14.5t-5 -18q-8 1 -8.5 7.5t4.5 10.5h-20q0 -3 3.5 -3t5.5 -1q-3 -8 -9.5 -12.5t-5.5 -15.5q9 -2 11 5t3 13q7 -17 2 -27.5t-25 -29.5q-5 -32 -13.5 -66
t-23 -67.5t-34.5 -63.5t-48 -53q-6 3 -16 6t-19 7t-14.5 8.5t-1.5 11.5q-6 -3 -12 -3t-12.5 1t-14.5 2t-18 0q3 7 0.5 13t-5.5 12.5t-4.5 13t4.5 14.5q-12 3 -19.5 15.5t-12.5 29.5t-7 37t-3 38q28 14 18 38q-5 -4 -5 -8.5t0.5 -9t0 -8.5t-7.5 -7q-3 13 -1 33.5t6.5 43
t9.5 43t8 34.5q3 0 4.5 -2.5t6.5 -2.5q-6 11 -11 9t-10 -9t-10 -15t-12 -9q6 -3 7 -6t-1.5 -7t-6 -8t-6.5 -8q-5 1 -4 6t0 8q-11 -24 -29.5 -46t-38.5 -45.5t-40 -49.5t-35 -56q-7 -1 -9 2.5t-6 4.5q4 -8 3 -14t-9 2q-1 -21 -18.5 -37t-39 -22.5t-41.5 -1.5t-26 28
q-8 -6 -14 -4t-12.5 6t-14.5 7.5t-20 0.5q0 7 5 9t10 4.5t8 6.5t0 15q-10 0 -11.5 -2.5t-1.5 -5t-1 -3t-11 3.5q-5 -2 -3.5 -4t4 -4t3.5 -5t-5 -6q-8 16 -8.5 31.5t1.5 32t6.5 35t7.5 40.5q3 -1 5.5 0.5t4.5 2.5t3.5 1t2.5 -4zM-15 189q-1 8 1 10t5 1.5t6 -0.5t3 3
q-9 7 -6.5 13t-2.5 17q6 0 7.5 -3.5t7.5 -2.5q2 6 2.5 8.5t0.5 4.5t0.5 4.5t2.5 7.5q-7 0 -9.5 -3.5t-5 -7.5t-5.5 -7t-10 -1q0 2 -2 3t-4 -3q10 -3 11 -12l2 -18q-5 -2 -9 1.5t-6 -1.5q7 0 6 -6.5t5 -7.5z" />
    <glyph glyph-name="X" unicode="X" horiz-adv-x="455" 
d="M242 261q4 -8 6 -7.5t3 4.5t2 10t4 10q-12 -9 -17 -6t-8 17q-27 -29 -50.5 -61t-46 -64.5l-45 -65t-46.5 -63.5q-27 1 -54 1t-49 14q2 28 15 52.5t28.5 45.5t29 39.5t16.5 33.5q23 16 43 36.5t38.5 42t37.5 43t41 40.5q-9 39 -20.5 79.5t-22.5 81.5t-21.5 81.5
t-17.5 78.5q41 3 72 -10.5t53.5 -39.5t36.5 -63t20 -80q20 7 34.5 20t27 27.5t26 28.5t30.5 23q-4 -7 -3 -8t3 1t3 7.5t-3 11.5q49 31 92.5 70t72.5 80q6 1 8.5 -0.5t4.5 -4t3.5 -5t5.5 -2.5q-3 6 -4.5 12t0.5 11t10.5 8.5t25.5 5.5q0 -14 -5 -24t-17 -13q10 -2 13 -5.5
t1 -9.5t-6.5 -13.5t-7.5 -16.5q8 5 16 5q-23 -33 -53 -63t-61.5 -58t-61 -54.5t-52.5 -53.5q-5 1 -7.5 5t-7.5 5q-2 -7 1 -8.5t8 -1.5q-14 -26 -34.5 -48t-33.5 -51q6 -36 15.5 -67.5t20 -62.5t20.5 -63.5t18 -71.5q-7 -1 -8.5 2.5t-6.5 3.5q6 -6 4.5 -10.5t-4 -7.5t-4 -5.5
t3.5 -6.5q-4 -7 -9 -8t-9.5 -1t-8.5 -2t-5 -12q-27 15 -41.5 35.5t-23.5 43.5t-17 49t-22 53z" />
    <glyph glyph-name="Y" unicode="Y" horiz-adv-x="521" 
d="M382 224q-7 -1 -8.5 -6t-2 -10t-2.5 -9.5t-9 -4.5q2 -6 4 -6t4.5 2t5 4.5t5.5 1.5q-3 -9 -12 -13.5t-15 -12.5q1 -4 6 -3.5t10 1.5q-6 -6 -7.5 -8.5t-2.5 -4.5t-3.5 -4t-11.5 -6q-2 -5 -0.5 -7t4 -3.5t5 -3.5t1.5 -7q-5 0 -9.5 -0.5t-9.5 -1.5q13 -8 11.5 -10.5t-8 -3.5
t-15.5 -3t-11 -9q4 -2 12 -1t13 9q6 -4 6 -9t-3.5 -9.5t-9.5 -7.5t-10 -4q3 -18 -1 -30t-13.5 -21.5t-25.5 -18t-37 -17.5q-23 9 -45.5 19.5t-41 25t-33 34t-22.5 46.5q19 -1 34.5 -8t28.5 -16t25 -18.5t26 -16.5q2 33 12.5 66.5t25.5 66t33.5 63t37.5 58.5q0 2 -3 4.5t-6 3
t-5.5 -0.5t-1.5 -5q-4 5 -2 12.5t6.5 15.5t9.5 15.5t7 13.5q-2 2 -4 2.5t-3.5 1t-1.5 2t3 7.5q-3 1 -7 -2t-10 -8t-13.5 -9.5t-17.5 -4.5q0 -2 4 -2t7 1q-23 -18 -41 -45t-37.5 -52t-43 -42.5t-57.5 -15.5q4 5 11 7.5t11 7.5q-5 -1 -13.5 3t-16.5 -1q1 -5 3 -4t4 2.5t3.5 1
t1.5 -8.5q-49 7 -72 30.5t-28 56t4.5 72t25.5 78.5t35.5 75t34.5 62q26 50 58 92.5t53 80.5q16 -8 33.5 -13.5t32.5 -14t26 -22t14 -36.5q-26 -26 -45.5 -56.5t-30.5 -67.5q-17 -10 -26 -28.5t-17 -39t-18 -39.5t-28 -31q2 -2 4 -4.5t6 -4.5q1 -4 -2 -4.5t-7.5 -0.5
t-7.5 -0.5t-1 -5.5q7 3 7 -4.5t-3.5 -17.5t-10.5 -19.5t-14 -9.5q6 -2 9.5 -6t3 -8.5t-5 -8t-13.5 -2.5q7 -5 11 -5t7 2.5t5.5 6t6.5 5.5q47 21 95.5 53t94.5 61q15 9 27.5 22t24 27l23 28t24.5 26q4 34 19.5 62.5t36 55t40.5 53.5t33 59q42 7 75 -15.5t51 -59.5
q-20 -15 -34.5 -34t-28 -39.5t-29 -39t-38.5 -31.5q3 -5 6 -7.5t3.5 -4.5t-3 -3.5t-13.5 -2.5q-4 -1 -3.5 -3t1.5 -4.5t0.5 -4.5t-6.5 -3q1 -5 5.5 -4.5t9.5 0.5q-3 -6 -7 -11.5t-5 -12.5q-8 -1 -14.5 2t-17.5 -2q-1 -3 2 -6t7 -4t6.5 0t1.5 4q6 -3 4 -7t-7.5 -8t-13 -7
t-11.5 -5q16 0 16 -2.5t-7.5 -6t-17.5 -6t-12 -1.5q3 -8 0 -14t-6 -11.5t-3 -10t9 -8.5q-23 -8 -34.5 -17.5t-6.5 -38.5q-7 2 -4 5.5t3 7.5q-9 -2 -13.5 -8t-7 -12.5t-5 -13.5t-9.5 -11q1 -3 6 -2.5t9 0.5q-2 -7 -10 -9.5t-13 -7.5q5 -4 7 -12q8 8 10 -4q-7 -2 -10.5 0.5
t-5.5 6.5q-15 -8 -10 -30q7 7 5 21q7 -1 7.5 -7t1.5 -12q-9 -2 -13 -5t-13 2q5 -2 6 -6t-1 -7t-6 -3.5t-8 2.5q0 -6 3 -6.5t8 -0.5q-3 -2 -4 -6t-2 -8.5t-3 -7.5t-7 -3q0 7 4.5 11t2.5 13zM37 372q-2 0 -4 1t-1 3q2 7 6.5 12.5t6.5 12.5q-9 0 -12.5 -6.5t-4 -13.5t2 -11
t6.5 2zM98 503q-2 0 -4.5 -0.5t-5.5 -0.5q-2 5 -5 3q1 -7 -2 -12t-7.5 -9.5t-8 -9.5t-3.5 -12q7 3 11 8.5t7.5 11.5t7.5 11.5t10 9.5zM249 107q-1 4 0 9.5t1 10.5t-2 8t-9 3q8 -9 4 -17t-9 -19q-2 -2 -4.5 -2.5t-0.5 -5.5q15 5 20 13z" />
    <glyph glyph-name="Z" unicode="Z" horiz-adv-x="637" 
d="M84 220q-3 11 -1.5 13t8.5 11q-9 -2 -13.5 -4t-6.5 -5.5t-4.5 -8.5l-6.5 -13q-6 12 1.5 25t21 25.5t29 23.5t25.5 20q-8 5 -13.5 2.5t-10.5 -8t-10 -12t-12 -7.5q-2 -3 4 4.5t14.5 16.5t18 15.5t15.5 1.5q22 33 49.5 60.5t57 52.5t60 49.5t57.5 51.5q-11 2 -16.5 -2.5
t-7.5 -11.5q8 15 24 29.5t34 29.5t37 30.5t33 32.5q-27 -7 -52.5 -21t-49.5 -29t-47.5 -27.5t-47.5 -17.5t-49 1.5t-52 29.5v28q28 23 68.5 48.5t87.5 46t99 34t104 12.5q2 0 10 -1t14.5 -2.5t10 -3.5t-3.5 -5q27 2 50 -8.5t37 -28.5t18.5 -41t-4.5 -45q-14 -6 -26.5 -17.5
t-25.5 -22.5t-26.5 -19.5t-28.5 -8.5q0 -9 6 -10q-59 -33 -109.5 -74t-95.5 -86.5t-87 -95t-83 -98.5q-8 -2 -11.5 1t-9.5 5q21 -11 52.5 -6t66 14t67.5 15.5t56 -0.5q14 10 35.5 17t46 10.5t51 4t50.5 -1.5q-6 -18 -15 -34.5t-21.5 -28t-29 -16.5t-35.5 1q-6 -2 -2 -4.5
t2 -9.5q-44 -5 -81.5 -13.5t-72.5 -10.5q-9 -1 -16.5 -6.5t-13.5 -10t-11 -4.5t-9 10q-5 -3 -4 -7.5t-7 -10.5q-29 0 -55.5 -9.5t-51.5 -22t-49.5 -24.5t-49 -17.5t-50 -1t-53.5 24.5q-6 -2 -4.5 -3l4.5 -3t5.5 -5.5t0.5 -8.5q-11 1 -16 -4.5t-20 -3.5q3 11 -1.5 15.5
t-4.5 12.5q8 -2 13 -6t14 -3q-10 7 -17.5 18t-19.5 16q6 8 15 14t7 20q6 -3 9 -15q17 22 32 44t24 48q15 -5 25.5 1t18.5 15t15.5 17t16.5 7zM30 165q-4 14 -16 7q0 -11 7 -15.5t14 -9.5q2 5 -1.5 8.5t-7 6.5t-5.5 5t4 5q-1 -4 2 -6t5 -3t2.5 -0.5t-4.5 2.5zM8 131
q10 1 14.5 5t4 7.5t-4 6t-8.5 1.5q2 0 4.5 0.5t0.5 5.5q-14 2 -16 -9t5 -17zM25 213q-1 3 9 14t20 19.5t13 9.5t-12 -17q-8 -8 -13.5 -11.5t-16.5 -14.5z" />
    <glyph glyph-name="bracketleft" unicode="[" horiz-adv-x="330" 
d="M274 781q2 4 3 3t1 -3q20 -3 20 13q20 -9 54 -6.5l68 5t60 -1t31 -25.5q-13 -7 -26.5 -9t-28.5 -2.5t-32.5 -2t-36.5 -7.5q-16 -68 -39.5 -125t-50 -109t-53 -102t-48.5 -103q-8 -2 -13.5 -7t-11.5 2q3 -4 6 -11.5t3 -15.5t-4.5 -14t-16.5 -7q1 -13 -3 -22t-7.5 -17
t-5.5 -17t3 -23q-5 -2 -11 -9t-10.5 -15t-4.5 -15.5t8 -9.5q-7 -8 -11.5 -20.5t-9.5 -23.5q12 -1 22 -1.5t19 -1t18.5 -1t22.5 -0.5q-2 -5 -9 -4t-9 -6q6 0 4 -6q10 -2 12 5t6 11q8 -2 15 -7t21 -3q-9 -12 -26 -19.5t-36 -12t-37.5 -6t-30.5 -1.5q-6 -8 -23 -12t-35.5 -7.5
t-33.5 -10t-16 -20.5q-2 9 -6.5 15t-9.5 12t-9.5 12.5t-5.5 15.5q3 -4 5 -4t3.5 1t4 2t7.5 1q1 8 -2 12.5t2 15.5q4 7 4.5 5t-0.5 -6.5t-1 -9t4 -2.5q4 4 5 11t1 15.5t0.5 18t3.5 18.5q4 -9 5.5 -8.5t2.5 4.5t3.5 9t9.5 5q-4 -9 -4.5 -16.5t-1.5 -13.5t-3 -11t-9 -8
q5 -8 13 -11q4 2 6 7.5t2.5 12.5t1.5 13.5t3 11.5q8 0 9.5 3t7.5 -3q6 12 8.5 27.5t10.5 26.5q-1 5 -5 2t-6 -7q2 12 9 32.5t15 42.5t14 42.5t6 33.5q-3 -1 -5 -3t-5 -2q-8 -14 -16.5 -33.5t-16.5 -41.5t-16 -43.5t-15 -37.5q1 15 7 37t14.5 46t19 47t20.5 41q2 -2 5.5 -3.5
t8.5 -0.5q2 1 3 3.5t2 4t3 1t7 -4.5q-2 3 -2.5 6t0.5 9q-15 2 -16 -10q-4 24 7.5 45t34.5 33q-3 9 -9 8t-12 -7t-12.5 -14t-10.5 -11q-1 -19 -2.5 -29.5t-18.5 -14.5q0 -6 -5 -17.5t-12 -25t-14 -27.5l-12 -24q-1 -2 -2 -8.5t-2.5 -11.5t-2 -4.5t-0.5 14.5q31 78 64 147.5
t66 136t64.5 132.5t59.5 138zM82 111q7 5 8.5 14t3.5 20q-11 3 -13 10q2 0 3 2t-2 3q-2 -10 -3.5 -25.5t3.5 -23.5zM89 155q6 -5 10 -7t8 -7q-5 -5 -5.5 -7t1.5 -1t5 4t4 8q-5 3 -9 6.5t-6 8.5q6 6 7 14t-1 14.5t-6 12t-8 7.5q-2 -4 -4 -7t3 2q1 -8 3.5 -17t-2.5 -31z
M159 438q-8 -5 -12 -13.5t-10 -16.5q7 -3 12 1t8 10.5t3.5 12.5t-1.5 6zM146 237q-8 3 -13 3.5t-11 -7.5q6 -2 9.5 2t4.5 -2q-1 -4 -4.5 -4.5t-7 -1.5t-6.5 -2.5t-3 -6.5q8 1 8 -1t-3 -5.5t-7 -7t-5 -4.5q16 1 24.5 12.5t13.5 24.5zM158 272q-2 1 -7.5 3t-11.5 2.5t-12 -0.5
t-8 -5q4 -5 11 -5t12 5q1 -11 -0.5 -19t3.5 0q4 -1 3.5 2t-2 6.5t-1 7t6.5 3.5q0 -2 2 -3t4 3zM165 312q-4 0 -5 2.5t-1.5 5.5t-1.5 5t-5 2q-5 -8 -15 -6q-1 -2 -1 -4.5t-1 -4.5q3 0 4.5 -2.5t3.5 -3.5q1 5 3 8.5t9 1.5q0 -4 3.5 -7t6.5 3z" />
    <glyph glyph-name="backslash" unicode="\" horiz-adv-x="307" 
d="M177 46q-9 7 -14 22.5t-8.5 31.5t-7.5 29t-11 16q-14 73 -36 144.5t-43.5 145t-39.5 150.5t-22 161q7 5 15.5 6.5t6.5 13.5q44 -10 72 -34.5t45.5 -57.5t26.5 -72.5t14.5 -79t11 -77t16.5 -67.5q1 -16 -16 -15q1 -5 4 -5.5t7 1t7 4.5t3 5l2 -4.5t3 -10.5t0 -12.5t-5 -9.5
q17 -24 26.5 -66t15.5 -94q-8 0 -9.5 5t-1.5 12v14t-4 10q-3 3 -6 1.5t-6.5 -3t-7 -1t-7.5 7.5q4 -4 10 -14t9.5 -20.5t3.5 -20t-8 -12.5q5 -5 8.5 -10.5t8.5 -9.5q-3 -12 -17 -12q2 -5 5 -4.5t6 2t5.5 2t5.5 -4.5q-1 -5 -3.5 -11t-3 -12t2.5 -10.5t14 -7.5q1 -5 -2.5 -5.5
t-8 0.5t-8 0.5t-1.5 -5.5q2 -4 6 -4h6t1 -0.5t-8 -5.5q9 -6 12 -9.5t4 -8.5t1 -13t3 -22q-7 -2 -8.5 1.5t-2 8.5t-2 9t-7.5 3q2 4 7 5.5t3 9.5q-6 0 -9.5 -3.5t-5.5 -8t-4.5 -9t-7.5 -6.5q1 -9 7.5 -2t4.5 14q6 -2 6 -9t-1 -15t-1 -15.5t6 -8.5q0 -3 -3 -4.5t-6 -2t-5 -2.5
t-1 -6q0 12 -4.5 24.5t-10 25t-10.5 25t-7 24.5q-4 -1 -4 -3t1 -5t0 -5t-8 -3q5 -5 10.5 -8t10.5 -7q-1 -6 -2.5 -5.5t-3.5 3.5t-4 5.5t-5 1.5q10 -17 13 -37.5t12 -35.5q-6 1 -14.5 15.5t-16 30.5t-11 29t0.5 13zM177 331q6 0 5 -5q0 -5 -3 -7t-2 -9q10 -3 12.5 -13
t8.5 -17q-3 0 -7.5 1.5t-8 2t-4.5 0t4 -3.5q5 -5 12 -6.5t9 -9.5q-3 -5 -3 -18.5t8 -23.5q11 21 11.5 29t-1.5 23q0 -2 2 -3t3 3q-11 3 -16.5 12t-13.5 14q6 2 9.5 -2t5.5 2q-5 1 -6.5 4t-3.5 6q7 -5 8.5 -3.5t0 6t-3.5 11t0 12.5q-12 -2 -17 -1t-9 -4zM182 67
q-8 -3 -2.5 -3t13 2t11.5 6.5t-6 9.5q1 -6 -1.5 -7.5t-5.5 -1.5t-5.5 1.5t-3.5 2.5q2 5 4.5 9t0.5 12q-13 44 -28.5 92.5t-27.5 94.5q-1 4 0 10t1 11.5t-3.5 10t-12.5 4.5q1 -31 8.5 -63.5t17.5 -64.5t20.5 -64t19.5 -62z" />
    <glyph glyph-name="bracketright" unicode="]" horiz-adv-x="352" 
d="M197 21q-2 -4 -3 -3t-1 3q-20 3 -20 -13q-13 6 -33 6.5t-43 -1t-46 -4t-42 -1t-32.5 7.5t-16.5 20q13 7 26.5 8.5t28.5 2.5t32 2.5t37 7.5q16 67 39.5 124.5t50 109.5t53 102t48.5 103q8 2 13.5 7t11.5 -2q-3 4 -6 11.5t-3 15.5t4.5 14t16.5 7q-1 13 3 22t7.5 17t5.5 17
t-3 23q4 1 10.5 8t11 15.5t4.5 16t-8 9.5q7 8 11.5 20.5t9.5 23.5q-12 1 -22 1.5t-19 1t-18.5 1t-22.5 0.5q2 5 9 4t9 6q-6 0 -4 6q-11 1 -12.5 -5.5t-5.5 -10.5q-8 2 -15 7t-21 3q9 12 26 19.5t36 12t37.5 6t30.5 1.5q6 8 23 12t35.5 7.5t33.5 10t16 20.5q2 -9 6.5 -15
t9.5 -12t9.5 -12.5t5.5 -15.5q-3 4 -5 4t-3.5 -1t-4 -2t-7.5 -1q-1 -8 2 -12.5t-2 -15.5q-5 -7 -5 -5t0.5 6.5l1 9t-3.5 2.5q-4 -4 -5 -11t-1 -15.5t-0.5 -18t-3.5 -18.5q-4 9 -5.5 8.5t-2.5 -4.5t-3.5 -9t-9.5 -5q4 9 4.5 16.5t1.5 13.5t3 11t9 8q-5 8 -13 11q-9 -5 -9 -20
t-4 -25q-8 0 -9.5 -3t-7.5 3q-6 -12 -8.5 -27.5t-10.5 -26.5q1 -5 5 -2t6 7q-2 -12 -9 -32.5t-15 -42.5t-14 -42.5t-6 -33.5q3 1 5 3t5 2q8 13 16 33t16.5 42t16.5 43t15 38q-2 -15 -7.5 -37t-14 -46t-19 -47t-20.5 -41q-2 2 -5.5 3.5t-8.5 0.5q-2 -2 -3 -4.5t-2 -4t-3 -1
t-7 5.5q2 -3 2.5 -6t-0.5 -9q15 -2 16 10q4 -24 -7.5 -45t-34.5 -33q3 -9 9 -8t12 7t12 14t11 11q1 19 2.5 29.5t18.5 14.5q0 6 5 17.5t12 25l14 27t12 24.5q1 1 2 8t2.5 12t2 4t0.5 -14q-31 -78 -64 -147.5t-66 -136t-64.5 -132.5t-59.5 -138zM389 691q-7 -5 -8.5 -14
t-3.5 -20q11 -3 13 -10q-2 0 -3 -2t2 -3q2 10 3.5 25.5t-3.5 23.5zM382 647q-6 5 -10 7t-8 7q5 5 5.5 7t-1.5 1t-5 -4t-4 -8q5 -3 9 -6.5t6 -8.5q-6 -6 -7 -14t1 -14.5t6 -12t8 -7.5q2 4 4 7t-3 -2q-1 8 -3.5 17t2.5 31zM312 364q8 5 12 13.5t10 16.5q-7 3 -12 -1t-8 -10.5
t-3.5 -12.5t1.5 -6zM325 565q8 -3 13 -3.5t11 7.5q-6 2 -9.5 -2t-4.5 2q1 4 4.5 4.5t7 1.5t6.5 2.5t3 6.5q-8 -1 -8.5 1t2.5 5.5t7.5 7t5.5 4.5q-16 -1 -24.5 -12.5t-13.5 -24.5zM313 530q2 -2 7.5 -3.5t11.5 -2t12 0.5t8 5q-4 5 -11 5t-12 -5q-1 11 0.5 19t-3.5 0
q-5 1 -4 -2t2.5 -6.5t1 -7t-6.5 -3.5q0 2 -2 3t-4 -3zM306 490q4 0 5 -2.5t1.5 -5.5t1.5 -5t5 -2q5 8 15 6q1 2 1 4.5t1 4.5q-3 0 -4.5 2.5t-3.5 3.5q-1 -5 -3 -8.5t-9 -1.5q0 4 -3.5 7t-6.5 -3z" />
    <glyph glyph-name="asciicircum" unicode="^" horiz-adv-x="380" 
d="M33 567q7 42 26.5 71.5t42 56.5t43 56t28.5 70q10 1 24.5 4t31.5 5t36 2t37 -6q-7 -18 -16 -49t-13 -66t0 -68.5t24 -54.5q-4 -11 -14.5 -16t-16.5 -15q-20 5 -38 11.5t-32.5 16.5t-24.5 24.5t-14 35.5q-14 -12 -24.5 -26.5t-24 -26.5t-31 -19.5t-44.5 -5.5z" />
    <glyph glyph-name="underscore" unicode="_" horiz-adv-x="351" 
d="M31 24q17 19 50 29t71.5 12.5t76.5 -2t65 -13.5q-8 -8 -15.5 -16t-9.5 -21q-35 8 -65.5 5.5t-59 -6t-56 -3t-57.5 14.5z" />
    <glyph glyph-name="grave" unicode="`" horiz-adv-x="225" 
d="M30 687q25 12 49 8.5t45.5 -14.5t40 -26.5t34.5 -25.5q-19 -6 -40 0t-43 17.5t-43.5 23.5t-42.5 17z" />
    <glyph glyph-name="a" unicode="a" horiz-adv-x="394" 
d="M273 0q-7 3 -17.5 5.5t-19.5 5.5t-13.5 8t0.5 13q-12 -6 -23 -1.5t-20 15.5t-14 25.5t-4 28.5q-14 -11 -24 -24.5t-21.5 -25.5t-27 -20.5t-40.5 -8.5q-11 8 -27 14t-31.5 13.5t-27.5 17.5t-15 25q-5 18 3 40t22 44.5t32 45l34 42.5q15 19 33.5 43t39 46t41 38t39.5 19
q17 2 33 -2t30.5 -9t26.5 -9t22 -2q10 1 15 5.5t9 10.5t7.5 12t9.5 10q15 -5 32 -9t24 -16q-20 -44 -46 -83t-50 -80t-42.5 -86t-24.5 -101q31 15 52 33.5t39 40.5t36 46t43 49q-15 -62 -50.5 -113.5t-84.5 -105.5zM268 333q-21 9 -40.5 4.5t-37.5 -17t-35.5 -30.5
t-33.5 -36q-35 -38 -55.5 -77t-31.5 -77q66 53 124 111.5t110 121.5z" />
    <glyph glyph-name="b" unicode="b" horiz-adv-x="433" 
d="M449 207q0 -16 -15.5 -28t-36 -23.5t-40 -22.5t-25.5 -25q-23 -11 -44.5 -21.5t-32.5 -33.5l-43 -18l-4 -4q-1 0 -1.5 0.5t-1.5 0.5l-2 -1v1q-8 1 -12.5 -1t-9.5 -4.5t-13 -4.5t-22 0q3 8 -1.5 9.5t-10.5 2t-12 4t-6 14.5q-5 -6 -14.5 -5.5t-19 5t-17.5 11.5t-11 14
q-12 -13 -17.5 -27.5t-10 -28.5t-11.5 -27.5t-21 -25.5q-19 -1 -32.5 4.5t-29.5 4.5q-6 10 -7.5 19t-2 18.5t-1 19.5t-4.5 22q1 3 3.5 2t4 -4.5t2.5 -8t1 -8.5q9 42 26.5 81t36.5 75.5t38 71.5t31 70q-6 4 -9 1t-5 -9t-5 -12t-7 -9q11 28 27.5 58.5t34.5 61.5t36.5 61.5
t34.5 60.5q-8 1 -10 -2q26 50 61 108t77 103q21 1 38.5 -9t42.5 -16q5 -14 -1.5 -29t-18.5 -31t-27 -33.5t-25 -36.5q-13 -24 -21.5 -49.5t-19.5 -45.5q-18 -34 -39 -69t-37 -77q28 14 56 33.5t58 35.5t62.5 23t68.5 -4q11 -9 13.5 -26.5t-0.5 -34.5t-11 -30t-17 -14
q4 -21 -9 -43.5t-28 -42.5q-4 -12 -12 -22.5t-17 -23t-19 -28.5t-18 -40q15 7 32.5 17.5t35.5 20t35.5 17t31.5 8.5zM340 382q-40 -29 -79 -59.5t-73.5 -64t-63.5 -72.5t-49 -85q37 1 64 14t47.5 33t37 45t32 49.5t32 45.5t37.5 35q-9 3 -6 11t9 17t11 17.5t1 13.5zM-17 227
q12 17 20 36t21 35q0 -6 -3 -16.5t-8.5 -21t-13 -20t-16.5 -13.5zM105 90q7 1 10.5 -2t5.5 2q-6 0 -5 4q6 -3 10.5 -3t8 2t7.5 4.5t10 3.5q1 -3 0.5 -7t3.5 -4v16q-14 -4 -28.5 -6t-22.5 -10zM-47 14q-8 -4 -10.5 -5t-15.5 5q2 -6 3.5 -12.5t7.5 -8.5q1 2 1 5.5t4 3.5
q0 -3 4.5 -4t5.5 4q-7 0 -6 4q5 0 8 3.5t-2 4.5zM14 -2q-3 3 -1.5 6t3.5 5t2.5 3.5t-4.5 1.5q-2 -7 -3 -4.5t-2 7t-2 6.5t-3 -5q-1 -2 -1 -5.5t-5 -3.5q4 -3 7 -6.5t9 -4.5zM-6 22q0 -4 -5 -4.5t-6 -3.5q8 0 15 -5q0 4 -1.5 5.5t-2.5 3.5q2 0 3 1.5t-3 2.5zM152 536l3 7
q-2 -7 -3 -7zM155 543l2 3z" />
    <glyph glyph-name="c" unicode="c" horiz-adv-x="317" 
d="M290 173q-2 5 2.5 11.5t11.5 11.5t14.5 9t11.5 5q-2 -12 -7.5 -21t-12 -17t-13 -16.5t-10.5 -18.5q-6 -2 -8.5 0.5t-6.5 3.5q4 -6 1.5 -14.5t-8 -16.5t-13.5 -15.5t-15 -11.5q0 -5 1 -5.5t2.5 0.5t4 1t4.5 -3q-14 -13 -24 -27t-22.5 -26t-29.5 -19t-45 -5q-5 0 -11 1
t-12 3l-1 3q-20 6 -40.5 15t-43.5 16q-33 31 -37 74t9.5 88t38.5 87t51 72q5 6 14 14.5t18 16t17 13.5t11 7q10 4 29 3t38.5 -4t35.5 -7l20 -5q18 -6 29.5 -17.5t15.5 -26t-2 -32.5t-23 -37q-15 -2 -24 1.5t-21 3.5q-2 8 -2.5 12.5t1 8t4.5 7.5t6 10q-7 6 -12.5 13.5
t-11.5 15.5q-25 -16 -48 -37.5t-41 -46.5t-28.5 -51.5t-10.5 -52.5q-9 -9 -14.5 -27t-5.5 -37.5t6 -37t20 -26.5q33 9 56.5 27t44.5 38t41 39t45 30z" />
    <glyph glyph-name="d" unicode="d" horiz-adv-x="507" 
d="M312 -26q-20 8 -41.5 14.5t-38.5 16.5t-27 26.5t-6 43.5q-23 -25 -47 -48.5t-60 -39.5q-18 9 -39.5 15t-41 13t-33.5 16.5t-18 26.5q-8 32 -1 65t23 65.5t38.5 63.5t46.5 59t47 52t40 42q18 -4 38.5 -7l41 -6t39 -8t33.5 -13q29 33 58.5 74.5t58 84t56 83.5t52 72.5
t45 52t36.5 21.5q20 -2 41.5 -8.5t35.5 -13.5q-5 -38 -24 -65t-41 -51t-41.5 -48t-26.5 -55q-4 2 -5.5 5.5t-9.5 2.5q-6 -2 -4 -3t6 -2.5t7.5 -4t0.5 -7.5q-59 -98 -105.5 -173t-76.5 -130t-40.5 -91.5t3.5 -56.5l6 4l-1 -2q25 18 47.5 39.5t45 44t46.5 44.5t51 40
q-9 -27 -23 -48t-31 -40t-36.5 -38t-39.5 -40q-10 -11 -22.5 -18t-16.5 -16q-4 -7 -6 -15.5t-5.5 -16t-11 -13.5t-21.5 -9q-1 1 -2 1v-1zM280 334q-50 14 -86.5 -6.5t-63 -60t-44.5 -89.5t-30 -95q61 60 119.5 120t104.5 131zM225 21q1 8 -1.5 24.5t-14.5 29.5q5 0 8 -2t3 6
q-10 3 -12 -4t0 -18t7 -21.5t10 -14.5z" />
    <glyph glyph-name="e" unicode="e" horiz-adv-x="288" 
d="M239 400q0 -23 6.5 -33t19.5 -26q-6 -39 -25.5 -67.5t-46 -50.5t-57.5 -40.5t-60 -38.5q-14 -26 -23.5 -52.5t-14.5 -52.5q44 17 75 38.5t59.5 44.5t60 46.5t76.5 44.5q-20 -26 -24 -33t-5.5 -9t-8 -6.5t-30.5 -24.5q-5 -17 -23 -41t-40.5 -46t-47 -38t-43.5 -17
q-3 -1 -3.5 -2.5t-1 -3.5t-3 -3.5t-8.5 -2.5q-33 10 -61.5 22.5t-60.5 23.5q-18 32 -12 60.5t20 53t27.5 46t10.5 40.5q35 52 73.5 100.5t89.5 87.5q4 -2 12.5 -3.5t19.5 -3t24 -4.5t25 -9zM112 16q-2 -1 -6 -1t-4 -4q6 -4 9.5 -1t5 8t2.5 9.5t4 4.5q-6 -1 -8.5 -4t-8.5 -5
q1 3 -1 3.5t-4 0.5t-2.5 -1.5t3.5 -2.5q5 0 6.5 -2.5t3.5 -4.5zM112 216q19 11 40 26t37.5 33t24 39t-0.5 43q-23 -36 -49.5 -71t-51.5 -70z" />
    <glyph glyph-name="f" unicode="f" horiz-adv-x="257" 
d="M-193 -252q5 -7 13 -11.5t10 -14.5q3 2 5 5.5t4 -1.5q-4 11 -9.5 29.5t-14.5 33.5q-5 -2 -7 -7t-6 -8q-2 3 -1 8t1.5 11.5t-1 12.5t-9.5 10q38 75 74.5 151.5t81.5 147.5q-19 -8 -25 -20q4 17 17.5 33.5t26.5 33.5t20.5 34.5t0.5 36.5q32 30 56 65t50 70q-7 0 -10 -4
q15 29 44 64t58 62q23 -5 46 -11.5t41 -18.5q1 -6 1.5 -12t2.5 -13q-20 -14 -36 -34t-31 -40.5t-29.5 -39.5t-31.5 -31q0 -11 -5.5 -22t-14 -22.5t-19 -23.5t-20.5 -26q13 0 33.5 3.5t44 8t49 9.5t49.5 8q-3 -12 -0.5 -15.5t7.5 -13.5q-11 2 -15 -1.5t-12 -2.5
q-11 -14 -31 -18t-41 -6.5t-39.5 -8t-25.5 -22.5q-2 1 -2 -3.5v-9.5t-0.5 -9.5t-2.5 -4.5q12 -8 16.5 -17t6.5 -18.5t4 -20.5t10 -22q-8 -2 -12 0t-9 3q6 -5 9 -9.5t-6 -8.5q1 -3 3.5 -2.5t1.5 2.5q-4 -21 -14.5 -44t-25 -46.5t-32.5 -45t-37 -39.5q3 -8 2 -13t-3.5 -9
t-4 -7.5t1.5 -8.5q0 -4 -1 -3.5t-3.5 2.5l-5 4t-5.5 1q10 -14 4 -27.5t-17 -26.5t-20.5 -25.5t-7.5 -25.5q-24 -8 -51.5 -9t-51.5 13q-2 9 4 13t8 9q-6 1 -9 -5t-5 2q-5 -2 -1.5 -4t2.5 -7q-20 1 -33.5 7.5t-14.5 25.5zM-5 229q8 1 9 -2.5t0 -8.5t-1 -10.5t5 -8.5
q-2 8 1.5 14.5t7.5 12.5t4.5 11t-6.5 11q1 -3 1.5 -6.5t-3.5 -4.5q-18 1 -18 -8zM-145 -147q-8 -1 -4.5 4.5t5.5 6.5q0 -2 3 -2.5t3 2.5q-5 -1 -5.5 1.5t-0.5 5.5t-1 6t-5 2q-5 -1 -6.5 -6.5t-0.5 -11.5t4 -9t8 1zM-78 -118q-3 0 -6.5 2t-5.5 3.5t-3.5 1t0.5 -6.5
q1 -4 7.5 -3.5t8.5 -3.5q-6 -10 -11 -23.5l-10 -27t-9.5 -25t-9.5 -17.5q39 32 75.5 65.5t66 72t48.5 84t22 102.5q-14 1 -21 -3t-11 -12q-7 2 -14.5 4.5t-12.5 7.5q-6 -11 -10 -17.5t-8.5 -11.5t-9 -11t-10.5 -16q12 -5 8 -10t-12.5 -10t-16.5 -9.5t-3 -8.5q5 2 13 4t11 0
q-6 -6 -16.5 -13t-19 -15.5t-11 -17t7.5 -17.5q-20 -20 -27.5 -33t-9.5 -35zM-120 -70q4 9 12 22t15 25t11.5 22t2.5 14q-21 -17 -31 -41t-18 -48q5 0 7.5 1t0.5 5zM-67 24q7 5 10.5 15.5t8.5 21.5q-8 0 -12.5 -4.5t-7 -10.5t-2.5 -12t3 -10z" />
    <glyph glyph-name="g" unicode="g" horiz-adv-x="442" 
d="M-147 -218q-4 7 -9 7q1 3 3 3t3.5 -0.5t1 0.5t-3.5 6q3 3 4.5 1.5t1.5 -5t0.5 -7.5t2.5 -5q4 5 14.5 5t14.5 -5q0 3 0.5 8.5t2 10.5t5 8.5t10.5 1.5q0 4 -3.5 7.5t-6 6.5t-1.5 5t11 1q-2 5 -4.5 5t-5.5 -1.5l-6 -3t-6 -0.5q9 -4 6 -10t-6 -14q-4 4 -12.5 3.5t-12.5 3.5
q1 -2 -2 -4.5t-7 -6t-6 -7.5t2 -7q0 -3 -3 -3.5l-6 -1t-5.5 -2t-2.5 -5.5q1 18 12.5 31t25.5 24.5t28.5 21.5t22.5 22q2 2 -1 6t-4 3q28 28 64.5 47.5t73 38.5t68 41.5t50.5 58.5q6 10 9.5 21.5t7.5 23t9 24t13 26.5q-8 -1 -11.5 -5.5t-5 -9t-3 -7t-5.5 0.5
q-2 -10 -10 -19.5t-17 -19t-17.5 -19.5t-11.5 -20q-7 1 -9 6t-8 7q5 -3 6.5 -7.5t2.5 -8.5t2 -7t6 -3q-8 -38 -35 -47.5t-57 0t-54.5 32.5t-27.5 52q3 -8 5 -9t2.5 2t-1.5 8t-6 7q7 36 24.5 71.5t40 68t47 60.5t45.5 49q34 34 81.5 38.5t97.5 -26.5q3 5 8 7t5 10
q17 -2 30 -5t33 -8q5 -38 -1 -70t-17.5 -61.5t-25 -57.5t-23.5 -58q22 8 42.5 21t39.5 27.5t37.5 27t37.5 18.5q-8 -33 -31.5 -57t-54 -43.5t-62.5 -37.5t-57 -40q-1 -26 -11.5 -43.5t-26.5 -29.5q0 -5 4.5 -5h8.5q-28 -57 -59 -110.5t-56 -103.5q-7 3 -9.5 2t-4 -2.5
t-3.5 -2t-9 2.5q-1 -3 0 -6t3 -5t4 -2t2 4q5 -3 3 -5t-7 -3t-11 -1.5t-10 0.5q-2 5 0.5 7t3.5 6q-14 -5 -24.5 -4t-22.5 -9q-6 5 -10 9.5t-12 8.5q-5 -2 -6 -4t0 -5t2 -7t0 -10q7 3 9 8q7 -8 3 -15t1 -17q5 1 7.5 4.5t3.5 5t1.5 -1t0.5 -13.5q9 3 7 6t-3 11q7 -7 11 -2.5
t10 6.5q-1 3 -4.5 4.5l-7 3t-4.5 3t3 5.5q5 -6 12 -9t9 -11q7 1 2 8.5t-10 7.5q3 6 5 5t4 -4t4 -6.5t5 -2.5q-5 9 -4.5 9.5t3.5 -1t7 -3t6 2.5q-3 -5 -10 -15t-16.5 -19t-21.5 -14t-24 -1q1 3 5 4.5t7 3t4 3t-4 5.5q-3 -1 -2.5 -2.5t2.5 -1.5q-1 -3 -2.5 -2.5t-1.5 2.5
q-4 1 -4 -4q-2 1 -2.5 2.5t-0.5 3t-1 3t-5 4.5q-6 -8 -8.5 -6.5t-7.5 -6.5q0 -4 3 -4h7t6.5 -1t-0.5 -7q-28 -1 -54.5 10.5t-38.5 34.5q22 -8 35.5 -20.5t28.5 -20.5q8 3 12 10.5t9 14.5q-14 -2 -25 10.5t-9 26.5q-2 -10 -5 -11.5t-6.5 -1.5t-6.5 -2.5t-4 -13.5
q-3 1 -6.5 2.5t-6.5 3.5t-3.5 4.5t3.5 5.5q-5 -2 -8.5 -1.5t-6 0t-4 -3.5t-1.5 -11q-8 11 -18.5 16.5t-21 10.5t-18.5 10.5t-11 16.5q-4 -8 -6.5 -6t-6.5 -2q-5 5 -2.5 12t8 13t13 8.5t12.5 -0.5zM-147 -227q-8 7 -15.5 2t-6.5 -15q2 -4 7.5 -5t10 -2t6.5 -3.5t-2 -8.5
q3 -1 8 -2.5t8.5 -2.5t5 -1.5t-1.5 1.5q1 3 -1.5 4.5t-4.5 3t-2 3t5 2.5q0 -2 1 -3t2 3q-4 2 -8.5 6t-8.5 6t-6 2t-2 -6q-5 0 -4.5 5.5t-3.5 6.5q0 -2 -2.5 -3t-2.5 3q2 4 4.5 3.5t5 -2t4.5 -2t4 4.5zM91 -62q-21 -16 -50 -26.5t-57 -22.5t-49.5 -28t-26.5 -42q5 1 3.5 -2
t-4.5 -8t-6.5 -11.5t-1.5 -11.5q6 -8 9.5 -16t11.5 -13q1 5 3 5t3.5 -2.5t3 -4.5t3.5 -2q3 10 7.5 14t11 5t15 0.5t18.5 0.5q32 35 64 75t51 78q-8 -1 -12.5 -5.5t-7.5 -10.5t-5.5 -12t-8.5 -9q2 16 11.5 25t13.5 24zM270 327q-45 -17 -80 -43t-63 -59.5t-49.5 -73.5
t-38.5 -84q40 21 77 46t67.5 56t53 69.5t33.5 88.5z" />
    <glyph glyph-name="h" unicode="h" horiz-adv-x="408" 
d="M-164 37q7 -2 9.5 -8.5t11.5 -7.5q4 1 4 4t5 4q4 1 3.5 4t-2 7.5t-3.5 9.5t-2 8q3 -1 3 -3.5t1 -4.5q28 12 47 35.5t34.5 50.5t32 54.5t40.5 47.5q-1 3 -5 4t-8.5 1.5t-7 2.5t-0.5 8q5 0 8 2t5 4t4.5 2.5t7.5 -3.5q7 0 7.5 6.5t9.5 4.5q-2 8 -8.5 8t-8.5 -8q-3 1 -2 4.5
t4 7t6 7.5t3 7q4 -5 5.5 -6t2.5 0t3.5 3t9.5 3q20 41 42.5 78.5t53.5 75.5q-8 1 -14 -5.5t-12 -15.5t-13 -17.5t-17 -11.5q16 16 27.5 36t22 41t22.5 40.5t30 33.5q2 7 -3 9t-2 11q41 48 82 95.5t87 92.5q26 2 52 -9.5t49 -23.5q-2 -11 -10 -24.5t-18 -26t-20.5 -23
t-17.5 -14.5q-8 -26 -29 -53t-45 -56.5t-46.5 -61.5t-32.5 -67q-15 -5 -23 -15t-13.5 -20.5t-10.5 -19.5t-14 -12q2 -2 3.5 -4.5t-3.5 -2.5q31 8 58.5 7.5t44.5 -10t20.5 -27.5t-11.5 -44q-5 -10 -11 -20t-14 -20q-14 -16 -22 -35t-11 -39.5t-3.5 -41t0.5 -38.5
q34 18 52 33.5t34.5 33t37 39t59.5 51.5q7 -5 3 -16.5t-15 -28t-27 -37t-32 -42.5q-9 -12 -15 -22.5t-12 -20.5t-14 -19t-20 -17q-44 0 -67.5 11.5t-33.5 30.5t-8.5 43.5t8.5 50.5t17.5 51.5t17.5 46.5q-11 -2 -18.5 -9t-14.5 -14t-14 -12t-15 -2q-18 -24 -42.5 -49.5
t-49 -54.5t-45.5 -62t-31 -73q-5 6 -9.5 7t-6.5 -11q-6 0 -8.5 3t-5.5 6t-7.5 4.5t-13.5 -1.5q1 10 -1 14t-5 6.5t-5.5 5t-3.5 8.5q-6 -3 -10 -8t-15 -4q-3 8 -13.5 10.5t-22 4.5t-19.5 6t-7 16z" />
    <glyph glyph-name="i" unicode="i" 
d="M99 375q9 0 21.5 -1t25.5 -2.5t24.5 -4.5t19.5 -9q-1 -28 -13.5 -54.5t-26.5 -49.5q-29 -48 -59.5 -94.5t-47.5 -101.5q33 13 60 30.5t51 37.5t46.5 41t46.5 42q-6 -29 -24.5 -51.5t-40 -43.5t-41 -43t-26.5 -50q-17 -19 -38 -21.5t-43 3.5t-42 17.5t-35 20.5
q-11 54 5.5 98t43.5 82.5t54.5 75.5t38.5 78zM168 505q38 -2 62.5 -16t24.5 -46q-27 -7 -49.5 -16.5t-42.5 -5.5q-4 8 -4.5 20t0.5 24t3.5 23t5.5 17z" />
    <glyph glyph-name="j" unicode="j" horiz-adv-x="222" 
d="M-43 112q-14 -14 -26.5 -28.5t-21.5 -31.5q-3 3 -2.5 7t3.5 8t7 7.5t9 3.5q8 19 25.5 41t27.5 45q1 4 1.5 10.5t2 11.5t4.5 8t9 0q-6 7 3.5 22.5t24.5 35t30 41.5t19 42q3 16 11 35.5t20 36.5q23 -5 38 -11.5t26 -21.5q2 -5 9.5 -9t7.5 -10q-2 -12 -9 -27.5t-16 -32
t-18.5 -33.5t-16.5 -31q-2 -4 0 -10t0 -9q-4 -6 -10 -11.5t-11.5 -11.5t-8.5 -13t-1 -16q-7 0 -9.5 -3.5t-4 -8t-4 -8t-11.5 -2.5q1 -11 -5 -19q25 13 46 23.5t40.5 21t39 22t42.5 27.5q4 0 6 -2t3 -5t2.5 -5t6.5 0q-9 -20 -28.5 -38t-45 -34t-53.5 -31t-53.5 -30.5
t-45.5 -31.5t-29 -34q-1 -5 -8 -4t-9 -3q1 -3 5 -3t8 -1q-13 -14 -23.5 -30.5t-21 -32.5t-23.5 -31.5t-31 -28.5q-3 -19 -16.5 -39.5t-38.5 -31.5q2 -3 8.5 -2.5t16.5 -1.5q-4 -5 -14.5 -4.5t-15.5 -3.5q-3 0 -2.5 -3t0.5 -5.5t-2 -4.5t-9 -1q3 -7 8 -8q-9 0 -12.5 -4
t-6 -9.5t-6.5 -9.5t-13 -3q3 -23 -22 -26q1 -2 7.5 -6t5.5 2q6 -1 4 -2.5t-5.5 -3.5t-6 -3.5t3.5 -2.5q0 -3 -2 -3t-4 1.5t-3 4.5t0 5q-2 -6 -6 -10.5t-8.5 -8.5t-8 -9t-3.5 -13q-9 2 -11.5 -2t-10.5 -2q3 -5 1.5 -8.5t-5 -6.5t-7.5 -6t-5 -9q-11 -1 -15.5 5.5t-14.5 6.5
q5 5 14 0t11 -4q3 1 4 5.5t2.5 8t4 4.5t7.5 -3q-4 3 -3 4.5t3 6.5q-1 3 -3 2.5t-3.5 -1t-1.5 0t4 5.5q-6 2 -7.5 0.5t-2.5 -4t-2 -4t-6 0.5q2 5 -3 6t-10 1q2 4 2 0t-1 -9.5t-2.5 -8t-1.5 3.5q-8 -6 -9 0q1 -4 0 2t-3 13t-3 11t1 -4q-3 -3 -4 0.5t-0.5 9t3 11t6.5 5.5
q-13 2 -13 -5.5t3 -18t3.5 -19.5t-11.5 -9q1 -2 3.5 -4t5 -2.5t4 0.5t0.5 6q2 -11 -3.5 -11t-13 5t-15.5 12t-11 9q1 2 3 3l4 2t2.5 3t-1.5 6q-6 -9 -7.5 -4t-0.5 16q-3 -1 -4 -3.5t-1.5 -5t-2 -2.5t-5.5 4q-3 -8 1.5 -10t3.5 -9q-23 6 -34.5 16t-26.5 10q7 1 8.5 4.5
t0.5 7.5t-3 7l-2 3q16 61 50.5 112t82 91.5t104 71.5t116.5 52q14 17 28 33.5t24 37.5zM-405 -315q4 -6 4 -5t-2.5 5.5t-5.5 10t-4 7.5q1 -1 4 -2.5t5 -3t2.5 -1.5t-3.5 3q0 4 -2.5 5.5t-5.5 2t-5.5 2t-2.5 5.5q4 0 4 3.5t4 3.5q-6 -9 1.5 -11t15.5 -7q0 6 -3 8.5t-6 4.5
t-5.5 5.5t-2.5 11.5q4 -1 7.5 -3t5.5 3q-9 -1 -9 3t2.5 8t4.5 6t-3 -2q-18 -13 -18.5 -32.5t18.5 -30.5zM-254 -95q-1 -5 2.5 -7.5t1.5 -7.5q-9 -3 -14.5 -8.5t-11 -11.5t-11 -11.5t-14.5 -8.5q1 3 2 5t-7 1q-6 -4 -11.5 -9.5t-10.5 -11t-10 -9t-10 -3.5q-5 -11 -12.5 -24
t-14.5 -28q5 -5 9 -8.5t9 -6.5q-6 -5 -9 -13t-3.5 -17t1.5 -16.5t7 -10.5q28 6 51.5 21t42 36t31.5 45.5t21 48.5q-3 -6 1 -13.5t7 1.5q-5 1 -4.5 3.5t2 5.5t2 5t-3.5 4q5 -1 7.5 -2.5t9.5 -0.5q5 19 13 28t22 13q-2 8 3 14.5t10 12.5t6.5 11t-6.5 10q11 5 9.5 9t2.5 11
q-12 -1 -15 -9t-10 -14q-1 7 -6 7t-10.5 -2.5t-11 -4.5t-7.5 0q-1 -3 -9 -11t-17.5 -14.5t-19 -10t-14.5 1.5zM-285 -320q0 8 -5 12t-11 7v-8t4 -6q1 4 2 3.5t2.5 -3t3.5 -4.5t4 -1zM167 523q12 4 18.5 4t12.5 -1.5t12.5 -3.5t17.5 -2q8 -8 10 -16t0 -17t-6.5 -18l-8.5 -17
q-7 -3 -16 -4.5t-18 -3.5t-16.5 -6t-12.5 -12q-6 9 -6 20.5t3 23.5t6.5 25.5t3.5 27.5z" />
    <glyph glyph-name="k" unicode="k" horiz-adv-x="445" 
d="M270 452q2 -5 5.5 -2t5.5 6q-15 -33 -41.5 -63t-46.5 -62q26 13 58.5 32t67 30.5t69 8t65.5 -33.5q-1 -12 -5.5 -21.5t-10 -18l-11 -17t-8.5 -19.5q-32 -15 -62 -32t-60 -33t-62 -29t-66 -21q-10 -37 -3 -77t24 -66q38 16 71 39.5t64.5 48.5t63.5 49.5t68 42.5
q-17 -32 -42 -59.5t-52 -54.5t-53 -54t-45 -57q-40 -8 -76 2.5t-62.5 31.5t-41.5 49t-13 54q-18 -16 -24 -30.5t-9 -28t-7.5 -25t-20.5 -20.5q12 -8 8.5 -12.5t-8.5 -16.5q-8 -2 -11.5 0t-8.5 4q7 -7 7 -14t-3 -15t-6.5 -17.5t-3.5 -20.5q-11 1 -14 7.5t-11 9.5
q-19 -8 -31 -4t-18 15t-7.5 26t0.5 30q18 15 23 32t8 33.5t9 32t26 27.5q1 5 0 7.5t-2.5 4.5t-1.5 4t4 5q15 39 37 73.5t44.5 67.5t42 67t29.5 72q5 2 10 3.5t10 3.5q-3 5 -1.5 8.5l3 7t2 8t-3.5 10.5q13 18 36 53t47.5 75.5t45.5 79t32 63.5q17 5 38 2t39.5 -10.5
t31.5 -17.5t14 -19q1 -12 -8 -33t-24 -46.5t-33.5 -53.5t-36.5 -52.5t-32.5 -43t-21.5 -26.5zM351 368q-1 -2 -1.5 -4.5t-2.5 -3.5q-58 -27 -111 -69.5t-104 -84.5q42 15 77 32t67 36.5t64 42t67 47.5q-10 1 -20.5 0t-18.5 -2t-13 -0.5t-4 6.5z" />
    <glyph glyph-name="l" unicode="l" horiz-adv-x="279" 
d="M-35 43q7 -1 8.5 3t1 10.5t-2.5 14.5t-2 14q13 -1 11 -17q-8 19 -8 43t5.5 48.5t14.5 48.5t18 44q17 2 15 -12q6 2 5.5 3.5t-3.5 4t-6 5.5t0 7q9 -2 12 1t4 6.5t3 4.5t11 -3v12q-3 3 -7 2t-8 -4t-7 -7t-4 -7q8 40 30.5 74t49.5 66.5t52.5 66t40.5 72.5q9 -2 11.5 1.5
t3.5 9t3.5 12t12.5 10.5q2 6 -1.5 7.5t-8.5 1.5q14 19 30 36.5t32 35.5t30.5 37t25.5 41q15 -6 33 -10.5t33 -11.5t24 -19.5t6 -34.5q-18 -23 -33 -43t-28.5 -39t-27 -38.5t-28.5 -41.5q-14 0 -20.5 -6t-10.5 -14t-9 -15.5t-16 -9.5q2 -4 6.5 -5.5t2.5 -7.5
q-14 -4 -19.5 -13t-10 -18.5t-11.5 -18.5t-25 -13q-6 -1 -4.5 -2.5t4.5 -3t5.5 -4t0.5 -6.5q-17 -19 -36.5 -50t-38 -67t-35 -73t-27 -67t-14.5 -49t2 -19q34 18 63.5 41t57.5 48l56 50t59 46q7 -10 2 -17.5t-13.5 -14.5t-15.5 -15.5t-4 -19.5q-8 -1 -10 4
q-11 -13 -15 -19.5t-8.5 -12.5t-11.5 -13.5t-24 -21.5q-1 -15 -9.5 -29t-21 -26.5t-28 -24t-30.5 -22.5q-50 2 -83.5 17t-59.5 37zM-10 123q-1 -3 -3.5 -7t-4.5 -8t-2 -8t6 -6q3 1 7 5.5t5.5 9.5t0 9t-8.5 5z" />
    <glyph glyph-name="m" unicode="m" horiz-adv-x="699" 
d="M-40 146q29 67 70 130t83 129q28 -6 46 -9.5t41 -15.5q6 -20 0.5 -38.5t-16 -36.5t-22 -35.5t-18.5 -35.5q21 9 47 28t56 34.5t63 20t68 -16.5q1 -23 -8.5 -36.5t-17.5 -29.5q34 19 65 46.5t65.5 51t76.5 36.5t99 3q10 -15 7.5 -29.5t-11 -28.5t-20.5 -28.5t-21 -30.5
t-19.5 -36.5l-21 -41t-20.5 -40t-19 -34.5q6 -10 15.5 -9.5t29 13.5t52 38.5t82.5 66.5q-9 -30 -22 -52.5t-31 -41.5t-42 -35t-56 -32q-3 5 -12.5 8.5t-21 7t-23.5 7.5t-19 10q-23 17 -29 38.5t-0.5 45t20 47t32 46t35 42.5t29.5 35q-45 -20 -84.5 -50t-75.5 -66t-68.5 -75
t-62.5 -76q-13 4 -25.5 8.5t-21.5 11.5t-14.5 17.5t-4.5 25.5q9 -5 10.5 -6t0 1.5t-3.5 7t-2 10.5q0 13 9 28t20 31t20.5 31.5t11.5 30.5q-14 -2 -22.5 -9t-16 -14.5t-16 -14t-21.5 -8.5q-10 -29 -29.5 -53.5t-41 -49.5t-41.5 -51.5t-30 -58.5q-8 6 -10.5 7t-5 0.5t-6.5 -3
t-14 -4.5q-8 12 -22.5 18.5t-30.5 12t-30 12t-20 19.5q4 0 5 -2t2 -4.5t2.5 -4.5t5.5 -1q6 5 2 14t-12 11q9 2 11.5 5.5t2.5 8t-0.5 9.5t2.5 11q10 -8 12 -12t14 -5q5 4 7 10.5t-3 9.5q-4 0 -3.5 -2t1 -3.5t-1.5 -2.5t-11 1q5 20 10 31.5t16 22.5q-5 5 -9 3t-7 -6.5
t-5.5 -10t-4.5 -7.5z" />
    <glyph glyph-name="n" unicode="n" horiz-adv-x="498" 
d="M310 270q-37 -17 -71 -44t-67.5 -57t-66 -59t-66.5 -48q-15 12 -33.5 22.5t-26.5 28.5q5 -11 -5 -12t-27 7q-2 15 1.5 31.5t11.5 31t19 26.5t25 19q0 4 -4 4t-6 1q10 9 18.5 22.5t16.5 27t16.5 24t19.5 13.5q0 13 6.5 23.5t14.5 19t14 16.5t5 17q9 1 21.5 -0.5t25 -5.5
t23.5 -9t18 -11q2 -21 -5 -33.5t-11 -28.5q13 6 30 14t35.5 17l37 18t35.5 17q42 2 65.5 -2.5t41.5 -26.5q2 -32 -7.5 -59t-21.5 -52.5t-22 -52t-10 -56.5q23 10 41 22.5t34.5 25.5t34 26t38.5 24q-2 -13 -2.5 -21.5t-3 -14.5t-8.5 -11.5t-20 -12.5q-11 -14 -22 -23
t-21.5 -16t-19.5 -14t-15 -17q-11 0 -15.5 -1t-15.5 -1q-2 7 -2 8.5t-1.5 0.5t-5.5 -1.5t-12 1.5q-31 7 -44 25.5t-14.5 44t6 55t17.5 57.5z" />
    <glyph glyph-name="o" unicode="o" horiz-adv-x="430" 
d="M83 343q2 2 8 2.5t13 0t12.5 -3t7.5 -6.5q15 23 39.5 31.5t54 8.5t62 -6.5t63.5 -13.5q3 -11 6.5 -22t5.5 -22.5t1.5 -22.5t-5.5 -20q12 -3 28 -3.5t33 -0.5t33 -1.5t28 -7.5q-2 -11 0.5 -16t5.5 -13q-33 -5 -65.5 -3.5t-81.5 3.5q-11 -21 -26 -46.5t-33 -49.5t-39.5 -44
t-43.5 -31q-7 -17 -36 -32.5t-71 -13.5q-25 17 -56 29.5t-57 29.5q-13 40 -5 77.5t27.5 72t44.5 66t46 58.5zM225 231q-28 3 -47.5 12.5t-44.5 16.5q-9 -21 -20.5 -42.5t-21.5 -44t-18 -45t-11 -43.5q52 28 90 66t73 80zM276 281q1 11 6.5 17.5t4.5 19.5q-15 12 -33.5 13.5
t-35.5 -3.5t-31.5 -16t-21.5 -23q9 -5 22 -6.5t28 -1.5h30.5h30.5z" />
    <glyph glyph-name="p" unicode="p" horiz-adv-x="472" 
d="M-71 -234q-32 7 -56.5 19.5t-44.5 29.5q7 -1 8.5 3t1 10.5t-2.5 14.5t-2 14q3 0 7 -2q-5 19 -3 41.5t7.5 44.5t13.5 43.5t16 39.5q17 2 15 -12q6 2 5.5 3.5t-3.5 4t-6 5.5t0 7q9 -2 12 1t4 6.5t3 4.5t11 -3v12q-2 3 -6 2t-8 -4t-7.5 -6.5t-4.5 -6.5q7 41 28.5 77t48 69
t53 65.5t43.5 66.5q9 -2 11.5 1.5t3.5 9t3.5 12t12.5 10.5q2 6 -1.5 7.5t-8.5 1.5q14 19 30 36.5t32 35.5t30.5 37t25.5 41q15 -6 33 -10.5t33 -11.5t24 -19.5t6 -34.5l-36 -46q28 14 57 24t57.5 11.5t56 -8t51.5 -34.5q-2 -12 -2.5 -22.5t-2.5 -27.5l-14 -6t-12 -8
t-8 -12.5t-1 -20.5q-27 -16 -50.5 -38.5t-44.5 -46t-40.5 -46t-39.5 -39.5q-20 1 -41 11t-41.5 23.5t-39.5 27.5t-35 22q-4 -6 -6.5 -13t-7 -14t-11.5 -12t-19 -8q-6 -1 -4.5 -2.5t4.5 -3t5.5 -4t0.5 -6.5q-17 -19 -36.5 -50t-38 -67t-35 -73t-27 -67t-14.5 -49t2 -19l17 9z
M193 212q0 -2 -3 -4.5t-5.5 -5t-3 -4.5t5.5 -3q39 21 75 48t60.5 53.5t34.5 49t-2 35.5q-5 -3 -11.5 -6t-12 -4.5t-9 -1t-3.5 6.5q-15 -15 -38.5 -37.5t-46 -47t-40.5 -47t-22 -35.5q2 2 8.5 2t12.5 1z" />
    <glyph glyph-name="q" unicode="q" horiz-adv-x="473" 
d="M131 -290q-32 7 -55.5 19t-42.5 28q7 -1 8.5 3t1 10t-2.5 13.5t-2 13.5q4 0 6 -2q-5 19 -3 40t7.5 43t13.5 42.5t16 37.5q16 2 14 -12q6 2 5.5 3.5t-3.5 4t-5.5 5t-0.5 6.5q9 -2 12 1t4 6t3 4.5t11 -2.5v11q-5 5 -14.5 -1.5t-11.5 -12.5q6 30 21.5 56t34.5 50.5t40 49
t39 50.5q-6 -5 -12.5 -10t-12 -9.5t-9 -6.5t-3.5 0q-14 -10 -23.5 -23t-20 -24.5t-25.5 -20t-40 -8.5q-11 7 -26.5 13t-30.5 13t-26.5 16.5t-14.5 24.5q-5 18 2.5 38.5t21 42t31 43t33.5 41.5q14 18 32.5 41t38 44t39.5 36.5t38 18.5q17 2 32.5 -1.5t29.5 -9t26 -9t21 -1.5
q41 -7 55 -26l12 22q15 -6 32.5 -10t31.5 -11t23 -19t6 -33q-18 -22 -32 -41t-27.5 -37.5t-26 -37t-27.5 -39.5q-14 0 -20 -6t-10.5 -13.5t-9.5 -14.5t-15 -9q2 -4 6.5 -5.5t2.5 -7.5q-14 -3 -19 -11.5t-9.5 -18.5t-11.5 -18.5t-24 -11.5q-6 -1 -4.5 -2.5t4.5 -3t5.5 -4
t0.5 -6.5q-17 -18 -35.5 -48t-36.5 -64.5t-34 -70t-26.5 -64.5t-14.5 -47t2 -18l17 9zM307 367q-21 9 -39.5 4.5t-36.5 -16.5t-34.5 -29.5t-32.5 -34.5q-35 -36 -54 -73.5t-30 -74.5q64 51 120 107t107 117zM57 -166q-1 -3 -3.5 -6.5t-4.5 -7.5t-1.5 -8t5.5 -6q3 1 7 5.5
t5.5 9t0 8.5t-8.5 5z" />
    <glyph glyph-name="r" unicode="r" horiz-adv-x="402" 
d="M42 -14q-9 2 -19.5 9.5t-18.5 14t-11 10t2 -1.5q-24 -2 -41 12t-13 46q5 40 25.5 84t45.5 88t49 86t36 78q36 2 59.5 -8.5t31.5 -36.5q-7 -9 -16 -17t-14 -20q15 6 35.5 20.5t44.5 28t50 21t50 -0.5q22 -7 29.5 -18.5t5.5 -27t-9.5 -34t-15 -39t-12.5 -41.5t-1 -42
q12 2 17.5 -10.5t-1.5 -25.5q-29 -2 -52 11.5t-37 36t-18 50.5t7 56q-17 -12 -35 -31t-36 -40t-34 -42t-29 -37q-14 -18 -25.5 -40t-21 -45.5t-16.5 -47.5t-12 -46z" />
    <glyph glyph-name="s" unicode="s" horiz-adv-x="455" 
d="M53 60q5 -6 6 -17q6 1 3 5.5t0 9.5q36 0 70.5 12.5t65.5 33.5t58 50t47 64q-14 12 -31.5 8.5t-35.5 -11t-36 -13.5t-34 0q5 -13 -0.5 -19.5t-15 -9.5t-21 -5t-17.5 -6q-2 8 -6 11t-9 4.5t-10.5 2.5t-11.5 4q0 -8 2.5 -9.5t6.5 -1.5t9 1t11 -1q-7 -6 -24 -0.5t-35 17.5
t-33.5 27t-19.5 27q-2 5 -4 14.5t-1.5 19t5 16.5t15.5 9q-2 -7 1 -10.5t0 -10.5q-9 4 -11 3.5t1 -4t9.5 -8t13.5 -8.5q-3 5 -6.5 10t1.5 16q5 -11 6.5 -13t3.5 0t7.5 4t17.5 -2q-4 1 -6.5 7.5t-4.5 13t-3.5 8.5t-3.5 -6q-5 6 -3 10t5.5 5.5t8 -0.5t6.5 -8q1 4 -1 6l-4 4
t-3 4.5t2 7.5q7 -2 10 1t3.5 7.5t0 8.5t0.5 6q13 21 32.5 35.5t40.5 27t42.5 24.5t39.5 27q52 5 98.5 -15.5t87.5 -48.5q0 -7 -4.5 -8.5t-4.5 -9.5q6 -3 8 0t4 7q4 -1 4.5 -4.5t-1 -7.5t-4 -7.5t-3.5 -4.5q-12 10 -28.5 9.5t-33 -3.5t-30.5 -5t-21 4q-4 -5 -10.5 -12
t-14.5 -12t-16.5 -7.5t-15.5 0.5q-8 -9 -20.5 -20t-27.5 -22.5t-29.5 -23t-26.5 -22.5q-1 -3 1.5 -4.5t6 -2.5l7 -2t3.5 -4q20 12 47.5 17t57 4t57.5 -9.5t49.5 -23.5t33 -37.5t7.5 -51.5q-3 -21 -15.5 -40.5t-29 -36.5t-35 -31t-32.5 -24q-22 -16 -44.5 -30.5t-47.5 -24.5
t-53.5 -12.5t-62.5 6.5q-10 19 -24 30.5t-28.5 22t-27 22.5t-20.5 31q3 2 7 2h8.5t7.5 1.5t4 6.5q5 -8 12 -13.5t15 -12.5q4 1 5 5t6 3q-1 4 -4 5t-6.5 1t-6 -0.5t-3.5 -1.5q-3 6 0 7t9 0t13 -1.5t12 3.5zM77 -35q1 2 1.5 3.5t3.5 0.5q0 -5 -1 -9.5t4 -5.5q3 1 9.5 2t12 2
t8.5 3t-2 7q-1 -2 -6 -3t-10 -1t-8.5 1t-1.5 3q16 2 14.5 4.5t-9 3.5t-14.5 -1.5t-1 -9.5z" />
    <glyph glyph-name="t" unicode="t" horiz-adv-x="278" 
d="M288 221q9 -12 6.5 -27.5t-11 -31t-20 -29t-19.5 -22.5q-11 -13 -26 -22.5t-31 -20.5q-17 -22 -34 -41.5t-43 -31.5q-2 -8 4 -10q-21 -21 -45.5 -25t-48.5 2.5t-46 20t-40 27.5q8 9 6.5 17t-3 13t1.5 4.5t20 -9.5q5 19 0 29.5t-6 15.5q7 10 10 14.5t4 9t2.5 11t6.5 19.5
q7 1 9 -2t9 -2q3 7 0 8t-3 -4q-3 4 -0.5 7t6 6.5t6.5 7.5t1 10q-7 -4 -12.5 -10l-11 -12t-12 -11t-15.5 -8q-4 2 -3 6t5 4q0 4 0.5 6.5t0.5 4.5q10 0 8 -3t-4 -8q12 8 19.5 20t13 25.5t9.5 26.5t10 23q-4 -4 -12.5 -15t-16.5 -19q2 16 10 26.5t16 28.5q11 5 15.5 0t14.5 -5
q-2 6 -4 7.5t-4.5 0.5t-5 -1.5t-5.5 2.5q5 30 18.5 46t28.5 29t28 28t19 43q-16 -16 -32.5 -31.5t-27.5 -38.5q5 17 18.5 41.5t30 51t33.5 51t28 41.5q-18 7 -40.5 7.5t-43.5 3t-36 11.5t-18 32q20 6 40.5 9t41 4.5t41.5 2.5t44 5q27 23 43.5 45t29.5 44.5t26.5 46.5
t36.5 50q23 -3 42.5 -9.5t32.5 -17t19 -25.5t2 -34q-3 -15 -13.5 -27.5t-21.5 -24t-19.5 -23t-8.5 -24.5q16 -5 39.5 -6t49 -1.5t50.5 -1.5t44 -5q-25 -15 -55 -20t-60.5 -8.5t-59 -9t-50.5 -20.5q-45 -57 -83.5 -110t-64.5 -119q-41 -43 -62 -95.5t-39 -110.5h-16
q2 -10 1.5 -20t-11.5 -14q-1 -17 10.5 -15t29 13t37.5 28t37 32l5 -6q31 31 61.5 62t62.5 57zM27 260h14q-2 12 3.5 20.5t11.5 15t8 12.5t-5 12q-7 -18 -17 -30.5t-15 -29.5zM81 4q2 -12 -4.5 -14.5t-9.5 -9.5q5 -5 14.5 -5t11.5 10q-5 -1 -6.5 2t-1.5 6.5v7t-4 3.5z" />
    <glyph glyph-name="u" unicode="u" horiz-adv-x="439" 
d="M233 112q-4 4 -5.5 12.5t0.5 16.5t6.5 13.5t12.5 5.5q1 -5 -1.5 -7t-2.5 -6q6 3 6.5 7.5t0.5 9.5t1.5 9.5t8.5 8.5q-28 -8 -42 -28.5t-23 -46.5q-11 5 -14 4t-5 -8q3 -6 6.5 -3.5t2.5 7.5q4 -9 1 -14.5t-8 -10.5t-9 -11t-2 -16q-4 0 -5 2t-1 6t0.5 7.5t-0.5 6.5
q-3 -1 -4 -4.5t-1.5 -6t-2 -3t-6.5 4.5q4 -12 2.5 -20.5t-7 -16t-13 -14.5t-15.5 -15q-9 1 -5 8.5t5 9.5q-5 1 -6.5 -1.5t-2 -6t-1 -6.5t-4.5 -4q-14 5 -27 10t-15 21q-15 -5 -31 -0.5t-30 15t-23.5 26.5t-10.5 33q6 13 12 29t12 31.5t11 30t9 23.5q-5 5 -7 2t-4 -7.5t-5 -9
t-9 -2.5q31 52 61 103t66 98q32 0 58.5 -9t51.5 -31q-53 -58 -92.5 -127t-59.5 -157q49 32 94 73t88 86t84.5 91.5t83.5 90.5q11 -4 23.5 -6.5t28.5 -2.5q-8 -27 -20.5 -50t-26.5 -44t-29 -41.5t-28 -43.5q-3 -9 2 -11.5t3 -10.5q-18 -20 -26 -43.5t-13 -48t-10 -49.5
t-17 -46q-14 1 -28.5 -5t-28.5 -13q-11 15 -14 32.5t-2.5 35.5t3.5 35t3 32q-8 -2 -5.5 -12.5t1.5 -17.5zM304 47q-5 7 -6.5 8t-1.5 -1v-6t-2 -6q-7 1 -9 8q-11 -2 -15 -4t-10 -4q7 -3 12 -5.5t9.5 -3t9.5 2.5t13 11z" />
    <glyph glyph-name="v" unicode="v" horiz-adv-x="316" 
d="M77 428q15 3 30 3t27.5 -3.5t21 -11.5t10.5 -23q2 -12 -7 -24.5t-14 -26.5q-7 -20 -16 -50t-18.5 -60.5t-18.5 -57.5t-15 -42q-6 -24 -1 -27t17.5 10t32 39.5t44 60.5t53 73t58.5 78t60.5 74.5t59.5 62.5q-26 -64 -65.5 -122t-74.5 -98q4 -17 -1 -29t-12.5 -23.5
t-14 -22.5t-4.5 -25q-20 -23 -33 -51.5t-27.5 -54.5t-32.5 -45.5t-48 -23.5q-6 -2 -8 -0.5t-1.5 4.5t2.5 6t4 5q-46 -3 -70 12t-32.5 40.5t-4.5 57t13 60.5t18.5 60.5t20 62.5t22 60t25.5 52zM-16 128q-1 12 3 19t7 15q-7 -1 -11 -5.5t-5 -10.5t0.5 -11.5t5.5 -6.5z" />
    <glyph glyph-name="w" unicode="w" horiz-adv-x="583" 
d="M586 488q6 4 5.5 2t-3.5 -6.5t-6.5 -10.5t-3.5 -10q6 4 10.5 10.5t8.5 14t8.5 14t10.5 11.5q-12 -29 -23 -67t-22.5 -79t-24.5 -82.5t-30 -76.5q-8 -17 -17.5 -36.5t-19 -37.5t-18.5 -33.5t-16 -22.5q-31 -36 -76.5 -48t-87 -1t-69.5 46t-24 93q-22 -15 -34 -41.5
t-23 -53.5t-26.5 -50t-43.5 -31q-12 4 -23.5 7.5t-9.5 17.5q-17 -5 -31.5 -1.5t-24.5 12t-14.5 20.5t-1.5 24t6.5 30.5t8.5 36t12 30.5t18 14q-1 8 -4.5 8.5t-7 -2.5t-7.5 -8t-7 -8q12 27 27 58.5t33 63.5t37 62t39 56q13 -3 29 -4t30 -4t23 -10t9 -22q-27 -29 -44.5 -68.5
t-33.5 -81.5q-6 -2 -7.5 1.5t-1.5 8.5q0 -12 -4.5 -24t-11 -25.5t-13.5 -27t-11 -28.5q47 45 89.5 93t80.5 102q8 -3 18 -2.5t20 0t18.5 -4t13.5 -13.5q-13 -12 -23 -37t-15.5 -55t-6.5 -59.5t4.5 -50.5t18.5 -29t35 6q42 27 70 71.5t57 98.5q9 17 18.5 36.5t19 36
t18.5 28.5t16 14q2 12 10.5 26t18 30.5t18.5 33.5t12 35z" />
    <glyph glyph-name="x" unicode="x" horiz-adv-x="415" 
d="M310 355q-9 -2 -3 -7.5t6 -10.5q-30 -51 -62 -100t-72 -93q8 -36 21.5 -67.5t40.5 -48.5q32 15 57.5 36t47 45.5t42 51t41.5 51.5q2 -10 6.5 -20.5t2.5 -20.5q-1 -10 -8 -20t-16 -21t-17 -22.5t-12 -23.5q-3 -10 -3 -16.5v-12t-1 -11t-5 -11.5q-6 -8 -15 -16t-19 -15
t-20 -11t-18 -4q-1 6 2.5 7.5t3.5 5.5q-5 -1 -7 -4t-3.5 -7t-3.5 -7.5t-6 -4.5q-30 7 -59 14t-53.5 18t-43 28t-27.5 43q-21 -19 -37.5 -37t-34.5 -30.5t-41.5 -17t-59.5 4.5q23 50 58.5 87t70.5 74q-6 33 -7 71t1 76t5 74t6 65q34 6 56.5 -1t33.5 -32t11 -69.5t-10 -113.5
q22 14 46 40t49.5 53t51 48t51.5 25q-4 -11 -8.5 -17t-9 -10.5t-8.5 -9.5t-8 -15q-8 -6 -9.5 -0.5t-3.5 10.5z" />
    <glyph glyph-name="y" unicode="y" horiz-adv-x="436" 
d="M73 410q12 -2 26 -3.5t27 -6t23 -12t13 -21.5q-24 -32 -38.5 -72t-30.5 -79q-2 1 -3.5 2.5t-6.5 1.5q6 -13 2 -26t-9.5 -26t-8.5 -25t6 -24q90 59 159.5 134t116.5 173q17 -3 35.5 -5t34 -6.5t26.5 -13.5t14 -25h-18q-24 -27 -46 -67t-41 -81.5t-36 -78t-32 -56.5
q22 -1 42 14.5t39.5 36.5t39.5 41.5t42 29.5q-8 -30 -25.5 -55.5t-40.5 -48t-48.5 -43.5t-49.5 -42h-28q-26 -25 -43 -52t-31 -53t-28.5 -51t-34.5 -46q4 -7 2.5 -13t-5.5 -11.5t-8.5 -11t-6.5 -11.5q3 -1 -4 -19t-20 -40t-29.5 -40.5t-34.5 -21.5q-7 -1 -13 1t-13 3
q15 6 33.5 9.5t30.5 20.5q-2 1 -5.5 -0.5t-6.5 -1.5t-5 2.5t-2 11.5q1 1 3.5 2.5t5 2t4.5 -1.5t1 -7q4 7 3.5 15.5t6.5 18.5q-9 -2 -13 -4t-7 -4t-8 -3t-15 -1q-1 -10 1.5 -17t13.5 -5q-14 -9 -19 -24q-8 2 -12.5 8t-14.5 8q-4 -1 -5 -2.5t-4 -1.5q-1 -6 1.5 -8t7.5 -4
q5 2 2 2.5t-7 0.5q6 5 10 5.5t5.5 -2.5t0 -7.5t-5.5 -8.5q-18 -2 -24.5 5.5t-17.5 11.5q6 4 7 5.5t-0.5 2t-3.5 2.5t-3 7q5 -5 7.5 -3t-2.5 3q3 3 6 1.5t5 -5t2 -8.5t-3 -9q3 7 9.5 11.5t7.5 13.5q0 -4 -3.5 -6t-6.5 -2t-3.5 2t4.5 6q0 4 -2.5 3.5t-5.5 -2t-5 -1t-1 7.5
q-3 0 -4 -3t-2.5 -5.5t-3.5 -4t-8 0.5q-2 -5 1.5 -6t7.5 -2q-2 -7 -9 -6.5t-14.5 4.5t-12 10t-0.5 9q-10 -6 -23 -5q-1 5 -4 9t-5 9q-2 -10 -6.5 -7t-16.5 7q15 12 23 29q-6 0 -8.5 -2.5t-4 -5.5t-3.5 -6t-7 -3q-4 6 -2 21t7 32t12.5 34t14.5 26q18 23 45.5 41t58.5 33.5
l63 31.5t58 35.5t43 44.5t20 59q-3 0 -6.5 -2.5t-6.5 -5t-3.5 -5.5t3.5 -5q-24 -14 -50.5 -12.5t-52 12t-47 27t-34.5 33.5q4 25 7.5 50t7.5 51q-5 -1 -5 -5t-5 -4q2 -7 0 -8t-3.5 0.5t-1.5 4.5t5 3q21 48 42.5 95t47.5 91zM-63 -285q1 -8 -1.5 -7t-6 4t-8 4t-7.5 -6h15
q-1 -9 8 -12q1 2 5 9t-5 8zM-36 -192q-5 7 -2 11.5t7 9t5.5 9t-5.5 11.5q1 -16 -3.5 -18.5t-4.5 5.5q1 -6 -3.5 -17.5t-9.5 -26t-9 -30t-2 -30.5q13 4 21.5 13t16 19t16.5 18.5t23 11.5q7 26 18 41t15 32q8 2 18 11.5t18.5 21.5t15 25t7.5 21q-12 -7 -28 -14t-26 -7
q-9 -10 -20 -24.5t-22 -30.5t-22.5 -32.5t-23.5 -29.5zM-26 -256q-8 1 -11.5 -3.5t-7.5 -8.5q7 -2 9.5 -0.5t3.5 3.5t3 4.5t7 1.5q1 2 0 5t-3 5t-4 2t-2 -4q6 0 5 -5zM-3 -293q-2 1 -5.5 1t-3.5 2q5 2 5 10q-11 -3 -14 0.5t-10 2.5q-1 -5 2 -9.5t8 -7t10 -2.5t8 3zM52 -166
q-2 -5 -3.5 -11t-4 -9.5t-5 -3.5t-6.5 6q1 -9 -4 -16t-13 -13.5t-17 -13.5t-16 -16q11 -4 13 -2t10 -2q4 10 12.5 20t16.5 19.5t13.5 20t3.5 21.5zM116 60q0 3 5 5t9.5 4t6.5 3.5t-3 4.5q-1 -5 -3.5 -3.5t-5.5 3.5q-1 -7 -5 -7.5t-9.5 0t-10 0.5t-7.5 -6q12 0 14 1.5t9 -5.5
z" />
    <glyph glyph-name="z" unicode="z" horiz-adv-x="499" 
d="M172 326q-5 1 -3.5 3t3.5 2q-5 1 -11 -2t-12 -7.5t-11.5 -9.5t-9.5 -9q-14 2 -26.5 4.5t-23 7t-18 12t-10.5 18.5q18 10 44.5 28.5t58 38.5t65.5 38.5t68.5 29t67 10t60.5 -18.5q4 -3 11 -10t13 -16.5t10 -20.5t2 -22q-2 -8 -11 -13.5t-16 -15.5q-2 -4 0.5 -9t-0.5 -7
q-3 -6 -12 -8t-14 -7q-5 -6 -7.5 -13t-5 -13t-6.5 -10.5t-12 -5.5q3 -4 11.5 -4t17.5 0.5t16.5 -0.5t7.5 -7q-18 -13 -41.5 -20.5t-47.5 -15t-44.5 -17.5t-32.5 -28q-5 3 -9.5 4.5t-12.5 -0.5q-7 -9 -17 -15t-19.5 -11t-16 -10t-6.5 -13q-4 2 -6 5l-4 6q0 -11 -7 -25
t-27 -21q45 -8 84 -20t68 -33q52 -1 90 9t67 29q6 -6 7.5 -14t0.5 -17t-2.5 -19.5t-0.5 -22.5q-6 2 -10.5 -1t-8 -6t-6.5 -4t-7 4q-2 -6 -10.5 -11t-20.5 -8t-26.5 -3t-27.5 3q-2 5 -6.5 4.5t0.5 7.5q-18 -4 -34 3t-31 17.5l-30 21t-30 14.5q-22 6 -48.5 -4t-54 -25.5
t-53.5 -32.5t-46 -25q-17 18 -37.5 33t-34.5 35q-2 9 4.5 7t8.5 -2q-3 3 -3.5 9t0.5 12q9 -2 14 1t9.5 6t9 4.5t11.5 -2.5q-8 -6 -16.5 -10t-19.5 -1q3 -8 6.5 -8t8 2t9 3.5t7.5 -2.5q4 6 5 9t0 5.5t-1.5 5t1.5 7.5q46 16 91 52t89 70q-11 6 -26 9.5t-29.5 8t-25.5 11.5
t-14 21q18 3 37.5 2l39 -2t39 -1.5t37.5 4.5q14 4 23.5 12.5t17.5 18t15 19t16 15.5q1 8 -9 8q13 17 29 30.5t25 34.5q-20 -6 -40 -17t-40.5 -24.5t-39.5 -27.5t-37 -27zM369 21q6 0 5 -4h9q1 6 0 7t-3 0t-4 -1.5t-2 3.5q1 1 5.5 1h9t6.5 1t-2 5q-2 -2 -5.5 -2t-7.5 -1
t-7 -2.5t-4 -6.5zM419 37q0 6 6.5 5.5t6.5 4.5q-5 2 -5.5 5t1 6.5t4.5 6t5 3.5q-5 -2 -7 -1t-3 3t-2.5 3.5t-5.5 1.5q-2 -5 -0.5 -9t3 -7.5t2 -6t-4.5 -5.5q0 8 -1 11.5t-8 4.5q6 -14 2 -13.5t-15 6.5q3 -8 5.5 -11t4.5 -4t5 -1t7 -3z" />
    <glyph glyph-name="braceleft" unicode="{" horiz-adv-x="377" 
d="M471 711q-17 -8 -32.5 -9.5t-30 -4t-28.5 -8.5t-27 -21q-4 -4 -1.5 -6t6.5 -2.5t5 -1.5t-6 -4q-5 -35 -16.5 -67t-24 -62.5t-23.5 -62t-14 -66.5q-23 -29 -51.5 -52t-67.5 -37q28 -19 34.5 -42.5t0 -50t-21 -55.5t-28.5 -58t-21.5 -57.5t-0.5 -54.5q11 -3 26.5 -4
t30 -1.5t24 -3.5t9.5 -10q-1 -10 -16.5 -15.5t-36 -7.5t-41.5 -2t-32 1q-63 9 -91.5 41.5t-10.5 104.5q7 30 21 52t29 42t26.5 42t13.5 51q-4 10 -14.5 15t-22 9t-20.5 10t-9 19q0 2 0.5 6t0.5 7q7 -5 9 -6t2.5 0.5t1 5.5t4.5 10q23 0 39.5 7.5t30 19t26.5 24.5t29 25
q1 1 5 2t8 1.5t7 0.5t1 -1q3 3 6.5 10.5t7.5 17t7.5 19t5.5 15.5q13 33 19 68t14 68t22 61.5t43 49.5q21 9 46 11.5t49.5 -2t45 -15t32.5 -26.5z" />
    <glyph glyph-name="bar" unicode="|" horiz-adv-x="214" 
d="M18 137q4 -21 4 -43v-45.5t0.5 -50.5t5.5 -59q-14 18 -19 42t-4.5 50t4.5 53.5t9 52.5zM137 208q-5 4 -5 9.5t2.5 12.5t6 16t6.5 20q-7 -9 -8.5 -7.5t-0.5 8t2.5 15.5t1.5 15q-8 -2 -11.5 -7.5t-6.5 -12.5t-7 -13t-11 -8q3 -6 5.5 -4.5t5.5 5t6.5 7t8.5 2.5
q-7 -10 -10 -28.5t-5.5 -38.5t-7 -39t-13.5 -29q7 -9 7.5 -27.5t-4.5 -37.5t-15 -33.5t-25 -15.5q7 -7 5.5 -22.5t-0.5 -29.5q-4 6 -6 9.5t-4.5 5t-7 1.5t-13.5 -1q-2 48 1.5 95t9 92t11.5 88t9 84q-8 -15 -11.5 -33t-7 -37.5t-9.5 -39t-18 -36.5q14 149 44 293.5t65 286.5
q26 20 52.5 16.5t50.5 -21.5q4 -80 -5.5 -153t-24.5 -142.5t-30.5 -137.5t-22.5 -137q-23 -2 -20 -26q-5 3 -5 8.5t2.5 11t6 10t6.5 6.5zM96 121q-11 1 -12.5 -6t-3.5 -14q10 1 10 -3t-2.5 -10t-3.5 -11.5t7 -7.5q5 14 5 52zM69 48q0 -4 1.5 -7.5t3.5 2.5q-4 4 -2.5 8t4 8
t2 7.5t-8.5 7.5q0 -5 -4.5 -5.5t-5.5 -4.5q5 -1 10 -1t5 -5q-3 -1 -8.5 -3t-10 -5t-5.5 -6t4 -6q3 10 15 10z" />
    <glyph glyph-name="braceright" unicode="}" horiz-adv-x="453" 
d="M-39 0q17 7 32.5 9t30 4.5t28 8.5t27.5 21q4 4 1.5 6t-6.5 2.5t-5 1.5t6 4q4 35 16 67t24.5 62.5t23.5 62t14 66.5q23 29 51.5 52t67.5 37q-29 18 -35 42t0.5 50.5t21 55.5t28.5 58t21.5 57.5t0.5 54.5q-11 3 -26.5 4t-30 1.5t-24 3t-9.5 10.5q1 10 16.5 15.5t36 7.5
t41.5 2t32 -1q63 -9 91.5 -41.5t10.5 -104.5q-7 -30 -21 -52t-29 -42t-27 -42t-13 -51q4 -11 14.5 -15.5t22 -8.5t20.5 -10t9 -19q0 -2 -0.5 -6t-0.5 -7q-7 5 -9 6t-2.5 -0.5t-1 -5.5t-4.5 -10q-23 0 -39.5 -8t-30 -19t-26.5 -24t-29 -25q-1 -1 -5 -2l-8 -2t-7 -1t-1 2
q-3 -3 -6.5 -10.5t-7.5 -17t-7.5 -19t-5.5 -15.5q-13 -33 -19 -68t-14 -68t-22 -61.5t-43 -49.5q-21 -9 -46 -11.5t-49.5 2t-45 15t-32.5 26.5z" />
    <glyph glyph-name="asciitilde" unicode="~" horiz-adv-x="595" 
d="M476 176q-9 -3 -9.5 -6.5t2 -7.5t5.5 -9.5t2 -12.5q-17 -26 -46.5 -37.5t-62 -11t-64 12.5t-52.5 34t-28 53t10 69q-19 -9 -34 -26.5t-29 -37l-28 -39t-30.5 -32t-37.5 -15.5t-49 10q16 21 34 49t38.5 56t45 53.5t55 41.5t67.5 19t82 -12q11 -22 15.5 -42.5t5.5 -42
t0 -45t-1 -51.5q38 15 60.5 45.5t27.5 68.5q11 -1 18 -2.5t13.5 -3t13.5 -4t17 -6.5q1 -12 -2.5 -23t-9.5 -21.5t-12.5 -21t-11.5 -22.5q-11 3 -8.5 7t3.5 13zM497 202q1 15 3 23.5t-3 13.5q-11 -13 -15 -23t-6 -24q8 2 9 7t1 10.5t1 11t10 8.5q0 -6 -2.5 -10t-5 -7t-1.5 -5
t9 -5z" />
    <glyph glyph-name="exclamdown" unicode="&#xa1;" horiz-adv-x="255" 
d="M-15.9766 166.032q-8.99902 3 -8.99902 5.5q0 2.49902 3.99902 4.99902q4 2.5 10 5.5t8.99902 6.99902q4 6 6 16.499q2 10.5 4.5 19.499q2.49902 9 7.49902 13.499q5 4.5 13.999 -1.5q-1 14 4.5 26.499t13.499 24.498q8 11.999 16.499 23.999q8.5 11.999 12.499 24.998
h19.999q9 0 13.999 -5q-3 4 -3 6t1 3.5t0.5 3.5t-3.49902 5.99902q-6 2 -7 -1.5q-1 -3.49902 -2 -8.49902q-5.99902 7 -3.5 9.99902q2.5 3 7.5 5t8.99902 5q4 2.99902 1 9.99902q5 -2 4.5 -8.49902q-0.5 -6.5 0.5 -11.5q3 16.999 11.499 28.999q8.5 11.999 16.499 23.998
q4 -1 4 -5.5q0 -4.49902 1 -8.49902q6 7.99902 15.999 12.499t20.499 9q10.499 4.49902 18.998 10.999q8.5 6.49902 10.5 18.499q9.99902 0 12.499 -5t1.5 -11.999q-1 -7 -3 -14.999q-2 -8 -1 -14.999q8 -2 8.5 3.49902q0.5 5.5 0.5 10.5q4.99902 -2 5.49902 -6
t-0.5 -8.99902q-1 -5 -3 -10q-1.99902 -4.99902 -1.99902 -7.99902q-5 1 -4.5 5.49902q0.5 4.5 -0.5 9.5q-6 0 -8.5 -5q-2.49902 -4.99902 -3.99902 -9.99902t-3.5 -7.5t-7 3.5q-8.99902 -29.998 -18.499 -58.4961q-9.49902 -28.498 -29.498 -46.4971
q2 -17.999 -3.99902 -28.999q-6 -10.999 -13 -20.998q-6.99902 -10 -11.499 -19.999t0.5 -24.998q-8.99902 -28.999 -25.998 -53.9971t-34.998 -47.9971t-32.998 -46.9971q-14.999 -23.999 -19.999 -51.9971q-12.999 -5 -18.499 -16.499q-5.49902 -11.499 -13.499 -20.499
q-48.9971 12 -80.9951 36.998q-1 14.999 -2.5 30.498q-1.49902 15.499 -1 28.498q0.5 13 4.5 21.499q4 8.5 12.999 10.499q4 11 10 25.999q5.99902 14.999 13.999 29.998q7.99902 14.999 18.499 28.498q10.499 13.499 24.498 20.499zM73.0186 318.022
q4.99902 -1 9.99902 -9.99902q-6 1 -11.499 -0.5q-5.5 -1.5 1.5 -3.5q6.99902 -1 9.99902 2t8.99902 2q0 -2 2 -3t3 3q-3 0 -6.49902 3.5q-3.5 3.5 -6.5 6.99902q-3 3.5 -5.5 4.5t-5.49902 -5zM285.005 702.999q14.999 -15.999 29.499 -18.499
q14.499 -2.49902 42.4971 -4.49902q13.999 -18.999 15.499 -41.498q1.5 -22.498 -4.5 -44.4971q-5.99902 -21.998 -15.999 -42.9971q-9.99902 -20.999 -18.999 -36.998q-33.998 2 -64.4961 15.499t-44.4971 45.4971q3 19.999 7.5 33.498q4.49902 13.499 9.49902 25.499
q5 11.999 10.999 24.498q6 12.499 10 30.498q6.99902 3 12.999 2.5t9.49902 -0.5q3.5 0 4 2t-3.5 9.99902z" />
    <glyph glyph-name="cent" unicode="&#xa2;" horiz-adv-x="432" 
d="M281 521q18 12 28.5 35t22 45t27.5 37.5t46 12.5q6 -20 -2 -36.5t-21.5 -32t-28.5 -31.5t-23 -34q43 -6 64 -26.5t26 -55.5q-8 -5 -14.5 -12t-12.5 -13.5t-14 -11.5t-19 -5q-16 12 -30.5 25t-24.5 31q-30 -24 -46 -56.5t-26.5 -69t-19.5 -74.5t-23 -73q24 4 43 15.5
t36 26t33 30.5t34 30q-6 -25 -20 -49t-33.5 -43.5t-45 -33t-53.5 -17.5q-17 -21 -30.5 -45.5t-25.5 -48.5t-23.5 -45t-25.5 -36q-10 5 -10 24t5.5 44t13.5 50t14 42q-16 11 -33 18.5t-31.5 16.5t-25.5 22t-16 35q-5 24 0.5 55.5t18 65t30.5 66t38.5 59.5t41.5 45.5t39 23.5
q29 -2 56.5 -5t60.5 -1zM132 197q13 36 29.5 72.5t34 72t32.5 69t25 64.5q-23 1 -44.5 -15t-38.5 -42t-29.5 -58.5t-18 -63.5t-3.5 -58t13 -41z" />
    <glyph glyph-name="sterling" unicode="&#xa3;" horiz-adv-x="652" 
d="M-36 63q2 5 4 4t0 -4q25 25 51 50t55 45t63.5 31.5t75.5 8.5q7 6 11.5 15t8 19t7 19.5t9.5 16.5q-14 1 -20.5 -7t-11 -17.5t-10 -19t-15.5 -11.5q20 31 36.5 65t31.5 70q1 3 -5.5 3.5t-14.5 0.5t-16.5 0.5t-12.5 4.5q7 6 13.5 13.5t14 13.5t16.5 10t22 4q16 17 31 46.5
t30 63t31.5 68t36.5 62t45 45.5t57 18q51 1 104 -2.5t103 -16.5q3 -27 -7.5 -54t-31 -50t-48.5 -39.5t-59 -21.5q-6 8 -2 16.5t12.5 17.5t16.5 19t9 22q4 23 -12 35.5t-33 13.5q-23 -18 -40.5 -42.5t-32 -54t-27 -62t-24.5 -65.5q11 -6 26.5 -5t32 3.5t31.5 3t26 -5.5
q-2 -7 -2.5 -13t-2.5 -14q-37 -2 -68.5 -10.5t-69.5 -13.5q7 -6 6.5 -17.5t-5.5 -23.5t-13 -22t-17 -11q11 2 10 -4.5t-7 -14.5t-15 -15t-13 -6q1 -6 6.5 -4t11.5 4.5t10.5 1.5t4.5 -12q-3 8 -8 5t-9 -7.5t-7 -6t-1 8.5q-3 0 -5.5 -4t-3 -8.5t2 -7.5t8.5 0q-3 -7 -11.5 -5.5
t-10.5 -3.5q-1 -6 5.5 -6t8.5 6q-11 -15 -16 -29.5t-18 -35.5q11 -19 27 -33.5t24 -36.5q33 -7 66 -1t63.5 17.5t58 25.5t48.5 22q-2 -10 -6 -16t-8 -10.5t-7.5 -9t-4.5 -10.5q-8 0 -7 8q-12 -21 -35.5 -36.5t-53 -25.5t-63 -14t-65 -2t-58 11t-42.5 25q-8 -15 -29 -29
t-43.5 -21.5t-41.5 -6t-22 16.5q-4 -2 -9.5 -3t-10.5 -2.5t-9.5 -4.5t-5.5 -9q1 6 -4 11t-13.5 9t-17.5 7.5t-16 7.5q0 -9 1.5 -13t5 -5t9.5 -1t14 -2q-14 -8 -24 -6t-20 8t-20.5 11t-23.5 3q6 14 14.5 16.5t14.5 -6.5q-4 5 -2 11t9 -2q-1 6 -4.5 7t-8.5 1t-10.5 0.5
t-8.5 6.5q4 -7 4 -10t-2.5 -4.5t-6.5 -3t-9 -6.5q-6 2 -5 6t3 7.5t2.5 7t-6.5 3.5zM177 144q-18 3 -28 -4t-18 -17q15 1 16.5 0t-1.5 -4t-6 -7t2 -8q2 6 5.5 5.5t7.5 -2.5t7 -3t3 4q0 6 -1.5 8.5t-1.5 5.5t3 7.5t12 14.5zM177 29q-4 -8 -9.5 -10.5t-11.5 -3t-12 0t-11 -2.5
q6 -4 14 -4t15.5 2t12 7t2.5 11zM218 84q-10 0 -12.5 -7.5t-3.5 -15t-3 -11t-11 3.5q-4 -10 1 -12.5t13 -3t14.5 -1.5t5.5 -8q6 4 6 7t-1.5 6t-4 7t-1.5 9l6 -3t7 3q-2 -5 -5 -6.5t-4 -8.5q11 1 13.5 6.5t1.5 12t-2.5 13t1.5 9.5q-3 -6 -4 -4t-1 6.5t-0.5 9t-3.5 4.5
q-5 -24 -12.5 -34t-12.5 -23q-1 9 0.5 13t3.5 7.5t4.5 7.5t4.5 13z" />
    <glyph glyph-name="yen" unicode="&#xa5;" horiz-adv-x="501" 
d="M336 297q16 -2 30 -3t26 -2.5t23 -5t22 -11.5q-8 -11 -8 -19t-5 -16q-23 17 -44.5 19t-52.5 4q-6 -6 -9 -14.5t-6 -17.5t-6.5 -16.5t-10.5 -11.5q11 -10 29 -10h35t29 -5t12 -24q-25 -4 -54 -2t-53 -5q-7 -8 -12 -16.5t-12 -18.5q5 -7 4 -14.5t-3.5 -16.5t-5 -20.5
t0.5 -25.5q-5 -5 -8.5 -2t-7 7.5t-8.5 7t-12 -3.5q3 1 8.5 -5t7.5 -1q-2 -10 -12.5 -20t-24.5 -18t-29 -13.5t-24 -5.5q4 -4 3 -7t-2.5 -5t-0.5 -3.5t9 -2.5q-13 0 -19 12t-8 29t-2 37v36q6 -2 8 -5t2.5 -7t1 -7t2.5 -5q10 3 13 13.5t2.5 24.5t-2.5 30t-2 30q-6 0 -8.5 -4
t-3.5 -10t-2.5 -12t-5.5 -8q-6 3 -5.5 6.5t3 7t4 7t-2.5 7.5q-12 1 -20.5 -0.5t-16 -4t-15 -4.5t-17.5 0q3 19 25.5 33.5t52.5 14.5q8 15 15.5 31t16.5 27q-18 0 -32.5 -4t-27 -7t-26 -4.5t-30.5 3.5q26 25 58.5 40t79.5 17q8 6 16 17t14.5 23.5t10.5 25t4 22.5
q-13 -9 -31.5 -13t-31.5 -5q-80 -2 -119.5 29t-49.5 80t4 108t42 113q12 12 30.5 14t39 -2t39 -11.5t30.5 -16.5q-15 -29 -28.5 -61t-22 -65t-9.5 -65.5t10 -62.5q63 5 109 31.5t84 64t72 79.5t74 78q13 -1 26 -1t24 -2t20.5 -6t16.5 -13q-21 -17 -47.5 -46t-53.5 -62
t-50.5 -66t-37.5 -58q-8 -19 9 -31q-17 0 -23.5 -9t-10 -23.5t-8.5 -32t-18 -33.5z" />
    <glyph glyph-name="dieresis" unicode="&#xa8;" horiz-adv-x="262" 
d="M34 686q13 1 22 3.5t17.5 4t18 1t23.5 -4.5q2 -23 1 -36.5t-7 -21t-19 -11.5t-35 -7q-11 10 -15.5 16.5t-5 13.5t0 16.5t-0.5 25.5zM138 686q13 1 22 3.5t17.5 4t18 1t23.5 -4.5q2 -23 1 -36.5t-7 -21t-19 -11.5t-35 -7q-11 10 -15.5 16.5t-5 13.5t0 16.5t-0.5 25.5z" />
    <glyph glyph-name="plusminus" unicode="&#xb1;" horiz-adv-x="375" 
d="M7 304q15 20 42 23.5t57 2.5q12 19 26 39.5t32.5 34.5t41 19t51.5 -6q-10 -25 -25 -43.5t-26 -39.5q15 0 29.5 2.5t28 4.5t25 1t20.5 -8q-8 -13 -22 -18.5t-30.5 -8t-33.5 -3.5t-31 -5q-13 -20 -24 -42.5t-23.5 -42.5t-29 -35.5t-40.5 -20.5q-12 8 -13.5 24t2.5 35.5
t11.5 40t15.5 35.5q-9 3 -21 2.5l-24 -1t-22.5 1t-16.5 8.5zM18 89v10q10 13 35 20.5t55.5 10.5t61 1.5t53.5 -5.5q-9 -18 -34.5 -24.5t-56.5 -8t-62 -1t-52 -3.5z" />
    <glyph glyph-name="acute" unicode="&#xb4;" horiz-adv-x="216" 
d="M21 609q19 14 35.5 33t35.5 36t41.5 27.5t52.5 6.5q-7 -22 -21.5 -36.5t-32 -26l-35 -23t-29.5 -27.5q-16 -3 -24.5 2.5t-22.5 7.5z" />
    <glyph glyph-name="cedilla" unicode="&#xb8;" horiz-adv-x="259" 
d="M24 102q-5 3 -6 10t0 15t3 15t3 12q32 -1 67 1t61 13q-15 0 -31 1.5t-31 6t-27 12.5t-18 22q2 12 7 21.5t11 18.5l12 18t11 20q9 -2 21.5 -0.5t24.5 1.5t21.5 -4.5t14.5 -17.5q0 -9 -4 -14.5t-9.5 -10t-10.5 -9.5t-7 -12q18 -8 37 -18t33.5 -24.5t21 -34.5t-2.5 -48
q-21 -17 -47 -15.5t-53 9t-53.5 14t-48.5 -1.5z" />
    <glyph glyph-name="questiondown" unicode="&#xbf;" horiz-adv-x="512" 
d="M370.009 611.006q-1.99902 16.999 -7.99902 24.999q-6 7.99902 -22.999 15.999q12 12.999 17.499 22.498q5.5 9.5 10 18.499q4.49902 8.99902 10.499 18.999q6 9.99902 17.999 21.998q5 -6.99902 18.999 -8.99902t29.998 -1.5t29.498 2t18.499 1.5
q11.999 -35.998 8.49902 -65.9961q-3.49902 -29.998 -19.499 -47.4971q-15.998 -17.499 -43.9971 -19.499q-27.998 -2 -66.9961 16.999zM370.009 314.024q5 -4 2 -8q-2.99902 -4 -8.49902 -7.99902q-5.5 -4 -10 -9q-4.49902 -4.99902 -4.49902 -10.999
q16.999 5 27.998 13.999q10.999 9 22.999 16.999q5.99902 -1 5.49902 -3t-2.5 -4.99902q-1.99902 -3 -3.49902 -6.5t0.5 -7.5q-18.999 -3.99902 -35.498 -14.499q-16.499 -10.499 -32.498 -20.498q-15.999 -10 -32.498 -16.999q-16.499 -7 -36.498 -6
q-7.99902 -14.999 -31.498 -35.498q-23.498 -20.498 -49.4971 -30.498q-31.998 -32.998 -66.9961 -62.4961q-34.9971 -29.498 -59.9961 -67.4961q51.9971 1 96.9941 14.499t83.9951 34.498q38.9971 20.999 72.4951 47.9971t61.4961 54.9971q22.999 2 39.998 -1.5t30.998 -9
q13.999 -5.49902 27.498 -12.499q13.499 -6.99902 28.499 -12.999q-20.999 -26.998 -55.9971 -55.4971q-34.998 -28.498 -78.9951 -52.9961q-43.9971 -24.499 -94.4941 -41.998q-50.4971 -17.498 -102.494 -23.998q-51.9961 -6.5 -102.493 1.5
q-50.4971 7.99902 -94.4941 34.998q-5 -4 -8 -4t-6 2q-2.99902 2 -6.49902 4q-3.5 1.99902 -9.5 1.99902q-1 6 2.5 9t2.5 8.99902q-4 -2 -5.5 -5.99902q-1.49902 -4 -9.49902 -3q-5 7.99902 -6 11.999q-0.999023 4 -2.49902 6t-4.5 3q-3 0.999023 -11.999 1.99902
q-7 35.998 2.99902 59.9971q10 23.998 27.999 42.4971t37.9971 34.998q19.999 16.499 31.998 35.498q11 -1 15.999 2.99902q5 4 9.5 8.5q4.49902 4.5 9.99902 7.99902q5.5 3.5 15.499 2.5q2 11.999 9 18.999q6.99902 7 16.999 11.499q9.99902 4.5 21.998 7.5t22.999 6.99902
q-1 5 -2.5 4.5t-4 -2t-6 -3q-3.49902 -1.5 -8.49902 0.5q28.998 23.999 61.4961 42.998q32.498 18.998 60.9961 39.4971q28.499 20.499 49.9971 46.9971q21.499 26.499 30.498 65.4961q9 8 16.999 8.5q8 0.5 13.999 0.5q6 0 10.5 2q4.49902 1.99902 5.49902 11.999
q3 -3 8.5 -4t10.499 -0.5q5 0.5 9 4q3.99902 3.5 1.99902 9.49902q8 -1 10 -6.49902q2 -5.5 9.99902 -6.5q5 2 4 5q-1 2.99902 -2.5 6.99902t-2 7.5t5.5 6.49902q8.99902 -19.998 12.999 -42.9971q4 -22.998 11.999 -49.9971q-4.99902 1 -4.49902 5t-0.5 7.99902
q-2 -11.999 -9.5 -20.998q-7.49902 -9 -13.999 -17.499q-6.49902 -8.5 -8.49902 -17.999q-2 -9.5 6.99902 -23.499q-2 -6.99902 -6.49902 -11.999q-4.5 -5 -8.5 -9.99902q-4 -5 -6.99902 -11.5q-3 -6.49902 -3 -15.499q-3 9 -10.5 6q-7.49902 -3 -16.499 -10.999
q-8.99902 -8 -17.998 -16.999q-9 -9 -15.999 -12.999q4.99902 -2 11.499 1.5q6.5 3.49902 13.499 8.49902q7 5 13.499 10.999q6.5 6 12.499 10zM375.009 353.021q15.999 2 19.999 9q-6 1 -6 3q0 1.99902 2 3.99902t4 5t0 6q-11.999 -1 -14.499 -10
q-2.5 -8.99902 -5.5 -16.999zM324.012 264.027q0 5 4 5t6 -5q-5 0 -7 -2.5t-7.99902 -1.5q-7 0 -8 2.5t0 4.5t1 4.49902q0 2.5 -4 2.5q0 -3 -1.5 -3q-1.49902 0 -2.99902 0.5l-3 1t-2.5 -2.5q8.99902 -3.99902 14.499 -10.999q5.5 -6.99902 21.499 -4q-3 9 3.49902 10.5
q6.5 1.5 6.5 8.49902q-2 3 -6.99902 2.5q-5 -0.5 -9.5 -2.5t-6.5 -4.99902q-1.99902 -3 3 -5z" />
    <glyph glyph-name="Agrave" unicode="&#xc0;" horiz-adv-x="479" 
d="M457 641q3 15 11.5 27.5t19.5 20.5t23.5 11t23.5 -1q16 8 25 24t23 28q14 0 24.5 -4.5t18.5 -11t14.5 -15t13.5 -16.5q-14 -35 -31 -59.5t-32.5 -46t-29 -44t-21.5 -53.5q-3 2 -4.5 4t-4.5 2q-17 -51 -38.5 -94t-44 -85t-44.5 -86.5t-40 -98.5q-9 3 -14.5 1t-8.5 -6.5
t-4.5 -10.5t-3.5 -11q3 0 7 2.5t7 5.5t4 5.5t-2 2.5q4 -7 0 -22t-11 -34t-16 -38.5t-16 -35.5q-43 9 -60 36t-16.5 60.5t14 68.5t31.5 59q-57 1 -99 -8.5t-75 -28.5t-58 -47.5t-47 -65.5q-17 13 -26.5 29t-17.5 33t-17.5 33t-26.5 29q25 27 58 45t80 23q52 49 101 95.5
t97.5 93t97 93.5t99.5 97q7 2 9 -2t7 -4zM177 288q34 -6 66 -2t63 2q9 15 14 27.5t11 24t15 21.5t27 21q0 21 8 37t17.5 30.5t16.5 28.5t6 29q-11 -10 -18 -22t-19 -20q-1 4 3 8.5t7.5 8.5t3.5 6.5t-9 2.5q-9 -9 -18.5 -19.5t-19.5 -20.5t-19.5 -18t-19.5 -10
q-10 -16 -25.5 -34t-33.5 -36t-37.5 -35t-38.5 -30zM281 174q-9 2 -13 0t-6.5 -6l-5 -8t-7.5 -7q13 1 16 -10q-2 0 -3.5 -2.5t3.5 -2.5q8 10 8.5 14t-1 6t-1 5t9.5 11zM569 846q25 12 49 8.5t45.5 -14.5t40 -26.5t34.5 -25.5q-19 -6 -40 0t-43 17.5t-43.5 23.5t-42.5 17z
" />
    <glyph glyph-name="Aacute" unicode="&#xc1;" horiz-adv-x="479" 
d="M457 641q3 15 11.5 27.5t19.5 20.5t23.5 11t23.5 -1q16 8 25 24t23 28q14 0 24.5 -4.5t18.5 -11t14.5 -15t13.5 -16.5q-14 -35 -31 -59.5t-32.5 -46t-29 -44t-21.5 -53.5q-3 2 -4.5 4t-4.5 2q-17 -51 -38.5 -94t-44 -85t-44.5 -86.5t-40 -98.5q-9 3 -14.5 1t-8.5 -6.5
t-4.5 -10.5t-3.5 -11q3 0 7 2.5t7 5.5t4 5.5t-2 2.5q4 -7 0 -22t-11 -34t-16 -38.5t-16 -35.5q-43 9 -60 36t-16.5 60.5t14 68.5t31.5 59q-57 1 -99 -8.5t-75 -28.5t-58 -47.5t-47 -65.5q-17 13 -26.5 29t-17.5 33t-17.5 33t-26.5 29q25 27 58 45t80 23q52 49 101 95.5
t97.5 93t97 93.5t99.5 97q7 2 9 -2t7 -4zM177 288q34 -6 66 -2t63 2q9 15 14 27.5t11 24t15 21.5t27 21q0 21 8 37t17.5 30.5t16.5 28.5t6 29q-11 -10 -18 -22t-19 -20q-1 4 3 8.5t7.5 8.5t3.5 6.5t-9 2.5q-9 -9 -18.5 -19.5t-19.5 -20.5t-19.5 -18t-19.5 -10
q-10 -16 -25.5 -34t-33.5 -36t-37.5 -35t-38.5 -30zM281 174q-9 2 -13 0t-6.5 -6l-5 -8t-7.5 -7q13 1 16 -10q-2 0 -3.5 -2.5t3.5 -2.5q8 10 8.5 14t-1 6t-1 5t9.5 11zM587 788q19 14 35.5 33t35.5 36t41.5 27.5t52.5 6.5q-7 -22 -21.5 -36.5t-32 -26l-35 -23t-29.5 -27.5
q-16 -3 -24.5 2.5t-22.5 7.5z" />
    <glyph glyph-name="Acircumflex" unicode="&#xc2;" horiz-adv-x="479" 
d="M457 641q3 15 11.5 27.5t19.5 20.5t23.5 11t23.5 -1q16 8 25 24t23 28q14 0 24.5 -4.5t18.5 -11t14.5 -15t13.5 -16.5q-14 -35 -31 -59.5t-32.5 -46t-29 -44t-21.5 -53.5q-3 2 -4.5 4t-4.5 2q-17 -51 -38.5 -94t-44 -85t-44.5 -86.5t-40 -98.5q-9 3 -14.5 1t-8.5 -6.5
t-4.5 -10.5t-3.5 -11q3 0 7 2.5t7 5.5t4 5.5t-2 2.5q4 -7 0 -22t-11 -34t-16 -38.5t-16 -35.5q-43 9 -60 36t-16.5 60.5t14 68.5t31.5 59q-57 1 -99 -8.5t-75 -28.5t-58 -47.5t-47 -65.5q-17 13 -26.5 29t-17.5 33t-17.5 33t-26.5 29q25 27 58 45t80 23q52 49 101 95.5
t97.5 93t97 93.5t99.5 97q7 2 9 -2t7 -4zM177 288q34 -6 66 -2t63 2q9 15 14 27.5t11 24t15 21.5t27 21q0 21 8 37t17.5 30.5t16.5 28.5t6 29q-11 -10 -18 -22t-19 -20q-1 4 3 8.5t7.5 8.5t3.5 6.5t-9 2.5q-9 -9 -18.5 -19.5t-19.5 -20.5t-19.5 -18t-19.5 -10
q-10 -16 -25.5 -34t-33.5 -36t-37.5 -35t-38.5 -30zM281 174q-9 2 -13 0t-6.5 -6l-5 -8t-7.5 -7q13 1 16 -10q-2 0 -3.5 -2.5t3.5 -2.5q8 10 8.5 14t-1 6t-1 5t9.5 11zM520 788q20 16 40 38t42.5 40.5t48 29.5t55.5 6q5 -12 10.5 -27.5t9.5 -31.5t7 -31t4 -24h-43
q-7 15 -18 27t-12 34q-13 -14 -28.5 -30.5t-34 -28t-39 -14.5t-42.5 12z" />
    <glyph glyph-name="Atilde" unicode="&#xc3;" horiz-adv-x="479" 
d="M457 641q3 15 11.5 27.5t19.5 20.5t23.5 11t23.5 -1q16 8 25 24t23 28q14 0 24.5 -4.5t18.5 -11t14.5 -15t13.5 -16.5q-14 -35 -31 -59.5t-32.5 -46t-29 -44t-21.5 -53.5q-3 2 -4.5 4t-4.5 2q-17 -51 -38.5 -94t-44 -85t-44.5 -86.5t-40 -98.5q-9 3 -14.5 1t-8.5 -6.5
t-4.5 -10.5t-3.5 -11q3 0 7 2.5t7 5.5t4 5.5t-2 2.5q4 -7 0 -22t-11 -34t-16 -38.5t-16 -35.5q-43 9 -60 36t-16.5 60.5t14 68.5t31.5 59q-57 1 -99 -8.5t-75 -28.5t-58 -47.5t-47 -65.5q-17 13 -26.5 29t-17.5 33t-17.5 33t-26.5 29q25 27 58 45t80 23q52 49 101 95.5
t97.5 93t97 93.5t99.5 97q7 2 9 -2t7 -4zM177 288q34 -6 66 -2t63 2q9 15 14 27.5t11 24t15 21.5t27 21q0 21 8 37t17.5 30.5t16.5 28.5t6 29q-11 -10 -18 -22t-19 -20q-1 4 3 8.5t7.5 8.5t3.5 6.5t-9 2.5q-9 -9 -18.5 -19.5t-19.5 -20.5t-19.5 -18t-19.5 -10
q-10 -16 -25.5 -34t-33.5 -36t-37.5 -35t-38.5 -30zM281 174q-9 2 -13 0t-6.5 -6l-5 -8t-7.5 -7q13 1 16 -10q-2 0 -3.5 -2.5t3.5 -2.5q8 10 8.5 14t-1 6t-1 5t9.5 11zM727 828q-5 -2 -5 -3.5t1.5 -4l3 -5t0.5 -6.5q-9 -14 -25 -20t-33.5 -6t-34 6.5t-28 18t-15 28t5.5 37.5
q-15 -7 -26 -23.5t-22.5 -31.5t-26.5 -22.5t-37 2.5q13 17 28 41.5t35 44t46.5 29t63.5 -3.5q12 -23 11.5 -45t-0.5 -52q20 8 32 24.5t15 36.5q12 -1 17 -2.5t16 -5.5q2 -13 -6 -24t-13 -24q-6 2 -4.5 4t1.5 7zM739 842q0 8 1 12.5t-1 7.5q-6 -7 -8 -12t-4 -13q4 1 5 3.5
t1 5.5t0.5 6t5.5 5q0 -6 -4.5 -9t4.5 -6z" />
    <glyph glyph-name="Adieresis" unicode="&#xc4;" horiz-adv-x="479" 
d="M457 641q3 15 11.5 27.5t19.5 20.5t23.5 11t23.5 -1q16 8 25 24t23 28q14 0 24.5 -4.5t18.5 -11t14.5 -15t13.5 -16.5q-14 -35 -31 -59.5t-32.5 -46t-29 -44t-21.5 -53.5q-3 2 -4.5 4t-4.5 2q-17 -51 -38.5 -94t-44 -85t-44.5 -86.5t-40 -98.5q-9 3 -14.5 1t-8.5 -6.5
t-4.5 -10.5t-3.5 -11q3 0 7 2.5t7 5.5t4 5.5t-2 2.5q4 -7 0 -22t-11 -34t-16 -38.5t-16 -35.5q-43 9 -60 36t-16.5 60.5t14 68.5t31.5 59q-57 1 -99 -8.5t-75 -28.5t-58 -47.5t-47 -65.5q-17 13 -26.5 29t-17.5 33t-17.5 33t-26.5 29q25 27 58 45t80 23q52 49 101 95.5
t97.5 93t97 93.5t99.5 97q7 2 9 -2t7 -4zM177 288q34 -6 66 -2t63 2q9 15 14 27.5t11 24t15 21.5t27 21q0 21 8 37t17.5 30.5t16.5 28.5t6 29q-11 -10 -18 -22t-19 -20q-1 4 3 8.5t7.5 8.5t3.5 6.5t-9 2.5q-9 -9 -18.5 -19.5t-19.5 -20.5t-19.5 -18t-19.5 -10
q-10 -16 -25.5 -34t-33.5 -36t-37.5 -35t-38.5 -30zM281 174q-9 2 -13 0t-6.5 -6l-5 -8t-7.5 -7q13 1 16 -10q-2 0 -3.5 -2.5t3.5 -2.5q8 10 8.5 14t-1 6t-1 5t9.5 11zM555 845q13 1 22 3.5t17.5 4t18 1t23.5 -4.5q2 -23 1 -36.5t-7 -21t-19 -11.5t-35 -7q-11 10 -15.5 16.5
t-5 13.5t0 16.5t-0.5 25.5zM659 845q13 1 22 3.5t17.5 4t18 1t23.5 -4.5q2 -23 1 -36.5t-7 -21t-19 -11.5t-35 -7q-11 10 -15.5 16.5t-5 13.5t0 16.5t-0.5 25.5z" />
    <glyph glyph-name="Aring" unicode="&#xc5;" horiz-adv-x="479" 
d="M457 641q3 15 11.5 27.5t19.5 20.5t23.5 11t23.5 -1q16 8 25 24t23 28q14 0 24.5 -4.5t18.5 -11t14.5 -15t13.5 -16.5q-14 -35 -31 -59.5t-32.5 -46t-29 -44t-21.5 -53.5q-3 2 -4.5 4t-4.5 2q-17 -51 -38.5 -94t-44 -85t-44.5 -86.5t-40 -98.5q-9 3 -14.5 1t-8.5 -6.5
t-4.5 -10.5t-3.5 -11q3 0 7 2.5t7 5.5t4 5.5t-2 2.5q4 -7 0 -22t-11 -34t-16 -38.5t-16 -35.5q-43 9 -60 36t-16.5 60.5t14 68.5t31.5 59q-57 1 -99 -8.5t-75 -28.5t-58 -47.5t-47 -65.5q-17 13 -26.5 29t-17.5 33t-17.5 33t-26.5 29q25 27 58 45t80 23q52 49 101 95.5
t97.5 93t97 93.5t99.5 97q7 2 9 -2t7 -4zM177 288q34 -6 66 -2t63 2q9 15 14 27.5t11 24t15 21.5t27 21q0 21 8 37t17.5 30.5t16.5 28.5t6 29q-11 -10 -18 -22t-19 -20q-1 4 3 8.5t7.5 8.5t3.5 6.5t-9 2.5q-9 -9 -18.5 -19.5t-19.5 -20.5t-19.5 -18t-19.5 -10
q-10 -16 -25.5 -34t-33.5 -36t-37.5 -35t-38.5 -30zM281 174q-9 2 -13 0t-6.5 -6l-5 -8t-7.5 -7q13 1 16 -10q-2 0 -3.5 -2.5t3.5 -2.5q8 10 8.5 14t-1 6t-1 5t9.5 11zM703 773q-19 3 -44.5 11t-46 22.5t-29 36.5t5.5 53q10 -1 23 4.5t27 10.5t30 5.5t34 -9.5q7 -1 15 -14
t11 -32.5t-2 -43t-24 -44.5zM667 809q15 3 21.5 11.5t6.5 19t-5 21.5t-13 19q-10 -2 -18 -7.5t-17 -7.5q-6 -26 3 -37t22 -19z" />
    <glyph glyph-name="AE" unicode="&#xc6;" horiz-adv-x="809" 
d="M459 641q0 5 3 11q-11 11 -16.5 27t-0.5 31q30 6 61.5 13t63.5 12q4 5 7 8.5t8 7.5q19 0 33 -9q63 9 127.5 11.5t133.5 -6.5q4 -4 3 -9t-4 -10t-7 -11t-5 -12q-12 0 -22 -7t-19.5 -13.5t-19.5 -8.5t-21 8q-2 -6 -8.5 -8t-13 -3t-11.5 -3.5t-5 -10.5q-11 6 -15 7
t-5.5 -1.5t-3 -6.5t-8.5 -8t-18.5 -5.5t-24.5 -2l-26 -1t-24 -3.5q-9 -14 -18 -25.5t-17 -22.5q-3 -13 -9 -24t-17 -18q-5 -9 -8 -17q0 -6 -5 -13q-4 -9 -5 -17l-5 3q-2 -4 -2 -6q25 1 52 5.5t55 7t55 1t51 -13.5q-7 -21 -21 -35t-31.5 -22.5t-36 -12t-34.5 -2.5
q-18 -13 -43.5 -19t-51 -13.5t-46.5 -21.5t-29 -42h-4l-9 -17h5q-3 -13 -13 -15q-1 -2 -1.5 -3.5t-2.5 -3.5q1 0 1 -0.5t1 -0.5l-6 -7l-14 -28t-14 -29v-1q-1 -1 -1 -2q19 0 40 5t43.5 11t46.5 12.5t49 9.5q57 7 113.5 3.5t103.5 -23.5q4 -12 -2.5 -22.5t-15.5 -16t-16 -5
t-4 9.5q-23 -8 -50 -10.5t-52 -3t-46.5 -2.5t-34.5 -8q-29 -8 -58 -21.5t-57.5 -28t-57 -28t-56.5 -20.5q-8 -20 -17.5 -42.5t-17.5 -40.5q-49 10 -65 42.5t-11 70.5q0 1 -0.5 1t-0.5 1l3 7q1 5 1.5 9.5t2.5 9.5q2 11 5.5 23t17.5 35q0 5 1 8l2 -3l6 10t7 10q-57 1 -99 -8.5
t-75 -28.5t-58 -47.5t-47 -65.5q-17 13 -26.5 29t-17.5 33t-17.5 33t-26.5 29q25 27 58 45t80 23q52 49 101 95.5t97.5 93t97 93.5t99.5 97q7 2 9 -2t7 -4zM179 288q34 -6 66 -2t63 2q9 15 13.5 27.5t10.5 23.5t15 21t26 21q-11 12 -19 32q24 19 38 40.5t25 47.5
q-8 -9 -14 -19.5t-17 -16.5q-1 4 3 8.5t7.5 8.5t3.5 6.5t-9 2.5q-9 -9 -18.5 -19.5t-19.5 -20.5t-19.5 -18t-19.5 -10q-10 -16 -25.5 -34t-33.5 -36t-37.5 -35t-38.5 -30z" />
    <glyph glyph-name="Ccedilla" unicode="&#xc7;" horiz-adv-x="505" 
d="M30 -130q-3 3 -4 8t0 11t2 11.5t2 8.5q24 -1 49 0.5t44 10.5q-21 0 -44.5 5.5t-32.5 25.5q2 16 9.5 26t14.5 22q-11 3 -12 14q16 -3 25 -0.5t10 5.5t-5 5.5t-18 -0.5q-1 8 -7.5 9.5t-4.5 12.5q-2 0 -4 -3.5t-3.5 -5.5t-2 -1t-0.5 10q-5 -3 -4.5 -5.5t2 -5.5t2 -6t-4.5 -6
q-3 8 -11.5 15.5t-17.5 16t-16 19t-6 23.5q2 7 6 4t9 -4q-2 6 -4.5 12.5t-16.5 3.5q0 15 -1 28.5t-1.5 26.5t-0.5 27t3 32q7 1 9 -1.5t3 -5t2.5 -3.5t6.5 4q-2 6 -8 8.5t-13 3.5q8 36 14.5 55t13 33t14.5 28.5t20 42.5q5 -5 12 -3t12 7t6.5 12t-4.5 12q-5 1 -5.5 -2.5t0 -8
t0.5 -8.5t-5 -2q-4 12 5.5 25t23.5 27t27 30t17 33q3 -2 4.5 -4t5.5 -2q-7 10 -13 7t-12.5 -10.5t-14 -15.5t-16.5 -8q5 14 16.5 24.5t23.5 19.5t20.5 17t6.5 17q21 14 40.5 30.5t38.5 33t38.5 32.5t42.5 29q48 -18 90 -42.5t83 -50.5q1 -10 5 -18.5t6.5 -17t2.5 -17.5
t-5 -20q-24 -1 -35.5 5t-19 14.5t-14 16.5t-20.5 11q-18 3 -35 -6.5t-33.5 -26t-33.5 -37t-36 -39.5q-11 -11 -26 -17.5t-22 -14.5q-5 -6 -10.5 -18t-11 -22t-11.5 -14t-13 7q-10 -31 -31.5 -65t-41.5 -71t-31.5 -78t-0.5 -86q74 22 132.5 58.5t107 80t91.5 91t86 92.5
q-5 -45 -24.5 -81.5t-55.5 -68.5q0 -6 3 -7.5t6.5 -3t6 -3.5t1.5 -8q-9 -2 -14.5 -9t-11 -13.5t-11.5 -10t-15 1.5q7 -18 -4 -36.5t-28 -36.5t-33 -35t-18 -33q-3 2 -8 -1.5t-9 -7.5q-3 6 -5.5 4.5t-6 -5t-8 -6.5t-11.5 0q6 -9 3.5 -17.5t-9.5 -15t-18 -10t-22 -2.5
q-2 -10 -9.5 -15t-19 -6.5t-24 -0.5t-22.5 3q-4 -3 -7 -6.5t-5 -8.5q13 -6 27 -13.5t24.5 -18t15 -25.5t-1.5 -36q-15 -13 -34 -12t-38.5 6.5t-39 10.5t-35.5 -1zM33 102q-8 -6 -10.5 -8.5t-9.5 8.5q-5 -9 -4.5 -15t3.5 -11.5t7 -11.5t4 -15q6 1 12.5 0.5t7.5 4.5
q-5 1 -2 5.5t7 6.5q-6 0 -13 2t-12 8q2 4 5.5 4t6.5 -1t5.5 -1.5t2.5 4.5q-4 0 -4 1.5t0.5 3l1 3t-2.5 2.5q0 -6 -7 -5.5t-8 5.5q1 1 4.5 2t6.5 2.5t3.5 2.5t-4.5 3zM58 184q6 -2 6 -6t-2 -8.5t-5 -9t-3 -7.5q7 -3 11 4.5t4.5 16t-2.5 13t-9 -2.5zM158 -18q-2 4 -9 6.5
t-14 3.5q0 -1 -0.5 -2t-0.5 -2q2 -2 2 -4.5t-4 -4.5q4 2 7.5 1.5t6.5 -1.5t6 -1t6 4zM54 18q-4 -5 -4.5 -4t0.5 4.5t2.5 8t1.5 7.5q5 -2 7 -6t7 -6q-3 -1 -6.5 -1.5t-7.5 -2.5zM58 49q-1 7 2.5 11t-2.5 6h-10q-1 -8 2.5 -11.5t7.5 -5.5zM277 45h-1q-3 -3 -3.5 -4t4.5 4z
M70 22v1q-1 0 -1 -0.5t-1 -0.5h2z" />
    <glyph glyph-name="Egrave" unicode="&#xc8;" horiz-adv-x="484" 
d="M-71 167q6 -5 7.5 -1.5t1 11t-1.5 16.5t1 16q6 -8 9.5 -10t5.5 -3.5t3 -5t2 -13.5q13 17 27 40t28 48t27 50.5t25 47.5q-11 11 -20 23t-15 27q17 13 28.5 27.5t20.5 31t17 35.5t17 42q1 5 -3.5 4.5t-9.5 1.5q14 20 24 44.5t27 41.5q-15 11 -26 30.5t-4 38.5
q49 10 100.5 20.5t106 16.5t111.5 7t116 -7q4 -4 3 -9t-4 -10t-7 -11t-5 -12q-12 0 -22 -7t-19.5 -13.5t-19.5 -8.5t-21 8q-2 -6 -8.5 -8t-13 -3t-11.5 -3.5t-5 -10.5q-11 6 -15 7t-5.5 -1.5t-3 -6.5t-8.5 -8q-9 -5 -24 -6t-31.5 -1.5t-31.5 -3t-24 -10.5q-8 -8 -11.5 -21
t-7.5 -26t-12 -23.5t-24 -14.5q4 -8 3.5 -14t-3.5 -10.5t-7 -9.5t-6 -12q25 1 52 5.5t55 7t55 1t51 -13.5q-7 -21 -21 -35t-31.5 -22.5t-36 -12t-34.5 -2.5q-18 -13 -43.5 -19t-51 -13.5t-46.5 -21.5t-29 -42q-6 1 -10.5 -1.5t-8 -4.5t-6.5 -2t-7 5q0 -11 7.5 -12.5
t16.5 -1.5q-2 -13 -10 -14t-15.5 0t-11.5 -1t1 -18q2 8 5 13t16 -3q-6 -9 -14.5 -16t-17 -13t-16.5 -13.5t-13 -18.5q13 -2 18.5 3t9.5 12q1 -1 1 -6.5t-2 -11t-6 -7.5t-10 5q20 -3 42.5 1.5t47.5 11t51 14t53 10.5q57 7 113.5 3.5t103.5 -23.5q4 -12 -2.5 -22.5t-15.5 -16
t-16 -5t-4 9.5q-23 -8 -50 -10.5t-52 -3t-46.5 -2.5t-34.5 -8q-36 -10 -71.5 -28t-71 -35t-70 -29.5t-67.5 -12.5q-6 0 -9.5 -2.5l-7 -5t-8 -4t-12.5 1.5q-7 28 -24 49q3 8 5 17.5l4 19t5 17t10 12.5q-1 -6 2.5 -10t-3.5 -6zM198 850q25 12 49 8.5t45.5 -14.5t40 -26.5
t34.5 -25.5q-19 -6 -40 0t-43 17.5t-43.5 23.5t-42.5 17z" />
    <glyph glyph-name="Eacute" unicode="&#xc9;" horiz-adv-x="484" 
d="M-71 167q6 -5 7.5 -1.5t1 11t-1.5 16.5t1 16q6 -8 9.5 -10t5.5 -3.5t3 -5t2 -13.5q13 17 27 40t28 48t27 50.5t25 47.5q-11 11 -20 23t-15 27q17 13 28.5 27.5t20.5 31t17 35.5t17 42q1 5 -3.5 4.5t-9.5 1.5q14 20 24 44.5t27 41.5q-15 11 -26 30.5t-4 38.5
q49 10 100.5 20.5t106 16.5t111.5 7t116 -7q4 -4 3 -9t-4 -10t-7 -11t-5 -12q-12 0 -22 -7t-19.5 -13.5t-19.5 -8.5t-21 8q-2 -6 -8.5 -8t-13 -3t-11.5 -3.5t-5 -10.5q-11 6 -15 7t-5.5 -1.5t-3 -6.5t-8.5 -8q-9 -5 -24 -6t-31.5 -1.5t-31.5 -3t-24 -10.5q-8 -8 -11.5 -21
t-7.5 -26t-12 -23.5t-24 -14.5q4 -8 3.5 -14t-3.5 -10.5t-7 -9.5t-6 -12q25 1 52 5.5t55 7t55 1t51 -13.5q-7 -21 -21 -35t-31.5 -22.5t-36 -12t-34.5 -2.5q-18 -13 -43.5 -19t-51 -13.5t-46.5 -21.5t-29 -42q-6 1 -10.5 -1.5t-8 -4.5t-6.5 -2t-7 5q0 -11 7.5 -12.5
t16.5 -1.5q-2 -13 -10 -14t-15.5 0t-11.5 -1t1 -18q2 8 5 13t16 -3q-6 -9 -14.5 -16t-17 -13t-16.5 -13.5t-13 -18.5q13 -2 18.5 3t9.5 12q1 -1 1 -6.5t-2 -11t-6 -7.5t-10 5q20 -3 42.5 1.5t47.5 11t51 14t53 10.5q57 7 113.5 3.5t103.5 -23.5q4 -12 -2.5 -22.5t-15.5 -16
t-16 -5t-4 9.5q-23 -8 -50 -10.5t-52 -3t-46.5 -2.5t-34.5 -8q-36 -10 -71.5 -28t-71 -35t-70 -29.5t-67.5 -12.5q-6 0 -9.5 -2.5l-7 -5t-8 -4t-12.5 1.5q-7 28 -24 49q3 8 5 17.5l4 19t5 17t10 12.5q-1 -6 2.5 -10t-3.5 -6zM233 787q19 14 35.5 33t35.5 36t41.5 27.5
t52.5 6.5q-7 -22 -21.5 -36.5t-32 -26l-35 -23t-29.5 -27.5q-16 -3 -24.5 2.5t-22.5 7.5z" />
    <glyph glyph-name="Ecircumflex" unicode="&#xca;" horiz-adv-x="484" 
d="M-71 167q6 -5 7.5 -1.5t1 11t-1.5 16.5t1 16q6 -8 9.5 -10t5.5 -3.5t3 -5t2 -13.5q13 17 27 40t28 48t27 50.5t25 47.5q-11 11 -20 23t-15 27q17 13 28.5 27.5t20.5 31t17 35.5t17 42q1 5 -3.5 4.5t-9.5 1.5q14 20 24 44.5t27 41.5q-15 11 -26 30.5t-4 38.5
q49 10 100.5 20.5t106 16.5t111.5 7t116 -7q4 -4 3 -9t-4 -10t-7 -11t-5 -12q-12 0 -22 -7t-19.5 -13.5t-19.5 -8.5t-21 8q-2 -6 -8.5 -8t-13 -3t-11.5 -3.5t-5 -10.5q-11 6 -15 7t-5.5 -1.5t-3 -6.5t-8.5 -8q-9 -5 -24 -6t-31.5 -1.5t-31.5 -3t-24 -10.5q-8 -8 -11.5 -21
t-7.5 -26t-12 -23.5t-24 -14.5q4 -8 3.5 -14t-3.5 -10.5t-7 -9.5t-6 -12q25 1 52 5.5t55 7t55 1t51 -13.5q-7 -21 -21 -35t-31.5 -22.5t-36 -12t-34.5 -2.5q-18 -13 -43.5 -19t-51 -13.5t-46.5 -21.5t-29 -42q-6 1 -10.5 -1.5t-8 -4.5t-6.5 -2t-7 5q0 -11 7.5 -12.5
t16.5 -1.5q-2 -13 -10 -14t-15.5 0t-11.5 -1t1 -18q2 8 5 13t16 -3q-6 -9 -14.5 -16t-17 -13t-16.5 -13.5t-13 -18.5q13 -2 18.5 3t9.5 12q1 -1 1 -6.5t-2 -11t-6 -7.5t-10 5q20 -3 42.5 1.5t47.5 11t51 14t53 10.5q57 7 113.5 3.5t103.5 -23.5q4 -12 -2.5 -22.5t-15.5 -16
t-16 -5t-4 9.5q-23 -8 -50 -10.5t-52 -3t-46.5 -2.5t-34.5 -8q-36 -10 -71.5 -28t-71 -35t-70 -29.5t-67.5 -12.5q-6 0 -9.5 -2.5l-7 -5t-8 -4t-12.5 1.5q-7 28 -24 49q3 8 5 17.5l4 19t5 17t10 12.5q-1 -6 2.5 -10t-3.5 -6zM221 790q20 16 40 38t42.5 40.5t48 29.5t55.5 6
q5 -12 10.5 -27.5t9.5 -31.5t7 -31t4 -24h-43q-7 15 -18 27t-12 34q-13 -14 -28.5 -30.5t-34 -28t-39 -14.5t-42.5 12z" />
    <glyph glyph-name="Edieresis" unicode="&#xcb;" horiz-adv-x="484" 
d="M-71 167q6 -5 7.5 -1.5t1 11t-1.5 16.5t1 16q6 -8 9.5 -10t5.5 -3.5t3 -5t2 -13.5q13 17 27 40t28 48t27 50.5t25 47.5q-11 11 -20 23t-15 27q17 13 28.5 27.5t20.5 31t17 35.5t17 42q1 5 -3.5 4.5t-9.5 1.5q14 20 24 44.5t27 41.5q-15 11 -26 30.5t-4 38.5
q49 10 100.5 20.5t106 16.5t111.5 7t116 -7q4 -4 3 -9t-4 -10t-7 -11t-5 -12q-12 0 -22 -7t-19.5 -13.5t-19.5 -8.5t-21 8q-2 -6 -8.5 -8t-13 -3t-11.5 -3.5t-5 -10.5q-11 6 -15 7t-5.5 -1.5t-3 -6.5t-8.5 -8q-9 -5 -24 -6t-31.5 -1.5t-31.5 -3t-24 -10.5q-8 -8 -11.5 -21
t-7.5 -26t-12 -23.5t-24 -14.5q4 -8 3.5 -14t-3.5 -10.5t-7 -9.5t-6 -12q25 1 52 5.5t55 7t55 1t51 -13.5q-7 -21 -21 -35t-31.5 -22.5t-36 -12t-34.5 -2.5q-18 -13 -43.5 -19t-51 -13.5t-46.5 -21.5t-29 -42q-6 1 -10.5 -1.5t-8 -4.5t-6.5 -2t-7 5q0 -11 7.5 -12.5
t16.5 -1.5q-2 -13 -10 -14t-15.5 0t-11.5 -1t1 -18q2 8 5 13t16 -3q-6 -9 -14.5 -16t-17 -13t-16.5 -13.5t-13 -18.5q13 -2 18.5 3t9.5 12q1 -1 1 -6.5t-2 -11t-6 -7.5t-10 5q20 -3 42.5 1.5t47.5 11t51 14t53 10.5q57 7 113.5 3.5t103.5 -23.5q4 -12 -2.5 -22.5t-15.5 -16
t-16 -5t-4 9.5q-23 -8 -50 -10.5t-52 -3t-46.5 -2.5t-34.5 -8q-36 -10 -71.5 -28t-71 -35t-70 -29.5t-67.5 -12.5q-6 0 -9.5 -2.5l-7 -5t-8 -4t-12.5 1.5q-7 28 -24 49q3 8 5 17.5l4 19t5 17t10 12.5q-1 -6 2.5 -10t-3.5 -6zM236 861q13 1 22 3.5t17.5 4t18 1t23.5 -4.5
q2 -23 1 -36.5t-7 -21t-19 -11.5t-35 -7q-11 10 -15.5 16.5t-5 13.5t0 16.5t-0.5 25.5zM340 861q13 1 22 3.5t17.5 4t18 1t23.5 -4.5q2 -23 1 -36.5t-7 -21t-19 -11.5t-35 -7q-11 10 -15.5 16.5t-5 13.5t0 16.5t-0.5 25.5z" />
    <glyph glyph-name="Igrave" unicode="&#xcc;" horiz-adv-x="229" 
d="M99 409q10 27 25.5 56.5t32 60t33 61.5t30.5 62q11 -8 14 -4t6 15q14 -7 29 -12t27 -14t18 -23.5t1 -39.5q-6 1 -9 -2.5t-5 -7.5t-4.5 -7t-8.5 -1q-21 -58 -49 -112t-57 -108t-56.5 -111t-46.5 -120q-12 -3 -21.5 -9.5t-19 -14t-19.5 -14t-23 -10.5q-12 29 -6.5 67
t9.5 80q10 0 14.5 6.5t7 16t4 20t5.5 16.5q0 6 -3 3t-5 -7q-3 6 0 13t8.5 14.5t12.5 13t13 8.5q3 6 1.5 8.5t-3.5 4.5t-3 4.5t2 8.5q8 3 16 15.5t15 26.5t11 25zM224 749q25 12 49 8.5t45.5 -14.5t40 -26.5t34.5 -25.5q-19 -6 -40 0t-43 17.5t-43.5 23.5t-42.5 17z" />
    <glyph glyph-name="Iacute" unicode="&#xcd;" horiz-adv-x="229" 
d="M99 409q10 27 25.5 56.5t32 60t33 61.5t30.5 62q11 -8 14 -4t6 15q14 -7 29 -12t27 -14t18 -23.5t1 -39.5q-6 1 -9 -2.5t-5 -7.5t-4.5 -7t-8.5 -1q-21 -58 -49 -112t-57 -108t-56.5 -111t-46.5 -120q-12 -3 -21.5 -9.5t-19 -14t-19.5 -14t-23 -10.5q-12 29 -6.5 67
t9.5 80q10 0 14.5 6.5t7 16t4 20t5.5 16.5q0 6 -3 3t-5 -7q-3 6 0 13t8.5 14.5t12.5 13t13 8.5q3 6 1.5 8.5t-3.5 4.5t-3 4.5t2 8.5q8 3 16 15.5t15 26.5t11 25zM244 708q19 14 35.5 33t35.5 36t41.5 27.5t52.5 6.5q-7 -22 -21.5 -36.5t-32 -26l-35 -23t-29.5 -27.5
q-16 -3 -24.5 2.5t-22.5 7.5z" />
    <glyph glyph-name="Icircumflex" unicode="&#xce;" horiz-adv-x="229" 
d="M99 409q10 27 25.5 56.5t32 60t33 61.5t30.5 62q11 -8 14 -4t6 15q14 -7 29 -12t27 -14t18 -23.5t1 -39.5q-6 1 -9 -2.5t-5 -7.5t-4.5 -7t-8.5 -1q-21 -58 -49 -112t-57 -108t-56.5 -111t-46.5 -120q-12 -3 -21.5 -9.5t-19 -14t-19.5 -14t-23 -10.5q-12 29 -6.5 67
t9.5 80q10 0 14.5 6.5t7 16t4 20t5.5 16.5q0 6 -3 3t-5 -7q-3 6 0 13t8.5 14.5t12.5 13t13 8.5q3 6 1.5 8.5t-3.5 4.5t-3 4.5t2 8.5q8 3 16 15.5t15 26.5t11 25zM187 705q20 16 40 38t42.5 40.5t48 29.5t55.5 6q5 -12 10.5 -27.5t9.5 -31.5t7 -31t4 -24h-43q-7 15 -18 27
t-12 34q-13 -14 -28.5 -30.5t-34 -28t-39 -14.5t-42.5 12z" />
    <glyph glyph-name="Idieresis" unicode="&#xcf;" horiz-adv-x="229" 
d="M99 409q10 27 25.5 56.5t32 60t33 61.5t30.5 62q11 -8 14 -4t6 15q14 -7 29 -12t27 -14t18 -23.5t1 -39.5q-6 1 -9 -2.5t-5 -7.5t-4.5 -7t-8.5 -1q-21 -58 -49 -112t-57 -108t-56.5 -111t-46.5 -120q-12 -3 -21.5 -9.5t-19 -14t-19.5 -14t-23 -10.5q-12 29 -6.5 67
t9.5 80q10 0 14.5 6.5t7 16t4 20t5.5 16.5q0 6 -3 3t-5 -7q-3 6 0 13t8.5 14.5t12.5 13t13 8.5q3 6 1.5 8.5t-3.5 4.5t-3 4.5t2 8.5q8 3 16 15.5t15 26.5t11 25zM217 765q13 1 22 3.5t17.5 4t18 1t23.5 -4.5q2 -23 1 -36.5t-7 -21t-19 -11.5t-35 -7q-11 10 -15.5 16.5
t-5 13.5t0 16.5t-0.5 25.5zM321 765q13 1 22 3.5t17.5 4t18 1t23.5 -4.5q2 -23 1 -36.5t-7 -21t-19 -11.5t-35 -7q-11 10 -15.5 16.5t-5 13.5t0 16.5t-0.5 25.5z" />
    <glyph glyph-name="Eth" unicode="&#xd0;" horiz-adv-x="527" 
d="M-3 345v10q6 8 23.5 14t42.5 11l60 150q-8 7 -11 17.5t-4 23.5q16 21 37.5 36t43 29.5t41.5 30.5t34 39q21 -14 50.5 -16.5t60.5 -4t59 -7.5t46 -28q41 -10 63 -35t29 -58.5t1 -71.5t-22.5 -74t-41.5 -66t-54 -47q-7 -2 -9 1t-7 3q-2 -12 -11.5 -22.5t-23 -20t-29 -17
t-28.5 -13.5q-5 -6 -15.5 -18t-24 -23t-29.5 -18t-31 -4q9 -5 6.5 -9.5t-9.5 -8t-16 -6.5l-15 -5q13 -3 9 -7.5t-13.5 -7t-19.5 -1.5t-9 9q-4 0 -5.5 -2t-3.5 -4.5t-4.5 -4t-7.5 0.5q2 -4 5 -5t5 -2t1.5 -4t-4.5 -10q5 6 8 8.5t6 4t7 1.5t12 2q-6 -9 -17.5 -13.5t-21.5 -4
t-13.5 5t6.5 12.5q0 7 -2.5 5.5t-5.5 -5t-5 -5.5t-2 4q-2 -5 -7 -14.5t-13 -16.5q-4 1 -2.5 3.5t3.5 2.5q0 8 -2.5 10.5t-6.5 2.5t-9.5 -1.5t-12.5 -1.5q1 -5 9 -5t8 5q8 -7 6 -14t-5 -16q-8 3 -20.5 6.5t-24 4t-17.5 -4t0 -16.5q-3 0 -8 -1.5t-8.5 -3.5t-5 -4t3.5 -3
q-6 -5 -15 -3t-16 3q3 7 6 8t7 1t9 -0.5t11 3.5q-5 6 -11 7t-9.5 1.5t-3 3.5t9.5 12q-11 -1 -13.5 -10.5t-9.5 -13.5q-5 0 -7.5 2.5t-6 4.5t-8 3.5t-13.5 -0.5q-3 10 -1.5 13t4.5 17q-6 -15 -20.5 -14.5t-25.5 8.5q4 14 5.5 17.5t-15.5 -1.5q16 11 32.5 21t35.5 16v26t-1 21
q7 2 10 0.5t4.5 -3.5t2 -5t3.5 -4q16 45 31 87t30 81q-17 -1 -31.5 -1.5t-22.5 -2.5zM155 318q-14 -15 -23 -30t-16.5 -31t-14.5 -33.5t-18 -35.5q19 6 41 16t42.5 19.5t38.5 16t30 5.5q-5 7 -0.5 10.5t13 6.5t16 7t8.5 12q-5 1 -10 -1.5t-9.5 -5.5t-8 -3.5t-5.5 4.5
q13 5 26.5 13t25.5 16t23 14.5t20 9.5q-5 1 -4 11q23 10 45 26.5t42 34.5t38 35t35 28q32 45 25.5 79.5t-36.5 54.5t-76 23.5t-93 -12.5q-14 -24 -32 -48t-35 -48.5t-30.5 -49.5t-19.5 -51q-14 1 -21 -18q42 3 77.5 2.5t54.5 -3.5q-9 -17 -46.5 -25.5t-84.5 -11.5
q-4 -5 -10 -10t-10 -10t-4.5 -9t6.5 -8zM81 177q0 -20 18 -20q6 13 20.5 20.5t29.5 14t27 13.5t14 18q-1 -2 -2 -2.5t-1 4.5q-23 -16 -51.5 -25.5t-54.5 -22.5zM-90 126q-2 -5 -7 -7t-4 -10q-6 1 -6 4.5t2.5 7.5l5 8t2.5 8q5 0 11.5 -1t8.5 5q7 -6 3.5 -8.5t-9.5 -3.5
t-9.5 -1.5t2.5 -1.5z" />
    <glyph glyph-name="Ntilde" unicode="&#xd1;" horiz-adv-x="546" 
d="M-43 88q3 12 8.5 26.5t11 30t8 31t-1.5 28.5q22 53 44 102t30 100q-2 6 1 7.5t7 2t8 1.5t4 5q-2 5 -5.5 1.5t-10.5 -1.5q31 76 64 145.5t56 133.5q40 -3 62.5 -26t33.5 -59t14 -81t4.5 -91t5 -89t15.5 -75q1 -8 8 -9.5t12 -4.5q-7 -10 -4 -25.5t11 -20.5q7 4 11.5 11.5
t8 16l7 17t8.5 15.5q-13 5 -13.5 10t1.5 8.5t2 5t-12 -0.5q3 3 5.5 7.5t5.5 7.5t6.5 4t9.5 -4q-1 3 -3.5 4.5t-1.5 4.5q-1 6 -2.5 6t-4.5 -2t-7 -4t-8 0q0 6 5.5 12.5t10 12.5t5 11t-9.5 7q39 56 71.5 117.5t69.5 121.5q-10 -2 -19 -14t-16.5 -24.5t-12 -19.5t-4.5 2
q35 50 65 105t65 106q13 -3 23.5 -7.5t21 -9.5l21 -10t22.5 -9q10 -26 3.5 -51t-21 -48t-32 -44t-28.5 -39q-3 -5 -1.5 -15.5t-3.5 -15.5q-12 -13 -26.5 -31t-26.5 -37q-2 -3 4 -4.5t7 -0.5q-4 -6 -10.5 -10t-11.5 -8.5t-7.5 -9.5t2.5 -13q-6 4 -7 3t-1 -3.5t-2 -6t-10 -3.5
q-1 -7 2.5 -8.5t8.5 -2.5q-2 -8 -9.5 -11.5t-16.5 -5.5q-1 -9 6 -11t15 -4q-18 0 -23.5 -4t-7.5 -9t-5 -10t-16 -7q2 -5 0 -9l-3.5 -7t-0.5 -4t9 -1q-1 -5 -5.5 -9t-9 -8.5t-6 -9t4.5 -10.5q-6 -1 -9 -6.5t-5.5 -10.5t-6 -7t-10.5 4q2 -8 3.5 -15t6.5 -12q-9 -8 -16 -20
t-10.5 -24.5t-2.5 -22.5t9 -14q-4 -8 -9.5 -13.5t-11 -11.5t-10.5 -12.5t-6 -16.5q-11 2 -20.5 -1.5t-20 -8.5t-22 -9.5t-25.5 -4.5q-3 15 -3.5 31t-2 32t-5.5 30t-15 25q3 5 6 1.5t10 -1.5q-3 21 -8.5 49t-12 59t-13.5 63.5t-13 62.5q0 -9 -4 -14.5t-9 -9.5l-10 -8t-8 -11
q-6 4 -11 8t-4 15q-9 -15 -13.5 -29.5t-8.5 -26.5t-9.5 -21.5t-16.5 -15.5q2 -6 6 -3.5t6 7.5q5 -2 3.5 -4t-5 -5t-5.5 -7.5t1 -10.5q-8 5 -10.5 4t-4 -3t-3.5 -3.5t-8 2.5q0 -2 2 -4.5t5 -4t6 -1t3 5.5q4 -3 3 -7t-5 -6t-9.5 -2t-9.5 5q0 -4 3.5 -5.5t6.5 -3t4.5 -4.5
t-0.5 -9q-6 -1 -8.5 -5t-4.5 -8.5t-6 -8t-11 -3.5q0 -16 10 -21q-2 -6 -3.5 -6t-3.5 2t-4.5 5t-4.5 3q-2 -3 -0.5 -5.5t2 -5t-1 -5t-10.5 -4.5q11 0 13 -4t-1.5 -9.5t-10.5 -10.5t-15 -7q11 -3 11 -4t-3 -3.5t-6 -6.5t2 -12h-21q-3 -8 0 -9t7.5 -1.5t8 -2t1.5 -8.5
q-6 0 -8.5 -1t-4 -2t-3.5 -0.5t-6 3.5q-2 -7 2 -8t9 -2q-6 -5 -12 -9.5t-11.5 -9t-9 -11t-4.5 -16.5q-13 -2 -25.5 -7t-24 -9t-23 -5t-21.5 4q5 26 12.5 46t18.5 37q4 0 4 -2.5t-0.5 -5t0.5 -5t7 -3.5zM233 234q8 -10 14.5 -23t11.5 -28q-7 3 -10.5 8.5t-6 13t-4.5 15.5
t-5 14zM494 778q-5 -2 -5 -3.5t1.5 -4l3 -5t0.5 -6.5q-9 -14 -25 -20t-33.5 -6t-34 6.5t-28 18t-15 28t5.5 37.5q-15 -7 -26 -23.5t-22.5 -31.5t-26.5 -22.5t-37 2.5q13 17 28 41.5t35 44t46.5 29t63.5 -3.5q12 -23 11.5 -45t-0.5 -52q20 8 32 24.5t15 36.5q12 -1 17 -2.5
t16 -5.5q2 -13 -6 -24t-13 -24q-6 2 -4.5 4t1.5 7zM506 792q0 8 1 12.5t-1 7.5q-6 -7 -8 -12t-4 -13q4 1 5 3.5t1 5.5t0.5 6t5.5 5q0 -6 -4.5 -9t4.5 -6z" />
    <glyph glyph-name="Ograve" unicode="&#xd2;" horiz-adv-x="450" 
d="M352 717q31 -4 61 -11.5t52.5 -22t35.5 -37.5t12 -58q-2 -24 -15.5 -56.5t-25.5 -64.5q-49 -118 -111.5 -220.5t-127.5 -205.5q-20 -14 -34.5 -20t-28.5 -6.5t-30 3.5t-37 12q-24 9 -45 19t-37 24.5t-26 35.5t-11 52q-2 31 6 65t20.5 69t28 69.5t27.5 66.5q13 29 27 66.5
t29.5 72t31.5 60.5t33 34q6 4 14 2t17 -4.5t20.5 -4.5t25.5 2q15 4 25.5 13t20.5 18t20 17t22 10zM373 462q14 29 28 62t18.5 61.5t-5 46.5t-41.5 17q-6 -11 -17.5 -17.5t-25 -12t-27.5 -11.5t-23 -15q-12 -12 -22.5 -30.5t-20 -40t-18 -45.5t-17.5 -46q-16 -38 -31 -77
t-25.5 -79t-15.5 -81.5t0 -84.5q26 36 59 78t66 87.5t64 93t54 94.5zM290 819q25 12 49 8.5t45.5 -14.5t40 -26.5t34.5 -25.5q-19 -6 -40 0t-43 17.5t-43.5 23.5t-42.5 17z" />
    <glyph glyph-name="Oacute" unicode="&#xd3;" horiz-adv-x="450" 
d="M352 717q31 -4 61 -11.5t52.5 -22t35.5 -37.5t12 -58q-2 -24 -15.5 -56.5t-25.5 -64.5q-49 -118 -111.5 -220.5t-127.5 -205.5q-20 -14 -34.5 -20t-28.5 -6.5t-30 3.5t-37 12q-24 9 -45 19t-37 24.5t-26 35.5t-11 52q-2 31 6 65t20.5 69t28 69.5t27.5 66.5q13 29 27 66.5
t29.5 72t31.5 60.5t33 34q6 4 14 2t17 -4.5t20.5 -4.5t25.5 2q15 4 25.5 13t20.5 18t20 17t22 10zM373 462q14 29 28 62t18.5 61.5t-5 46.5t-41.5 17q-6 -11 -17.5 -17.5t-25 -12t-27.5 -11.5t-23 -15q-12 -12 -22.5 -30.5t-20 -40t-18 -45.5t-17.5 -46q-16 -38 -31 -77
t-25.5 -79t-15.5 -81.5t0 -84.5q26 36 59 78t66 87.5t64 93t54 94.5zM315 760q19 14 35.5 33t35.5 36t41.5 27.5t52.5 6.5q-7 -22 -21.5 -36.5t-32 -26l-35 -23t-29.5 -27.5q-16 -3 -24.5 2.5t-22.5 7.5z" />
    <glyph glyph-name="Ocircumflex" unicode="&#xd4;" horiz-adv-x="450" 
d="M352 717q31 -4 61 -11.5t52.5 -22t35.5 -37.5t12 -58q-2 -24 -15.5 -56.5t-25.5 -64.5q-49 -118 -111.5 -220.5t-127.5 -205.5q-20 -14 -34.5 -20t-28.5 -6.5t-30 3.5t-37 12q-24 9 -45 19t-37 24.5t-26 35.5t-11 52q-2 31 6 65t20.5 69t28 69.5t27.5 66.5q13 29 27 66.5
t29.5 72t31.5 60.5t33 34q6 4 14 2t17 -4.5t20.5 -4.5t25.5 2q15 4 25.5 13t20.5 18t20 17t22 10zM373 462q14 29 28 62t18.5 61.5t-5 46.5t-41.5 17q-6 -11 -17.5 -17.5t-25 -12t-27.5 -11.5t-23 -15q-12 -12 -22.5 -30.5t-20 -40t-18 -45.5t-17.5 -46q-16 -38 -31 -77
t-25.5 -79t-15.5 -81.5t0 -84.5q26 36 59 78t66 87.5t64 93t54 94.5zM277 761q20 16 40 38t42.5 40.5t48 29.5t55.5 6q5 -12 10.5 -27.5t9.5 -31.5t7 -31t4 -24h-43q-7 15 -18 27t-12 34q-13 -14 -28.5 -30.5t-34 -28t-39 -14.5t-42.5 12z" />
    <glyph glyph-name="Otilde" unicode="&#xd5;" horiz-adv-x="450" 
d="M352 717q31 -4 61 -11.5t52.5 -22t35.5 -37.5t12 -58q-2 -24 -15.5 -56.5t-25.5 -64.5q-49 -118 -111.5 -220.5t-127.5 -205.5q-20 -14 -34.5 -20t-28.5 -6.5t-30 3.5t-37 12q-24 9 -45 19t-37 24.5t-26 35.5t-11 52q-2 31 6 65t20.5 69t28 69.5t27.5 66.5q13 29 27 66.5
t29.5 72t31.5 60.5t33 34q6 4 14 2t17 -4.5t20.5 -4.5t25.5 2q15 4 25.5 13t20.5 18t20 17t22 10zM373 462q14 29 28 62t18.5 61.5t-5 46.5t-41.5 17q-6 -11 -17.5 -17.5t-25 -12t-27.5 -11.5t-23 -15q-12 -12 -22.5 -30.5t-20 -40t-18 -45.5t-17.5 -46q-16 -38 -31 -77
t-25.5 -79t-15.5 -81.5t0 -84.5q26 36 59 78t66 87.5t64 93t54 94.5zM506 799q-5 -2 -5 -3.5t1.5 -4l3 -5t0.5 -6.5q-9 -14 -25 -20t-33.5 -6t-34 6.5t-28 18t-15 28t5.5 37.5q-15 -7 -26 -23.5t-22.5 -31.5t-26.5 -22.5t-37 2.5q13 17 28 41.5t35 44t46.5 29t63.5 -3.5
q12 -23 11.5 -45t-0.5 -52q20 8 32 24.5t15 36.5q12 -1 17 -2.5t16 -5.5q2 -13 -6 -24t-13 -24q-6 2 -4.5 4t1.5 7zM518 813q0 8 1 12.5t-1 7.5q-6 -7 -8 -12t-4 -13q4 1 5 3.5t1 5.5t0.5 6t5.5 5q0 -6 -4.5 -9t4.5 -6z" />
    <glyph glyph-name="Odieresis" unicode="&#xd6;" horiz-adv-x="450" 
d="M352 717q31 -4 61 -11.5t52.5 -22t35.5 -37.5t12 -58q-2 -24 -15.5 -56.5t-25.5 -64.5q-49 -118 -111.5 -220.5t-127.5 -205.5q-20 -14 -34.5 -20t-28.5 -6.5t-30 3.5t-37 12q-24 9 -45 19t-37 24.5t-26 35.5t-11 52q-2 31 6 65t20.5 69t28 69.5t27.5 66.5q13 29 27 66.5
t29.5 72t31.5 60.5t33 34q6 4 14 2t17 -4.5t20.5 -4.5t25.5 2q15 4 25.5 13t20.5 18t20 17t22 10zM373 462q14 29 28 62t18.5 61.5t-5 46.5t-41.5 17q-6 -11 -17.5 -17.5t-25 -12t-27.5 -11.5t-23 -15q-12 -12 -22.5 -30.5t-20 -40t-18 -45.5t-17.5 -46q-16 -38 -31 -77
t-25.5 -79t-15.5 -81.5t0 -84.5q26 36 59 78t66 87.5t64 93t54 94.5zM315 831q13 1 22 3.5t17.5 4t18 1t23.5 -4.5q2 -23 1 -36.5t-7 -21t-19 -11.5t-35 -7q-11 10 -15.5 16.5t-5 13.5t0 16.5t-0.5 25.5zM419 831q13 1 22 3.5t17.5 4t18 1t23.5 -4.5q2 -23 1 -36.5t-7 -21
t-19 -11.5t-35 -7q-11 10 -15.5 16.5t-5 13.5t0 16.5t-0.5 25.5z" />
    <glyph glyph-name="multiply" unicode="&#xd7;" horiz-adv-x="385" 
d="M6 204q25 22 51 37.5t51 35.5q-6 20 -17.5 37t-11.5 41q19 12 36.5 14t32 -2.5t23.5 -14.5t11 -22q18 10 35.5 22t36 22.5t39 17t46.5 5.5q-14 -18 -30.5 -30.5t-34 -23t-36 -21t-34.5 -23.5q0 -12 3.5 -20l7 -16t6 -16.5t0.5 -21.5q-11 -18 -28 -24t-31 -17q-9 -2 -12 6
t-4.5 19t-3.5 21t-8 11q-10 1 -26.5 -10t-35 -22t-36.5 -15.5t-30 10.5z" />
    <glyph glyph-name="Oslash" unicode="&#xd8;" horiz-adv-x="450" 
d="M82 16q-2 -11 -5.5 -11t-6.5 -4q0 -6 2 -5t4 3t3 2t-1 -8q7 5 4.5 14t2.5 19q-2 -2 -4.5 -2.5t-0.5 4.5q-5 -2 -9 -9.5t-6.5 -16t-4.5 -13.5t-3 -1q-1 -5 0 -7.5t2.5 -4.5t1.5 -5.5t-3 -10.5q-2 0 -1.5 3.5t1.5 7.5q-10 -15 -17 -13.5t-9.5 13t0.5 31t12 40.5
q-1 -19 -2.5 -38t6.5 -25q-5 11 -2 19.5t1 18.5q1 6 2 5t1.5 -2.5t1.5 -1t3 9.5q2 -11 -2 -21t-2 -18q2 2 3.5 4.5t4.5 3.5q-4 0 -3.5 4.5t2.5 10.5t4.5 12.5t3.5 11.5q1 2 -1 4.5t-4 2.5q1 3 2 3q-33 16 -55 41t-24 74q-2 31 6 65t20.5 69t28 69.5t27.5 66.5q13 29 27 66.5
t29.5 72t31.5 60.5t33 34q6 4 14 2t17 -4.5t20.5 -4.5t25.5 2q15 4 25.5 13t20.5 18t20 17t22 10l34 -6l48 90q6 1 14 -1t12.5 -10.5t3 -25.5t-12.5 -45l-10 -23q33 -14 53.5 -39t18.5 -69q-2 -24 -15.5 -56.5t-25.5 -64.5q-49 -118 -111.5 -220.5t-127.5 -205.5
q-20 -14 -34.5 -20t-28.5 -6.5t-30 3.5t-37 12q-5 -6 -10.5 -14.5t-9.5 -23.5q3 -2 5.5 2.5t4.5 10t4.5 9.5t5.5 2l-14 -31l-12 3v-13t-1.5 -1t-4 1t-6.5 -6q-2 4 -1.5 13t2.5 17t6.5 13.5t9.5 3.5zM280 593q-12 -12 -22.5 -30.5t-20 -40t-18 -45.5t-17.5 -46
q-27 -66 -50 -133.5t-25 -140.5q3 4 7 12q1 3 -0.5 3.5t-2.5 2.5q20 31 38 64t27 79q-8 -13 -10.5 -21t-7.5 -30q-5 0 -8 -6.5t-6.5 -14t-7.5 -13t-9 -3.5q13 19 21.5 35.5t16.5 37.5q0 7 -1 5.5t-3 -5l-4 -7t-4 -0.5q18 34 40 68.5t34 67.5q-6 -4 -10.5 -11t-10 -15
t-11 -15.5t-12.5 -13.5q35 57 69 119.5t68 127.5q-16 -7 -32.5 -13.5t-27.5 -17.5zM373 462q10 21 20.5 44.5t17.5 46.5t9 42.5t-4 33.5q-11 -25 -25.5 -52t-30 -54t-30 -54t-26.5 -51q-5 -12 -8 -27t-10 -29q-6 -12 -13 -24t-14 -22t-12.5 -17t-7.5 -9q-3 -14 -4 -19.5
t-9 -3.5q1 -8 -1 -12.5t-5.5 -10t-7 -13.5t-6.5 -21q-2 1 -5 -0.5t-6 -4.5t-4 -7t3 -6q48 62 96.5 131.5t82.5 138.5zM155 164q6 -4 11 12q3 1 3.5 -0.5t0.5 -4t-0.5 -4.5t1.5 -3l16 20q-1 4 0 12.5t0 12.5q5 14 9 14t1 -10q4 5 5 9.5t2 9.5t2.5 11t6.5 15q-2 -2 -4 -6.5
t-2 2.5q-1 -2 -3.5 -8.5t-6.5 -12t-7.5 -7t-5.5 6.5q1 3 3 4t3.5 1.5t3 2t2.5 6.5q-8 2 -9 -0.5t-6 4.5l-5 -23q2 1 3 5t3 6q-3 -14 -8.5 -24.5t-12.5 -19t-15 -16t-15 -16.5q3 -12 -4 -23l3 -31l8 10q0 7 1 11t6 13q-1 -5 -1.5 -8.5t-0.5 -8.5l9 12q2 6 3 12t0 14zM181 200
q4 -8 -4 -15.5t-13 -2.5q0 8 3 12.5t6 7t4.5 5t-0.5 5.5q2 5 2.5 1.5t3.5 -3.5q-2 -2 -3.5 -7t-2 -9t0.5 -3.5t3 9.5zM131 136q-2 2 -0.5 3.5t2.5 1.5q-2 12 2.5 16t3.5 10q3 6 3.5 4.5t1 -5t1 -5.5t3.5 4q2 -4 0 -5.5t-4 0.5q2 -5 0 -8t-1 2q-2 0 -4.5 -3.5t0.5 -5.5
q-2 -4 -4 -4t-4 -5zM77 40q-1 -2 -1 -6q-2 1 -2 3.5t-1 4.5q-1 0 -2 1q-2 -10 1.5 -12t7 -1.5t6 -0.5t-0.5 -9l7 14z" />
    <glyph glyph-name="Ugrave" unicode="&#xd9;" horiz-adv-x="582" 
d="M-10 285q6 3 11 20.5t11.5 38.5t16 40t24.5 25q2 28 16 54t30.5 52t30.5 52.5t16 55.5q6 -3 9.5 -3t6.5 2t6 5t9 5q18 -6 38.5 -14.5t37.5 -21t27 -30.5t7 -44q-27 -26 -45.5 -57.5t-33.5 -63.5t-30 -62t-37 -54q-2 -7 1.5 -8.5t8.5 -1.5q-14 -15 -23.5 -35.5t-15.5 -43
t-9 -46.5t-3 -46q9 0 10 -7q15 5 32.5 22t34.5 36t33 35.5t29 20.5q4 2 9 -4.5t7 -4.5q2 1 -4 6t-6 3q2 8 7.5 6.5t6.5 0.5q7 4 14.5 13t15.5 20t16.5 22.5t17.5 21.5q2 2 8 0t8 0q2 3 1 12.5t3 12.5q2 3 10.5 3.5t10.5 2.5q7 8 11 18.5t9 18.5q17 17 33 47.5t37 56.5
q5 8 15 10.5t15 9.5q9 12 15 30t11 32q3 0 3 -3t1 -7q10 26 27 51.5t36 51t38.5 52t34.5 53.5q18 -8 36 -15.5t38 -15.5q4 -21 -1 -41.5t-14.5 -40.5t-22.5 -41t-26 -44q-11 -21 -25.5 -43.5t-29.5 -45t-30.5 -43.5t-28.5 -39q-2 -7 2 -8.5t9 -1.5q-3 -13 -22 -11
q6 -8 3 -13.5t-9 -10.5t-12 -10.5t-7 -12.5q2 -5 4.5 -3t5 6.5t5.5 9.5t5 7q-1 -8 -5 -16.5t-10 -16.5t-12.5 -13t-13.5 -5q0 -9 2 -11t5 -2h7t7 -4q-14 -5 -25 -12.5t-17 -22.5q7 -7 12 -2t9 13q6 -4 4 -8t-5.5 -8t-7.5 -9t-2 -11q-9 0 -13.5 -4t-16.5 -2q0 -10 -1 -18
t-6 -13q7 0 9 4.5t3 10t4 9t11 2.5q-10 -20 -13.5 -36t-17.5 -27q0 -3 3.5 -3t7.5 -1q-4 -4 -6 -5.5t-2.5 -3t0 -3.5t1.5 -8q-14 -3 -19.5 -14t-10.5 -23q9 11 20 20q3 -4 3 -11.5t-2 -15t-6.5 -13.5t-9.5 -7q-1 10 4 14.5t6 12.5q-5 -5 -8 -7.5t-5.5 -4.5t-5.5 -3.5
t-7 -5.5q1 -5 2.5 -4.5t4 1.5t4.5 1t5 -4q0 -10 -3.5 -20t-9.5 -17t-13 -10.5t-15 0.5q-2 -7 1.5 -8t7.5 -2q-13 -3 -21.5 -11t-16 -16.5l-15 -17t-19.5 -13.5q-11 17 -16 31t-9 16q3 -1 4 9t2.5 24t4 29t9.5 26q6 -2 5 -7t-3.5 -11t-3 -12.5t6.5 -9.5q5 21 10.5 39.5t11 36
t9.5 35.5t5 39q-16 -13 -28.5 -28.5t-25.5 -30t-28.5 -26t-36.5 -14.5q-8 -30 -25.5 -45.5t-40 -19t-47 3t-45.5 21t-36 34.5t-19 43q-7 42 -14 89t4 98q-5 -2 -7.5 -5.5t-8.5 -4.5zM359 279q-2 7 0.5 10t6.5 4t8.5 2t5.5 5q-6 2 -2.5 5.5t7 7.5t4.5 7.5t-9 5.5q0 -8 -7 -14
t-13.5 -12t-8.5 -11t8 -10zM411 248q-16 0 -21 5q-1 -1 -2.5 -5t-2.5 -8.5t-0.5 -8.5t5.5 -4q1 11 8.5 13t12.5 8zM334 793q25 12 49 8.5t45.5 -14.5t40 -26.5t34.5 -25.5q-19 -6 -40 0t-43 17.5t-43.5 23.5t-42.5 17z" />
    <glyph glyph-name="Uacute" unicode="&#xda;" horiz-adv-x="582" 
d="M-10 285q6 3 11 20.5t11.5 38.5t16 40t24.5 25q2 28 16 54t30.5 52t30.5 52.5t16 55.5q6 -3 9.5 -3t6.5 2t6 5t9 5q18 -6 38.5 -14.5t37.5 -21t27 -30.5t7 -44q-27 -26 -45.5 -57.5t-33.5 -63.5t-30 -62t-37 -54q-2 -7 1.5 -8.5t8.5 -1.5q-14 -15 -23.5 -35.5t-15.5 -43
t-9 -46.5t-3 -46q9 0 10 -7q15 5 32.5 22t34.5 36t33 35.5t29 20.5q4 2 9 -4.5t7 -4.5q2 1 -4 6t-6 3q2 8 7.5 6.5t6.5 0.5q7 4 14.5 13t15.5 20t16.5 22.5t17.5 21.5q2 2 8 0t8 0q2 3 1 12.5t3 12.5q2 3 10.5 3.5t10.5 2.5q7 8 11 18.5t9 18.5q17 17 33 47.5t37 56.5
q5 8 15 10.5t15 9.5q9 12 15 30t11 32q3 0 3 -3t1 -7q10 26 27 51.5t36 51t38.5 52t34.5 53.5q18 -8 36 -15.5t38 -15.5q4 -21 -1 -41.5t-14.5 -40.5t-22.5 -41t-26 -44q-11 -21 -25.5 -43.5t-29.5 -45t-30.5 -43.5t-28.5 -39q-2 -7 2 -8.5t9 -1.5q-3 -13 -22 -11
q6 -8 3 -13.5t-9 -10.5t-12 -10.5t-7 -12.5q2 -5 4.5 -3t5 6.5t5.5 9.5t5 7q-1 -8 -5 -16.5t-10 -16.5t-12.5 -13t-13.5 -5q0 -9 2 -11t5 -2h7t7 -4q-14 -5 -25 -12.5t-17 -22.5q7 -7 12 -2t9 13q6 -4 4 -8t-5.5 -8t-7.5 -9t-2 -11q-9 0 -13.5 -4t-16.5 -2q0 -10 -1 -18
t-6 -13q7 0 9 4.5t3 10t4 9t11 2.5q-10 -20 -13.5 -36t-17.5 -27q0 -3 3.5 -3t7.5 -1q-4 -4 -6 -5.5t-2.5 -3t0 -3.5t1.5 -8q-14 -3 -19.5 -14t-10.5 -23q9 11 20 20q3 -4 3 -11.5t-2 -15t-6.5 -13.5t-9.5 -7q-1 10 4 14.5t6 12.5q-5 -5 -8 -7.5t-5.5 -4.5t-5.5 -3.5
t-7 -5.5q1 -5 2.5 -4.5t4 1.5t4.5 1t5 -4q0 -10 -3.5 -20t-9.5 -17t-13 -10.5t-15 0.5q-2 -7 1.5 -8t7.5 -2q-13 -3 -21.5 -11t-16 -16.5l-15 -17t-19.5 -13.5q-11 17 -16 31t-9 16q3 -1 4 9t2.5 24t4 29t9.5 26q6 -2 5 -7t-3.5 -11t-3 -12.5t6.5 -9.5q5 21 10.5 39.5t11 36
t9.5 35.5t5 39q-16 -13 -28.5 -28.5t-25.5 -30t-28.5 -26t-36.5 -14.5q-8 -30 -25.5 -45.5t-40 -19t-47 3t-45.5 21t-36 34.5t-19 43q-7 42 -14 89t4 98q-5 -2 -7.5 -5.5t-8.5 -4.5zM359 279q-2 7 0.5 10t6.5 4t8.5 2t5.5 5q-6 2 -2.5 5.5t7 7.5t4.5 7.5t-9 5.5q0 -8 -7 -14
t-13.5 -12t-8.5 -11t8 -10zM411 248q-16 0 -21 5q-1 -1 -2.5 -5t-2.5 -8.5t-0.5 -8.5t5.5 -4q1 11 8.5 13t12.5 8zM389 739q19 14 35.5 33t35.5 36t41.5 27.5t52.5 6.5q-7 -22 -21.5 -36.5t-32 -26l-35 -23t-29.5 -27.5q-16 -3 -24.5 2.5t-22.5 7.5z" />
    <glyph glyph-name="Ucircumflex" unicode="&#xdb;" horiz-adv-x="582" 
d="M-10 285q6 3 11 20.5t11.5 38.5t16 40t24.5 25q2 28 16 54t30.5 52t30.5 52.5t16 55.5q6 -3 9.5 -3t6.5 2t6 5t9 5q18 -6 38.5 -14.5t37.5 -21t27 -30.5t7 -44q-27 -26 -45.5 -57.5t-33.5 -63.5t-30 -62t-37 -54q-2 -7 1.5 -8.5t8.5 -1.5q-14 -15 -23.5 -35.5t-15.5 -43
t-9 -46.5t-3 -46q9 0 10 -7q15 5 32.5 22t34.5 36t33 35.5t29 20.5q4 2 9 -4.5t7 -4.5q2 1 -4 6t-6 3q2 8 7.5 6.5t6.5 0.5q7 4 14.5 13t15.5 20t16.5 22.5t17.5 21.5q2 2 8 0t8 0q2 3 1 12.5t3 12.5q2 3 10.5 3.5t10.5 2.5q7 8 11 18.5t9 18.5q17 17 33 47.5t37 56.5
q5 8 15 10.5t15 9.5q9 12 15 30t11 32q3 0 3 -3t1 -7q10 26 27 51.5t36 51t38.5 52t34.5 53.5q18 -8 36 -15.5t38 -15.5q4 -21 -1 -41.5t-14.5 -40.5t-22.5 -41t-26 -44q-11 -21 -25.5 -43.5t-29.5 -45t-30.5 -43.5t-28.5 -39q-2 -7 2 -8.5t9 -1.5q-3 -13 -22 -11
q6 -8 3 -13.5t-9 -10.5t-12 -10.5t-7 -12.5q2 -5 4.5 -3t5 6.5t5.5 9.5t5 7q-1 -8 -5 -16.5t-10 -16.5t-12.5 -13t-13.5 -5q0 -9 2 -11t5 -2h7t7 -4q-14 -5 -25 -12.5t-17 -22.5q7 -7 12 -2t9 13q6 -4 4 -8t-5.5 -8t-7.5 -9t-2 -11q-9 0 -13.5 -4t-16.5 -2q0 -10 -1 -18
t-6 -13q7 0 9 4.5t3 10t4 9t11 2.5q-10 -20 -13.5 -36t-17.5 -27q0 -3 3.5 -3t7.5 -1q-4 -4 -6 -5.5t-2.5 -3t0 -3.5t1.5 -8q-14 -3 -19.5 -14t-10.5 -23q9 11 20 20q3 -4 3 -11.5t-2 -15t-6.5 -13.5t-9.5 -7q-1 10 4 14.5t6 12.5q-5 -5 -8 -7.5t-5.5 -4.5t-5.5 -3.5
t-7 -5.5q1 -5 2.5 -4.5t4 1.5t4.5 1t5 -4q0 -10 -3.5 -20t-9.5 -17t-13 -10.5t-15 0.5q-2 -7 1.5 -8t7.5 -2q-13 -3 -21.5 -11t-16 -16.5l-15 -17t-19.5 -13.5q-11 17 -16 31t-9 16q3 -1 4 9t2.5 24t4 29t9.5 26q6 -2 5 -7t-3.5 -11t-3 -12.5t6.5 -9.5q5 21 10.5 39.5t11 36
t9.5 35.5t5 39q-16 -13 -28.5 -28.5t-25.5 -30t-28.5 -26t-36.5 -14.5q-8 -30 -25.5 -45.5t-40 -19t-47 3t-45.5 21t-36 34.5t-19 43q-7 42 -14 89t4 98q-5 -2 -7.5 -5.5t-8.5 -4.5zM359 279q-2 7 0.5 10t6.5 4t8.5 2t5.5 5q-6 2 -2.5 5.5t7 7.5t4.5 7.5t-9 5.5q0 -8 -7 -14
t-13.5 -12t-8.5 -11t8 -10zM411 248q-16 0 -21 5q-1 -1 -2.5 -5t-2.5 -8.5t-0.5 -8.5t5.5 -4q1 11 8.5 13t12.5 8zM324 730q20 16 40 38t42.5 40.5t48 29.5t55.5 6q5 -12 10.5 -27.5t9.5 -31.5t7 -31t4 -24h-43q-7 15 -18 27t-12 34q-13 -14 -28.5 -30.5t-34 -28t-39 -14.5
t-42.5 12z" />
    <glyph glyph-name="Udieresis" unicode="&#xdc;" horiz-adv-x="582" 
d="M-10 285q6 3 11 20.5t11.5 38.5t16 40t24.5 25q2 28 16 54t30.5 52t30.5 52.5t16 55.5q6 -3 9.5 -3t6.5 2t6 5t9 5q18 -6 38.5 -14.5t37.5 -21t27 -30.5t7 -44q-27 -26 -45.5 -57.5t-33.5 -63.5t-30 -62t-37 -54q-2 -7 1.5 -8.5t8.5 -1.5q-14 -15 -23.5 -35.5t-15.5 -43
t-9 -46.5t-3 -46q9 0 10 -7q15 5 32.5 22t34.5 36t33 35.5t29 20.5q4 2 9 -4.5t7 -4.5q2 1 -4 6t-6 3q2 8 7.5 6.5t6.5 0.5q7 4 14.5 13t15.5 20t16.5 22.5t17.5 21.5q2 2 8 0t8 0q2 3 1 12.5t3 12.5q2 3 10.5 3.5t10.5 2.5q7 8 11 18.5t9 18.5q17 17 33 47.5t37 56.5
q5 8 15 10.5t15 9.5q9 12 15 30t11 32q3 0 3 -3t1 -7q10 26 27 51.5t36 51t38.5 52t34.5 53.5q18 -8 36 -15.5t38 -15.5q4 -21 -1 -41.5t-14.5 -40.5t-22.5 -41t-26 -44q-11 -21 -25.5 -43.5t-29.5 -45t-30.5 -43.5t-28.5 -39q-2 -7 2 -8.5t9 -1.5q-3 -13 -22 -11
q6 -8 3 -13.5t-9 -10.5t-12 -10.5t-7 -12.5q2 -5 4.5 -3t5 6.5t5.5 9.5t5 7q-1 -8 -5 -16.5t-10 -16.5t-12.5 -13t-13.5 -5q0 -9 2 -11t5 -2h7t7 -4q-14 -5 -25 -12.5t-17 -22.5q7 -7 12 -2t9 13q6 -4 4 -8t-5.5 -8t-7.5 -9t-2 -11q-9 0 -13.5 -4t-16.5 -2q0 -10 -1 -18
t-6 -13q7 0 9 4.5t3 10t4 9t11 2.5q-10 -20 -13.5 -36t-17.5 -27q0 -3 3.5 -3t7.5 -1q-4 -4 -6 -5.5t-2.5 -3t0 -3.5t1.5 -8q-14 -3 -19.5 -14t-10.5 -23q9 11 20 20q3 -4 3 -11.5t-2 -15t-6.5 -13.5t-9.5 -7q-1 10 4 14.5t6 12.5q-5 -5 -8 -7.5t-5.5 -4.5t-5.5 -3.5
t-7 -5.5q1 -5 2.5 -4.5t4 1.5t4.5 1t5 -4q0 -10 -3.5 -20t-9.5 -17t-13 -10.5t-15 0.5q-2 -7 1.5 -8t7.5 -2q-13 -3 -21.5 -11t-16 -16.5l-15 -17t-19.5 -13.5q-11 17 -16 31t-9 16q3 -1 4 9t2.5 24t4 29t9.5 26q6 -2 5 -7t-3.5 -11t-3 -12.5t6.5 -9.5q5 21 10.5 39.5t11 36
t9.5 35.5t5 39q-16 -13 -28.5 -28.5t-25.5 -30t-28.5 -26t-36.5 -14.5q-8 -30 -25.5 -45.5t-40 -19t-47 3t-45.5 21t-36 34.5t-19 43q-7 42 -14 89t4 98q-5 -2 -7.5 -5.5t-8.5 -4.5zM359 279q-2 7 0.5 10t6.5 4t8.5 2t5.5 5q-6 2 -2.5 5.5t7 7.5t4.5 7.5t-9 5.5q0 -8 -7 -14
t-13.5 -12t-8.5 -11t8 -10zM411 248q-16 0 -21 5q-1 -1 -2.5 -5t-2.5 -8.5t-0.5 -8.5t5.5 -4q1 11 8.5 13t12.5 8zM322 783q13 1 22 3.5t17.5 4t18 1t23.5 -4.5q2 -23 1 -36.5t-7 -21t-19 -11.5t-35 -7q-11 10 -15.5 16.5t-5 13.5t0 16.5t-0.5 25.5zM426 783q13 1 22 3.5
t17.5 4t18 1t23.5 -4.5q2 -23 1 -36.5t-7 -21t-19 -11.5t-35 -7q-11 10 -15.5 16.5t-5 13.5t0 16.5t-0.5 25.5z" />
    <glyph glyph-name="Yacute" unicode="&#xdd;" horiz-adv-x="521" 
d="M382 224q-7 -1 -8.5 -6t-2 -10t-2.5 -9.5t-9 -4.5q2 -6 4 -6t4.5 2t5 4.5t5.5 1.5q-3 -9 -12 -13.5t-15 -12.5q1 -4 6 -3.5t10 1.5q-6 -6 -7.5 -8.5t-2.5 -4.5t-3.5 -4t-11.5 -6q-2 -5 -0.5 -7t4 -3.5t5 -3.5t1.5 -7q-5 0 -9.5 -0.5t-9.5 -1.5q13 -8 11.5 -10.5t-8 -3.5
t-15.5 -3t-11 -9q4 -2 12 -1t13 9q6 -4 6 -9t-3.5 -9.5t-9.5 -7.5t-10 -4q3 -18 -1 -30t-13.5 -21.5t-25.5 -18t-37 -17.5q-23 9 -45.5 19.5t-41 25t-33 34t-22.5 46.5q19 -1 34.5 -8t28.5 -16t25 -18.5t26 -16.5q2 33 12.5 66.5t25.5 66t33.5 63t37.5 58.5q0 2 -3 4.5t-6 3
t-5.5 -0.5t-1.5 -5q-4 5 -2 12.5t6.5 15.5t9.5 15.5t7 13.5q-2 2 -4 2.5t-3.5 1t-1.5 2t3 7.5q-3 1 -7 -2t-10 -8t-13.5 -9.5t-17.5 -4.5q0 -2 4 -2t7 1q-23 -18 -41 -45t-37.5 -52t-43 -42.5t-57.5 -15.5q4 5 11 7.5t11 7.5q-5 -1 -13.5 3t-16.5 -1q1 -5 3 -4t4 2.5t3.5 1
t1.5 -8.5q-49 7 -72 30.5t-28 56t4.5 72t25.5 78.5t35.5 75t34.5 62q26 50 58 92.5t53 80.5q16 -8 33.5 -13.5t32.5 -14t26 -22t14 -36.5q-26 -26 -45.5 -56.5t-30.5 -67.5q-17 -10 -26 -28.5t-17 -39t-18 -39.5t-28 -31q2 -2 4 -4.5t6 -4.5q1 -4 -2 -4.5t-7.5 -0.5
t-7.5 -0.5t-1 -5.5q7 3 7 -4.5t-3.5 -17.5t-10.5 -19.5t-14 -9.5q6 -2 9.5 -6t3 -8.5t-5 -8t-13.5 -2.5q7 -5 11 -5t7 2.5t5.5 6t6.5 5.5q47 21 95.5 53t94.5 61q15 9 27.5 22t24 27l23 28t24.5 26q4 34 19.5 62.5t36 55t40.5 53.5t33 59q42 7 75 -15.5t51 -59.5
q-20 -15 -34.5 -34t-28 -39.5t-29 -39t-38.5 -31.5q3 -5 6 -7.5t3.5 -4.5t-3 -3.5t-13.5 -2.5q-4 -1 -3.5 -3t1.5 -4.5t0.5 -4.5t-6.5 -3q1 -5 5.5 -4.5t9.5 0.5q-3 -6 -7 -11.5t-5 -12.5q-8 -1 -14.5 2t-17.5 -2q-1 -3 2 -6t7 -4t6.5 0t1.5 4q6 -3 4 -7t-7.5 -8t-13 -7
t-11.5 -5q16 0 16 -2.5t-7.5 -6t-17.5 -6t-12 -1.5q3 -8 0 -14t-6 -11.5t-3 -10t9 -8.5q-23 -8 -34.5 -17.5t-6.5 -38.5q-7 2 -4 5.5t3 7.5q-9 -2 -13.5 -8t-7 -12.5t-5 -13.5t-9.5 -11q1 -3 6 -2.5t9 0.5q-2 -7 -10 -9.5t-13 -7.5q5 -4 7 -12q8 8 10 -4q-7 -2 -10.5 0.5
t-5.5 6.5q-15 -8 -10 -30q7 7 5 21q7 -1 7.5 -7t1.5 -12q-9 -2 -13 -5t-13 2q5 -2 6 -6t-1 -7t-6 -3.5t-8 2.5q0 -6 3 -6.5t8 -0.5q-3 -2 -4 -6t-2 -8.5t-3 -7.5t-7 -3q0 7 4.5 11t2.5 13zM37 372q-2 0 -4 1t-1 3q2 7 6.5 12.5t6.5 12.5q-9 0 -12.5 -6.5t-4 -13.5t2 -11
t6.5 2zM98 503q-2 0 -4.5 -0.5t-5.5 -0.5q-2 5 -5 3q1 -7 -2 -12t-7.5 -9.5t-8 -9.5t-3.5 -12q7 3 11 8.5t7.5 11.5t7.5 11.5t10 9.5zM249 107q-1 4 0 9.5t1 10.5t-2 8t-9 3q8 -9 4 -17t-9 -19q-2 -2 -4.5 -2.5t-0.5 -5.5q15 5 20 13zM373 728q19 14 35.5 33t35.5 36
t41.5 27.5t52.5 6.5q-7 -22 -21.5 -36.5t-32 -26l-35 -23t-29.5 -27.5q-16 -3 -24.5 2.5t-22.5 7.5z" />
    <glyph glyph-name="germandbls" unicode="&#xdf;" horiz-adv-x="512" 
d="M68 340q6 9 8 19.5t4.5 22.5t7.5 25t17 26q2 5 -3.5 4.5t-10.5 0.5q1 4 4 5l6 2t5.5 2.5t2.5 6.5q7 -4 8 -10t-6 -11q5 2 8.5 4t8.5 1q-14 10 4 21q-1 5 -5 1.5t-11 -1.5q3 9 7 14.5t8 10.5t5.5 11.5t0.5 15.5q19 15 34.5 37.5t31.5 44t32.5 39.5t36.5 24q18 36 48 54
t62 14q1 6 -3.5 8.5t-10.5 2.5t-12 -1.5t-9 -4.5q31 8 74 9.5t80.5 -8t60 -32t12.5 -62.5q5 -29 -4 -53.5t-26.5 -45.5t-40.5 -39.5t-44 -33.5q-4 5 -1.5 7.5t4.5 7.5q-24 -20 -45 -35t-36 -29.5t-22.5 -31t-4.5 -38.5q4 -24 17.5 -45t27.5 -43t25 -47t10 -56q-1 -22 -9 -43
t-7 -46q-12 -20 -36 -31t-53.5 -17t-61 -9t-58.5 -5q-13 -1 -23 3.5t-19 7t-18 -1t-20 -20.5q-10 8 -6 26q-11 -22 -12 -17t3.5 21t12 35t13.5 24q23 6 47.5 13.5t45.5 20t36.5 30.5t20.5 45q3 20 -3.5 42t-17.5 45.5l-22 47t-15.5 45.5t0.5 42t27 37q23 18 49 34.5t50 35.5
t44.5 42.5t32.5 53.5q12 29 9.5 43.5t-16.5 28.5q-16 -8 -31.5 -21t-28.5 -27.5t-24 -29t-18 -26.5q-13 3 -19.5 -2t-11.5 2q1 -8 5 -13t9 8q6 -2 2.5 -4t-4.5 -6q-2 -5 4 -5q-6 3 -13.5 -1.5t-13 -13t-8 -18.5t0.5 -19q-3 0 -4 3.5t-2 5.5t-2 0.5t-3 -9.5q-4 2 -3 5.5
t3.5 8.5t4.5 10.5t1 11.5q-15 -10 -17.5 -20t-1 -21t3 -22.5t-5.5 -24.5q-9 5 -6.5 13t7.5 19q0 4 -2 3t-5 -1.5t-5.5 0.5t-1.5 8q-4 -2 -3 -7t1.5 -10.5t-2 -10t-13.5 -4.5q1 -5 5 -6.5l8 -3t6 -5t-2 -11.5q-3 1 -3.5 4t-2 5t-4.5 3t-10 -1q-2 -15 2 -20.5t4 -10.5
q-8 -2 -10.5 -5.5t-4.5 -6t-4.5 -3t-8.5 4.5q-2 -7 -3 -13.5t-2 -12.5q5 2 8.5 5t4.5 10q3 -3 1.5 -8t-6 -9.5t-10 -6t-9.5 3.5q-2 -5 -1 -7t2.5 -3.5t3.5 -2.5t2 -4q-11 -5 -16 -16t-8 -26l-6.5 -32.5t-10.5 -34.5q-3 -2 -7 -3.5t-9 -1.5q-7 -39 -18.5 -74t-24 -71.5
t-25 -77.5t-21.5 -92q-12 0 -17 -12.5t-9.5 -27t-10 -25.5t-17.5 -8q-5 -24 -18 -33.5t-30.5 -11.5t-36.5 -0.5t-37 -0.5q22 56 42 118.5t39 124.5t38 122t40 111q7 -15 13 -5t10.5 28.5t7.5 37.5t5 23q6 -7 4.5 -18.5t3.5 -18.5zM145 474q0 9 2 9.5t4 -1t4 -2.5t3 5
q-4 3 -3 8t5 10t8.5 10t6.5 8h-10q-4 -3 -9.5 -8.5t-9 -12.5t-5 -14t3.5 -12zM227 610q-5 -8 -12 -16t-13.5 -16t-10.5 -16t-2 -15q3 8 12 16.5t17 17t12 16t-3 13.5zM138 293q8 1 12 5t4 9.5t-3 10t-8 6.5q0 -6 -2 -10t-3.5 -7.5t-2 -6.5t2.5 -7zM410 106q1 2 -1 5t-3.5 7
t-1.5 7.5t5 6.5q0 -2 1.5 -3.5t3.5 3.5q-5 0 -4 5q2 0 4 2t-3 3q-7 -4 -10.5 -11t-3.5 -13.5t3.5 -10.5t9.5 -1z" />
    <glyph glyph-name="agrave" unicode="&#xe0;" horiz-adv-x="394" 
d="M273 0q-7 3 -17.5 5.5t-19.5 5.5t-13.5 8t0.5 13q-12 -6 -23 -1.5t-20 15.5t-14 25.5t-4 28.5q-14 -11 -24 -24.5t-21.5 -25.5t-27 -20.5t-40.5 -8.5q-11 8 -27 14t-31.5 13.5t-27.5 17.5t-15 25q-5 18 3 40t22 44.5t32 45l34 42.5q15 19 33.5 43t39 46t41 38t39.5 19
q17 2 33 -2t30.5 -9t26.5 -9t22 -2q10 1 15 5.5t9 10.5t7.5 12t9.5 10q15 -5 32 -9t24 -16q-20 -44 -46 -83t-50 -80t-42.5 -86t-24.5 -101q31 15 52 33.5t39 40.5t36 46t43 49q-15 -62 -50.5 -113.5t-84.5 -105.5zM268 333q-21 9 -40.5 4.5t-37.5 -17t-35.5 -30.5
t-33.5 -36q-35 -38 -55.5 -77t-31.5 -77q66 53 124 111.5t110 121.5zM209 552q25 12 49 8.5t45.5 -14.5t40 -26.5t34.5 -25.5q-19 -6 -40 0t-43 17.5t-43.5 23.5t-42.5 17z" />
    <glyph glyph-name="aacute" unicode="&#xe1;" horiz-adv-x="394" 
d="M273 0q-7 3 -17.5 5.5t-19.5 5.5t-13.5 8t0.5 13q-12 -6 -23 -1.5t-20 15.5t-14 25.5t-4 28.5q-14 -11 -24 -24.5t-21.5 -25.5t-27 -20.5t-40.5 -8.5q-11 8 -27 14t-31.5 13.5t-27.5 17.5t-15 25q-5 18 3 40t22 44.5t32 45l34 42.5q15 19 33.5 43t39 46t41 38t39.5 19
q17 2 33 -2t30.5 -9t26.5 -9t22 -2q10 1 15 5.5t9 10.5t7.5 12t9.5 10q15 -5 32 -9t24 -16q-20 -44 -46 -83t-50 -80t-42.5 -86t-24.5 -101q31 15 52 33.5t39 40.5t36 46t43 49q-15 -62 -50.5 -113.5t-84.5 -105.5zM268 333q-21 9 -40.5 4.5t-37.5 -17t-35.5 -30.5
t-33.5 -36q-35 -38 -55.5 -77t-31.5 -77q66 53 124 111.5t110 121.5zM218 472q19 14 35.5 33t35.5 36t41.5 27.5t52.5 6.5q-7 -22 -21.5 -36.5t-32 -26l-35 -23t-29.5 -27.5q-16 -3 -24.5 2.5t-22.5 7.5z" />
    <glyph glyph-name="acircumflex" unicode="&#xe2;" horiz-adv-x="394" 
d="M273 0q-7 3 -17.5 5.5t-19.5 5.5t-13.5 8t0.5 13q-12 -6 -23 -1.5t-20 15.5t-14 25.5t-4 28.5q-14 -11 -24 -24.5t-21.5 -25.5t-27 -20.5t-40.5 -8.5q-11 8 -27 14t-31.5 13.5t-27.5 17.5t-15 25q-5 18 3 40t22 44.5t32 45l34 42.5q15 19 33.5 43t39 46t41 38t39.5 19
q17 2 33 -2t30.5 -9t26.5 -9t22 -2q10 1 15 5.5t9 10.5t7.5 12t9.5 10q15 -5 32 -9t24 -16q-20 -44 -46 -83t-50 -80t-42.5 -86t-24.5 -101q31 15 52 33.5t39 40.5t36 46t43 49q-15 -62 -50.5 -113.5t-84.5 -105.5zM268 333q-21 9 -40.5 4.5t-37.5 -17t-35.5 -30.5
t-33.5 -36q-35 -38 -55.5 -77t-31.5 -77q66 53 124 111.5t110 121.5zM164 482q20 16 40 38t42.5 40.5t48 29.5t55.5 6q5 -12 10.5 -27.5t9.5 -31.5t7 -31t4 -24h-43q-7 15 -18 27t-12 34q-13 -14 -28.5 -30.5t-34 -28t-39 -14.5t-42.5 12z" />
    <glyph glyph-name="atilde" unicode="&#xe3;" horiz-adv-x="394" 
d="M273 0q-7 3 -17.5 5.5t-19.5 5.5t-13.5 8t0.5 13q-12 -6 -23 -1.5t-20 15.5t-14 25.5t-4 28.5q-14 -11 -24 -24.5t-21.5 -25.5t-27 -20.5t-40.5 -8.5q-11 8 -27 14t-31.5 13.5t-27.5 17.5t-15 25q-5 18 3 40t22 44.5t32 45l34 42.5q15 19 33.5 43t39 46t41 38t39.5 19
q17 2 33 -2t30.5 -9t26.5 -9t22 -2q10 1 15 5.5t9 10.5t7.5 12t9.5 10q15 -5 32 -9t24 -16q-20 -44 -46 -83t-50 -80t-42.5 -86t-24.5 -101q31 15 52 33.5t39 40.5t36 46t43 49q-15 -62 -50.5 -113.5t-84.5 -105.5zM268 333q-21 9 -40.5 4.5t-37.5 -17t-35.5 -30.5
t-33.5 -36q-35 -38 -55.5 -77t-31.5 -77q66 53 124 111.5t110 121.5zM384 522q-5 -2 -5 -3.5t1.5 -4l3 -5t0.5 -6.5q-9 -14 -25 -20t-33.5 -6t-34 6.5t-28 18t-15 28t5.5 37.5q-15 -7 -26 -23.5t-22.5 -31.5t-26.5 -22.5t-37 2.5q13 17 28 41.5t35 44t46.5 29t63.5 -3.5
q12 -23 11.5 -45t-0.5 -52q20 8 32 24.5t15 36.5q12 -1 17 -2.5t16 -5.5q2 -13 -6 -24t-13 -24q-6 2 -4.5 4t1.5 7zM396 536q0 8 1 12.5t-1 7.5q-6 -7 -8 -12t-4 -13q4 1 5 3.5t1 5.5t0.5 6t5.5 5q0 -6 -4.5 -9t4.5 -6z" />
    <glyph glyph-name="adieresis" unicode="&#xe4;" horiz-adv-x="394" 
d="M273 0q-7 3 -17.5 5.5t-19.5 5.5t-13.5 8t0.5 13q-12 -6 -23 -1.5t-20 15.5t-14 25.5t-4 28.5q-14 -11 -24 -24.5t-21.5 -25.5t-27 -20.5t-40.5 -8.5q-11 8 -27 14t-31.5 13.5t-27.5 17.5t-15 25q-5 18 3 40t22 44.5t32 45l34 42.5q15 19 33.5 43t39 46t41 38t39.5 19
q17 2 33 -2t30.5 -9t26.5 -9t22 -2q10 1 15 5.5t9 10.5t7.5 12t9.5 10q15 -5 32 -9t24 -16q-20 -44 -46 -83t-50 -80t-42.5 -86t-24.5 -101q31 15 52 33.5t39 40.5t36 46t43 49q-15 -62 -50.5 -113.5t-84.5 -105.5zM268 333q-21 9 -40.5 4.5t-37.5 -17t-35.5 -30.5
t-33.5 -36q-35 -38 -55.5 -77t-31.5 -77q66 53 124 111.5t110 121.5zM192 536q13 1 22 3.5t17.5 4t18 1t23.5 -4.5q2 -23 1 -36.5t-7 -21t-19 -11.5t-35 -7q-11 10 -15.5 16.5t-5 13.5t0 16.5t-0.5 25.5zM296 536q13 1 22 3.5t17.5 4t18 1t23.5 -4.5q2 -23 1 -36.5t-7 -21
t-19 -11.5t-35 -7q-11 10 -15.5 16.5t-5 13.5t0 16.5t-0.5 25.5z" />
    <glyph glyph-name="aring" unicode="&#xe5;" horiz-adv-x="394" 
d="M273 0q-7 3 -17.5 5.5t-19.5 5.5t-13.5 8t0.5 13q-12 -6 -23 -1.5t-20 15.5t-14 25.5t-4 28.5q-14 -11 -24 -24.5t-21.5 -25.5t-27 -20.5t-40.5 -8.5q-11 8 -27 14t-31.5 13.5t-27.5 17.5t-15 25q-5 18 3 40t22 44.5t32 45l34 42.5q15 19 33.5 43t39 46t41 38t39.5 19
q17 2 33 -2t30.5 -9t26.5 -9t22 -2q10 1 15 5.5t9 10.5t7.5 12t9.5 10q15 -5 32 -9t24 -16q-20 -44 -46 -83t-50 -80t-42.5 -86t-24.5 -101q31 15 52 33.5t39 40.5t36 46t43 49q-15 -62 -50.5 -113.5t-84.5 -105.5zM268 333q-21 9 -40.5 4.5t-37.5 -17t-35.5 -30.5
t-33.5 -36q-35 -38 -55.5 -77t-31.5 -77q66 53 124 111.5t110 121.5zM313 473q-19 3 -44.5 11t-46 22.5t-29 36.5t5.5 53q10 -1 23 4.5t27 10.5t30 5.5t34 -9.5q7 -1 15 -14t11 -32.5t-2 -43t-24 -44.5zM277 509q15 3 21.5 11.5t6.5 19t-5 21.5t-13 19q-10 -2 -18 -7.5
t-17 -7.5q-6 -26 3 -37t22 -19z" />
    <glyph glyph-name="ae" unicode="&#xe6;" horiz-adv-x="494" 
d="M445 400q0 -23 6.5 -33t19.5 -26q-6 -39 -25.5 -67.5t-46 -50.5t-57.5 -40.5t-60 -38.5q-14 -26 -23.5 -52.5t-14.5 -52.5q44 17 75 38.5t59.5 44.5t60 46.5t76.5 44.5q-20 -26 -24 -33t-5.5 -9t-8 -6.5t-30.5 -24.5q-5 -17 -23 -41t-40.5 -46t-47 -38t-43.5 -17
q-3 -1 -3.5 -2.5t-1 -3.5t-3 -3.5t-8.5 -2.5q-33 10 -61.5 22.5t-60.5 23.5q-16 28 -13 55q-10 -11 -18.5 -22t-19 -21t-25 -16.5t-36.5 -6.5q-11 8 -27 14t-31.5 13.5t-27.5 17.5t-15 25q-5 18 3 40t22 44.5t32 45l34 42.5q15 19 33.5 43t39 46t41 38t39.5 19q17 2 33 -2
t30.5 -9t26.5 -9t22 -2q10 1 15 5.5t9 10.5t7.5 12t9.5 10l23 -6q1 0 2 1q4 -2 12.5 -3.5t19.5 -3t24 -4.5t25 -9zM262 333q-21 9 -40.5 4.5t-37.5 -17t-35.5 -30.5t-33.5 -36q-35 -38 -55.5 -77t-31.5 -77q66 53 124 111.5t110 121.5zM318 216q19 11 40 26t37.5 33t24 39
t-0.5 43q-23 -36 -49.5 -71t-51.5 -70zM318 16q-2 -1 -6 -1t-4 -4q6 -3 9 -1t4.5 6t2.5 8.5t3 6.5q-5 -1 -7.5 -3.5t-7.5 -4.5q1 3 -1 3.5t-4 0.5t-2.5 -1.5t3.5 -2.5q5 0 6.5 -2.5t3.5 -4.5z" />
    <glyph glyph-name="ccedilla" unicode="&#xe7;" horiz-adv-x="317" 
d="M4 -93q-7 5 -4.5 17t4.5 18q22 -1 45.5 0.5t41.5 9.5q-20 0 -42 5t-31 23q2 16 11 25.5t15 23.5l-24 8q-33 31 -37 74t9.5 88t38.5 87t51 72q5 6 14 14.5t18 16t17 13.5t11 7q10 4 29 3t38.5 -4t35.5 -7l20 -5q18 -6 29.5 -17.5t15.5 -26t-2 -32.5t-23 -37
q-15 -2 -24 1.5t-21 3.5q-2 8 -2.5 12.5t1 8t4.5 7.5t6 10q-7 6 -12.5 13.5t-11.5 15.5q-25 -16 -48 -37.5t-41 -46.5t-28.5 -51.5t-10.5 -52.5q-9 -9 -14.5 -27t-5.5 -37.5t6 -37t20 -26.5q33 9 56.5 27t44.5 38t41 39t45 30q-2 5 2.5 11.5t11.5 11.5t14.5 9t11.5 5
q-2 -12 -7.5 -21t-12 -17t-13 -16.5t-10.5 -18.5q-6 -2 -8.5 0.5t-6.5 3.5q4 -6 1.5 -14.5t-8 -16.5t-13.5 -15.5t-15 -11.5q0 -5 1 -5.5t2.5 0.5t4 1t4.5 -3q-14 -13 -24 -27t-22.5 -26t-29.5 -19t-45 -5q-5 0 -11 1t-12 3l-1 3q-2 0 -3 0.5t-3 0.5q-5 -5 -10 -8.5
t-7 -10.5q12 -6 25 -13t23 -16.5t14.5 -23t-1.5 -32.5q-15 -12 -32.5 -11t-36 6t-36.5 9.5t-33 -0.5z" />
    <glyph glyph-name="egrave" unicode="&#xe8;" horiz-adv-x="288" 
d="M239 400q0 -23 6.5 -33t19.5 -26q-6 -39 -25.5 -67.5t-46 -50.5t-57.5 -40.5t-60 -38.5q-14 -26 -23.5 -52.5t-14.5 -52.5q44 17 75 38.5t59.5 44.5t60 46.5t76.5 44.5q-20 -26 -24 -33t-5.5 -9t-8 -6.5t-30.5 -24.5q-5 -17 -23 -41t-40.5 -46t-47 -38t-43.5 -17
q-3 -1 -3.5 -2.5t-1 -3.5t-3 -3.5t-8.5 -2.5q-33 10 -61.5 22.5t-60.5 23.5q-18 32 -12 60.5t20 53t27.5 46t10.5 40.5q35 52 73.5 100.5t89.5 87.5q4 -2 12.5 -3.5t19.5 -3t24 -4.5t25 -9zM112 16q-2 -1 -6 -1t-4 -4q6 -4 9.5 -1t5 8t2.5 9.5t4 4.5q-6 -1 -8.5 -4t-8.5 -5
q1 3 -1 3.5t-4 0.5t-2.5 -1.5t3.5 -2.5q5 0 6.5 -2.5t3.5 -4.5zM112 216q19 11 40 26t37.5 33t24 39t-0.5 43q-23 -36 -49.5 -71t-51.5 -70zM117 516q25 12 49 8.5t45.5 -14.5t40 -26.5t34.5 -25.5q-19 -6 -40 0t-43 17.5t-43.5 23.5t-42.5 17z" />
    <glyph glyph-name="eacute" unicode="&#xe9;" horiz-adv-x="288" 
d="M239 400q0 -23 6.5 -33t19.5 -26q-6 -39 -25.5 -67.5t-46 -50.5t-57.5 -40.5t-60 -38.5q-14 -26 -23.5 -52.5t-14.5 -52.5q44 17 75 38.5t59.5 44.5t60 46.5t76.5 44.5q-20 -26 -24 -33t-5.5 -9t-8 -6.5t-30.5 -24.5q-5 -17 -23 -41t-40.5 -46t-47 -38t-43.5 -17
q-3 -1 -3.5 -2.5t-1 -3.5t-3 -3.5t-8.5 -2.5q-33 10 -61.5 22.5t-60.5 23.5q-18 32 -12 60.5t20 53t27.5 46t10.5 40.5q35 52 73.5 100.5t89.5 87.5q4 -2 12.5 -3.5t19.5 -3t24 -4.5t25 -9zM112 16q-2 -1 -6 -1t-4 -4q6 -4 9.5 -1t5 8t2.5 9.5t4 4.5q-6 -1 -8.5 -4t-8.5 -5
q1 3 -1 3.5t-4 0.5t-2.5 -1.5t3.5 -2.5q5 0 6.5 -2.5t3.5 -4.5zM112 216q19 11 40 26t37.5 33t24 39t-0.5 43q-23 -36 -49.5 -71t-51.5 -70zM117 461q19 14 35.5 33t35.5 36t41.5 27.5t52.5 6.5q-7 -22 -21.5 -36.5t-32 -26l-35 -23t-29.5 -27.5q-16 -3 -24.5 2.5t-22.5 7.5
z" />
    <glyph glyph-name="ecircumflex" unicode="&#xea;" horiz-adv-x="288" 
d="M239 400q0 -23 6.5 -33t19.5 -26q-6 -39 -25.5 -67.5t-46 -50.5t-57.5 -40.5t-60 -38.5q-14 -26 -23.5 -52.5t-14.5 -52.5q44 17 75 38.5t59.5 44.5t60 46.5t76.5 44.5q-20 -26 -24 -33t-5.5 -9t-8 -6.5t-30.5 -24.5q-5 -17 -23 -41t-40.5 -46t-47 -38t-43.5 -17
q-3 -1 -3.5 -2.5t-1 -3.5t-3 -3.5t-8.5 -2.5q-33 10 -61.5 22.5t-60.5 23.5q-18 32 -12 60.5t20 53t27.5 46t10.5 40.5q35 52 73.5 100.5t89.5 87.5q4 -2 12.5 -3.5t19.5 -3t24 -4.5t25 -9zM112 16q-2 -1 -6 -1t-4 -4q6 -4 9.5 -1t5 8t2.5 9.5t4 4.5q-6 -1 -8.5 -4t-8.5 -5
q1 3 -1 3.5t-4 0.5t-2.5 -1.5t3.5 -2.5q5 0 6.5 -2.5t3.5 -4.5zM112 216q19 11 40 26t37.5 33t24 39t-0.5 43q-23 -36 -49.5 -71t-51.5 -70zM76 462q20 16 40 38t42.5 40.5t48 29.5t55.5 6q5 -12 10.5 -27.5t9.5 -31.5t7 -31t4 -24h-43q-7 15 -18 27t-12 34
q-13 -14 -28.5 -30.5t-34 -28t-39 -14.5t-42.5 12z" />
    <glyph glyph-name="edieresis" unicode="&#xeb;" horiz-adv-x="288" 
d="M239 400q0 -23 6.5 -33t19.5 -26q-6 -39 -25.5 -67.5t-46 -50.5t-57.5 -40.5t-60 -38.5q-14 -26 -23.5 -52.5t-14.5 -52.5q44 17 75 38.5t59.5 44.5t60 46.5t76.5 44.5q-20 -26 -24 -33t-5.5 -9t-8 -6.5t-30.5 -24.5q-5 -17 -23 -41t-40.5 -46t-47 -38t-43.5 -17
q-3 -1 -3.5 -2.5t-1 -3.5t-3 -3.5t-8.5 -2.5q-33 10 -61.5 22.5t-60.5 23.5q-18 32 -12 60.5t20 53t27.5 46t10.5 40.5q35 52 73.5 100.5t89.5 87.5q4 -2 12.5 -3.5t19.5 -3t24 -4.5t25 -9zM112 16q-2 -1 -6 -1t-4 -4q6 -4 9.5 -1t5 8t2.5 9.5t4 4.5q-6 -1 -8.5 -4t-8.5 -5
q1 3 -1 3.5t-4 0.5t-2.5 -1.5t3.5 -2.5q5 0 6.5 -2.5t3.5 -4.5zM112 216q19 11 40 26t37.5 33t24 39t-0.5 43q-23 -36 -49.5 -71t-51.5 -70zM111 531q13 1 22 3.5t17.5 4t18 1t23.5 -4.5q2 -23 1 -36.5t-7 -21t-19 -11.5t-35 -7q-11 10 -15.5 16.5t-5 13.5t0 16.5t-0.5 25.5
zM215 531q13 1 22 3.5t17.5 4t18 1t23.5 -4.5q2 -23 1 -36.5t-7 -21t-19 -11.5t-35 -7q-11 10 -15.5 16.5t-5 13.5t0 16.5t-0.5 25.5z" />
    <glyph glyph-name="igrave" unicode="&#xec;" 
d="M123 416q9 0 21.5 -1t25.5 -2.5t24.5 -4.5t19.5 -9q0 -14 -7.5 -34t-17.5 -41t-21 -40t-18 -30q-29 -48 -59.5 -94.5t-47.5 -101.5q33 13 60 30.5t51 37.5t46.5 41t46.5 42q-6 -29 -24.5 -51.5t-40 -43.5t-41 -43t-26.5 -50q-17 -19 -38 -21.5t-43 3.5t-42 17.5t-35 20.5
q-8 36 -0.5 70.5t23.5 67t37.5 63.5t42.5 60.5t38.5 58t24.5 55.5zM96 532q25 12 49 8.5t45.5 -14.5t40 -26.5t34.5 -25.5q-19 -6 -40 0t-43 17.5t-43.5 23.5t-42.5 17z" />
    <glyph glyph-name="iacute" unicode="&#xed;" 
d="M123 416q9 0 21.5 -1t25.5 -2.5t24.5 -4.5t19.5 -9q0 -14 -7.5 -34t-17.5 -41t-21 -40t-18 -30q-29 -48 -59.5 -94.5t-47.5 -101.5q33 13 60 30.5t51 37.5t46.5 41t46.5 42q-6 -29 -24.5 -51.5t-40 -43.5t-41 -43t-26.5 -50q-17 -19 -38 -21.5t-43 3.5t-42 17.5t-35 20.5
q-8 36 -0.5 70.5t23.5 67t37.5 63.5t42.5 60.5t38.5 58t24.5 55.5zM83 469q19 14 35.5 33t35.5 36t41.5 27.5t52.5 6.5q-7 -22 -21.5 -36.5t-32 -26l-35 -23t-29.5 -27.5q-16 -3 -24.5 2.5t-22.5 7.5z" />
    <glyph glyph-name="icircumflex" unicode="&#xee;" 
d="M123 416q9 0 21.5 -1t25.5 -2.5t24.5 -4.5t19.5 -9q0 -14 -7.5 -34t-17.5 -41t-21 -40t-18 -30q-29 -48 -59.5 -94.5t-47.5 -101.5q33 13 60 30.5t51 37.5t46.5 41t46.5 42q-6 -29 -24.5 -51.5t-40 -43.5t-41 -43t-26.5 -50q-17 -19 -38 -21.5t-43 3.5t-42 17.5t-35 20.5
q-8 36 -0.5 70.5t23.5 67t37.5 63.5t42.5 60.5t38.5 58t24.5 55.5zM55 474q20 16 40 38t42.5 40.5t48 29.5t55.5 6q5 -12 10.5 -27.5t9.5 -31.5t7 -31t4 -24h-43q-7 15 -18 27t-12 34q-13 -14 -28.5 -30.5t-34 -28t-39 -14.5t-42.5 12z" />
    <glyph glyph-name="idieresis" unicode="&#xef;" 
d="M123 416q9 0 21.5 -1t25.5 -2.5t24.5 -4.5t19.5 -9q0 -14 -7.5 -34t-17.5 -41t-21 -40t-18 -30q-29 -48 -59.5 -94.5t-47.5 -101.5q33 13 60 30.5t51 37.5t46.5 41t46.5 42q-6 -29 -24.5 -51.5t-40 -43.5t-41 -43t-26.5 -50q-17 -19 -38 -21.5t-43 3.5t-42 17.5t-35 20.5
q-8 36 -0.5 70.5t23.5 67t37.5 63.5t42.5 60.5t38.5 58t24.5 55.5zM114 541q13 1 22 3.5t17.5 4t18 1t23.5 -4.5q2 -23 1 -36.5t-7 -21t-19 -11.5t-35 -7q-11 10 -15.5 16.5t-5 13.5t0 16.5t-0.5 25.5zM218 541q13 1 22 3.5t17.5 4t18 1t23.5 -4.5q2 -23 1 -36.5t-7 -21
t-19 -11.5t-35 -7q-11 10 -15.5 16.5t-5 13.5t0 16.5t-0.5 25.5z" />
    <glyph glyph-name="eth" unicode="&#xf0;" horiz-adv-x="461" 
d="M44 6q-10 -2 -12.5 2t-9.5 3q0 5 4 6.5t8 1t7.5 -4t2.5 -8.5zM285 341q9 12 13 32.5t3.5 42t-6 40.5t-14.5 28q11 6 2.5 11.5t-19.5 13.5q-5 -1 -2.5 -4.5t6.5 -3.5q-58 -42 -125 -45q6 12 16 26t23.5 27.5t28.5 24.5t31 19q-27 54 -71 88.5t-110 49.5q1 4 5 6.5t7.5 4.5
t6.5 5t2 10q168 -6 247 -101q24 0 36.5 12t27.5 23q1 -13 -2.5 -25t-7 -24.5t-4.5 -26.5t6 -30q8 -20 19 -34.5t16 -37.5q2 -12 2 -24v-24t2 -23t8 -22q1 -34 -0.5 -58.5t-7.5 -51.5q4 0 4 5l-2 -7t-5 -14.5t-7 -12.5t-8 -1q4 -11 2.5 -12t-11.5 -5q9 0 9.5 -6t-3.5 -16
t-8.5 -20.5t-5.5 -19.5q-8 1 -11.5 -1.5t-5.5 -6t-4.5 -7t-8.5 -3.5q5 -5 2.5 -12.5t-9 -15t-14.5 -14.5t-13 -12q-5 3 -4.5 6t3.5 5.5t6 5.5t3 6q-5 1 -7.5 -1t-4.5 -4.5t-5 -4t-9 0.5q3 -7 9 -8q-5 3 -9 1t-8 -5t-8 -5.5t-10 -0.5q0 -9 2.5 -10t-2.5 -7q7 4 14 11t3 6
q12 -1 8.5 -7t-14 -14t-22 -16.5t-15.5 -14.5q-5 1 -4.5 3.5t2.5 5.5t5.5 5.5t5.5 2.5q-3 10 -6.5 7.5t-11.5 -3.5q13 19 30 26q-7 7 -12 5t-9.5 -7l-9 -10t-11.5 -5q1 -1 3 -4.5t3.5 -6.5t3 -4.5t2.5 2.5q0 -7 -5 -11t-12.5 -7t-15.5 -6.5t-14 -10.5q-8 -1 -11 3.5t-7 9.5
q-10 -15 -20 -10t-26 23q-10 -6 -16.5 -15t-19.5 -11q4 6 7.5 9t6 5.5t4 7t0.5 13.5q-3 -6 -5.5 -6.5t-4.5 1t-5 4.5t-7 5q6 -1 13 2t14.5 7t14.5 6t14 -1q-3 -5 -7 -8t-5 -10q8 4 16.5 7t13.5 11q-2 4 -4.5 3.5t-5.5 -2t-6 -2t-6 4.5q14 8 28.5 19.5t27.5 11.5
q-5 5 -10.5 4.5t-10.5 -3.5t-10.5 -6t-11.5 -3q39 37 72 90t49 104q-23 15 -51.5 19t-56 -1.5t-51 -18t-36.5 -30.5q2 5 6 9t3 12q-3 -1 -4.5 -4t-3 -5.5t-3.5 -3t-6 3.5q2 -6 5.5 -10t2.5 -12q-10 -12 -23 -28.5t-24 -36.5t-17 -45t0 -53q3 -2 7 -4t7 -4.5t3.5 -5.5
t-4.5 -8q3 3 7 3.5t6 5.5q7 -18 24 -21t32 -5q-1 -9 -4 -10.5t-6.5 0t-7.5 3t-8 -1.5q1 1 4.5 -1.5t7.5 -4.5t8 -1.5t6 7.5q4 -5 2.5 -9t-6 -6t-10 -1t-8.5 7q6 -10 10.5 -12.5t-6.5 -4.5q7 -7 13.5 -7t11.5 2.5t9.5 4.5t9.5 0q-8 -10 -3.5 -9.5t13.5 3t18.5 3.5t10.5 -6
q1 5 4 7.5t8 9.5q-2 -11 2.5 -11.5t24.5 3.5q-19 -9 -38 -12t-39 -2t-40.5 4t-42.5 5q6 6 2 10t-10 8t-10 7.5t1 9.5q-4 1 -6.5 -0.5t-4 -2.5t-2 0t-0.5 8q-3 -6 -6 -7t-6 -0.5t-6 0.5t-4 -6q1 -5 4 -2t9 2q-3 -9 -7 -9t-7.5 3t-6 6t-1.5 0q-3 -1 -4 2t-0.5 6t2.5 5t6 0
q-4 4 -7 6.5t7 5.5q-2 4 -4.5 3t-5 -5t-4.5 -8.5t-3 -6.5q-8 9 -8 20.5t1.5 23t2.5 23t-4 22.5q0 4 2.5 3t1.5 -3q10 48 35.5 95t65.5 79.5t94 45t120 -8.5zM82 11q-12 3 -4 12q-5 3 -9 7.5t-8 6.5t-9 0.5t-12 -9.5q8 -2 13 -7.5t12 -9.5q2 7 0 10t-5 4.5t-5.5 3.5t-2.5 8
q7 -2 11 -7t7 -10t5 -8t7 -1zM-17 76q9 0 9.5 3t7.5 -3q0 4 -4.5 10t-9 11t-7.5 7t0 -1q6 -8 5.5 -11t-1.5 -16zM4 126q-3 -5 -4 -11.5t-4 -11.5q6 -3 9.5 -0.5t4 7.5t-1 10t-4.5 6zM9 130q-2 5 -0.5 6.5t4.5 2t5 2t0 6.5q-8 1 -11 0.5t-4 -2t-1 -4t-2 -3.5q-3 0 -5 2.5
t-4 -2.5q7 0 8 -5.5t10 -2.5zM255 165q-5 0 -4 4q33 37 47 89q-8 -15 -15.5 -25l-15 -20t-14 -21t-11.5 -27q6 2 8.5 -1.5t4.5 1.5zM276 138q2 8 3 12.5t-11 4.5q2 -5 1 -7t-3 -3.5t-4 -2.5t-2 -4h16zM316 130q-5 -1 -8 0.5t-6 3.5q1 -3 1 -7.5t-0.5 -8.5t0 -7t4.5 -3
q-1 5 0.5 7t4 3.5t4 4t0.5 7.5zM341 151q0 -18 -8 -25q1 13 -13 12q-1 -8 1 -9.5t4 -2t4.5 -2t3.5 -8.5q6 0 11.5 5t8 11.5t0 12.5t-11.5 6zM359 161q11 7 15 10t3 3t-6 -1.5t-12 -3.5q10 -2 11.5 5t5.5 12q-11 1 -17.5 -3.5t4.5 -9.5h-13q0 13 5 19q-5 1 -9 -2t-6.5 -6.5
t-2.5 -8t4 -6.5q4 9 10 2.5t8 -10.5zM385 182q4 8 5 17t7 14q-7 1 -10 -2t-3.5 -7t-1 -7.5t-2.5 -4.5q-3 1 -4.5 4.5t-1.5 6.5t-0.5 4t-2.5 -2q-5 0 -4 -4q8 -1 8.5 -9.5t9.5 -9.5z" />
    <glyph glyph-name="ntilde" unicode="&#xf1;" horiz-adv-x="498" 
d="M310 270q-37 -17 -71 -44t-67.5 -57t-66 -59t-66.5 -48q-15 12 -33.5 22.5t-26.5 28.5q5 -11 -5 -12t-27 7q-2 15 1.5 31.5t11.5 31t19 26.5t25 19q0 4 -4 4t-6 1q10 9 18.5 22.5t16.5 27t16.5 24t19.5 13.5q0 13 6.5 23.5t14.5 19t14 16.5t5 17q9 1 21.5 -0.5t25 -5.5
t23.5 -9t18 -11q2 -21 -5 -33.5t-11 -28.5q13 6 30 14t35.5 17l37 18t35.5 17q42 2 65.5 -2.5t41.5 -26.5q2 -32 -7.5 -59t-21.5 -52.5t-22 -52t-10 -56.5q23 10 41 22.5t34.5 25.5t34 26t38.5 24q-2 -13 -2.5 -21.5t-3 -14.5t-8.5 -11.5t-20 -12.5q-11 -14 -22 -23
t-21.5 -16t-19.5 -14t-15 -17q-11 0 -15.5 -1t-15.5 -1q-2 7 -2 8.5t-1.5 0.5t-5.5 -1.5t-12 1.5q-31 7 -44 25.5t-14.5 44t6 55t17.5 57.5zM400 477q-5 -2 -5 -3.5t1.5 -4l3 -5t0.5 -6.5q-9 -14 -25 -20t-33.5 -6t-34 6.5t-28 18t-15 28t5.5 37.5q-15 -7 -26 -23.5
t-22.5 -31.5t-26.5 -22.5t-37 2.5q13 17 28 41.5t35 44t46.5 29t63.5 -3.5q12 -23 11.5 -45t-0.5 -52q20 8 32 24.5t15 36.5q12 -1 17 -2.5t16 -5.5q2 -13 -6 -24t-13 -24q-6 2 -4.5 4t1.5 7zM412 491q0 8 1 12.5t-1 7.5q-6 -7 -8 -12t-4 -13q4 1 5 3.5t1 5.5t0.5 6t5.5 5
q0 -6 -4.5 -9t4.5 -6z" />
    <glyph glyph-name="ograve" unicode="&#xf2;" horiz-adv-x="430" 
d="M83 343q2 2 8 2.5t13 0t12.5 -3t7.5 -6.5q15 23 39.5 31.5t54 8.5t62 -6.5t63.5 -13.5q3 -11 6.5 -22t5.5 -22.5t1.5 -22.5t-5.5 -20q12 -3 28 -3.5t33 -0.5t33 -1.5t28 -7.5q-2 -11 0.5 -16t5.5 -13q-33 -5 -65.5 -3.5t-81.5 3.5q-11 -21 -26 -46.5t-33 -49.5t-39.5 -44
t-43.5 -31q-7 -17 -36 -32.5t-71 -13.5q-25 17 -56 29.5t-57 29.5q-13 40 -5 77.5t27.5 72t44.5 66t46 58.5zM225 231q-28 3 -47.5 12.5t-44.5 16.5q-9 -21 -20.5 -42.5t-21.5 -44t-18 -45t-11 -43.5q52 28 90 66t73 80zM276 281q1 11 6.5 17.5t4.5 19.5q-15 12 -33.5 13.5
t-35.5 -3.5t-31.5 -16t-21.5 -23q9 -5 22 -6.5t28 -1.5h30.5h30.5zM166 493q25 12 49 8.5t45.5 -14.5t40 -26.5t34.5 -25.5q-19 -6 -40 0t-43 17.5t-43.5 23.5t-42.5 17z" />
    <glyph glyph-name="oacute" unicode="&#xf3;" horiz-adv-x="430" 
d="M83 343q2 2 8 2.5t13 0t12.5 -3t7.5 -6.5q15 23 39.5 31.5t54 8.5t62 -6.5t63.5 -13.5q3 -11 6.5 -22t5.5 -22.5t1.5 -22.5t-5.5 -20q12 -3 28 -3.5t33 -0.5t33 -1.5t28 -7.5q-2 -11 0.5 -16t5.5 -13q-33 -5 -65.5 -3.5t-81.5 3.5q-11 -21 -26 -46.5t-33 -49.5t-39.5 -44
t-43.5 -31q-7 -17 -36 -32.5t-71 -13.5q-25 17 -56 29.5t-57 29.5q-13 40 -5 77.5t27.5 72t44.5 66t46 58.5zM225 231q-28 3 -47.5 12.5t-44.5 16.5q-9 -21 -20.5 -42.5t-21.5 -44t-18 -45t-11 -43.5q52 28 90 66t73 80zM276 281q1 11 6.5 17.5t4.5 19.5q-15 12 -33.5 13.5
t-35.5 -3.5t-31.5 -16t-21.5 -23q9 -5 22 -6.5t28 -1.5h30.5h30.5zM191 444q19 14 35.5 33t35.5 36t41.5 27.5t52.5 6.5q-7 -22 -21.5 -36.5t-32 -26l-35 -23t-29.5 -27.5q-16 -3 -24.5 2.5t-22.5 7.5z" />
    <glyph glyph-name="ocircumflex" unicode="&#xf4;" horiz-adv-x="430" 
d="M83 343q2 2 8 2.5t13 0t12.5 -3t7.5 -6.5q15 23 39.5 31.5t54 8.5t62 -6.5t63.5 -13.5q3 -11 6.5 -22t5.5 -22.5t1.5 -22.5t-5.5 -20q12 -3 28 -3.5t33 -0.5t33 -1.5t28 -7.5q-2 -11 0.5 -16t5.5 -13q-33 -5 -65.5 -3.5t-81.5 3.5q-11 -21 -26 -46.5t-33 -49.5t-39.5 -44
t-43.5 -31q-7 -17 -36 -32.5t-71 -13.5q-25 17 -56 29.5t-57 29.5q-13 40 -5 77.5t27.5 72t44.5 66t46 58.5zM225 231q-28 3 -47.5 12.5t-44.5 16.5q-9 -21 -20.5 -42.5t-21.5 -44t-18 -45t-11 -43.5q52 28 90 66t73 80zM276 281q1 11 6.5 17.5t4.5 19.5q-15 12 -33.5 13.5
t-35.5 -3.5t-31.5 -16t-21.5 -23q9 -5 22 -6.5t28 -1.5h30.5h30.5zM139 451q20 16 40 38t42.5 40.5t48 29.5t55.5 6q5 -12 10.5 -27.5t9.5 -31.5t7 -31t4 -24h-43q-7 15 -18 27t-12 34q-13 -14 -28.5 -30.5t-34 -28t-39 -14.5t-42.5 12z" />
    <glyph glyph-name="otilde" unicode="&#xf5;" horiz-adv-x="430" 
d="M83 343q2 2 8 2.5t13 0t12.5 -3t7.5 -6.5q15 23 39.5 31.5t54 8.5t62 -6.5t63.5 -13.5q3 -11 6.5 -22t5.5 -22.5t1.5 -22.5t-5.5 -20q12 -3 28 -3.5t33 -0.5t33 -1.5t28 -7.5q-2 -11 0.5 -16t5.5 -13q-33 -5 -65.5 -3.5t-81.5 3.5q-11 -21 -26 -46.5t-33 -49.5t-39.5 -44
t-43.5 -31q-7 -17 -36 -32.5t-71 -13.5q-25 17 -56 29.5t-57 29.5q-13 40 -5 77.5t27.5 72t44.5 66t46 58.5zM225 231q-28 3 -47.5 12.5t-44.5 16.5q-9 -21 -20.5 -42.5t-21.5 -44t-18 -45t-11 -43.5q52 28 90 66t73 80zM276 281q1 11 6.5 17.5t4.5 19.5q-15 12 -33.5 13.5
t-35.5 -3.5t-31.5 -16t-21.5 -23q9 -5 22 -6.5t28 -1.5h30.5h30.5zM356 484q-5 -2 -5 -3.5t1.5 -4l3 -5t0.5 -6.5q-9 -14 -25 -20t-33.5 -6t-34 6.5t-28 18t-15 28t5.5 37.5q-15 -7 -26 -23.5t-22.5 -31.5t-26.5 -22.5t-37 2.5q13 17 28 41.5t35 44t46.5 29t63.5 -3.5
q12 -23 11.5 -45t-0.5 -52q20 8 32 24.5t15 36.5q12 -1 17 -2.5t16 -5.5q2 -13 -6 -24t-13 -24q-6 2 -4.5 4t1.5 7zM368 498q0 8 1 12.5t-1 7.5q-6 -7 -8 -12t-4 -13q4 1 5 3.5t1 5.5t0.5 6t5.5 5q0 -6 -4.5 -9t4.5 -6z" />
    <glyph glyph-name="odieresis" unicode="&#xf6;" horiz-adv-x="430" 
d="M83 343q2 2 8 2.5t13 0t12.5 -3t7.5 -6.5q15 23 39.5 31.5t54 8.5t62 -6.5t63.5 -13.5q3 -11 6.5 -22t5.5 -22.5t1.5 -22.5t-5.5 -20q12 -3 28 -3.5t33 -0.5t33 -1.5t28 -7.5q-2 -11 0.5 -16t5.5 -13q-33 -5 -65.5 -3.5t-81.5 3.5q-11 -21 -26 -46.5t-33 -49.5t-39.5 -44
t-43.5 -31q-7 -17 -36 -32.5t-71 -13.5q-25 17 -56 29.5t-57 29.5q-13 40 -5 77.5t27.5 72t44.5 66t46 58.5zM225 231q-28 3 -47.5 12.5t-44.5 16.5q-9 -21 -20.5 -42.5t-21.5 -44t-18 -45t-11 -43.5q52 28 90 66t73 80zM276 281q1 11 6.5 17.5t4.5 19.5q-15 12 -33.5 13.5
t-35.5 -3.5t-31.5 -16t-21.5 -23q9 -5 22 -6.5t28 -1.5h30.5h30.5zM182 530q13 1 22 3.5t17.5 4t18 1t23.5 -4.5q2 -23 1 -36.5t-7 -21t-19 -11.5t-35 -7q-11 10 -15.5 16.5t-5 13.5t0 16.5t-0.5 25.5zM286 530q13 1 22 3.5t17.5 4t18 1t23.5 -4.5q2 -23 1 -36.5t-7 -21
t-19 -11.5t-35 -7q-11 10 -15.5 16.5t-5 13.5t0 16.5t-0.5 25.5z" />
    <glyph glyph-name="divide" unicode="&#xf7;" horiz-adv-x="370" 
d="M134 422q23 8 44.5 7.5t42.5 -12.5q-17 -14 -35.5 -26.5t-41.5 -19.5q-3 13 -5.5 25t-4.5 26zM107 216q7 1 20 5.5t27 5.5t27 -3.5t20 -19.5q-26 -4 -44 -17t-40 -22q-5 9 -6 23.5t-4 27.5zM15 277q27 21 62 28.5t74 8.5t79.5 -2t78.5 -4q-27 -24 -62.5 -31t-75.5 -6
t-80 5t-76 1z" />
    <glyph glyph-name="oslash" unicode="&#xf8;" horiz-adv-x="430" 
d="M63 21q-1 -5 -3.5 -5.5t-3.5 -2.5q0 -3 1.5 -2.5t3 2t2 1.5t-0.5 -4q3 2 1.5 5t-0.5 7l-5 3q-5 -5 -7 -14t-4 -6q-1 -2 0 -3t2 -1.5t1 -2.5t-1 -6q-2 0 -1 2t0 4q-6 -8 -10.5 -8t-6.5 5t-1 13.5t7 19.5q0 -8 -0.5 -17t4.5 -11q-2 5 -0.5 9t-0.5 9q1 3 1.5 2.5l1 -1
t1 -0.5t0.5 4q2 -4 0 -9.5t-1 -8.5q2 1 2.5 2.5t2.5 2.5q-2 0 -2 1.5t1 4.5t2.5 6.5t1.5 5.5q-20 10 -41 19.5t-40 21.5q-13 40 -5 77.5t27.5 72t44.5 66t46 58.5q2 2 8 2.5t13 0t12.5 -3t7.5 -6.5q18 27 49.5 34.5t68.5 3.5l28 45q5 1 10.5 1t9 -3t3 -11t-6.5 -22
q-2 -4 -3.5 -7.5t-3.5 -7.5l32 -6t32 -7q3 -11 6.5 -22t5.5 -22.5t1.5 -22.5t-5.5 -20q12 -3 28 -3.5t33 -0.5t33 -1.5t28 -7.5q-2 -11 0.5 -16t5.5 -13q-33 -5 -65.5 -3.5t-81.5 3.5q-11 -21 -26 -46.5t-33 -49.5t-39.5 -44t-43.5 -31q-7 -17 -36 -32.5t-71 -13.5l-10 6
l-3 -8h-8v-5.5t-1.5 -0.5h-3t-4.5 -4q-4 4 -1 14t11 9zM133 260q-9 -21 -20.5 -42.5t-21.5 -44t-18 -45t-11 -43.5q8 5 16 9.5t16 9.5q11 16 20 31.5t14 36.5q-5 -7 -6 -11t-3 -13q-3 -1 -5.5 -5l-5 -8t-4.5 -7t-5 -2q8 11 12.5 19t9.5 19q0 3 -0.5 2l-1.5 -3t-2.5 -4
t-2.5 0q11 17 24.5 35.5t19.5 35.5q-8 -5 -13 -14.5t-14 -15.5l33 49q-8 3 -15.5 6t-15.5 5zM276 281q1 11 6.5 17.5t4.5 19.5q-12 9 -27 12q-6 -11 -14 -23.5t-16 -25.5h46zM225 231q-14 2 -24 4q-1 -1 -1 -2.5t-1 -2.5q-5 -7 -6 -14t-6 -15q-6 -11 -16 -23t-13 -14
q-1 -2 -0.5 -4t-0.5 -4q18 18 34.5 36.5t33.5 38.5zM165 289q9 -5 21 -6l27 43q-33 -13 -48 -37zM127 129q-2 0 -3 3q1 3 3.5 3t4.5 5q-5 0 -6.5 -1.5t-3.5 1.5l-3 -10l2 3q-2 -8 -6 -14zM65 10q2 -1 6 7l-2 2q-2 -3 -4 -9zM137 137q0 3 1 5v1l-7 -11q4 4 6 5zM93 96v1
l-3 -3v-2zM151 153v-3q0 2 2 2q-1 0 -2 1zM101 94h-2q0 -2 2 0z" />
    </font>
</defs>
</svg>
