<svg width="70" height="70" viewBox="0 0 70 70" fill="none" xmlns="http://www.w3.org/2000/svg">
<path d="M56.8662 23.3013L35 44.6163L13.1337 23.3013C12.7431 22.9197 12.2186 22.706 11.6725 22.706C11.1264 22.706 10.6019 22.9197 10.2112 23.3013C10.0221 23.4866 9.8718 23.7078 9.76921 23.952C9.66661 24.1961 9.61377 24.4583 9.61377 24.7231C9.61377 24.988 9.66661 25.2501 9.76921 25.4943C9.8718 25.7384 10.0221 25.9597 10.2112 26.145L33.4731 48.825C33.8816 49.2232 34.4295 49.446 35 49.446C35.5705 49.446 36.1184 49.2232 36.5269 48.825L59.7887 26.1494C59.9793 25.9639 60.1307 25.7421 60.2341 25.4972C60.3374 25.2522 60.3907 24.989 60.3907 24.7231C60.3907 24.4572 60.3374 24.194 60.2341 23.9491C60.1307 23.7041 59.9793 23.4824 59.7887 23.2969C59.3981 22.9153 58.8736 22.7016 58.3275 22.7016C57.7814 22.7016 57.2569 22.9153 56.8662 23.2969V23.3013Z" fill="white"/>
</svg>
