<svg width="60" height="60" viewBox="0 0 60 60" fill="none" xmlns="http://www.w3.org/2000/svg">
<path d="M19.8487 53.865C19.1457 53.1618 18.7507 52.2081 18.7507 51.2138C18.7507 50.2194 19.1457 49.2657 19.8487 48.5625L38.4112 30L19.8487 11.4375C19.1656 10.7302 18.7876 9.78298 18.7962 8.79974C18.8047 7.81651 19.1991 6.87596 19.8944 6.18068C20.5897 5.4854 21.5302 5.09102 22.5134 5.08247C23.4967 5.07393 24.4439 5.45191 25.1512 6.135L46.3649 27.3488C47.068 28.052 47.4629 29.0056 47.4629 30C47.4629 30.9944 47.068 31.948 46.3649 32.6513L25.1512 53.865C24.448 54.568 23.4943 54.963 22.4999 54.963C21.5056 54.963 20.5519 54.568 19.8487 53.865Z" fill="black"/>
</svg>
