<svg width="60" height="60" viewBox="0 0 60 60" fill="none" xmlns="http://www.w3.org/2000/svg">
<path d="M40.1513 6.135C40.8543 6.83823 41.2493 7.79188 41.2493 8.78625C41.2493 9.78061 40.8543 10.7343 40.1513 11.4375L21.5888 30L40.1513 48.5625C40.8344 49.2698 41.2124 50.217 41.2038 51.2003C41.1953 52.1835 40.8009 53.124 40.1056 53.8193C39.4103 54.5146 38.4698 54.909 37.4866 54.9175C36.5033 54.9261 35.5561 54.5481 34.8488 53.865L13.6351 32.6512C12.932 31.948 12.5371 30.9944 12.5371 30C12.5371 29.0056 12.932 28.052 13.6351 27.3487L34.8488 6.135C35.552 5.43198 36.5057 5.03705 37.5001 5.03705C38.4944 5.03705 39.4481 5.43198 40.1513 6.135Z" fill="black"/>
</svg>
