<svg width="75" height="70" viewBox="0 0 75 70" fill="none" xmlns="http://www.w3.org/2000/svg">
<path d="M15.7143 62.7835C20.4481 62.7835 24.2857 58.9064 24.2857 54.1237C24.2857 49.341 20.4481 45.4639 15.7143 45.4639C10.9804 45.4639 7.14282 49.341 7.14282 54.1237C7.14282 58.9064 10.9804 62.7835 15.7143 62.7835Z" stroke="white" stroke-width="2"/>
<path d="M22.6786 54.3943C22.6798 56.1543 22.0258 57.8504 20.8465 59.1457C20.6282 59.3859 20.2491 59.1058 20.4159 58.8271C21.0213 57.8167 21.3407 56.6579 21.3393 55.4768C21.3376 54.0419 20.7726 52.6663 19.7683 51.6516C18.7641 50.6371 17.4025 50.0662 15.9822 50.0644C14.8459 50.0657 13.7566 50.5222 12.9531 51.334C12.1496 52.1457 11.6977 53.2463 11.6965 54.3943C11.6973 55.2553 12.0363 56.0808 12.6389 56.6896C13.2415 57.2985 14.0586 57.6409 14.9108 57.6418C15.4791 57.6418 16.0241 57.4136 16.426 57.0076C16.8278 56.6016 17.0536 56.051 17.0536 55.4768C17.0546 55.4583 17.0546 55.4398 17.0536 55.4213C17.0401 55.1516 16.9273 54.8967 16.7374 54.7067C16.5475 54.5167 16.2941 54.4053 16.0271 54.3943C15.8851 54.386 15.7453 54.4334 15.6371 54.5267C15.5289 54.62 15.4606 54.752 15.4465 54.8949C15.4409 54.9694 15.4507 55.0442 15.4751 55.1146C15.4996 55.185 15.5381 55.2496 15.5884 55.3042C15.6388 55.3588 15.6997 55.4024 15.7675 55.4321C15.8352 55.4618 15.9083 55.477 15.9822 55.4768C15.9822 55.7639 15.8693 56.0393 15.6683 56.2423C15.4674 56.4453 15.1949 56.5593 14.9108 56.5593C14.3424 56.5593 13.7974 56.3312 13.3956 55.9252C12.9937 55.5192 12.7679 54.9685 12.7679 54.3943C12.7688 53.5333 13.1077 52.7078 13.7103 52.0991C14.3129 51.4902 15.13 51.1478 15.9822 51.1469C17.1185 51.1481 18.2078 51.6047 19.0113 52.4165C19.8148 53.2282 20.2667 54.3288 20.2679 55.4768C20.2661 56.9117 19.7011 58.2873 18.6969 59.302C17.6926 60.3165 16.3311 60.8874 14.9108 60.8892C9.9447 60.8892 8.69848 56.2514 8.75005 54.2043C8.85048 50.4521 11.8933 47.415 15.6078 47.3582C16.5311 47.345 17.4476 47.5173 18.3044 47.8649C19.1612 48.2125 19.9411 48.7285 20.5989 49.3831C21.2567 50.0377 21.7793 50.8177 22.1363 51.678C22.4933 52.5382 22.6776 53.4615 22.6786 54.3943Z" fill="#B8DD55"/>
<path d="M19.408 67.5716L63.3445 1.76138" stroke="white" stroke-width="2"/>
<path d="M2.52173 49.1567L71.8963 11.8893" stroke="white" stroke-width="2"/>
</svg>
